<svg xmlns="http://www.w3.org/2000/svg" xmlns:xlink="http://www.w3.org/1999/xlink" xmlns:inkscape="http://www.inkscape.org/namespaces/inkscape" version="1.1" width="595" height="842" viewBox="0 0 595 842">
<defs>
<clipPath id="clip_1">
<path transform="matrix(1,0,0,-1,0,842)" d="M0 842H595V0H0Z"/>
</clipPath>
<clipPath id="clip_2">
<path transform="matrix(1,0,0,-1,0,842)" d="M0 14.9801H595V827.02H0Z"/>
</clipPath>
<clipPath id="clip_3">
<path transform="matrix(1,0,0,-1,0,842)" d="M0 14.98H595V827.019H0Z"/>
</clipPath>
<path id="font_4_10" d="M.032913209 .20207215C.049423219 .0763855 .14160156-.009765625 .3166046-.009765625 .49884034-.009765625 .59410098 .07658386 .59410098 .20248413 .59410098 .29968263 .5501251 .37428285 .34960938 .42152406 .23822022 .44735719 .2089386 .46679688 .2089386 .51474 .2089386 .5636902 .24545288 .5886841 .30595399 .5886841 .39483644 .5886841 .41830445 .5426178 .42549134 .5001831H.57569888C.56581118 .60102847 .4928894 .6994324 .30984498 .6994324 .14663697 .6994324 .056747438 .61782839 .056747438 .4976654 .056747438 .4045868 .103134158 .33633424 .29075624 .29229737 .4086609 .26486207 .44189454 .24050904 .44189454 .1843872 .44189454 .13392639 .40786744 .102493289 .3282776 .102493289 .24848938 .102493289 .19882202 .13284302 .18310547 .20207215H.032913209Z"/>
<path id="font_4_9" d="M.5565338 .29733277V.41952516H.2268219V.5672455H.5710144V.6894226H.08215332V0H.57284548L.5905304 .122177127H.2268219V.29733277H.5565338Z"/>
<path id="font_4_8" d="M.5174103 .21252442C.50442507 .17230225 .4737091 .10713196 .37643434 .10713196 .24320984 .10713196 .20202637 .22991944 .20202637 .34646607 .20202637 .4719391 .24949646 .58251956 .37243653 .58251956 .46614076 .58251956 .5031433 .52957156 .51753237 .47642518H.6666107C.649765 .59165957 .56077578 .6994324 .37719728 .6994324 .15470886 .6994324 .048065187 .5300751 .048065187 .34106446 .048065187 .14494324 .15142823-.009765625 .3700409-.009765625 .54267886-.009765625 .63964846 .08390808 .66737368 .21252442H.5174103Z"/>
<path id="font_4_7" d="M.21986389 0H.36906434V.5672455H.57777407V.6894226H.010391235V.5672455H.21986389V0Z"/>
<path id="font_4_6" d="M.38731385 .6994324C.17315674 .6994324 .048065187 .5453491 .048065187 .3447113 .048065187 .14723206 .16131592-.010009766 .3776703-.010009766 .601593-.010009766 .71681216 .15518189 .71681216 .34707643 .71681216 .5581207 .5890045 .6994324 .38731385 .6994324M.3809204 .578125C.5094147 .578125 .56285098 .47561646 .56285098 .34518434 .56285098 .22232056 .51589968 .11129761 .38331605 .11129761 .26109315 .11129761 .20202637 .2131195 .20202637 .3477173 .20202637 .48194886 .25637818 .578125 .3809204 .578125Z"/>
<path id="font_4_5" d="M.3258667 .27593995C.4369812 .27593995 .45602418 .2402649 .45602418 .16487122V.15480042C.45602418 .081588748 .45829774 .02999878 .47042848 0H.61169436C.6022186 .03227234 .60180667 .08506775 .60180667 .13142395V.16546631C.60180667 .2888794 .55029299 .32443238 .5161438 .33702088 .565979 .35754396 .616333 .4076233 .616333 .5001526 .616333 .6066284 .53541567 .6894226 .38508607 .6894226H.08215332V0H.22781372V.27593995H.3258667M.22781372 .57077029H.35635377C.42926026 .57077029 .4658966 .5393677 .4658966 .48330689 .4658966 .42562867 .43443299 .3945923 .35279847 .3945923H.22781372V.57077029Z"/>
<path id="font_4_4" d=""/>
<path id="font_4_3" d="M.04171753 0H.50712588L.52493289 .11941528H.2132721C.22447205 .14907837 .25706483 .18655396 .33821107 .24354553 .45933534 .32858277 .50057986 .37490846 .50057986 .4707489 .50057986 .5693054 .442688 .66999819 .27360536 .66999819 .122421268 .66999819 .04814148 .5753937 .03866577 .4618683H.17681885C.18589783 .5191345 .2091217 .558609 .27360536 .558609 .3289795 .558609 .35665895 .52653506 .35665895 .46951295 .35665895 .41203309 .328537 .3885498 .235672 .3206787 .0932312 .21691895 .04171753 .12373352 .04171753 .009155273V0Z"/>
<path id="font_4_2" d="M.17817688 .48886109C.18536377 .5214081 .20135498 .558609 .26811219 .558609 .3248291 .558609 .35169984 .5282135 .35169984 .48298646 .35169984 .4278717 .32518006 .40612794 .25952149 .40612794H.2073822V.29585267H.26663209C.3433838 .29585267 .37452699 .25914 .37452699 .19815064 .37452699 .14016724 .34197999 .09761047 .27563478 .09761047 .20780945 .09761047 .17681885 .13648987 .16786194 .18147278H.028701783C.03541565 .09436035 .09538269-.012008667 .27163697-.012008667 .46076966-.012008667 .5184479 .1006012 .5184479 .195755 .5184479 .2979126 .45411683 .3387146 .41140748 .35443116V.35731507C.44737245 .37394715 .49284364 .41166688 .49284364 .49090577 .49284364 .5837097 .4251709 .66999819 .27275086 .66999819 .10826111 .66999819 .051132204 .56987 .041900636 .48886109H.17817688Z"/>
<path id="font_4_1" d="M.46321107 0V.14790344H.52937319L.54252627 .26368714H.46321107V.6579895H.30734254L.032714845 .27261354V.14790344H.33033753V-.000015258789H.46321107V0M.33033753 .26368714H.15950012C.22140503 .35284425 .3070984 .47821046 .33322145 .5332489 .3304596 .49189759 .33033753 .45214845 .33033753 .3808136V.26368714Z"/>
<path id="font_5_29" d="M.55003359 .19726563C.52389529 .12966919 .47686769 .06819153 .3695984 .06819153 .2090149 .06819153 .1493988 .21203614 .1493988 .34857179 .1493988 .4893036 .21212769 .62882998 .3656006 .62882998 .47561646 .62882998 .5257721 .57167056 .5506897 .4958954H.6429291C.622406 .6121826 .5334015 .7057495 .36930848 .7057495 .15786743 .7057495 .05281067 .5348053 .05281067 .34580995 .05281067 .14915467 .15774536-.008712769 .36582948-.008712769 .5237427-.008712769 .6117554 .07917786 .64263918 .19726563H.55003359Z"/>
<path id="font_5_28" d="M.46427918 .20870972 .5414734 0H.63978579L.38134767 .69573977H.26776124L.019973755 0H.11180115L.18663025 .20870972H.46427918M.21058655 .28775025C.2640381 .44413758 .30477906 .5617676 .32177735 .6207886H.32278443C.33784486 .5677643 .3742981 .4705963 .4406128 .28775025H.21058655Z"/>
<path id="font_5_27" d="M.18309021 .6181183H.3447876C.43927003 .6181183 .48747254 .5762024 .48747254 .50224307 .48747254 .424057 .44075013 .38407899 .3343811 .38407899H.18309021V.6181183M.3253479 .30645753C.45013429 .30645753 .4781189 .26341249 .4781189 .16435242V.14953614C.4781189 .084228519 .47724916 .02999878 .48988343 0H.57958987C.5680084 .02911377 .5702362 .08979797 .5702362 .13774109V.16757202C.5702362 .28834535 .52082827 .3307495 .4640503 .34597779 .53071597 .36439515 .58265689 .4192047 .58265689 .50961306 .58265689 .61820986 .5064697 .69573977 .36351014 .69573977H.09161377V0H.18309021V.30645753H.3253479Z"/>
<path id="font_5_26" d="M.09161377 0H.18450928V.2858734H.35020448C.48620606 .2858734 .5838318 .3577423 .5838318 .4933014 .5838318 .6201477 .4912262 .69573977 .35578919 .69573977H.09161377V0M.18450928 .36349488V.6181183H.34928895C.43089295 .6181183 .48864747 .5757446 .48864747 .49095155 .48864747 .41003419 .44093324 .36349488 .3456421 .36349488H.18450928Z"/>
<path id="font_5_25" d="M.09161377 .69573977V0H.18386841V.69573977H.09161377Z"/>
<path id="font_5_24" d="M.17919922 0V.27861024C.17919922 .40419007 .17913819 .52212527 .1741333 .6013794H.17549134C.21911621 .5233154 .44548036 .15101624 .5374298-.000015258789H.65216067V.69573977H.56492617V.42407228C.56492617 .3104248 .5642853 .20069885 .57099917 .11138916H.5696411C.5305939 .18702698 .31355287 .53305056 .21376038 .69573977H.09161377V-.000015258789H.17919922V0Z"/>
<path id="font_5_23" d="M.23249817 0H.32537843V.6166992H.55041506V.69573977H.0077667238V.6166992H.23249817V0Z"/>
<path id="font_5_22" d="M.52812197 .32522584V.40426637H.18209839V.6166992H.544693V.69573977H.09161377V0H.5502167L.56211856 .07902527H.18209839V.32522584H.52812197Z"/>
<path id="font_5_21" d="M.09161377 .69573977V0H.18386841V.69573977H.09161377M.23736573 .8953247 .09010315 .75761416H.18113709L.3526764 .8953247H.23736573Z"/>
<path id="font_5_20" d="M.37994386 .7057495C.16946411 .7057495 .05281067 .54693606 .05281067 .34786988 .05281067 .14828491 .167099-.010009766 .3718872-.010009766 .5910797-.010009766 .6983948 .16044617 .6983948 .35180665 .6983948 .5586395 .57585147 .7057495 .37994386 .7057495M.37617494 .62705996C.5288849 .62705996 .6017914 .50035098 .6017914 .3504486 .6017914 .20179749 .5374756 .06867981 .37594605 .06867981 .22636414 .06867981 .1493988 .20048523 .1493988 .35087586 .1493988 .49931336 .2184906 .62705996 .37617494 .62705996Z"/>
<path id="font_5_19" d=""/>
<path id="font_5_18" d="M.085494998 .69573977V.27529908C.085494998 .061325075 .21116638-.008712769 .35624696-.008712769 .5040741-.008712769 .6289215 .05609131 .6289215 .28182984V.69573977H.53604128V.27705384C.53604128 .11613464 .4624939 .06819153 .35824586 .06819153 .26916505 .06819153 .17903137 .11265564 .17903137 .27705384V.69573977H.085494998Z"/>
<path id="font_5_17" d="M.09161377 0H.3651123C.49702455 0 .5970764 .07261658 .5970764 .20376587 .5970764 .30596925 .52293398 .35498048 .47434999 .37039186 .5277405 .3885193 .5742035 .44110108 .5742035 .52197268 .5742035 .6183777 .5057373 .69573977 .35864259 .69573977H.09161377V0M.18215943 .3302307H.3363495C.45361329 .3302307 .502121 .27949525 .502121 .20394898 .502121 .11723328 .44140626 .07620239 .35401917 .07620239H.18215943V.3302307M.18215943 .4064331V.61953738H.35525514C.43696595 .61953738 .4810791 .5755768 .4810791 .5140228 .4810791 .44612123 .44180299 .4064331 .34098817 .4064331H.18215943Z"/>
<path id="font_5_16" d="M.09161377 0H.18244934V.31192018H.51634219V.39094544H.18244934V.6166992H.53863528V.69573977H.09161377V0Z"/>
<path id="font_5_15" d="M.09161377 0H.53393557L.5467682 .07902527H.18386841V.69573977H.09161377V0Z"/>
<path id="font_5_14" d="M.17643738 0H.2659607V.66122439H.19960022C.15455628 .61828616 .090911868 .58070376 .040115358 .5671234V.4960327C.0766449 .5025635 .1438446 .52993777 .17643738 .55355837V0Z"/>
<path id="font_5_13" d="M.4813385 0 .49388124 .077316287H.14854431C.16500855 .1275177 .2133789 .18023682 .3040161 .25039674 .42565919 .3443756 .46794129 .3833313 .46794129 .48284913 .46794129 .57510378 .41059876 .66999819 .26307679 .66999819 .1287384 .66999819 .057617189 .585907 .046035768 .4744873H.13209534C.14590454 .5549164 .18334961 .5964966 .26307679 .5964966 .34213258 .5964966 .377182 .5465393 .377182 .4805603 .377182 .40782167 .34854127 .38224793 .24304199 .30174256 .107437137 .19903565 .04486084 .10057068 .04486084 .0054779055V-.000015258789H.4813385V0Z"/>
<path id="font_5_12" d="M.4290161 0V.16947937H.5046387L.5141144 .24473572H.4290161V.6579895H.33522035L.035873414 .24893189V.16947937H.3450775V0H.4290161M.3450775 .41081239V.24473572H.12213135C.19247437 .34336854 .32078553 .51872256 .34742738 .5695648 .34571839 .5266266 .3450775 .46162416 .3450775 .41081239Z"/>
<path id="font_5_11" d="M.47966004 .6579895H.119384769C.109680179 .5750427 .08454895 .38708497 .064971927 .3008423L.14685059 .28578187C.17018128 .33857728 .2028656 .37197877 .2824707 .37197877 .3738556 .37197877 .40911866 .3069458 .40911866 .22192383 .40911866 .124572757 .36491395 .060775758 .2754364 .060775758 .20018006 .060775758 .15696717 .1048584 .14173889 .16494751H.052612306C.06985474 .05305481 .15493775-.012008667 .27243043-.012008667 .43182374-.012008667 .49923707 .10017395 .49923707 .22846985 .49923707 .36309815 .4214325 .44682313 .3010559 .44682313 .23413086 .44682313 .19102478 .42478944 .16316223 .39385987 .16973877 .42919923 .186203 .5287628 .19213867 .5817261H.4673462L.47966004 .6579895Z"/>
<path id="font_5_10" d="M.6557007 .37571717H.36990357V.29667665H.56581118V.2893982C.56581118 .17192078 .52708438 .06819153 .37120057 .06819153 .21400452 .06819153 .1493988 .20185852 .1493988 .3452301 .1493988 .49990846 .21347046 .62882998 .37501527 .62882998 .48851014 .62882998 .54441836 .57159426 .56803897 .4938507H.6602783C.6404114 .61824038 .53863528 .7057495 .37701417 .7057495 .16705323 .7057495 .05281067 .5491028 .05281067 .34080506 .05281067 .14286804 .15934754-.009429932 .3600006-.009429932 .48580934-.009429932 .5457611 .0448761 .5760803 .09428406 .57743838 .04434204 .58013918 .013305664 .5848541 0H.6557007V.37571717Z"/>
<path id="font_5_9" d="M.0413208 .19366455C.055740358 .08691406 .131073-.008712769 .30607606-.008712769 .4762268-.008712769 .55937197 .07922363 .55937197 .19143677 .55937197 .28074647 .52433779 .3579712 .32592774 .40626527 .20401001 .43579103 .16473389 .4615326 .16473389 .52685549 .16473389 .59317019 .21229553 .63131716 .29701234 .63131716 .3985138 .63131716 .4372406 .5804901 .44970704 .51860049H.54359439C.5342407 .6099701 .4660492 .7057495 .30036927 .7057495 .14505005 .7057495 .068847659 .621521 .068847659 .5181885 .068847659 .42036439 .12576294 .3642273 .28970338 .3243866 .42918397 .29063417 .46347047 .2515564 .46347047 .1817627 .46347047 .11602783 .4205017 .06513977 .31196595 .06513977 .21113587 .06513977 .15409851 .11021423 .13522339 .19366455H.0413208Z"/>
<path id="font_5_8" d="M.68629458 0H.77641299V.69573977H.6425781C.5608673 .4854126 .4467163 .1796112 .43037416 .1126709H.4287262C.4048462 .20123291 .30827333 .47982789 .22927857 .69573977H.09161377V0H.17855835V.27745057C.17855835 .39674378 .17619324 .5512543 .1708374 .63160708H.17390442C.2052002 .5128479 .32174684 .17807007 .38201905 0H.46476747C.54455569 .21887207 .6571655 .5174866 .6869354 .630249H.6906433C.6876373 .5570679 .68629458 .42570497 .68629458 .29649354V0Z"/>
<path id="font_5_7" d="M.17919922 0V.27861024C.17919922 .40419007 .17913819 .52212527 .1741333 .6013794H.17549134C.21911621 .5233154 .44548036 .15101624 .5374298-.000015258789H.65216067V.69573977H.56492617V.42407228C.56492617 .3104248 .5642853 .20069885 .57099917 .11138916H.5696411C.5305939 .18702698 .31355287 .53305056 .21376038 .69573977H.09161377V-.000015258789H.17919922V0M.26615907 .76626589V.7828522C.26615907 .80789187 .27774049 .8171234 .29496766 .8171234 .33659364 .8171234 .39924623 .76379397 .45646668 .76379397 .5097809 .76379397 .54203799 .7888489 .54203799 .8668213V.8876648H.4805603V.8764343C.4805603 .8426819 .46826173 .83309939 .44909669 .83309939 .41163636 .83309939 .34965516 .88549807 .2874756 .88549807 .23587036 .88549807 .20204163 .8604889 .20204163 .78811648V.76626589H.26615907Z"/>
<path id="font_5_6" d="M.14717102 0V.14776612H.055389406V0H.14717102Z"/>
<clipPath id="clip_6">
<path transform="matrix(1,0,0,-1,0,842)" d="M0 842H595V0H0Z"/>
</clipPath>
<clipPath id="clip_7">
<path transform="matrix(1,0,0,-1,0,842)" d="M473.565 198.764H521.821V246.238H473.565Z"/>
</clipPath>
<clipPath id="clip_8">
<path transform="matrix(1,0,0,-1,0,842)" d="M490.664 710.146H538.171V764.529H490.664Z"/>
</clipPath>
<path id="font_5_5" d="M.46427918 .20870972 .5414734 0H.63978579L.38134767 .69573977H.26776124L.019973755 0H.11180115L.18663025 .20870972H.46427918M.21058655 .28775025C.2640381 .44413758 .30477906 .5617676 .32177735 .6207886H.32278443C.33784486 .5677643 .3742981 .4705963 .4406128 .28775025H.21058655M.4235382 .8953247 .27626039 .75761416H.36730958L.5388489 .8953247H.4235382Z"/>
<path id="font_5_4" d="M.18386841 .6174164H.3302002C.500473 .6174164 .5715027 .49035646 .5715027 .35299684 .5715027 .1955719 .49360658 .078323367 .32984925 .078323367H.18386841V.6174164M.09161377 .69573977V0H.33714295C.53915408 0 .6680908 .14912415 .6680908 .3549347 .6680908 .5624542 .5357971 .69573977 .34025575 .69573977H.09161377Z"/>
<path id="font_5_3" d="M.37994386 .7057495C.16946411 .7057495 .05281067 .54693606 .05281067 .34786988 .05281067 .14828491 .167099-.010009766 .3718872-.010009766 .5910797-.010009766 .6983948 .16044617 .6983948 .35180665 .6983948 .5586395 .57585147 .7057495 .37994386 .7057495M.37617494 .62705996C.5288849 .62705996 .6017914 .50035098 .6017914 .3504486 .6017914 .20179749 .5374756 .06867981 .37594605 .06867981 .22636414 .06867981 .1493988 .20048523 .1493988 .35087586 .1493988 .49931336 .2184906 .62705996 .37617494 .62705996M.46746827 .9023895 .3202057 .76467898H.41123963L.58277896 .9023895H.46746827Z"/>
<path id="font_5_2" d="M.1481781 .50149539C.16062927 .5540314 .18978882 .5964966 .26864625 .5964966 .34165956 .5964966 .38116456 .5555725 .38116456 .49613954 .38116456 .4273529 .3435974 .39349366 .25741578 .39349366H.21791077V.32164H.26506043C.35391236 .32164 .40768434 .2817688 .40768434 .19447327 .40768434 .12332153 .36828614 .060775758 .27404786 .060775758 .18939209 .060775758 .14523316 .11228943 .13208008 .17042542H.045013429C.054885866 .08277893 .11906433-.012008667 .27005006-.012008667 .43341065-.012008667 .4984436 .09007263 .4984436 .19470215 .4984436 .29318238 .4414978 .34187318 .3824768 .3607483V.36309815C.42263795 .37815858 .47021485 .41903688 .47021485 .4993286 .47021485 .5868683 .4083252 .66999819 .271698 .66999819 .13140869 .66999819 .07376099 .582489 .06347656 .50149539H.1481781Z"/>
<path id="font_5_1" d="M.057510377 .29592896V.21647644H.32014466V.29592896H.057510377Z"/>
<clipPath id="clip_9">
<path transform="matrix(1,0,0,-1,0,842)" d="M0 842H595V0H0Z"/>
</clipPath>
</defs>
<g>
<g inkscape:groupmode="layer" inkscape:label="Capa 1">
<g clip-path="url(#clip_1)">
<g opacity=".479996">
<g clip-path="url(#clip_2)">
<g clip-path="url(#clip_3)">
</g>
</g>
</g>
</g>
</g>
<g inkscape:groupmode="layer" inkscape:label="Capa 2">
<path transform="matrix(1,0,0,-1,294.9268,91.01532)" d="M0 0-.212-155.128 201.946-149.667 199.914-236.651 241.819-235.889 251.724 19.73 23.002 16.239Z" fill="#ffec8d"/>
<path transform="matrix(1,0,0,-1,294.9268,91.01532)" d="M0 0-211.641-149.413-262.517-270.683-54.39-400.08 38.563-433.223 62.944-395.128H75.515V-510.937H44.658V-609.223H75.515V-705.604L229.039-702.556 236.658-393.985 242.118-237.794 200.214-238.556 202.245-149.667 .087-155.128Z" fill="#93e3ff"/>
<path transform="matrix(1,0,0,-1,325.5714,69.38098)" stroke-width="2" stroke-linecap="butt" stroke-miterlimit="10" stroke-linejoin="miter" fill="none" stroke="#000000" d="M0 0-1.634-1.153"/>
<path transform="matrix(1,0,0,-1,320.6689,72.84198)" stroke-width="2" stroke-linecap="butt" stroke-dasharray="4.001,4.001" stroke-miterlimit="10" stroke-linejoin="miter" fill="none" stroke="#000000" d="M0 0-237.383-167.587-242.189-178.047"/>
<path transform="matrix(1,0,0,-1,77.6445,252.70648)" stroke-width="2" stroke-linecap="butt" stroke-miterlimit="10" stroke-linejoin="miter" fill="none" stroke="#000000" d="M0 0-.835-1.817"/>
<path transform="matrix(1,0,0,-1,58.7778,298.3333)" stroke-width="2" stroke-linecap="butt" stroke-dasharray="4" stroke-miterlimit="10" stroke-linejoin="miter" fill="none" stroke="#000000" d="M0 0-26.667-61.46 181.46-190.857 274.413-224 296.508-187.429H303.365"/>
<use data-text="&#xfffd;" xlink:href="#font_4_10" transform="matrix(19.2215,0,0,-19.2215,417.584,44.641115)"/>
<use data-text="&#xfffd;" xlink:href="#font_4_9" transform="matrix(19.2215,0,0,-19.2215,429.5398,44.641115)"/>
<use data-text="&#xfffd;" xlink:href="#font_4_8" transform="matrix(19.2215,0,0,-19.2215,441.57246,44.641115)"/>
<use data-text="&#xfffd;" xlink:href="#font_4_7" transform="matrix(19.2215,0,0,-19.2215,455.2966,44.641115)"/>
<use data-text="&#xfffd;" xlink:href="#font_4_6" transform="matrix(19.2215,0,0,-19.2215,466.17597,44.641115)"/>
<use data-text="&#xfffd;" xlink:href="#font_4_5" transform="matrix(19.2215,0,0,-19.2215,480.8804,44.641115)"/>
<use data-text="&#xfffd;" xlink:href="#font_4_4" transform="matrix(19.2215,0,0,-19.2215,493.60505,44.641115)"/>
<use data-text="&#xfffd;" xlink:href="#font_4_3" transform="matrix(19.2215,0,0,-19.2215,498.25666,44.641115)"/>
<use data-text="&#xfffd;" xlink:href="#font_4_10" transform="matrix(19.2215,0,0,-19.2215,100.90979,321.29615)"/>
<use data-text="&#xfffd;" xlink:href="#font_4_9" transform="matrix(19.2215,0,0,-19.2215,112.86557,321.29615)"/>
<use data-text="&#xfffd;" xlink:href="#font_4_8" transform="matrix(19.2215,0,0,-19.2215,124.89823,321.29615)"/>
<use data-text="&#xfffd;" xlink:href="#font_4_7" transform="matrix(19.2215,0,0,-19.2215,138.62238,321.29615)"/>
<use data-text="&#xfffd;" xlink:href="#font_4_6" transform="matrix(19.2215,0,0,-19.2215,149.50176,321.29615)"/>
<use data-text="&#xfffd;" xlink:href="#font_4_5" transform="matrix(19.2215,0,0,-19.2215,164.2062,321.29615)"/>
<use data-text="&#xfffd;" xlink:href="#font_4_4" transform="matrix(19.2215,0,0,-19.2215,176.93085,321.29615)"/>
<use data-text="&#xfffd;" xlink:href="#font_4_2" transform="matrix(19.2215,0,0,-19.2215,181.58245,321.29615)"/>
<use data-text="&#xfffd;" xlink:href="#font_4_10" transform="matrix(19.2215,0,0,-19.2215,191.53917,652.69406)"/>
<use data-text="&#xfffd;" xlink:href="#font_4_9" transform="matrix(19.2215,0,0,-19.2215,203.49495,652.69406)"/>
<use data-text="&#xfffd;" xlink:href="#font_4_8" transform="matrix(19.2215,0,0,-19.2215,215.52762,652.69406)"/>
<use data-text="&#xfffd;" xlink:href="#font_4_7" transform="matrix(19.2215,0,0,-19.2215,229.25177,652.69406)"/>
<use data-text="&#xfffd;" xlink:href="#font_4_6" transform="matrix(19.2215,0,0,-19.2215,240.13115,652.69406)"/>
<use data-text="&#xfffd;" xlink:href="#font_4_5" transform="matrix(19.2215,0,0,-19.2215,254.8356,652.69406)"/>
<use data-text="&#xfffd;" xlink:href="#font_4_4" transform="matrix(19.2215,0,0,-19.2215,267.56025,652.69406)"/>
<use data-text="&#xfffd;" xlink:href="#font_4_1" transform="matrix(19.2215,0,0,-19.2215,272.21186,652.69406)"/>
<use data-text="&#xfffd;" xlink:href="#font_5_29" transform="matrix(11.0362,0,0,-11.0362,419.0439,127.92291)"/>
<use data-text="&#xfffd;" xlink:href="#font_5_28" transform="matrix(11.0362,0,0,-11.0362,426.58164,127.92291)"/>
<use data-text="&#xfffd;" xlink:href="#font_5_27" transform="matrix(11.0362,0,0,-11.0362,433.84349,127.92291)"/>
<use data-text="&#xfffd;" xlink:href="#font_5_26" transform="matrix(11.0362,0,0,-11.0362,440.9839,127.92291)"/>
<use data-text="&#xfffd;" xlink:href="#font_5_25" transform="matrix(11.0362,0,0,-11.0362,447.86054,127.92291)"/>
<use data-text="&#xfffd;" xlink:href="#font_5_24" transform="matrix(11.0362,0,0,-11.0362,450.9606,127.92291)"/>
<use data-text="&#xfffd;" xlink:href="#font_5_23" transform="matrix(11.0362,0,0,-11.0362,459.25984,127.92291)"/>
<use data-text="&#xfffd;" xlink:href="#font_5_22" transform="matrix(11.0362,0,0,-11.0362,465.41804,127.92291)"/>
<use data-text="&#xfffd;" xlink:href="#font_5_27" transform="matrix(11.0362,0,0,-11.0362,471.9956,127.92291)"/>
<use data-text="&#xfffd;" xlink:href="#font_5_21" transform="matrix(11.0362,0,0,-11.0362,479.13603,127.92291)"/>
<use data-text="&#xfffd;" xlink:href="#font_5_28" transform="matrix(11.0362,0,0,-11.0362,482.19306,127.92291)"/>
<use data-text="&#xfffd;" xlink:href="#font_5_26" transform="matrix(11.0362,0,0,-11.0362,403.10765,213.02307)"/>
<use data-text="&#xfffd;" xlink:href="#font_5_28" transform="matrix(11.0362,0,0,-11.0362,409.24378,213.02307)"/>
<use data-text="&#xfffd;" xlink:href="#font_5_23" transform="matrix(11.0362,0,0,-11.0362,415.60066,213.02307)"/>
<use data-text="&#xfffd;" xlink:href="#font_5_25" transform="matrix(11.0362,0,0,-11.0362,421.75886,213.02307)"/>
<use data-text="&#xfffd;" xlink:href="#font_5_20" transform="matrix(11.0362,0,0,-11.0362,424.7938,213.02307)"/>
<use data-text="&#xfffd;" xlink:href="#font_5_26" transform="matrix(9.3917,0,0,-9.3917,368.3506,448.3965)"/>
<use data-text="&#xfffd;" xlink:href="#font_5_28" transform="matrix(9.3917,0,0,-9.3917,373.57237,448.3965)"/>
<use data-text="&#xfffd;" xlink:href="#font_5_23" transform="matrix(9.3917,0,0,-9.3917,378.98103,448.3965)"/>
<use data-text="&#xfffd;" xlink:href="#font_5_25" transform="matrix(9.3917,0,0,-9.3917,384.2216,448.3965)"/>
<use data-text="&#xfffd;" xlink:href="#font_5_20" transform="matrix(9.3917,0,0,-9.3917,386.8043,448.3965)"/>
<use data-text="&#xfffd;" xlink:href="#font_5_19" transform="matrix(9.3917,0,0,-9.3917,393.85746,448.3965)"/>
<use data-text="&#xfffd;" xlink:href="#font_5_29" transform="matrix(9.3917,0,0,-9.3917,396.23356,448.3965)"/>
<use data-text="&#xfffd;" xlink:href="#font_5_18" transform="matrix(9.3917,0,0,-9.3917,402.6575,448.3965)"/>
<use data-text="&#xfffd;" xlink:href="#font_5_17" transform="matrix(9.3917,0,0,-9.3917,409.40077,448.3965)"/>
<use data-text="&#xfffd;" xlink:href="#font_5_25" transform="matrix(9.3917,0,0,-9.3917,415.48658,448.3965)"/>
<use data-text="&#xfffd;" xlink:href="#font_5_22" transform="matrix(9.3917,0,0,-9.3917,418.1247,448.3965)"/>
<use data-text="&#xfffd;" xlink:href="#font_5_27" transform="matrix(9.3917,0,0,-9.3917,423.72309,448.3965)"/>
<use data-text="&#xfffd;" xlink:href="#font_5_23" transform="matrix(9.3917,0,0,-9.3917,429.84556,448.3965)"/>
<use data-text="&#xfffd;" xlink:href="#font_5_20" transform="matrix(9.3917,0,0,-9.3917,434.8983,448.3965)"/>
<use data-text="&#xfffd;" xlink:href="#font_5_17" transform="matrix(6.1318,0,0,-6.1318,392.8789,517.0469)"/>
<use data-text="&#xfffd;" xlink:href="#font_5_18" transform="matrix(6.1318,0,0,-6.1318,396.82106,517.0469)"/>
<use data-text="&#xfffd;" xlink:href="#font_5_16" transform="matrix(6.1318,0,0,-6.1318,401.2243,517.0469)"/>
<use data-text="&#xfffd;" xlink:href="#font_5_16" transform="matrix(6.1318,0,0,-6.1318,404.68879,517.0469)"/>
<use data-text="&#xfffd;" xlink:href="#font_5_22" transform="matrix(6.1318,0,0,-6.1318,408.15327,517.0469)"/>
<use data-text="&#xfffd;" xlink:href="#font_5_23" transform="matrix(6.1318,0,0,-6.1318,411.99116,517.0469)"/>
<use data-text="&#xfffd;" xlink:href="#font_5_28" transform="matrix(7.1339,0,0,-7.1339,479.418,504.1357)"/>
<use data-text="&#xfffd;" xlink:href="#font_5_18" transform="matrix(7.1339,0,0,-7.1339,483.9402,504.1357)"/>
<use data-text="&#xfffd;" xlink:href="#font_5_15" transform="matrix(7.1339,0,0,-7.1339,489.06233,504.1357)"/>
<use data-text="&#xfffd;" xlink:href="#font_5_28" transform="matrix(7.1339,0,0,-7.1339,493.31413,504.1357)"/>
<use data-text="&#xfffd;" xlink:href="#font_5_19" transform="matrix(7.1339,0,0,-7.1339,498.0225,504.1357)"/>
<use data-text="&#xfffd;" xlink:href="#font_5_14" transform="matrix(7.1339,0,0,-7.1339,499.82737,504.1357)"/>
<use data-text="&#xfffd;" xlink:href="#font_5_28" transform="matrix(7.1339,0,0,-7.1339,477.38484,549.4717)"/>
<use data-text="&#xfffd;" xlink:href="#font_5_18" transform="matrix(7.1339,0,0,-7.1339,481.907,549.4717)"/>
<use data-text="&#xfffd;" xlink:href="#font_5_15" transform="matrix(7.1339,0,0,-7.1339,487.02915,549.4717)"/>
<use data-text="&#xfffd;" xlink:href="#font_5_28" transform="matrix(7.1339,0,0,-7.1339,491.28096,549.4717)"/>
<use data-text="&#xfffd;" xlink:href="#font_5_19" transform="matrix(7.1339,0,0,-7.1339,495.98933,549.4717)"/>
<use data-text="&#xfffd;" xlink:href="#font_5_13" transform="matrix(7.1339,0,0,-7.1339,497.7942,549.4717)"/>
<use data-text="&#xfffd;" xlink:href="#font_5_28" transform="matrix(7.1339,0,0,-7.1339,477.5275,663.85659)"/>
<use data-text="&#xfffd;" xlink:href="#font_5_18" transform="matrix(7.1339,0,0,-7.1339,482.04969,663.85659)"/>
<use data-text="&#xfffd;" xlink:href="#font_5_15" transform="matrix(7.1339,0,0,-7.1339,487.1718,663.85659)"/>
<use data-text="&#xfffd;" xlink:href="#font_5_28" transform="matrix(7.1339,0,0,-7.1339,491.4236,663.85659)"/>
<use data-text="&#xfffd;" xlink:href="#font_5_19" transform="matrix(7.1339,0,0,-7.1339,496.132,663.85659)"/>
<use data-text="&#xfffd;" xlink:href="#font_5_12" transform="matrix(7.1339,0,0,-7.1339,497.93687,663.85659)"/>
<use data-text="&#xfffd;" xlink:href="#font_5_28" transform="matrix(7.1339,0,0,-7.1339,477.0852,703.093)"/>
<use data-text="&#xfffd;" xlink:href="#font_5_18" transform="matrix(7.1339,0,0,-7.1339,481.6074,703.093)"/>
<use data-text="&#xfffd;" xlink:href="#font_5_15" transform="matrix(7.1339,0,0,-7.1339,486.72953,703.093)"/>
<use data-text="&#xfffd;" xlink:href="#font_5_28" transform="matrix(7.1339,0,0,-7.1339,490.98133,703.093)"/>
<use data-text="&#xfffd;" xlink:href="#font_5_19" transform="matrix(7.1339,0,0,-7.1339,495.6897,703.093)"/>
<use data-text="&#xfffd;" xlink:href="#font_5_11" transform="matrix(7.1339,0,0,-7.1339,497.49458,703.093)"/>
<use data-text="&#xfffd;" xlink:href="#font_5_10" transform="matrix(7.1339,0,0,-7.1339,462.40364,745.2972)"/>
<use data-text="&#xfffd;" xlink:href="#font_5_28" transform="matrix(7.1339,0,0,-7.1339,467.71125,745.2972)"/>
<use data-text="&#xfffd;" xlink:href="#font_5_9" transform="matrix(7.1339,0,0,-7.1339,472.4553,745.2972)"/>
<use data-text="&#xfffd;" xlink:href="#font_5_23" transform="matrix(7.1339,0,0,-7.1339,476.76417,745.2972)"/>
<use data-text="&#xfffd;" xlink:href="#font_5_27" transform="matrix(7.1339,0,0,-7.1339,480.74488,745.2972)"/>
<use data-text="&#xfffd;" xlink:href="#font_5_20" transform="matrix(7.1339,0,0,-7.1339,485.3398,745.2972)"/>
<use data-text="&#xfffd;" xlink:href="#font_5_24" transform="matrix(7.1339,0,0,-7.1339,490.6974,745.2972)"/>
<use data-text="&#xfffd;" xlink:href="#font_5_20" transform="matrix(7.1339,0,0,-7.1339,496.005,745.2972)"/>
<use data-text="&#xfffd;" xlink:href="#font_5_8" transform="matrix(7.1339,0,0,-7.1339,501.36256,745.2972)"/>
<use data-text="&#xfffd;" xlink:href="#font_5_21" transform="matrix(7.1339,0,0,-7.1339,507.59687,745.2972)"/>
<use data-text="&#xfffd;" xlink:href="#font_5_28" transform="matrix(7.1339,0,0,-7.1339,509.57298,745.2972)"/>
<use data-text="&#xfffd;" xlink:href="#font_5_28" transform="matrix(7.1339,0,0,-7.1339,485.9883,753.8579)"/>
<use data-text="&#xfffd;" xlink:href="#font_5_10" transform="matrix(7.1339,0,0,-7.1339,376.68983,767.5835)"/>
<use data-text="&#xfffd;" xlink:href="#font_5_28" transform="matrix(7.1339,0,0,-7.1339,381.99745,767.5835)"/>
<use data-text="&#xfffd;" xlink:href="#font_5_9" transform="matrix(7.1339,0,0,-7.1339,386.7415,767.5835)"/>
<use data-text="&#xfffd;" xlink:href="#font_5_23" transform="matrix(7.1339,0,0,-7.1339,391.05036,767.5835)"/>
<use data-text="&#xfffd;" xlink:href="#font_5_27" transform="matrix(7.1339,0,0,-7.1339,395.03108,767.5835)"/>
<use data-text="&#xfffd;" xlink:href="#font_5_20" transform="matrix(7.1339,0,0,-7.1339,399.626,767.5835)"/>
<use data-text="&#xfffd;" xlink:href="#font_5_24" transform="matrix(7.1339,0,0,-7.1339,404.98359,767.5835)"/>
<use data-text="&#xfffd;" xlink:href="#font_5_20" transform="matrix(7.1339,0,0,-7.1339,410.2912,767.5835)"/>
<use data-text="&#xfffd;" xlink:href="#font_5_8" transform="matrix(7.1339,0,0,-7.1339,415.64875,767.5835)"/>
<use data-text="&#xfffd;" xlink:href="#font_5_21" transform="matrix(7.1339,0,0,-7.1339,421.8838,767.5835)"/>
<use data-text="&#xfffd;" xlink:href="#font_5_28" transform="matrix(7.1339,0,0,-7.1339,423.8599,767.5835)"/>
<use data-text="&#xfffd;" xlink:href="#font_5_17" transform="matrix(7.1339,0,0,-7.1339,400.32444,776.14419)"/>
<use data-text="&#xfffd;" xlink:href="#font_5_10" transform="matrix(7.1339,0,0,-7.1339,375.66255,743.3496)"/>
<use data-text="&#xfffd;" xlink:href="#font_5_28" transform="matrix(7.1339,0,0,-7.1339,380.97016,743.3496)"/>
<use data-text="&#xfffd;" xlink:href="#font_5_9" transform="matrix(7.1339,0,0,-7.1339,385.7142,743.3496)"/>
<use data-text="&#xfffd;" xlink:href="#font_5_23" transform="matrix(7.1339,0,0,-7.1339,390.02308,743.3496)"/>
<use data-text="&#xfffd;" xlink:href="#font_5_27" transform="matrix(7.1339,0,0,-7.1339,394.00379,743.3496)"/>
<use data-text="&#xfffd;" xlink:href="#font_5_20" transform="matrix(7.1339,0,0,-7.1339,398.59873,743.3496)"/>
<use data-text="&#xfffd;" xlink:href="#font_5_24" transform="matrix(7.1339,0,0,-7.1339,403.9563,743.3496)"/>
<use data-text="&#xfffd;" xlink:href="#font_5_20" transform="matrix(7.1339,0,0,-7.1339,409.26393,743.3496)"/>
<use data-text="&#xfffd;" xlink:href="#font_5_8" transform="matrix(7.1339,0,0,-7.1339,414.62147,743.3496)"/>
<use data-text="&#xfffd;" xlink:href="#font_5_21" transform="matrix(7.1339,0,0,-7.1339,420.8565,743.3496)"/>
<use data-text="&#xfffd;" xlink:href="#font_5_28" transform="matrix(7.1339,0,0,-7.1339,422.8326,743.3496)"/>
<use data-text="&#xfffd;" xlink:href="#font_5_29" transform="matrix(7.1339,0,0,-7.1339,399.15449,751.91036)"/>
<use data-text="&#xfffd;" xlink:href="#font_5_17" transform="matrix(6.366,0,0,-6.366,391.2305,682.751)"/>
<use data-text="&#xfffd;" xlink:href="#font_5_28" transform="matrix(6.366,0,0,-6.366,395.36839,682.751)"/>
<use data-text="&#xfffd;" xlink:href="#font_5_7" transform="matrix(6.366,0,0,-6.366,399.55659,682.751)"/>
<use data-text="&#xfffd;" xlink:href="#font_5_20" transform="matrix(6.366,0,0,-6.366,404.29289,682.751)"/>
<use data-text="&#xfffd;" xlink:href="#font_5_19" transform="matrix(6.366,0,0,-6.366,409.07374,682.751)"/>
<use data-text="&#xfffd;" xlink:href="#font_5_8" transform="matrix(6.366,0,0,-6.366,410.68434,682.751)"/>
<use data-text="&#xfffd;" xlink:href="#font_5_28" transform="matrix(6.366,0,0,-6.366,416.21003,682.751)"/>
<use data-text="&#xfffd;" xlink:href="#font_5_9" transform="matrix(6.366,0,0,-6.366,420.44343,682.751)"/>
<use data-text="&#xfffd;" xlink:href="#font_5_29" transform="matrix(6.366,0,0,-6.366,424.3203,682.751)"/>
<use data-text="&#xfffd;" xlink:href="#font_5_17" transform="matrix(6.366,0,0,-6.366,373.4821,650.208)"/>
<use data-text="&#xfffd;" xlink:href="#font_5_28" transform="matrix(6.366,0,0,-6.366,377.61997,650.208)"/>
<use data-text="&#xfffd;" xlink:href="#font_5_7" transform="matrix(6.366,0,0,-6.366,381.80818,650.208)"/>
<use data-text="&#xfffd;" xlink:href="#font_5_20" transform="matrix(6.366,0,0,-6.366,386.54447,650.208)"/>
<use data-text="&#xfffd;" xlink:href="#font_5_19" transform="matrix(6.366,0,0,-6.366,391.32533,650.208)"/>
<use data-text="&#xfffd;" xlink:href="#font_5_16" transform="matrix(6.366,0,0,-6.366,392.9359,650.208)"/>
<use data-text="&#xfffd;" xlink:href="#font_5_22" transform="matrix(6.366,0,0,-6.366,396.5327,650.208)"/>
<use data-text="&#xfffd;" xlink:href="#font_5_8" transform="matrix(6.366,0,0,-6.366,400.33323,650.208)"/>
<use data-text="&#xfffd;" xlink:href="#font_5_22" transform="matrix(7.2334,0,0,-7.2334,393.5625,538.6074)"/>
<use data-text="&#xfffd;" xlink:href="#font_5_6" transform="matrix(7.2334,0,0,-7.2334,398.10435,538.6074)"/>
<use data-text="&#xfffd;" xlink:href="#font_5_26" transform="matrix(7.2334,0,0,-7.2334,399.53007,538.6074)"/>
<use data-text="&#xfffd;" xlink:href="#font_5_6" transform="matrix(7.2334,0,0,-7.2334,403.3927,538.6074)"/>
<use data-text="&#xfffd;" xlink:href="#font_5_9" transform="matrix(7.2334,0,0,-7.2334,404.89656,538.6074)"/>
<use data-text="&#xfffd;" xlink:href="#font_5_25" transform="matrix(7.2334,0,0,-7.2334,391.9784,547.2875)"/>
<use data-text="&#xfffd;" xlink:href="#font_5_6" transform="matrix(7.2334,0,0,-7.2334,393.92417,547.2875)"/>
<use data-text="&#xfffd;" xlink:href="#font_5_16" transform="matrix(7.2334,0,0,-7.2334,395.34916,547.2875)"/>
<use data-text="&#xfffd;" xlink:href="#font_5_6" transform="matrix(7.2334,0,0,-7.2334,399.13945,547.2875)"/>
<use data-text="&#xfffd;" xlink:href="#font_5_23" transform="matrix(7.2334,0,0,-7.2334,399.94886,547.2875)"/>
<use data-text="&#xfffd;" xlink:href="#font_5_6" transform="matrix(7.2334,0,0,-7.2334,403.47947,547.2875)"/>
<use data-text="&#xfffd;" xlink:href="#font_5_9" transform="matrix(7.2334,0,0,-7.2334,404.984,547.2875)"/>
<use data-text="&#xfffd;" xlink:href="#font_5_6" transform="matrix(7.2334,0,0,-7.2334,409.4029,547.2875)"/>
<use data-text="&#xfffd;" xlink:href="#font_5_22" transform="matrix(7.2334,0,0,-7.2334,389.13569,555.9675)"/>
<use data-text="&#xfffd;" xlink:href="#font_5_6" transform="matrix(7.2334,0,0,-7.2334,393.67753,555.9675)"/>
<use data-text="&#xfffd;" xlink:href="#font_5_24" transform="matrix(7.2334,0,0,-7.2334,395.1025,555.9675)"/>
<use data-text="&#xfffd;" xlink:href="#font_5_6" transform="matrix(7.2334,0,0,-7.2334,400.44078,555.9675)"/>
<use data-text="&#xfffd;" xlink:href="#font_5_20" transform="matrix(7.2334,0,0,-7.2334,401.71315,555.9675)"/>
<use data-text="&#xfffd;" xlink:href="#font_5_6" transform="matrix(7.2334,0,0,-7.2334,407.02247,555.9675)"/>
<use data-text="&#xfffd;" xlink:href="#font_5_16" transform="matrix(7.2334,0,0,-7.2334,408.44746,555.9675)"/>
<use data-text="&#xfffd;" xlink:href="#font_5_6" transform="matrix(7.2334,0,0,-7.2334,412.23847,555.9675)"/>
<use data-text="&#xfffd;" xlink:href="#font_5_26" transform="matrix(6.6383,0,0,-6.6383,379.4473,581.5254)"/>
<use data-text="&#xfffd;" xlink:href="#font_5_27" transform="matrix(6.6383,0,0,-6.6383,383.58296,581.5254)"/>
<use data-text="&#xfffd;" xlink:href="#font_5_22" transform="matrix(6.6383,0,0,-6.6383,387.87794,581.5254)"/>
<use data-text="&#xfffd;" xlink:href="#font_5_29" transform="matrix(6.6383,0,0,-6.6383,391.84764,581.5254)"/>
<use data-text="&#xfffd;" xlink:href="#font_5_22" transform="matrix(6.6383,0,0,-6.6383,396.40815,581.5254)"/>
<use data-text="&#xfffd;" xlink:href="#font_5_26" transform="matrix(6.6383,0,0,-6.6383,400.36524,581.5254)"/>
<use data-text="&#xfffd;" xlink:href="#font_5_23" transform="matrix(6.6383,0,0,-6.6383,404.65357,581.5254)"/>
<use data-text="&#xfffd;" xlink:href="#font_5_20" transform="matrix(6.6383,0,0,-6.6383,408.22499,581.5254)"/>
<use data-text="&#xfffd;" xlink:href="#font_5_27" transform="matrix(6.6383,0,0,-6.6383,413.21034,581.5254)"/>
<use data-text="&#xfffd;" xlink:href="#font_5_25" transform="matrix(6.6383,0,0,-6.6383,417.5053,581.5254)"/>
<use data-text="&#xfffd;" xlink:href="#font_5_28" transform="matrix(6.6383,0,0,-6.6383,419.34416,581.5254)"/>
<use data-text="&#xfffd;" xlink:href="#font_5_22" transform="matrix(6.6383,0,0,-6.6383,394.37684,589.49136)"/>
<use data-text="&#xfffd;" xlink:href="#font_5_6" transform="matrix(6.6383,0,0,-6.6383,398.5457,589.49136)"/>
<use data-text="&#xfffd;" xlink:href="#font_5_26" transform="matrix(6.6383,0,0,-6.6383,399.85346,589.49136)"/>
<use data-text="&#xfffd;" xlink:href="#font_5_6" transform="matrix(6.6383,0,0,-6.6383,403.39833,589.49136)"/>
<use data-text="&#xfffd;" xlink:href="#font_5_9" transform="matrix(6.6383,0,0,-6.6383,404.77909,589.49136)"/>
<g clip-path="url(#clip_6)">
<g opacity=".220001">
<g clip-path="url(#clip_7)">
<path transform="matrix(1,0,0,-1,475.7925,623.7275)" stroke-width="1" stroke-linecap="butt" stroke-miterlimit="10" stroke-linejoin="miter" fill="none" stroke="#101989" d="M0 0V0C.602-4.46 3.749-8.456 11.062-8.456 18.171-8.456 21.645-4.781 21.645-.093 21.645 3.639 20.182 6.865 11.891 8.884 6.797 10.117 5.156 11.192 5.156 13.922 5.156 16.692 7.144 18.286 10.683 18.286 14.924 18.286 16.542 16.163 17.062 13.577H20.985C20.595 17.395 17.746 21.396 10.823 21.396 4.334 21.396 1.149 17.877 1.149 13.56 1.149 9.473 3.527 7.127 10.377 5.463 16.205 4.053 17.638 2.419 17.638-.497 17.638-3.243 15.842-5.37 11.308-5.37 7.095-5.37 4.711-3.486 3.923 0H0Z"/>
<path transform="matrix(1,0,0,-1,519.4976,631.81936)" stroke-width="1" stroke-linecap="butt" stroke-miterlimit="10" stroke-linejoin="miter" fill="none" stroke="#101989" d="M0 0 .524 3.231H-13.905C-13.218 5.328-11.196 7.531-7.409 10.462-2.327 14.389-.56 16.017-.56 20.175-.56 24.029-2.956 27.994-9.12 27.994-14.732 27.994-17.704 24.481-18.188 19.826H-14.593C-14.016 23.187-12.451 24.924-9.12 24.924-5.816 24.924-4.353 22.836-4.353 20.079-4.353 17.04-5.549 15.972-9.957 12.608-15.623 8.316-18.237 4.202-18.237 .229V0H0Z"/>
</g>
</g>
<g opacity=".220001">
<g clip-path="url(#clip_8)">
<path transform="matrix(1,0,0,-1,493.373,109.23877)" stroke-width="1" stroke-linecap="butt" stroke-miterlimit="10" stroke-linejoin="miter" fill="none" stroke="#492708" d="M0 0V0C.629-5.082 4.158-9.666 12.476-9.758 20.562-9.847 24.561-5.712 24.619-.378 24.666 3.866 23.043 7.555 13.639 9.954 7.859 11.422 6.005 12.666 6.04 15.771 6.074 18.922 8.355 20.71 12.382 20.666 17.206 20.612 19.019 18.177 19.579 15.229L24.042 15.179C23.645 19.527 20.455 24.115 12.58 24.202 5.198 24.283 1.531 20.32 1.478 15.409 1.426 10.76 4.102 8.062 11.873 6.083 18.483 4.405 20.093 2.529 20.057-.788 20.021-3.912 17.952-6.308 12.795-6.251 8.003-6.198 5.314-4.025 4.462-.049L0 0Z"/>
<path transform="matrix(1,0,0,-1,532.748,118.87988)" stroke-width="1" stroke-linecap="butt" stroke-miterlimit="10" stroke-linejoin="miter" fill="none" stroke="#492708" d="M0 0 .348 31.426-2.807 31.461C-4.97 29.444-8.014 27.691-10.436 27.072L-10.473 23.694C-8.734 23.985-5.525 25.251-3.965 26.356L-4.256 .047 0 0Z"/>
</g>
</g>
</g>
<use data-text="&#xfffd;" xlink:href="#font_5_5" transform="matrix(6.7707,0,0,-6.7707,412.2749,276.56349)"/>
<use data-text="&#xfffd;" xlink:href="#font_5_27" transform="matrix(6.7707,0,0,-6.7707,416.73,276.56349)"/>
<use data-text="&#xfffd;" xlink:href="#font_5_22" transform="matrix(6.7707,0,0,-6.7707,421.11067,276.56349)"/>
<use data-text="&#xfffd;" xlink:href="#font_5_28" transform="matrix(6.7707,0,0,-6.7707,425.27397,276.56349)"/>
<use data-text="&#xfffd;" xlink:href="#font_5_19" transform="matrix(6.7707,0,0,-6.7707,429.7426,276.56349)"/>
<use data-text="&#xfffd;" xlink:href="#font_5_4" transform="matrix(6.7707,0,0,-6.7707,431.4556,276.56349)"/>
<use data-text="&#xfffd;" xlink:href="#font_5_22" transform="matrix(6.7707,0,0,-6.7707,436.33729,276.56349)"/>
<use data-text="&#xfffd;" xlink:href="#font_5_23" transform="matrix(6.7707,0,0,-6.7707,410.41297,284.6883)"/>
<use data-text="&#xfffd;" xlink:href="#font_5_28" transform="matrix(6.7707,0,0,-6.7707,413.6629,284.6883)"/>
<use data-text="&#xfffd;" xlink:href="#font_5_15" transform="matrix(6.7707,0,0,-6.7707,418.118,284.6883)"/>
<use data-text="&#xfffd;" xlink:href="#font_5_15" transform="matrix(6.7707,0,0,-6.7707,421.87577,284.6883)"/>
<use data-text="&#xfffd;" xlink:href="#font_5_22" transform="matrix(6.7707,0,0,-6.7707,425.6335,284.6883)"/>
<use data-text="&#xfffd;" xlink:href="#font_5_27" transform="matrix(6.7707,0,0,-6.7707,429.66886,284.6883)"/>
<use data-text="&#xfffd;" xlink:href="#font_5_22" transform="matrix(6.7707,0,0,-6.7707,434.0488,284.6883)"/>
<use data-text="&#xfffd;" xlink:href="#font_5_9" transform="matrix(6.7707,0,0,-6.7707,438.1383,284.6883)"/>
<use data-text="&#xfffd;" xlink:href="#font_5_4" transform="matrix(6.7707,0,0,-6.7707,407.36616,292.8131)"/>
<use data-text="&#xfffd;" xlink:href="#font_5_25" transform="matrix(6.7707,0,0,-6.7707,412.24784,292.8131)"/>
<use data-text="&#xfffd;" xlink:href="#font_5_24" transform="matrix(6.7707,0,0,-6.7707,414.1504,292.8131)"/>
<use data-text="&#xfffd;" xlink:href="#font_5_5" transform="matrix(6.7707,0,0,-6.7707,419.20137,292.8131)"/>
<use data-text="&#xfffd;" xlink:href="#font_5_8" transform="matrix(6.7707,0,0,-6.7707,423.65647,292.8131)"/>
<use data-text="&#xfffd;" xlink:href="#font_5_25" transform="matrix(6.7707,0,0,-6.7707,429.57408,292.8131)"/>
<use data-text="&#xfffd;" xlink:href="#font_5_29" transform="matrix(6.7707,0,0,-6.7707,431.43669,292.8131)"/>
<use data-text="&#xfffd;" xlink:href="#font_5_20" transform="matrix(6.7707,0,0,-6.7707,436.122,292.8131)"/>
<use data-text="&#xfffd;" xlink:href="#font_5_9" transform="matrix(6.7707,0,0,-6.7707,441.1926,292.8131)"/>
<use data-text="&#xfffd;" xlink:href="#font_5_9" transform="matrix(6.7707,0,0,-6.7707,248.63387,367.52778)"/>
<use data-text="&#xfffd;" xlink:href="#font_5_22" transform="matrix(6.7707,0,0,-6.7707,252.7166,367.52778)"/>
<use data-text="&#xfffd;" xlink:href="#font_5_29" transform="matrix(6.7707,0,0,-6.7707,256.76548,367.52778)"/>
<use data-text="&#xfffd;" xlink:href="#font_5_27" transform="matrix(6.7707,0,0,-6.7707,261.41694,367.52778)"/>
<use data-text="&#xfffd;" xlink:href="#font_5_22" transform="matrix(6.7707,0,0,-6.7707,265.79756,367.52778)"/>
<use data-text="&#xfffd;" xlink:href="#font_5_23" transform="matrix(6.7707,0,0,-6.7707,270.036,367.52778)"/>
<use data-text="&#xfffd;" xlink:href="#font_5_28" transform="matrix(6.7707,0,0,-6.7707,273.28596,367.52778)"/>
<use data-text="&#xfffd;" xlink:href="#font_5_27" transform="matrix(6.7707,0,0,-6.7707,277.74107,367.52778)"/>
<use data-text="&#xfffd;" xlink:href="#font_5_25" transform="matrix(6.7707,0,0,-6.7707,282.12168,367.52778)"/>
<use data-text="&#xfffd;" xlink:href="#font_5_28" transform="matrix(6.7707,0,0,-6.7707,283.9965,367.52778)"/>
<use data-text="&#xfffd;" xlink:href="#font_5_4" transform="matrix(6.7707,0,0,-6.7707,250.27915,375.65263)"/>
<use data-text="&#xfffd;" xlink:href="#font_5_25" transform="matrix(6.7707,0,0,-6.7707,255.16082,375.65263)"/>
<use data-text="&#xfffd;" xlink:href="#font_5_27" transform="matrix(6.7707,0,0,-6.7707,257.0634,375.65263)"/>
<use data-text="&#xfffd;" xlink:href="#font_5_22" transform="matrix(6.7707,0,0,-6.7707,261.44404,375.65263)"/>
<use data-text="&#xfffd;" xlink:href="#font_5_29" transform="matrix(6.7707,0,0,-6.7707,265.49226,375.65263)"/>
<use data-text="&#xfffd;" xlink:href="#font_5_29" transform="matrix(6.7707,0,0,-6.7707,270.17759,375.65263)"/>
<use data-text="&#xfffd;" xlink:href="#font_5_25" transform="matrix(6.7707,0,0,-6.7707,274.82908,375.65263)"/>
<use data-text="&#xfffd;" xlink:href="#font_5_3" transform="matrix(6.7707,0,0,-6.7707,276.691,375.65263)"/>
<use data-text="&#xfffd;" xlink:href="#font_5_24" transform="matrix(6.7707,0,0,-6.7707,281.77583,375.65263)"/>
<use data-text="&#xfffd;" xlink:href="#font_5_15" transform="matrix(6.7707,0,0,-6.7707,434.94999,376.3094)"/>
<use data-text="&#xfffd;" xlink:href="#font_5_28" transform="matrix(6.7707,0,0,-6.7707,438.98533,376.3094)"/>
<use data-text="&#xfffd;" xlink:href="#font_5_17" transform="matrix(6.7707,0,0,-6.7707,443.44044,376.3094)"/>
<use data-text="&#xfffd;" xlink:href="#font_5_20" transform="matrix(6.7707,0,0,-6.7707,447.8143,376.3094)"/>
<use data-text="&#xfffd;" xlink:href="#font_5_27" transform="matrix(6.7707,0,0,-6.7707,452.8991,376.3094)"/>
<use data-text="&#xfffd;" xlink:href="#font_5_28" transform="matrix(6.7707,0,0,-6.7707,457.34138,376.3094)"/>
<use data-text="&#xfffd;" xlink:href="#font_5_23" transform="matrix(6.7707,0,0,-6.7707,461.2406,376.3094)"/>
<use data-text="&#xfffd;" xlink:href="#font_5_20" transform="matrix(6.7707,0,0,-6.7707,464.88325,376.3094)"/>
<use data-text="&#xfffd;" xlink:href="#font_5_27" transform="matrix(6.7707,0,0,-6.7707,469.96806,376.3094)"/>
<use data-text="&#xfffd;" xlink:href="#font_5_25" transform="matrix(6.7707,0,0,-6.7707,474.34803,376.3094)"/>
<use data-text="&#xfffd;" xlink:href="#font_5_20" transform="matrix(6.7707,0,0,-6.7707,476.20997,376.3094)"/>
<use data-text="&#xfffd;" xlink:href="#font_5_4" transform="matrix(6.7707,0,0,-6.7707,453.6574,384.43424)"/>
<use data-text="&#xfffd;" xlink:href="#font_5_22" transform="matrix(6.7707,0,0,-6.7707,458.5391,384.43424)"/>
<use data-text="&#xfffd;" xlink:href="#font_5_25" transform="matrix(6.7707,0,0,-6.7707,432.64793,392.55909)"/>
<use data-text="&#xfffd;" xlink:href="#font_5_24" transform="matrix(6.7707,0,0,-6.7707,434.55049,392.55909)"/>
<use data-text="&#xfffd;" xlink:href="#font_5_16" transform="matrix(6.7707,0,0,-6.7707,439.6285,392.55909)"/>
<use data-text="&#xfffd;" xlink:href="#font_5_20" transform="matrix(6.7707,0,0,-6.7707,443.52775,392.55909)"/>
<use data-text="&#xfffd;" xlink:href="#font_5_27" transform="matrix(6.7707,0,0,-6.7707,448.61256,392.55909)"/>
<use data-text="&#xfffd;" xlink:href="#font_5_8" transform="matrix(6.7707,0,0,-6.7707,452.99998,392.55909)"/>
<use data-text="&#xfffd;" xlink:href="#font_5_5" transform="matrix(6.7707,0,0,-6.7707,458.87693,392.55909)"/>
<use data-text="&#xfffd;" xlink:href="#font_5_23" transform="matrix(6.7707,0,0,-6.7707,462.77616,392.55909)"/>
<use data-text="&#xfffd;" xlink:href="#font_5_25" transform="matrix(6.7707,0,0,-6.7707,466.5542,392.55909)"/>
<use data-text="&#xfffd;" xlink:href="#font_5_29" transform="matrix(6.7707,0,0,-6.7707,468.41615,392.55909)"/>
<use data-text="&#xfffd;" xlink:href="#font_5_28" transform="matrix(6.7707,0,0,-6.7707,473.04124,392.55909)"/>
<use data-text="&#xfffd;" xlink:href="#font_5_19" transform="matrix(6.7707,0,0,-6.7707,477.5099,392.55909)"/>
<use data-text="&#xfffd;" xlink:href="#font_5_17" transform="matrix(6.7707,0,0,-6.7707,479.22288,392.55909)"/>
<use data-text="&#xfffd;" xlink:href="#font_5_25" transform="matrix(7.0232,0,0,-7.0232,241.0215,316.8286)"/>
<use data-text="&#xfffd;" xlink:href="#font_5_24" transform="matrix(7.0232,0,0,-7.0232,242.99503,316.8286)"/>
<use data-text="&#xfffd;" xlink:href="#font_5_16" transform="matrix(7.0232,0,0,-7.0232,248.26242,316.8286)"/>
<use data-text="&#xfffd;" xlink:href="#font_5_20" transform="matrix(7.0232,0,0,-7.0232,252.30779,316.8286)"/>
<use data-text="&#xfffd;" xlink:href="#font_5_27" transform="matrix(7.0232,0,0,-7.0232,257.5822,316.8286)"/>
<use data-text="&#xfffd;" xlink:href="#font_5_8" transform="matrix(7.0232,0,0,-7.0232,262.13325,316.8286)"/>
<use data-text="&#xfffd;" xlink:href="#font_5_22" transform="matrix(7.0232,0,0,-7.0232,268.2715,316.8286)"/>
<use data-text="&#xfffd;" xlink:href="#font_5_9" transform="matrix(7.0232,0,0,-7.0232,272.51423,316.8286)"/>
<use data-text="&#xfffd;" xlink:href="#font_5_9" transform="matrix(-.0776,7.0228,7.0228,.0776,349.276,276.2483)"/>
<use data-text="&#xfffd;" xlink:href="#font_5_28" transform="matrix(-.0776,7.0228,7.0228,.0776,349.22837,280.56025)"/>
<use data-text="&#xfffd;" xlink:href="#font_5_15" transform="matrix(-.0776,7.0228,7.0228,.0776,349.1773,285.18128)"/>
<use data-text="&#xfffd;" xlink:href="#font_5_28" transform="matrix(-.0776,7.0228,7.0228,.0776,349.13105,289.36689)"/>
<use data-text="&#xfffd;" xlink:href="#font_5_19" transform="matrix(-.0776,7.0228,7.0228,.0776,349.07984,294.00196)"/>
<use data-text="&#xfffd;" xlink:href="#font_5_4" transform="matrix(-.0776,7.0228,7.0228,.0776,349.0602,295.77876)"/>
<use data-text="&#xfffd;" xlink:href="#font_5_22" transform="matrix(-.0776,7.0228,7.0228,.0776,349.00428,300.84217)"/>
<use data-text="&#xfffd;" xlink:href="#font_5_19" transform="matrix(-.0776,7.0228,7.0228,.0776,348.95796,305.0348)"/>
<use data-text="&#xfffd;" xlink:href="#font_5_26" transform="matrix(-.0776,7.0228,7.0228,.0776,340.88117,273.21266)"/>
<use data-text="&#xfffd;" xlink:href="#font_5_22" transform="matrix(-.0776,7.0228,7.0228,.0776,340.83283,277.58784)"/>
<use data-text="&#xfffd;" xlink:href="#font_5_27" transform="matrix(-.0776,7.0228,7.0228,.0776,340.78657,281.77339)"/>
<use data-text="&#xfffd;" xlink:href="#font_5_9" transform="matrix(-.0776,7.0228,7.0228,.0776,340.73646,286.31013)"/>
<use data-text="&#xfffd;" xlink:href="#font_5_20" transform="matrix(-.0776,7.0228,7.0228,.0776,340.68919,290.58705)"/>
<use data-text="&#xfffd;" xlink:href="#font_5_24" transform="matrix(-.0776,7.0228,7.0228,.0776,340.63093,295.86048)"/>
<use data-text="&#xfffd;" xlink:href="#font_5_28" transform="matrix(-.0776,7.0228,7.0228,.0776,340.57304,301.09944)"/>
<use data-text="&#xfffd;" xlink:href="#font_5_15" transform="matrix(-.0776,7.0228,7.0228,.0776,340.52198,305.7204)"/>
<use data-text="&#xfffd;" xlink:href="#font_5_20" transform="matrix(-.0693,6.2723,6.2723,.0693,345.2559,362.5527)"/>
<use data-text="&#xfffd;" xlink:href="#font_5_27" transform="matrix(-.0693,6.2723,6.2723,.0693,345.20387,367.2632)"/>
<use data-text="&#xfffd;" xlink:href="#font_5_25" transform="matrix(-.0693,6.2723,6.2723,.0693,345.15904,371.3214)"/>
<use data-text="&#xfffd;" xlink:href="#font_5_22" transform="matrix(-.0693,6.2723,6.2723,.0693,345.13957,373.08393)"/>
<use data-text="&#xfffd;" xlink:href="#font_5_24" transform="matrix(-.0693,6.2723,6.2723,.0693,345.09825,376.8216)"/>
<use data-text="&#xfffd;" xlink:href="#font_5_23" transform="matrix(-.0693,6.2723,6.2723,.0693,345.04615,381.539)"/>
<use data-text="&#xfffd;" xlink:href="#font_5_28" transform="matrix(-.0693,6.2723,6.2723,.0693,345.01289,384.54908)"/>
<use data-text="&#xfffd;" xlink:href="#font_5_29" transform="matrix(-.0693,6.2723,6.2723,.0693,344.96797,388.61415)"/>
<use data-text="&#xfffd;" xlink:href="#font_5_25" transform="matrix(-.0693,6.2723,6.2723,.0693,344.92036,392.92259)"/>
<use data-text="&#xfffd;" xlink:href="#font_5_3" transform="matrix(-.0693,6.2723,6.2723,.0693,344.9013,394.64747)"/>
<use data-text="&#xfffd;" xlink:href="#font_5_24" transform="matrix(-.0693,6.2723,6.2723,.0693,344.84928,399.35798)"/>
<use data-text="&#xfffd;" xlink:href="#font_5_20" transform="matrix(-.0702,6.35,6.35,.0702,392.2385,363.581)"/>
<use data-text="&#xfffd;" xlink:href="#font_5_16" transform="matrix(-.0702,6.35,6.35,.0702,392.18577,368.34986)"/>
<use data-text="&#xfffd;" xlink:href="#font_5_25" transform="matrix(-.0702,6.35,6.35,.0702,392.14613,371.9376)"/>
<use data-text="&#xfffd;" xlink:href="#font_5_29" transform="matrix(-.0702,6.35,6.35,.0702,392.1268,373.68385)"/>
<use data-text="&#xfffd;" xlink:href="#font_5_25" transform="matrix(-.0702,6.35,6.35,.0702,392.07859,378.04566)"/>
<use data-text="&#xfffd;" xlink:href="#font_5_24" transform="matrix(-.0702,6.35,6.35,.0702,392.05885,379.83064)"/>
<use data-text="&#xfffd;" xlink:href="#font_5_28" transform="matrix(-.0702,6.35,6.35,.0702,392.0065,384.56709)"/>
<use data-text="&#xfffd;" xlink:href="#font_5_19" transform="matrix(-.0702,6.35,6.35,.0702,391.96018,388.7581)"/>
<use data-text="&#xfffd;" xlink:href="#font_5_4" transform="matrix(-.0702,6.35,6.35,.0702,391.9424,390.36463)"/>
<use data-text="&#xfffd;" xlink:href="#font_5_22" transform="matrix(-.0702,6.35,6.35,.0702,391.89179,394.94297)"/>
<use data-text="&#xfffd;" xlink:href="#font_5_22" transform="matrix(-.0702,6.35,6.35,.0702,384.6585,359.87727)"/>
<use data-text="&#xfffd;" xlink:href="#font_5_9" transform="matrix(-.0702,6.35,6.35,.0702,384.6161,363.71269)"/>
<use data-text="&#xfffd;" xlink:href="#font_5_23" transform="matrix(-.0702,6.35,6.35,.0702,384.5737,367.54808)"/>
<use data-text="&#xfffd;" xlink:href="#font_5_18" transform="matrix(-.0702,6.35,6.35,.0702,384.5334,371.1936)"/>
<use data-text="&#xfffd;" xlink:href="#font_5_4" transform="matrix(-.0702,6.35,6.35,.0702,384.48298,375.7523)"/>
<use data-text="&#xfffd;" xlink:href="#font_5_25" transform="matrix(-.0702,6.35,6.35,.0702,384.43235,380.33064)"/>
<use data-text="&#xfffd;" xlink:href="#font_5_28" transform="matrix(-.0702,6.35,6.35,.0702,384.4129,382.08958)"/>
<use data-text="&#xfffd;" xlink:href="#font_5_24" transform="matrix(-.0702,6.35,6.35,.0702,384.3667,386.26789)"/>
<use data-text="&#xfffd;" xlink:href="#font_5_23" transform="matrix(-.0702,6.35,6.35,.0702,384.3139,391.0431)"/>
<use data-text="&#xfffd;" xlink:href="#font_5_22" transform="matrix(-.0702,6.35,6.35,.0702,384.27473,394.5864)"/>
<use data-text="&#xfffd;" xlink:href="#font_5_9" transform="matrix(-.0702,6.35,6.35,.0702,384.2323,398.4218)"/>
<use data-text="&#xfffd;" xlink:href="#font_5_22" transform="matrix(-.0693,6.2681,6.2681,.0693,519.7466,365.9914)"/>
<use data-text="&#xfffd;" xlink:href="#font_5_9" transform="matrix(-.0693,6.2681,6.2681,.0693,519.7047,369.7773)"/>
<use data-text="&#xfffd;" xlink:href="#font_5_26" transform="matrix(-.0693,6.2681,6.2681,.0693,519.66299,373.557)"/>
<use data-text="&#xfffd;" xlink:href="#font_5_28" transform="matrix(-.0693,6.2681,6.2681,.0693,519.62448,377.04209)"/>
<use data-text="&#xfffd;" xlink:href="#font_5_29" transform="matrix(-.0693,6.2681,6.2681,.0693,519.5796,381.10383)"/>
<use data-text="&#xfffd;" xlink:href="#font_5_25" transform="matrix(-.0693,6.2681,6.2681,.0693,519.532,385.41)"/>
<use data-text="&#xfffd;" xlink:href="#font_5_20" transform="matrix(-.0693,6.2681,6.2681,.0693,519.51296,387.13374)"/>
<use data-text="&#xfffd;" xlink:href="#font_5_23" transform="matrix(-.0693,6.2681,6.2681,.0693,512.3272,356.65025)"/>
<use data-text="&#xfffd;" xlink:href="#font_5_22" transform="matrix(-.0693,6.2681,6.2681,.0693,512.2885,360.14784)"/>
<use data-text="&#xfffd;" xlink:href="#font_5_29" transform="matrix(-.0693,6.2681,6.2681,.0693,512.2471,363.89616)"/>
<use data-text="&#xfffd;" xlink:href="#font_5_24" transform="matrix(-.0693,6.2681,6.2681,.0693,512.19949,368.20173)"/>
<use data-text="&#xfffd;" xlink:href="#font_5_20" transform="matrix(-.0693,6.2681,6.2681,.0693,512.1479,372.86518)"/>
<use data-text="&#xfffd;" xlink:href="#font_5_15" transform="matrix(-.0693,6.2681,6.2681,.0693,512.0958,377.5725)"/>
<use data-text="&#xfffd;" xlink:href="#font_5_3" transform="matrix(-.0693,6.2681,6.2681,.0693,512.05856,380.94413)"/>
<use data-text="&#xfffd;" xlink:href="#font_5_10" transform="matrix(-.0693,6.2681,6.2681,.0693,512.0065,385.65147)"/>
<use data-text="&#xfffd;" xlink:href="#font_5_25" transform="matrix(-.0693,6.2681,6.2681,.0693,511.9557,390.24598)"/>
<use data-text="&#xfffd;" xlink:href="#font_5_29" transform="matrix(-.0693,6.2681,6.2681,.0693,511.93666,391.9697)"/>
<use data-text="&#xfffd;" xlink:href="#font_5_20" transform="matrix(-.0693,6.2681,6.2681,.0693,511.88868,396.30723)"/>
<use data-text="&#xfffd;" xlink:href="#font_5_8" transform="matrix(-.0693,6.2681,6.2681,.0693,504.87077,350.66255)"/>
<use data-text="&#xfffd;" xlink:href="#font_5_18" transform="matrix(-.0693,6.2681,6.2681,.0693,504.81019,356.14088)"/>
<use data-text="&#xfffd;" xlink:href="#font_5_15" transform="matrix(-.0693,6.2681,6.2681,.0693,504.76045,360.64076)"/>
<use data-text="&#xfffd;" xlink:href="#font_5_23" transform="matrix(-.0693,6.2681,6.2681,.0693,504.72898,363.48649)"/>
<use data-text="&#xfffd;" xlink:href="#font_5_25" transform="matrix(-.0693,6.2681,6.2681,.0693,504.69029,366.9847)"/>
<use data-text="&#xfffd;" xlink:href="#font_5_4" transform="matrix(-.0693,6.2681,6.2681,.0693,504.6708,368.74604)"/>
<use data-text="&#xfffd;" xlink:href="#font_5_25" transform="matrix(-.0693,6.2681,6.2681,.0693,504.62086,373.2647)"/>
<use data-text="&#xfffd;" xlink:href="#font_5_9" transform="matrix(-.0693,6.2681,6.2681,.0693,504.60194,374.9765)"/>
<use data-text="&#xfffd;" xlink:href="#font_5_29" transform="matrix(-.0693,6.2681,6.2681,.0693,504.55973,378.7938)"/>
<use data-text="&#xfffd;" xlink:href="#font_5_25" transform="matrix(-.0693,6.2681,6.2681,.0693,504.51216,383.09934)"/>
<use data-text="&#xfffd;" xlink:href="#font_5_26" transform="matrix(-.0693,6.2681,6.2681,.0693,504.49269,384.86067)"/>
<use data-text="&#xfffd;" xlink:href="#font_5_15" transform="matrix(-.0693,6.2681,6.2681,.0693,504.4495,388.7657)"/>
<use data-text="&#xfffd;" xlink:href="#font_5_25" transform="matrix(-.0693,6.2681,6.2681,.0693,504.411,392.24449)"/>
<use data-text="&#xfffd;" xlink:href="#font_5_24" transform="matrix(-.0693,6.2681,6.2681,.0693,504.39155,394.0058)"/>
<use data-text="&#xfffd;" xlink:href="#font_5_28" transform="matrix(-.0693,6.2681,6.2681,.0693,504.33985,398.6818)"/>
<use data-text="&#xfffd;" xlink:href="#font_5_27" transform="matrix(-.0693,6.2681,6.2681,.0693,504.29426,402.8062)"/>
<use data-text="&#xfffd;" xlink:href="#font_5_19" transform="matrix(-.0721,6.5198,6.5198,.0721,313.0882,289.6549)"/>
<use data-text="&#xfffd;" xlink:href="#font_5_15" transform="matrix(-.0721,6.5198,6.5198,.0721,305.5587,262.96107)"/>
<use data-text="&#xfffd;" xlink:href="#font_5_28" transform="matrix(-.0721,6.5198,6.5198,.0721,305.51576,266.8462)"/>
<use data-text="&#xfffd;" xlink:href="#font_5_17" transform="matrix(-.0721,6.5198,6.5198,.0721,305.4683,271.13685)"/>
<use data-text="&#xfffd;" xlink:href="#font_5_20" transform="matrix(-.0721,6.5198,6.5198,.0721,305.42173,275.34864)"/>
<use data-text="&#xfffd;" xlink:href="#font_5_27" transform="matrix(-.0721,6.5198,6.5198,.0721,305.36759,280.245)"/>
<use data-text="&#xfffd;" xlink:href="#font_5_28" transform="matrix(-.0721,6.5198,6.5198,.0721,305.32029,284.52265)"/>
<use data-text="&#xfffd;" xlink:href="#font_5_23" transform="matrix(-.0721,6.5198,6.5198,.0721,305.27879,288.27735)"/>
<use data-text="&#xfffd;" xlink:href="#font_5_20" transform="matrix(-.0721,6.5198,6.5198,.0721,305.24,291.78565)"/>
<use data-text="&#xfffd;" xlink:href="#font_5_27" transform="matrix(-.0721,6.5198,6.5198,.0721,305.18586,296.682)"/>
<use data-text="&#xfffd;" xlink:href="#font_5_25" transform="matrix(-.0721,6.5198,6.5198,.0721,305.1392,300.90034)"/>
<use data-text="&#xfffd;" xlink:href="#font_5_20" transform="matrix(-.0721,6.5198,6.5198,.0721,305.11936,302.6933)"/>
<use data-text="&#xfffd;" xlink:href="#font_5_19" transform="matrix(-.0721,6.5198,6.5198,.0721,305.06523,307.58967)"/>
<use data-text="&#xfffd;" xlink:href="#font_5_4" transform="matrix(-.0721,6.5198,6.5198,.0721,305.04698,309.2392)"/>
<use data-text="&#xfffd;" xlink:href="#font_5_22" transform="matrix(-.0721,6.5198,6.5198,.0721,304.995,313.94)"/>
<use data-text="&#xfffd;" xlink:href="#font_5_25" transform="matrix(-.0721,6.5198,6.5198,.0721,297.70335,265.73023)"/>
<use data-text="&#xfffd;" xlink:href="#font_5_24" transform="matrix(-.0721,6.5198,6.5198,.0721,297.68309,267.56233)"/>
<use data-text="&#xfffd;" xlink:href="#font_5_16" transform="matrix(-.0721,6.5198,6.5198,.0721,297.629,272.45216)"/>
<use data-text="&#xfffd;" xlink:href="#font_5_20" transform="matrix(-.0721,6.5198,6.5198,.0721,297.5875,276.2069)"/>
<use data-text="&#xfffd;" xlink:href="#font_5_27" transform="matrix(-.0721,6.5198,6.5198,.0721,297.53337,281.10328)"/>
<use data-text="&#xfffd;" xlink:href="#font_5_8" transform="matrix(-.0721,6.5198,6.5198,.0721,297.48664,285.32814)"/>
<use data-text="&#xfffd;" xlink:href="#font_5_5" transform="matrix(-.0721,6.5198,6.5198,.0721,297.42405,290.9873)"/>
<use data-text="&#xfffd;" xlink:href="#font_5_23" transform="matrix(-.0721,6.5198,6.5198,.0721,297.3825,294.74336)"/>
<use data-text="&#xfffd;" xlink:href="#font_5_25" transform="matrix(-.0721,6.5198,6.5198,.0721,297.3423,298.3814)"/>
<use data-text="&#xfffd;" xlink:href="#font_5_29" transform="matrix(-.0721,6.5198,6.5198,.0721,297.32246,300.17439)"/>
<use data-text="&#xfffd;" xlink:href="#font_5_28" transform="matrix(-.0721,6.5198,6.5198,.0721,297.2732,304.62745)"/>
<use data-text="&#xfffd;" xlink:href="#font_5_19" transform="matrix(-.0721,6.5198,6.5198,.0721,297.22563,308.93049)"/>
<use data-text="&#xfffd;" xlink:href="#font_5_28" transform="matrix(-.0721,6.5198,6.5198,.0721,297.20738,310.58003)"/>
<use data-text="&#xfffd;" xlink:href="#font_5_27" transform="matrix(4.3348,-6.9988,-6.9988,-4.3348,249.0994,294.99989)"/>
<use data-text="&#xfffd;" xlink:href="#font_5_22" transform="matrix(4.3348,-6.9988,-6.9988,-4.3348,251.904,290.47163)"/>
<use data-text="&#xfffd;" xlink:href="#font_5_10" transform="matrix(4.3348,-6.9988,-6.9988,-4.3348,254.49622,286.28633)"/>
<use data-text="&#xfffd;" xlink:href="#font_5_22" transform="matrix(4.3348,-6.9988,-6.9988,-4.3348,257.6736,281.1562)"/>
<use data-text="&#xfffd;" xlink:href="#font_5_24" transform="matrix(4.3348,-6.9988,-6.9988,-4.3348,260.25718,276.98487)"/>
<use data-text="&#xfffd;" xlink:href="#font_5_29" transform="matrix(4.3348,-6.9988,-6.9988,-4.3348,263.48228,271.77778)"/>
<use data-text="&#xfffd;" xlink:href="#font_5_25" transform="matrix(4.3348,-6.9988,-6.9988,-4.3348,266.46028,266.9696)"/>
<use data-text="&#xfffd;" xlink:href="#font_5_28" transform="matrix(4.3348,-6.9988,-6.9988,-4.3348,267.661,265.03096)"/>
<use data-text="&#xfffd;" xlink:href="#font_5_23" transform="matrix(-.1162,10.5135,10.5135,.1162,518.103,193.36609)"/>
<use data-text="&#xfffd;" xlink:href="#font_5_28" transform="matrix(-.1162,10.5135,10.5135,.1162,518.04727,198.41254)"/>
<use data-text="&#xfffd;" xlink:href="#font_5_15" transform="matrix(-.1162,10.5135,10.5135,.1162,517.97079,205.33039)"/>
<use data-text="&#xfffd;" xlink:href="#font_5_15" transform="matrix(-.1162,10.5135,10.5135,.1162,517.90628,211.16535)"/>
<use data-text="&#xfffd;" xlink:href="#font_5_22" transform="matrix(-.1162,10.5135,10.5135,.1162,517.84176,217.0003)"/>
<use data-text="&#xfffd;" xlink:href="#font_5_27" transform="matrix(-.1162,10.5135,10.5135,.1162,517.77249,223.26636)"/>
<use data-text="&#xfffd;" xlink:href="#font_5_19" transform="matrix(-.1162,10.5135,10.5135,.1162,517.6979,230.01605)"/>
<use data-text="&#xfffd;" xlink:href="#font_5_4" transform="matrix(-.1162,10.5135,10.5135,.1162,517.66848,232.67597)"/>
<use data-text="&#xfffd;" xlink:href="#font_5_22" transform="matrix(-.1162,10.5135,10.5135,.1162,517.58468,240.25623)"/>
<use data-text="&#xfffd;" xlink:href="#font_5_19" transform="matrix(-.1162,10.5135,10.5135,.1162,517.51528,246.53278)"/>
<use data-text="&#xfffd;" xlink:href="#font_5_17" transform="matrix(-.1162,10.5135,10.5135,.1162,517.48587,249.19269)"/>
<use data-text="&#xfffd;" xlink:href="#font_5_25" transform="matrix(-.1162,10.5135,10.5135,.1162,517.4105,256.0055)"/>
<use data-text="&#xfffd;" xlink:href="#font_5_29" transform="matrix(-.1162,10.5135,10.5135,.1162,517.37857,258.89674)"/>
<use data-text="&#xfffd;" xlink:href="#font_5_25" transform="matrix(-.1162,10.5135,10.5135,.1162,517.2987,266.1195)"/>
<use data-text="&#xfffd;" xlink:href="#font_5_29" transform="matrix(-.1162,10.5135,10.5135,.1162,517.2667,269.01075)"/>
<use data-text="&#xfffd;" xlink:href="#font_5_15" transform="matrix(-.1162,10.5135,10.5135,.1162,517.1869,276.23353)"/>
<use data-text="&#xfffd;" xlink:href="#font_5_22" transform="matrix(-.1162,10.5135,10.5135,.1162,517.1224,282.06849)"/>
<use data-text="&#xfffd;" xlink:href="#font_5_23" transform="matrix(-.1162,10.5135,10.5135,.1162,517.0496,288.64888)"/>
<use data-text="&#xfffd;" xlink:href="#font_5_28" transform="matrix(-.1162,10.5135,10.5135,.1162,516.99386,293.69636)"/>
<use data-text="&#xfffd;" xlink:href="#font_5_9" transform="matrix(-.1162,10.5135,10.5135,.1162,516.91659,300.68678)"/>
<use data-text="&#xfffd;" xlink:href="#font_5_28" transform="matrix(7.1339,0,0,-7.1339,467.3862,608.5166)"/>
<use data-text="&#xfffd;" xlink:href="#font_5_18" transform="matrix(7.1339,0,0,-7.1339,471.9084,608.5166)"/>
<use data-text="&#xfffd;" xlink:href="#font_5_15" transform="matrix(7.1339,0,0,-7.1339,477.03053,608.5166)"/>
<use data-text="&#xfffd;" xlink:href="#font_5_28" transform="matrix(7.1339,0,0,-7.1339,481.28233,608.5166)"/>
<use data-text="&#xfffd;" xlink:href="#font_5_19" transform="matrix(7.1339,0,0,-7.1339,485.9907,608.5166)"/>
<use data-text="&#xfffd;" xlink:href="#font_5_2" transform="matrix(7.1339,0,0,-7.1339,487.79557,608.5166)"/>
<use data-text="&#xfffd;" xlink:href="#font_5_19" transform="matrix(7.1339,0,0,-7.1339,491.7192,608.5166)"/>
<use data-text="&#xfffd;" xlink:href="#font_5_1" transform="matrix(7.1339,0,0,-7.1339,493.52409,608.5166)"/>
<use data-text="&#xfffd;" xlink:href="#font_5_19" transform="matrix(7.1339,0,0,-7.1339,496.2207,608.5166)"/>
<use data-text="&#xfffd;" xlink:href="#font_5_9" transform="matrix(7.1339,0,0,-7.1339,498.02558,608.5166)"/>
<use data-text="&#xfffd;" xlink:href="#font_5_18" transform="matrix(7.1339,0,0,-7.1339,502.24174,608.5166)"/>
<use data-text="&#xfffd;" xlink:href="#font_5_8" transform="matrix(7.1339,0,0,-7.1339,507.37815,608.5166)"/>
</g>
<g inkscape:groupmode="layer" inkscape:label="Capa 3">
<path transform="matrix(1,0,0,-1,238.3333,336.8095)" stroke-width="1" stroke-linecap="butt" stroke-miterlimit="10" stroke-linejoin="miter" fill="none" stroke="#000000" d="M0 0-.026 2.475-.952 92.19H7.619"/>
<path transform="matrix(1,0,0,-1,255.1587,333.7619)" stroke-width="1" stroke-linecap="butt" stroke-miterlimit="10" stroke-linejoin="miter" fill="none" stroke="#000000" d="M0 0H-16.854"/>
<path transform="matrix(1,0,0,-1,237.9699,301.63343)" stroke-width="1" stroke-linecap="butt" stroke-miterlimit="10" stroke-linejoin="miter" fill="none" stroke="#000000" d="M0 0H16.363"/>
<path transform="matrix(1,0,0,-1,264.619,301.63343)" stroke-width="1" stroke-linecap="butt" stroke-miterlimit="10" stroke-linejoin="miter" fill="none" stroke="#000000" d="M0 0H15.873"/>
<path transform="matrix(1,0,0,-1,268.4286,244.61902)" stroke-width="1" stroke-linecap="butt" stroke-miterlimit="10" stroke-linejoin="miter" fill="none" stroke="#000000" d="M0 0H11.175L12.698-89.778H-3.048"/>
<path transform="matrix(1,0,0,-1,279.6032,244.61902)" stroke-width="1" stroke-linecap="butt" stroke-miterlimit="10" stroke-linejoin="miter" fill="none" stroke="#000000" d="M0 0H9.905"/>
<path transform="matrix(1,0,0,-1,311.4811,243.78522)" stroke-width="1" stroke-linecap="butt" stroke-miterlimit="10" stroke-linejoin="miter" fill="none" stroke="#000000" d="M0 0H21.596"/>
<path transform="matrix(1,0,0,-1,323.2857,243.78522)" stroke-width="1" stroke-linecap="butt" stroke-miterlimit="10" stroke-linejoin="miter" fill="none" stroke="#000000" d="M0 0V-89.342H-30.095"/>
<path transform="matrix(1,0,0,-1,281.127,334.3968)" stroke-width="1" stroke-linecap="butt" stroke-miterlimit="10" stroke-linejoin="miter" fill="none" stroke="#000000" d="M0 0H7.201"/>
<path transform="matrix(1,0,0,-1,355.4286,243.2857)" stroke-width="1" stroke-linecap="butt" stroke-miterlimit="10" stroke-linejoin="miter" fill="none" stroke="#000000" d="M0 0H20.238"/>
<path transform="matrix(1,0,0,-1,323.2857,333.127)" stroke-width="1" stroke-linecap="butt" stroke-miterlimit="10" stroke-linejoin="miter" fill="none" stroke="#000000" d="M0 0H6.476"/>
<path transform="matrix(1,0,0,-1,334.9048,332.2714)" stroke-width="1" stroke-linecap="butt" stroke-miterlimit="10" stroke-linejoin="miter" fill="none" stroke="#000000" d="M0 0 31.963 .35 30.992 88.986"/>
<path transform="matrix(1,0,0,-1,398.124,241.445)" stroke-width="1" stroke-linecap="butt" stroke-miterlimit="10" stroke-linejoin="miter" fill="none" stroke="#000000" d="M0 0H23.447"/>
<path transform="matrix(1,0,0,-1,443.0952,241.445)" stroke-width="1" stroke-linecap="butt" stroke-miterlimit="10" stroke-linejoin="miter" fill="none" stroke="#000000" d="M0 0 20.381 .54"/>
<path transform="matrix(1,0,0,-1,486.2381,240.2381)" stroke-width="1" stroke-linecap="butt" stroke-miterlimit="10" stroke-linejoin="miter" fill="none" stroke="#000000" d="M0 0 24.095 .698"/>
<path transform="matrix(1,0,0,-1,492.4286,228.49213)" stroke-width="1" stroke-linecap="butt" stroke-miterlimit="10" stroke-linejoin="miter" fill="none" stroke="#000000" d="M0 0H9.016"/>
<path transform="matrix(1,0,0,-1,496.9365,227.85712)" stroke-width="1" stroke-linecap="butt" stroke-miterlimit="10" stroke-linejoin="miter" fill="none" stroke="#000000" d="M0 0-2.095-101.079-119.556-103.619"/>
<path transform="matrix(1,0,0,-1,526.9048,238.5238)" stroke-width="1" stroke-linecap="butt" stroke-miterlimit="10" stroke-linejoin="miter" fill="none" stroke="#000000" d="M0 0H13.266L18.852 167.224H8"/>
<path transform="matrix(1,0,0,-1,543.0952,171.09522)" stroke-width="1" stroke-linecap="butt" stroke-miterlimit="10" stroke-linejoin="miter" fill="none" stroke="#000000" d="M0 0H-44.81V-38.667H-39.81"/>
<path transform="matrix(1,0,0,-1,498.2857,209.7619)" stroke-width="1" stroke-linecap="butt" stroke-miterlimit="10" stroke-linejoin="miter" fill="none" stroke="#000000" d="M0 0H-5.857"/>
<path transform="matrix(1,0,0,-1,540.1707,238.5238)" stroke-width="1" stroke-linecap="butt" stroke-miterlimit="10" stroke-linejoin="miter" fill="none" stroke="#000000" d="M0 0-7.996-244.444-95.196-246.222"/>
<path transform="matrix(1,0,0,-1,436.1746,485.254)" stroke-width="1" stroke-linecap="butt" stroke-miterlimit="10" stroke-linejoin="miter" fill="none" stroke="#000000" d="M0 0H-6.603"/>
<path transform="matrix(1,0,0,-1,432.2381,500.6825)" stroke-width="1" stroke-linecap="butt" stroke-miterlimit="10" stroke-linejoin="miter" fill="none" stroke="#000000" d="M0 0V15.429"/>
<path transform="matrix(1,0,0,-1,450.3333,499.8571)" stroke-width="1" stroke-linecap="butt" stroke-miterlimit="10" stroke-linejoin="miter" fill="none" stroke="#000000" d="M0 0V15.224"/>
<path transform="matrix(1,0,0,-1,421,485.254)" stroke-width="1" stroke-linecap="butt" stroke-miterlimit="10" stroke-linejoin="miter" fill="none" stroke="#000000" d="M0 0H-55.429"/>
<path transform="matrix(1,0,0,-1,370.8095,501.9524)" stroke-width="1" stroke-linecap="butt" stroke-miterlimit="10" stroke-linejoin="miter" fill="none" stroke="#000000" d="M0 0V16.698"/>
<path transform="matrix(1,0,0,-1,364.9365,521.69839)" stroke-width="1" stroke-linecap="butt" stroke-miterlimit="10" stroke-linejoin="miter" fill="none" stroke="#000000" d="M0 0H10.921"/>
<path transform="matrix(1,0,0,-1,370.8095,537.44448)" stroke-width="1" stroke-linecap="butt" stroke-miterlimit="10" stroke-linejoin="miter" fill="none" stroke="#000000" d="M0 0V15.746"/>
<path transform="matrix(1,0,0,-1,437.3175,525.7619)" stroke-width="1" stroke-linecap="butt" stroke-miterlimit="10" stroke-linejoin="miter" fill="none" stroke="#000000" d="M0 0-66.921-1"/>
<path transform="matrix(1,0,0,-1,432.2381,509.7619)" stroke-width="1" stroke-linecap="butt" stroke-miterlimit="10" stroke-linejoin="miter" fill="none" stroke="#000000" d="M0 0V-29.968"/>
<path transform="matrix(1,0,0,-1,437.3175,539.7302)" stroke-width="1" stroke-linecap="butt" stroke-miterlimit="10" stroke-linejoin="miter" fill="none" stroke="#000000" d="M0 0H-9.651"/>
<path transform="matrix(1,0,0,-1,366.5873,557.127)" stroke-width="1" stroke-linecap="butt" stroke-miterlimit="10" stroke-linejoin="miter" fill="none" stroke="#000000" d="M0 0H9.27"/>
<path transform="matrix(1,0,0,-1,370.3968,576.84097)" stroke-width="1" stroke-linecap="butt" stroke-miterlimit="10" stroke-linejoin="miter" fill="none" stroke="#000000" d="M0 0V19.714"/>
<path transform="matrix(1,0,0,-1,431.4762,548.746)" stroke-width="1" stroke-linecap="butt" stroke-miterlimit="10" stroke-linejoin="miter" fill="none" stroke="#000000" d="M0 0V-40.803"/>
<path transform="matrix(1,0,0,-1,437.3175,589.5489)" stroke-width="1" stroke-linecap="butt" stroke-miterlimit="10" stroke-linejoin="miter" fill="none" stroke="#000000" d="M0 0H-10.794"/>
<path transform="matrix(1,0,0,-1,437.9524,564.873)" stroke-width="1" stroke-linecap="butt" stroke-miterlimit="10" stroke-linejoin="miter" fill="none" stroke="#000000" d="M0 0H-68.064"/>
<path transform="matrix(1,0,0,-1,366.5873,595.7302)" stroke-width="1" stroke-linecap="butt" stroke-miterlimit="10" stroke-linejoin="miter" fill="none" stroke="#000000" d="M0 0H8.635"/>
<path transform="matrix(1,0,0,-1,436.6825,603.4814)" stroke-width="1" stroke-linecap="butt" stroke-miterlimit="10" stroke-linejoin="miter" fill="none" stroke="#000000" d="M0 0H-66.286V8.513"/>
<path transform="matrix(1,0,0,-1,431.4762,602.9682)" stroke-width="1" stroke-linecap="butt" stroke-miterlimit="10" stroke-linejoin="miter" fill="none" stroke="#000000" d="M0 0V3.743"/>
<path transform="matrix(1,0,0,-1,429.5714,500.6825)" stroke-width="1" stroke-linecap="butt" stroke-miterlimit="10" stroke-linejoin="miter" fill="none" stroke="#000000" d="M0 0H6.603"/>
<path transform="matrix(1,0,0,-1,443.7619,499.8571)" stroke-width="1" stroke-linecap="butt" stroke-miterlimit="10" stroke-linejoin="miter" fill="none" stroke="#000000" d="M0 0H12.095"/>
<path transform="matrix(1,0,0,-1,449.5714,509.7619)" stroke-width="1" stroke-linecap="butt" stroke-miterlimit="10" stroke-linejoin="miter" fill="none" stroke="#000000" d="M0 0-.762-69.048"/>
<path transform="matrix(1,0,0,-1,448.9734,563.9531)" stroke-width="1" stroke-linecap="butt" stroke-miterlimit="10" stroke-linejoin="miter" fill="none" stroke="#000000" d="M0 0H83.836"/>
<path transform="matrix(1,0,0,-1,532.1746,482.9767)" stroke-width="1" stroke-linecap="butt" stroke-miterlimit="10" stroke-linejoin="miter" fill="none" stroke="#000000" d="M0 0V-9.833"/>
<path transform="matrix(1,0,0,-1,538.5238,492.8095)" stroke-width="1" stroke-linecap="butt" stroke-miterlimit="10" stroke-linejoin="miter" fill="none" stroke="#000000" d="M0 0H-12.095"/>
<path transform="matrix(1,0,0,-1,531.1588,513.9524)" stroke-width="1" stroke-linecap="butt" stroke-miterlimit="10" stroke-linejoin="miter" fill="none" stroke="#000000" d="M0 0V-18.667"/>
<path transform="matrix(1,0,0,-1,527.2222,532.619)" stroke-width="1" stroke-linecap="butt" stroke-miterlimit="10" stroke-linejoin="miter" fill="none" stroke="#000000" d="M0 0H9.016"/>
<path transform="matrix(1,0,0,-1,528.873,553.0635)" stroke-width="1" stroke-linecap="butt" stroke-miterlimit="10" stroke-linejoin="miter" fill="none" stroke="#000000" d="M0 0V-20.317L-5.083-20.192"/>
<path transform="matrix(1,0,0,-1,528.873,573.381)" stroke-width="1" stroke-linecap="butt" stroke-miterlimit="10" stroke-linejoin="miter" fill="none" stroke="#000000" d="M0 0H3.429"/>
<path transform="matrix(1,0,0,-1,442.7778,578.8095)" stroke-width="1" stroke-linecap="butt" stroke-miterlimit="10" stroke-linejoin="miter" fill="none" stroke="#000000" d="M0 0H11.556"/>
<path transform="matrix(1,0,0,-1,448.8095,588.619)" stroke-width="1" stroke-linecap="butt" stroke-miterlimit="10" stroke-linejoin="miter" fill="none" stroke="#000000" d="M0 0V-65.905"/>
<path transform="matrix(1,0,0,-1,441.6349,654.5238)" stroke-width="1" stroke-linecap="butt" stroke-miterlimit="10" stroke-linejoin="miter" fill="none" stroke="#000000" d="M0 0H12.698"/>
<path transform="matrix(1,0,0,-1,448.8095,641.69839)" stroke-width="1" stroke-linecap="butt" stroke-miterlimit="10" stroke-linejoin="miter" fill="none" stroke="#000000" d="M0 0H78.413V9.516"/>
<path transform="matrix(1,0,0,-1,522.1429,650.9682)" stroke-width="1" stroke-linecap="butt" stroke-miterlimit="10" stroke-linejoin="miter" fill="none" stroke="#000000" d="M0 0H9.587"/>
<path transform="matrix(1,0,0,-1,527.2222,650.9682)" stroke-width="1" stroke-linecap="butt" stroke-miterlimit="10" stroke-linejoin="miter" fill="none" stroke="#000000" d="M0 0V9.27H4.825"/>
<path transform="matrix(1,0,0,-1,522.1429,612.746)" stroke-width="1" stroke-linecap="butt" stroke-miterlimit="10" stroke-linejoin="miter" fill="none" stroke="#000000" d="M0 0H11.429"/>
<path transform="matrix(1,0,0,-1,527.8571,592.9365)" stroke-width="1" stroke-linecap="butt" stroke-miterlimit="10" stroke-linejoin="miter" fill="none" stroke="#000000" d="M0 0V-19.81"/>
<path transform="matrix(1,0,0,-1,526.3317,670.01589)" stroke-width="1" stroke-linecap="butt" stroke-miterlimit="10" stroke-linejoin="miter" fill="none" stroke="#000000" d="M0 0V-19.302H-5.078 0 4.256"/>
<path transform="matrix(1,0,0,-1,447.9841,664.6825)" stroke-width="1" stroke-linecap="butt" stroke-miterlimit="10" stroke-linejoin="miter" fill="none" stroke="#000000" d="M0 0V-29.968H-3.81 0 5.333"/>
<path transform="matrix(1,0,0,-1,447.9841,679.6667)" stroke-width="1" stroke-linecap="butt" stroke-miterlimit="10" stroke-linejoin="miter" fill="none" stroke="#000000" d="M0 0H82.603"/>
<path transform="matrix(1,0,0,-1,448.746,703.1813)" stroke-width="1" stroke-linecap="butt" stroke-miterlimit="10" stroke-linejoin="miter" fill="none" stroke="#000000" d="M0 0V-66.644H-6.222 0 4.571"/>
<path transform="matrix(1,0,0,-1,529.6349,717.127)" stroke-width="1" stroke-linecap="butt" stroke-miterlimit="10" stroke-linejoin="miter" fill="none" stroke="#000000" d="M0 0-81.651-.635"/>
<path transform="matrix(1,0,0,-1,525.9207,709.127)" stroke-width="1" stroke-linecap="butt" stroke-miterlimit="10" stroke-linejoin="miter" fill="none" stroke="#000000" d="M0 0V-17.524"/>
<path transform="matrix(1,0,0,-1,520.746,726.6508)" stroke-width="1" stroke-linecap="butt" stroke-miterlimit="10" stroke-linejoin="miter" fill="none" stroke="#000000" d="M0 0H10.984"/>
<path transform="matrix(1,0,0,-1,524.4286,746.8777)" stroke-width="1" stroke-linecap="butt" stroke-miterlimit="10" stroke-linejoin="miter" fill="none" stroke="#000000" d="M0 0V-17.868H5.206-4.952"/>
<g clip-path="url(#clip_9)">
<path transform="matrix(1,0,0,-1,523.7936,783.2857)" stroke-width="1" stroke-linecap="butt" stroke-miterlimit="10" stroke-linejoin="miter" fill="none" stroke="#000000" d="M0 0C-.127-.635 0-8.508 0-8.508H5.841 0L-76.571-9.778V4.571H-79.619-73.143"/>
<path transform="matrix(1,0,0,-1,371.2857,711.0318)" stroke-width="1" stroke-linecap="butt" stroke-miterlimit="10" stroke-linejoin="miter" fill="none" stroke="#000000" d="M0 0-.635 90.222H22.349V74.091H-.889"/>
<path transform="matrix(1,0,0,-1,382.0159,636.9404)" stroke-width="1" stroke-linecap="butt" stroke-miterlimit="10" stroke-linejoin="miter" fill="none" stroke="#000000" d="M0 0V16.131"/>
<path transform="matrix(1,0,0,-1,403.7416,621.5714)" stroke-width="1" stroke-linecap="butt" stroke-miterlimit="10" stroke-linejoin="miter" fill="none" stroke="#000000" d="M0 0 32.941 .762"/>
<path transform="matrix(1,0,0,-1,431.4762,620.8095)" stroke-width="1" stroke-linecap="butt" stroke-miterlimit="10" stroke-linejoin="miter" fill="none" stroke="#000000" d="M0 0V-34.603L-60.579-35.029"/>
<path transform="matrix(1,0,0,-1,406.3333,638.3243)" stroke-width="1" stroke-linecap="butt" stroke-miterlimit="10" stroke-linejoin="miter" fill="none" stroke="#000000" d="M0 0H25.143"/>
<path transform="matrix(1,0,0,-1,413.1905,632.1823)" stroke-width="1" stroke-linecap="butt" stroke-miterlimit="10" stroke-linejoin="miter" fill="none" stroke="#000000" d="M0 0V-12.379"/>
<path transform="matrix(1,0,0,-1,431.4762,722.2063)" stroke-width="1" stroke-linecap="butt" stroke-miterlimit="10" stroke-linejoin="miter" fill="none" stroke="#000000" d="M0 0V54.095H-14.349"/>
<path transform="matrix(1,0,0,-1,431.4762,689.3175)" stroke-width="1" stroke-linecap="butt" stroke-miterlimit="10" stroke-linejoin="miter" fill="none" stroke="#000000" d="M0 0H-10.159-22.73-60.19"/>
<path transform="matrix(1,0,0,-1,390.0159,666.5873)" stroke-width="1" stroke-linecap="butt" stroke-miterlimit="10" stroke-linejoin="miter" fill="none" stroke="#000000" d="M0 0V-6.476H-19.002"/>
<path transform="matrix(1,0,0,-1,390.0159,673.0635)" stroke-width="1" stroke-linecap="butt" stroke-miterlimit="10" stroke-linejoin="miter" fill="none" stroke="#000000" d="M0 0H5.143"/>
<path transform="matrix(1,0,0,-1,390.0159,684.2381)" stroke-width="1" stroke-linecap="butt" stroke-miterlimit="10" stroke-linejoin="miter" fill="none" stroke="#000000" d="M0 0V-5.079"/>
<path transform="matrix(1,0,0,-1,398.8413,689.3175)" stroke-width="1" stroke-linecap="butt" stroke-miterlimit="10" stroke-linejoin="miter" fill="none" stroke="#000000" d="M0 0V-10.286H-4.19 0 32.635"/>
<path transform="matrix(1,0,0,-1,371.2857,719.9206)" stroke-width="1" stroke-linecap="butt" stroke-miterlimit="10" stroke-linejoin="miter" fill="none" stroke="#000000" d="M0 0V-12.444H5.785-2.921"/>
<path transform="matrix(1,0,0,-1,426.3968,732.3651)" stroke-width="1" stroke-linecap="butt" stroke-miterlimit="10" stroke-linejoin="miter" fill="none" stroke="#000000" d="M0 0H9.905"/>
<path transform="matrix(1,0,0,-1,430.7143,732.3651)" stroke-width="1" stroke-linecap="butt" stroke-miterlimit="10" stroke-linejoin="miter" fill="none" stroke="#000000" d="M0 0V-38.818"/>
<path transform="matrix(1,0,0,-1,435.5397,757.127)" stroke-width="1" stroke-linecap="butt" stroke-miterlimit="10" stroke-linejoin="miter" fill="none" stroke="#000000" d="M0 0H-63.619V6.476-11.302H-67.175-60.317"/>
<path transform="matrix(1,0,0,-1,427.3969,778.7143)" stroke-width="1" stroke-linecap="butt" stroke-miterlimit="10" stroke-linejoin="miter" fill="none" stroke="#000000" d="M0 0H8.143 4.071V-14.349L-55.476-15.492V-7.175"/>
<path transform="matrix(1,0,0,-1,366.8677,331.9211)" stroke-width="1" stroke-linecap="butt" stroke-miterlimit="10" stroke-linejoin="miter" fill="none" stroke="#000000" d="M0 0H6.767"/>
<path transform="matrix(1,0,0,-1,537.2547,327.6667)" stroke-width="1" stroke-linecap="butt" stroke-miterlimit="10" stroke-linejoin="miter" fill="none" stroke="#000000" d="M0 0-42.413-1.27"/>
<path transform="matrix(1,0,0,-1,536.6857,345.0615)" stroke-width="1" stroke-linecap="butt" stroke-miterlimit="10" stroke-linejoin="miter" fill="none" stroke="#000000" d="M0 0-101.116-2.161"/>
<path transform="matrix(1,0,0,-1,417.6349,347.2222)" stroke-width="1" stroke-linecap="butt" stroke-miterlimit="10" stroke-linejoin="miter" fill="none" stroke="#000000" d="M0 0H9.651"/>
<path transform="matrix(1,0,0,-1,423.3492,347.2222)" stroke-width="1" stroke-linecap="butt" stroke-miterlimit="10" stroke-linejoin="miter" fill="none" stroke="#000000" d="M0 0V-64.762L72.222-64.127"/>
<path transform="matrix(1,0,0,-1,490.9066,346.0398)" stroke-width="1" stroke-linecap="butt" stroke-miterlimit="10" stroke-linejoin="miter" fill="none" stroke="#000000" d="M0 0-.631-65.309"/>
<path transform="matrix(1,0,0,-1,534.8819,410.199)" stroke-width="1" stroke-linecap="butt" stroke-miterlimit="10" stroke-linejoin="miter" fill="none" stroke="#000000" d="M0 0-26.031-1.016"/>
<path transform="matrix(1,0,0,-1,255.1587,351.6667)" stroke-width="1" stroke-linecap="butt" stroke-miterlimit="10" stroke-linejoin="miter" fill="none" stroke="#000000" d="M0 0H-16.063V-6.095H-8.032"/>
<path transform="matrix(1,0,0,-1,239.0952,357.7619)" stroke-width="1" stroke-linecap="butt" stroke-miterlimit="10" stroke-linejoin="miter" fill="none" stroke="#000000" d="M0 0 1.905-58.286H11.807"/>
<path transform="matrix(1,0,0,-1,270.9683,415.4127)" stroke-width="1" stroke-linecap="butt" stroke-miterlimit="10" stroke-linejoin="miter" fill="none" stroke="#000000" d="M0 0H20.698"/>
<path transform="matrix(1,0,0,-1,282.0159,383.2889)" stroke-width="1" stroke-linecap="butt" stroke-miterlimit="10" stroke-linejoin="miter" fill="none" stroke="#000000" d="M0 0V-32.124"/>
<path transform="matrix(1,0,0,-1,282.0159,385.4445)" stroke-width="1" stroke-linecap="butt" stroke-miterlimit="10" stroke-linejoin="miter" fill="none" stroke="#000000" d="M0 0H-5.574"/>
<path transform="matrix(1,0,0,-1,240.1412,389.7692)" stroke-width="1" stroke-linecap="butt" stroke-miterlimit="10" stroke-linejoin="miter" fill="none" stroke="#000000" d="M0 0H17.621"/>
<path transform="matrix(1,0,0,-1,282.0159,389.7692)" stroke-width="1" stroke-linecap="butt" stroke-miterlimit="10" stroke-linejoin="miter" fill="none" stroke="#000000" d="M0 0H-13.587"/>
<path transform="matrix(1,0,0,-1,333.3175,414.5238)" stroke-width="1" stroke-linecap="butt" stroke-miterlimit="10" stroke-linejoin="miter" fill="none" stroke="#000000" d="M0 0H-19.302"/>
<path transform="matrix(1,0,0,-1,320.1111,396.4921)" stroke-width="1" stroke-linecap="butt" stroke-miterlimit="10" stroke-linejoin="miter" fill="none" stroke="#000000" d="M0 0H10.921"/>
<path transform="matrix(1,0,0,-1,324.4286,414.5238)" stroke-width="1" stroke-linecap="butt" stroke-miterlimit="10" stroke-linejoin="miter" fill="none" stroke="#000000" d="M0 0V18.032"/>
<path transform="matrix(1,0,0,-1,299.7936,350.0159)" stroke-width="1" stroke-linecap="butt" stroke-miterlimit="10" stroke-linejoin="miter" fill="none" stroke="#000000" d="M0 0H29.968"/>
<path transform="matrix(1,0,0,-1,323.6667,386.9048)" stroke-width="1" stroke-linecap="butt" stroke-miterlimit="10" stroke-linejoin="miter" fill="none" stroke="#000000" d="M0 0V36.889"/>
<path transform="matrix(1,0,0,-1,329.7619,382.5238)" stroke-width="1" stroke-linecap="butt" stroke-miterlimit="10" stroke-linejoin="miter" fill="none" stroke="#000000" d="M0 0H-6.476"/>
<path transform="matrix(1,0,0,-1,292.4286,383.2889)" stroke-width="1" stroke-linecap="butt" stroke-miterlimit="10" stroke-linejoin="miter" fill="none" stroke="#000000" d="M0 0H31.238"/>
<path transform="matrix(1,0,0,-1,299.7936,364.1337)" stroke-width="1" stroke-linecap="butt" stroke-miterlimit="10" stroke-linejoin="miter" fill="none" stroke="#000000" d="M0 0V-18.771"/>
<path transform="matrix(1,0,0,-1,264.619,351.0317)" stroke-width="1" stroke-linecap="butt" stroke-miterlimit="10" stroke-linejoin="miter" fill="none" stroke="#000000" d="M0 0H17.397"/>
<path transform="matrix(1,0,0,-1,334.9048,349.3608)" stroke-width="1" stroke-linecap="butt" stroke-miterlimit="10" stroke-linejoin="miter" fill="none" stroke="#000000" d="M0 0H32.476"/>
<path transform="matrix(1,0,0,-1,376.619,348.619)" stroke-width="1" stroke-linecap="butt" stroke-miterlimit="10" stroke-linejoin="miter" fill="none" stroke="#000000" d="M0 0H30.19L29.619-64.286-22.286-65.238"/>
<path transform="matrix(1,0,0,-1,359.0952,350.619)" stroke-width="4" stroke-linecap="round" stroke-linejoin="round" fill="none" stroke="#000000" d="M0 0V-67.714"/>
<path transform="matrix(1,0,0,-1,371.2857,679.6667)" stroke-width="1" stroke-linecap="butt" stroke-miterlimit="10" stroke-linejoin="miter" fill="none" stroke="#000000" d="M0 0H-20.19V-6"/>
<path transform="matrix(1,0,0,-1,345.7619,699.6032)" stroke-width="1" stroke-linecap="butt" stroke-miterlimit="10" stroke-linejoin="miter" fill="none" stroke="#000000" d="M0 0H5.81 25.206 32.127"/>
<path transform="matrix(1,0,0,-1,351.8571,691.2857)" stroke-width="1" stroke-linecap="butt" stroke-miterlimit="10" stroke-linejoin="miter" fill="none" stroke="#000000" d="M0 0V-8.317"/>
</g>
</g>
</g>
</svg>
