<?xml version="1.0" encoding="utf-8" ?>
<svg xmlns="http://www.w3.org/2000/svg" xmlns:xlink="http://www.w3.org/1999/xlink" width="1280" height="1920">
	<rect fill="white" width="1280" height="1920"/>
	<clipPath id="cl_8">
		<rect x="42.519684" y="42.519684" width="226.77164" height="226.77164"/>
	</clipPath>
	<g clip-path="url(#cl_8)">
		<path transform="matrix(2.70354 0 0 2.70354 227.407 213.99)" d="M7.258 -5.545L7.63 -5.545L7.629 -5.295L7.008 -5.295L7.008 -15.864L7.258 -16.268L7.258 -5.545M9.098 -5.295L8.848 -5.295L8.848 -5.555L8.846 -15.15L9.096 -15.15L9.098 -5.295M-15.592 -5.658L-14.196 -5.658L-14.196 -5.408L-15.842 -5.408L-15.842 -5.451L-15.713 -5.693L-15.712 -5.693L-15.712 -5.695L-15.708 -5.702L-15.712 -5.704L-15.712 -6.71L-15.592 -6.71L-15.592 -5.658M-10.718 -5.409L-12.043 -5.409L-12.044 -5.659L-10.718 -5.659L-10.718 -5.409M-3.938 -5.411L-8.565 -5.41L-8.565 -5.66L-3.938 -5.661L-3.938 -5.411M0.361 -5.833L0.352 -5.819L0.361 -5.813L0.486 -5.736L0.486 -5.412L-1.785 -5.411L-1.785 -5.661L0.236 -5.662L0.236 -6.914L0.359 -6.914L0.361 -5.833M-15.715 -26.105L-8.75 -26.105L-8.751 -29.76L-15.715 -29.758L-15.715 -29.891L-16.903 -29.889L-16.903 -30.008L-8.619 -30.01L-8.62 -33.82L-30.46 -33.804L-30.459 -30.004L-21.822 -30.006L-21.822 -29.883L-21.893 -29.883L-21.893 -28.748L-22.017 -28.748L-22.017 -29.878L-30.446 -29.889L-30.442 -13.572L-22.016 -13.588L-22.016 -14.708L-21.899 -14.708L-21.9 -13.461L-30.232 -13.457L-30.249 -13.466L-30.326 -13.323L-30.692 -13.322L-30.705 -13.322L-30.709 -29.754L-30.71 -34.054L-30.71 -34.076L-8.752 -34.092L-8.462 -34.092L-8.462 -33.83L-8.502 -33.83L-8.497 -10.323L-8.618 -10.323L-8.62 -25.855L-15.594 -25.855L-15.594 -9.734L-9.381 -9.734L-9.381 -9.614L-15.593 -9.613L-15.593 -8.843L-15.712 -8.843L-15.715 -26.105M0.355 -9.042L0.236 -9.041L0.236 -9.606L-6.927 -9.604L-6.928 -22.45L0.331 -22.45L0.355 -9.042M-6.808 -22.331L-6.807 -9.724L0.226 -9.726L0.216 -22.333L-6.808 -22.331M-43.698 -14.005L-46.114 -14.005L-46.114 -14.255L-43.698 -14.255L-43.698 -14.005M-47.155 -14.255L-47.155 -14.005L-56.553 -14.006L-56.553 -14.256L-47.155 -14.255M-63.434 -16.005L-64.858 -16.005L-64.858 -14.257L-57.843 -14.256L-57.843 -14.006L-65.108 -14.007L-65.108 -16.254L-63.684 -16.254L-63.684 -19.085L-66.137 -19.087L-66.137 -20.105L-68.134 -20.102L-68.135 -20.606L-67.884 -20.606L-67.884 -20.352L-65.887 -20.355L-65.887 -19.337L-63.564 -19.335L-63.434 -19.335L-63.434 -16.005M-63.555 -20.391L-61.943 -20.39L-61.944 -23.963L-65.89 -23.96L-65.888 -21.98L-67.887 -21.976L-67.885 -20.906L-68.135 -20.906L-68.137 -22.226L-66.138 -22.229L-66.14 -24.21L-61.695 -24.213L-61.691 -16.254L-43.698 -16.256L-43.698 -15.595L-43.948 -15.595L-43.948 -16.006L-61.949 -16.004L-61.95 -20.27L-63.424 -20.271L-63.424 -20.35L-63.555 -20.35L-63.555 -20.391M14.931 -18.688L15.182 -18.688L15.182 -18.036L9.095 -18.036L9.096 -15.795L8.846 -15.795L8.845 -18.286L14.931 -18.286L14.931 -18.688M-21.899 -16.639L-22.016 -16.639L-22.016 -17.892L-21.898 -17.892L-21.899 -16.639M7.258 -16.711L7.141 -16.783L7.138 -23.155L7.257 -23.155L7.258 -16.711M-21.898 -19.027L-22.016 -19.027L-22.016 -19.074L-21.898 -19.074L-21.898 -19.027M11.816 -19.836L11.816 -19.956L11.865 -19.956L11.865 -21.491L14.932 -21.491L14.932 -22.401L15.182 -22.401L15.182 -19.767L14.931 -19.768L14.931 -19.836L14.889 -19.836L14.889 -19.956L14.932 -19.956L14.932 -21.371L11.985 -21.371L11.985 -19.956L12.831 -19.956L12.831 -19.836L11.816 -19.836M8.965 -19.836L8.965 -19.828L8.845 -19.828L8.844 -23.522L14.93 -23.522L14.93 -26.89L12.222 -26.89L12.221 -27.973L8.843 -27.973L8.841 -37.424L8.809 -37.424L8.809 -37.674L9.091 -37.674L9.093 -28.223L12.471 -28.223L12.472 -27.14L15.182 -27.14L15.182 -23.237L14.932 -23.237L14.932 -23.403L8.965 -23.402L8.964 -19.956L11.037 -19.956L11.037 -19.836L8.965 -19.836M14.246 -19.836L13.508 -19.836L13.508 -19.956L14.246 -19.956L14.246 -19.836M-21.897 -20.712L-22.016 -20.712L-22.017 -22.717L-21.896 -22.717L-21.897 -20.712M0.191 -33.848L-6.811 -33.843L-6.807 -23.518L0.199 -23.521L0.197 -26.231L0.317 -26.231L0.317 -26.232L0.324 -26.232L0.329 -23.39L0.206 -23.39L0.206 -23.4L-6.928 -23.4L-6.929 -33.83L-7.021 -33.83L-7.021 -34.092L0.441 -34.098L0.468 -34.098L0.468 -33.858L0.31 -33.858L0.313 -32.426L0.192 -32.426L0.191 -33.848M7.257 -23.857L7.138 -23.857L7.138 -23.982L7.257 -23.982L7.257 -23.857M8.964 -24.338L8.844 -24.338L8.843 -27.573L8.964 -27.573L8.964 -24.338M-22.017 -27.253L-21.894 -27.253L-21.895 -24.669L-22.017 -24.669L-22.017 -27.253M7.309 -37.424L7.257 -37.424L7.257 -25.834L7.137 -25.834L7.133 -33.865L7.007 -33.865L7.007 -37.674L7.309 -37.674L7.309 -37.424M0.194 -29.977L0.317 -29.977L0.321 -27.841L0.196 -27.841L0.194 -29.977M-18.83 -30.007L-18.83 -29.887L-19.827 -29.886L-19.827 -30.007L-18.83 -30.007M0.193 -30.933L0.313 -30.933L0.313 -30.934L0.315 -30.934L0.316 -30.723L0.193 -30.723L0.193 -30.933"/>
		<path transform="matrix(2.70354 0 0 2.70354 227.407 213.99)" d="M-15.652 -5.593L-15.741 -5.64L-15.713 -5.693L-15.712 -5.693L-15.712 -5.695L-15.708 -5.702L-15.712 -5.704L-15.712 -6.71L-15.652 -6.71L-15.652 -5.593M0.361 -5.833L0.352 -5.819L0.361 -5.813L0.412 -5.782L0.301 -5.603L0.299 -6.914L0.359 -6.914L0.361 -5.833M-15.653 -8.843L-15.712 -8.843L-15.715 -29.891L-16.903 -29.889L-16.903 -29.949L-15.656 -29.951L-15.653 -8.843M0.355 -9.042L0.295 -9.041L0.271 -22.45L0.331 -22.45L0.355 -9.042M-21.9 -13.461L-30.232 -13.457L-30.249 -13.466L-30.282 -13.404L-30.493 -13.517L-21.96 -13.521L-21.959 -14.708L-21.899 -14.708L-21.9 -13.461M-21.899 -16.639L-21.959 -16.639L-21.958 -17.892L-21.898 -17.892L-21.899 -16.639M7.201 -16.766L7.192 -16.752L7.141 -16.783L7.138 -23.155L7.198 -23.155L7.201 -16.766M-21.898 -19.027L-21.958 -19.027L-21.958 -19.074L-21.898 -19.074L-21.898 -19.027M-21.897 -20.712L-21.957 -20.712L-21.956 -22.717L-21.896 -22.717L-21.897 -20.712M0.264 -26.231L0.317 -26.231L0.317 -26.232L0.324 -26.232L0.329 -23.39L0.269 -23.39L0.264 -26.231M7.198 -23.857L7.138 -23.857L7.138 -23.982L7.198 -23.982L7.198 -23.857M-21.954 -27.253L-21.894 -27.253L-21.895 -24.669L-21.955 -24.669L-21.954 -27.253M7.197 -25.834L7.137 -25.834L7.133 -33.865L6.066 -33.864L6.066 -33.924L7.193 -33.925L7.197 -25.834M0.257 -29.977L0.317 -29.977L0.321 -27.841L0.261 -27.841L0.257 -29.977M-21.953 -29.943L-21.822 -29.943L-21.822 -29.883L-21.893 -29.883L-21.893 -28.748L-21.954 -28.748L-21.953 -29.943M-18.83 -29.887L-19.827 -29.886L-19.827 -29.946L-18.83 -29.947L-18.83 -29.887M0.255 -30.933L0.313 -30.933L0.313 -30.934L0.315 -30.934L0.316 -30.723L0.256 -30.723L0.255 -30.933M0.25 -33.918L1.356 -33.919L1.356 -33.859L0.31 -33.858L0.313 -32.426L0.253 -32.426L0.25 -33.918M4.31 -33.862L3.095 -33.861L3.095 -33.921L4.31 -33.922L4.31 -33.862"/>
		<path fill="#000019" fill-opacity="0.06666667" transform="matrix(2.70354 0 0 2.70354 227.407 213.99)" d="M8.809 -37.424L8.841 -37.424L8.843 -27.973L12.221 -27.973L12.222 -26.89L14.93 -26.89L14.93 -23.522L8.844 -23.522L8.845 -19.828L8.965 -19.828L8.965 -19.836L11.037 -19.836L11.037 -19.956L8.964 -19.956L8.965 -23.402L14.932 -23.403L14.932 -23.237L15.057 -23.237L15.057 -22.401L14.932 -22.401L14.932 -21.491L11.865 -21.491L11.865 -19.956L11.816 -19.956L11.816 -19.836L12.831 -19.836L12.831 -19.956L11.985 -19.956L11.985 -21.371L14.932 -21.371L14.932 -19.956L14.889 -19.956L14.889 -19.836L14.931 -19.836L14.931 -19.768L15.056 -19.768L15.056 -18.688L14.931 -18.688L14.931 -18.286L8.845 -18.286L8.846 -15.795L8.971 -15.795L8.971 -15.15L8.846 -15.15L8.848 -5.55L8.848 -5.42L7.63 -5.42L7.63 -5.545L7.258 -5.545L7.257 -23.155L7.133 -23.155L7.133 -23.857L7.257 -23.857L7.257 -23.982L7.133 -23.982L7.132 -24.403L7.132 -25.834L7.257 -25.834L7.257 -37.424L7.309 -37.424L7.309 -37.549L8.809 -37.549L8.809 -37.424M-7.021 -33.83L-6.929 -33.83L-6.928 -23.4L0.206 -23.4L0.206 -23.39L0.334 -23.39L0.336 -22.45L-6.928 -22.45L-6.927 -9.604L0.236 -9.606L0.236 -9.041L0.36 -9.042L0.364 -6.914L0.236 -6.914L0.236 -5.662L-1.785 -5.661L-1.785 -5.536L-3.938 -5.536L-3.938 -5.661L-8.565 -5.66L-8.565 -5.535L-10.718 -5.534L-10.718 -5.659L-12.044 -5.659L-12.044 -5.534L-14.196 -5.533L-14.196 -5.658L-15.592 -5.658L-15.592 -6.71L-15.717 -6.71L-15.718 -8.843L-15.593 -8.843L-15.593 -9.613L-8.497 -9.614L-8.502 -33.83L-8.462 -33.83L-8.462 -33.955L-7.021 -33.955L-7.021 -33.83M0.226 -9.726L-6.807 -9.724L-6.808 -22.331L0.216 -22.333L0.226 -9.726M-8.618 -9.734L-15.594 -9.734L-15.594 -25.855L-8.62 -25.855L-8.618 -9.734M-22.017 -29.878L-22.017 -28.748L-21.889 -28.748L-21.89 -27.253L-22.017 -27.253L-22.017 -24.669L-21.891 -24.669L-21.891 -22.717L-22.017 -22.717L-22.016 -20.712L-21.892 -20.712L-21.893 -19.074L-22.016 -19.074L-22.016 -19.027L-21.893 -19.027L-21.893 -17.892L-22.016 -17.892L-22.016 -16.639L-21.894 -16.639L-21.894 -14.708L-22.016 -14.708L-22.016 -13.588L-30.442 -13.572L-30.446 -29.889L-22.017 -29.878M-61.943 -20.39L-63.555 -20.391L-63.555 -20.35L-63.429 -20.35L-63.429 -20.271L-61.95 -20.27L-61.949 -16.004L-43.948 -16.006L-43.948 -15.595L-43.823 -15.595L-43.823 -14.255L-46.114 -14.255L-46.114 -14.13L-47.155 -14.13L-47.155 -14.255L-56.553 -14.256L-56.553 -14.131L-57.843 -14.131L-57.843 -14.256L-64.858 -14.257L-64.858 -16.005L-63.434 -16.005L-63.434 -19.335L-63.559 -19.335L-65.887 -19.337L-65.887 -20.355L-67.884 -20.352L-67.884 -20.606L-68.009 -20.606L-68.01 -20.906L-67.885 -20.906L-67.887 -21.976L-65.888 -21.98L-65.89 -23.96L-61.944 -23.963L-61.943 -20.39M13.508 -19.956L13.508 -19.836L14.246 -19.836L14.246 -19.956L13.508 -19.956M0.192 -32.426L0.318 -32.426L0.321 -30.934L0.193 -30.933L0.193 -30.723L0.321 -30.723L0.322 -29.977L0.194 -29.977L0.196 -27.841L0.326 -27.841L0.329 -26.232L0.197 -26.231L0.199 -23.521L-6.807 -23.518L-6.811 -33.843L0.191 -33.848L0.192 -32.426M8.843 -27.573L8.844 -24.338L8.964 -24.338L8.964 -27.573L8.843 -27.573M-8.619 -30.01L-16.903 -30.008L-16.903 -29.884L-18.83 -29.882L-18.83 -30.007L-19.827 -30.007L-19.827 -29.88L-21.822 -29.878L-21.822 -30.006L-30.459 -30.004L-30.46 -33.804L-8.62 -33.82L-8.619 -30.01"/>
		<path fill="#000019" fill-opacity="0.06666667" transform="matrix(2.70354 0 0 2.70354 227.407 213.99)" d="M-7.881 -8.823L-9.381 -8.823L-9.381 -10.323L-7.881 -10.323L-7.881 -8.823"/>
		<clipPath id="cl_9">
			<rect x="202.0453" y="186.08173" width="4.0553131" height="4.0553131"/>
		</clipPath>
		<g clip-path="url(#cl_9)">
			<path fill="none" stroke="#7F7F7F" stroke-width="0.55482715" stroke-miterlimit="4" transform="matrix(2.70354 0 0 2.70354 227.407 213.99)" d="M-9.381 -7.36392L-6.42192 -10.323"/>
		</g>
		<path fill="white" fill-opacity="0.80000001" d="M42.5197 42.5197L269.291 42.5197L269.291 269.291L42.5197 269.291L42.5197 42.5197Z"/>
		<path transform="matrix(2.70354 0 0 2.70354 259.707 144.379)" d="M-2.98321 -1.82479L-2.98321 1.41021L-3.10321 1.41021L-3.10321 -1.82479L-2.98321 -1.82479M2.98279 -1.14179L0.27479 -1.14179L0.27379 -2.22479L-3.10321 -2.22479L-3.10321 -2.34479L0.39379 -2.34479L0.39479 -1.26179L3.10279 -1.26179L3.10279 2.34621L-3.10321 2.34621L-3.10321 2.22621L2.98279 2.22621L2.98279 -1.14179"/>
		<path fill="#EFEFEF" transform="matrix(2.70354 0 0 2.70354 259.707 144.379)" d="M0.27479 -1.14179L2.98279 -1.14179L2.98279 2.22621L-3.10821 2.22621L-3.10821 1.41021L-2.98321 1.41021L-2.98321 -1.82479L-3.10821 -1.82479L-3.10821 -2.22479L0.27379 -2.22479L0.27479 -1.14179"/>
	</g>
	<clipPath id="cl_a">
		<rect x="283.46457" y="42.519684" width="954.01575" height="1754.6063"/>
	</clipPath>
	<g clip-path="url(#cl_a)">
		<path fill="#7F7F7F" transform="matrix(113.548 0 0 113.548 816.955 919.81)" d="M0.270753 -2.22512L0.270753 -2.22512L0.279559 -2.22512L0.279559 -2.22512M0.270752 -2.24512L0.270751 -2.26512L0.279558 -2.26512L0.279559 -2.24512M0.27075 -2.28512L0.270749 -2.30512L0.279556 -2.30512L0.279557 -2.28512M0.270749 -2.32512L0.270748 -2.34512L0.279555 -2.34512L0.279555 -2.32512M0.270747 -2.36512L0.270746 -2.38512L0.279553 -2.38512L0.279554 -2.36512M0.270745 -2.40512L0.270745 -2.42512L0.279551 -2.42512L0.279552 -2.40512M0.270744 -2.44512L0.270743 -2.46512L0.27955 -2.46512L0.27955 -2.44512M0.270742 -2.48512L0.270741 -2.50512L0.279548 -2.50512L0.279549 -2.48512M0.27074 -2.52512L0.27074 -2.54512L0.279546 -2.54512L0.279547 -2.52512M0.270739 -2.56512L0.270738 -2.58512L0.279545 -2.58512L0.279546 -2.56512"/>
		<path fill="none" stroke="#7F7F7F" stroke-width="0.0088068182" stroke-miterlimit="4" transform="matrix(113.548 0 0 113.548 816.955 919.81)" d="M0.275145 -2.49512L0.27514 -2.62012"/>
		<path fill="#7F7F7F" transform="matrix(113.548 0 0 113.548 816.955 919.81)" d="M2.97925 -1.14245L2.97925 -1.14245L2.98805 -1.14245L2.98805 -1.14245M2.97925 -1.16245L2.97924 -1.18245L2.98805 -1.18245L2.98805 -1.16245M2.97924 -1.20245L2.97924 -1.22245L2.98805 -1.22245L2.98805 -1.20245M2.97924 -1.24245L2.97924 -1.26245L2.98805 -1.26245L2.98805 -1.24245M2.97924 -1.28245L2.97924 -1.30245L2.98805 -1.30245L2.98805 -1.28245M2.97924 -1.32245L2.97924 -1.34245L2.98805 -1.34245L2.98805 -1.32245M2.97924 -1.36245L2.97924 -1.38245L2.98804 -1.38245L2.98804 -1.36245M2.97924 -1.40245L2.97924 -1.42245L2.98804 -1.42245L2.98804 -1.40245M2.97923 -1.44245L2.97923 -1.46245L2.98804 -1.46245L2.98804 -1.44245M2.97923 -1.48245L2.97923 -1.50245L2.98804 -1.50245L2.98804 -1.48245M2.97923 -1.52245L2.97923 -1.54245L2.98804 -1.54245L2.98804 -1.52245M2.97923 -1.56245L2.97923 -1.58245L2.98804 -1.58245L2.98804 -1.56245M2.97923 -1.60245L2.97923 -1.62245L2.98803 -1.62245L2.98803 -1.60245M2.97923 -1.64245L2.97923 -1.66245L2.98803 -1.66245L2.98803 -1.64245M2.97922 -1.68245L2.97922 -1.70245L2.98803 -1.70245L2.98803 -1.68245M2.97922 -1.72245L2.97922 -1.74245L2.98803 -1.74245L2.98803 -1.72245M2.97922 -1.76245L2.97922 -1.78245L2.98803 -1.78245L2.98803 -1.76245M2.97922 -1.80245L2.97922 -1.82245L2.98803 -1.82245L2.98803 -1.80245M2.97922 -1.84245L2.97922 -1.86245L2.98802 -1.86245L2.98802 -1.84245M2.97922 -1.88245L2.97922 -1.90245L2.98802 -1.90245L2.98802 -1.88245M2.97921 -1.92245L2.97921 -1.94245L2.98802 -1.94245L2.98802 -1.92245M2.97921 -1.96245L2.97921 -1.98245L2.98802 -1.98245L2.98802 -1.96245M2.97921 -2.00245L2.97921 -2.02245L2.98802 -2.02245L2.98802 -2.00245M2.97921 -2.04245L2.97921 -2.06245L2.98802 -2.06245L2.98802 -2.04245M2.97921 -2.08245L2.97921 -2.10245L2.98801 -2.10245L2.98802 -2.08245M2.97921 -2.12245L2.97921 -2.14245L2.98801 -2.14245L2.98801 -2.12245M2.97921 -2.16245L2.9792 -2.18245L2.98801 -2.18245L2.98801 -2.16245M2.9792 -2.20245L2.9792 -2.22245L2.98801 -2.22245L2.98801 -2.20245M2.9792 -2.24245L2.9792 -2.26245L2.98801 -2.26245L2.98801 -2.24245M2.9792 -2.28245L2.9792 -2.30245L2.98801 -2.30245L2.98801 -2.28245M2.9792 -2.32245L2.9792 -2.34245L2.988 -2.34245L2.98801 -2.32245M2.9792 -2.36245L2.9792 -2.38245L2.988 -2.38245L2.988 -2.36245M2.9792 -2.40245L2.97919 -2.42245L2.988 -2.42245L2.988 -2.40245M2.97919 -2.44245L2.97919 -2.46245L2.988 -2.46245L2.988 -2.44245M2.97919 -2.48245L2.97919 -2.50245L2.988 -2.50245L2.988 -2.48245M2.97919 -2.52245L2.97919 -2.54245L2.988 -2.54245L2.988 -2.52245M2.97919 -2.56245L2.97919 -2.58245L2.98799 -2.58245L2.988 -2.56245"/>
		<path fill="none" stroke="#7F7F7F" stroke-width="0.0088068182" stroke-miterlimit="4" transform="matrix(113.548 0 0 113.548 816.955 919.81)" d="M2.9836 -2.49523L2.98359 -2.62023"/>
		<path fill="#7F7F7F" transform="matrix(113.548 0 0 113.548 816.955 919.81)" d="M0.275141 -2.59512L0.32514 -2.62012L0.325142 -2.57012L0.275141 -2.59512"/>
		<path fill="none" stroke="#7F7F7F" stroke-width="0.0088068182" stroke-miterlimit="4" transform="matrix(113.548 0 0 113.548 816.955 919.81)" d="M0.275141 -2.59512L0.32514 -2.62012L0.325142 -2.57012L0.275141 -2.59512"/>
		<path fill="#7F7F7F" transform="matrix(113.548 0 0 113.548 816.955 919.81)" d="M2.98359 -2.59523L2.93359 -2.57023L2.93359 -2.62023L2.98359 -2.59523"/>
		<path fill="none" stroke="#7F7F7F" stroke-width="0.0088068182" stroke-miterlimit="4" transform="matrix(113.548 0 0 113.548 816.955 919.81)" d="M2.98359 -2.59523L2.93359 -2.57023L2.93359 -2.62023L2.98359 -2.59523"/>
		<text fill="#7F7F7F" transform="translate(990.268 618.132)" font-size="12" font-family="Roboto" x="0, 6.7441406, 9.9082031, 16.652344, " y="11, ">
				2.71
		</text>
		<path fill="none" stroke="#7F7F7F" stroke-width="0.0088068182" stroke-miterlimit="4" transform="matrix(113.548 0 0 113.548 1001.97 625.132)" d=""/>
		<path fill="none" stroke="#7F7F7F" stroke-width="0.0088068182" stroke-miterlimit="4" transform="matrix(113.548 0 0 113.548 816.955 919.81)" d="M0.275141 -2.59512L1.49111 -2.59517M1.76762 -2.59518L2.98359 -2.59523"/>
		<path fill="#7F7F7F" transform="matrix(113.548 0 0 113.548 816.955 919.81)" d="M2.98365 -1.14685L2.98365 -1.14685L2.98365 -1.13805L2.98365 -1.13805M3.00365 -1.14685L3.02365 -1.14685L3.02365 -1.13804L3.00365 -1.13805M3.04365 -1.14685L3.06365 -1.14685L3.06365 -1.13804L3.04365 -1.13804M3.08365 -1.14685L3.10365 -1.14685L3.10365 -1.13804L3.08365 -1.13804M3.12365 -1.14685L3.14365 -1.14684L3.14365 -1.13804L3.12365 -1.13804M3.16365 -1.14684L3.18365 -1.14684L3.18365 -1.13804L3.16365 -1.13804M3.20365 -1.14684L3.22365 -1.14684L3.22365 -1.13803L3.20365 -1.13803M3.24365 -1.14684L3.26365 -1.14684L3.26365 -1.13803L3.24365 -1.13803M3.28365 -1.14684L3.30365 -1.14684L3.30365 -1.13803L3.28365 -1.13803M3.32365 -1.14683L3.34365 -1.14683L3.34365 -1.13803L3.32365 -1.13803"/>
		<path fill="none" stroke="#7F7F7F" stroke-width="0.0088068182" stroke-miterlimit="4" transform="matrix(113.548 0 0 113.548 816.955 919.81)" d="M3.25365 -1.14243L3.37865 -1.14243"/>
		<path fill="#7F7F7F" transform="matrix(113.548 0 0 113.548 816.955 919.81)" d="M2.98346 2.22105L2.98346 2.22105L2.98346 2.22985L2.98346 2.22985M3.00346 2.22105L3.02346 2.22105L3.02346 2.22986L3.00346 2.22985M3.04346 2.22105L3.06346 2.22105L3.06346 2.22986L3.04346 2.22986M3.08346 2.22105L3.10346 2.22105L3.10346 2.22986L3.08346 2.22986M3.12346 2.22105L3.14346 2.22106L3.14346 2.22986L3.12346 2.22986M3.16346 2.22106L3.18346 2.22106L3.18346 2.22986L3.16346 2.22986M3.20346 2.22106L3.22346 2.22106L3.22346 2.22987L3.20346 2.22987M3.24346 2.22106L3.26346 2.22106L3.26346 2.22987L3.24346 2.22987M3.28346 2.22106L3.30346 2.22106L3.30346 2.22987L3.28346 2.22987M3.32346 2.22107L3.34346 2.22107L3.34346 2.22987L3.32346 2.22987"/>
		<path fill="none" stroke="#7F7F7F" stroke-width="0.0088068182" stroke-miterlimit="4" transform="matrix(113.548 0 0 113.548 816.955 919.81)" d="M3.25346 2.22547L3.37846 2.22547"/>
		<path fill="#7F7F7F" transform="matrix(113.548 0 0 113.548 816.955 919.81)" d="M3.35365 -1.14243L3.37865 -1.09243L3.32865 -1.09243L3.35365 -1.14243"/>
		<path fill="none" stroke="#7F7F7F" stroke-width="0.0088068182" stroke-miterlimit="4" transform="matrix(113.548 0 0 113.548 816.955 919.81)" d="M3.35365 -1.14243L3.37865 -1.09243L3.32865 -1.09243L3.35365 -1.14243"/>
		<path fill="#7F7F7F" transform="matrix(113.548 0 0 113.548 816.955 919.81)" d="M3.35346 2.22547L3.32846 2.17547L3.37846 2.17547L3.35346 2.22547"/>
		<path fill="none" stroke="#7F7F7F" stroke-width="0.0088068182" stroke-miterlimit="4" transform="matrix(113.548 0 0 113.548 816.955 919.81)" d="M3.35346 2.22547L3.32846 2.17547L3.37846 2.17547L3.35346 2.22547"/>
		<text fill="#7F7F7F" transform="matrix(0 -1 1 0 1190.75 992.997)" font-size="12" font-family="Roboto" x="0, 6.7441406, 9.9082031, 16.652344, " y="11, ">
				3.37
		</text>
		<path fill="none" stroke="#7F7F7F" stroke-width="0.0088068182" stroke-miterlimit="4" transform="matrix(0 -113.548 113.548 0 1197.75 981.299)" d=""/>
		<path fill="none" stroke="#7F7F7F" stroke-width="0.0088068182" stroke-miterlimit="4" transform="matrix(113.548 0 0 113.548 816.955 919.81)" d="M3.35365 -1.14243L3.35356 0.403269M3.35355 0.679772L3.35346 2.22547"/>
		<path fill="#7F7F7F" transform="matrix(113.548 0 0 113.548 816.955 919.81)" d="M2.98786 2.22545L2.98786 2.22545L2.97906 2.22545L2.97906 2.22545M2.98786 2.24545L2.98786 2.26545L2.97906 2.26545L2.97906 2.24545M2.98786 2.28545L2.98786 2.30545L2.97906 2.30545L2.97906 2.28545M2.98786 2.32545L2.98786 2.34545L2.97906 2.34545L2.97906 2.32545M2.98786 2.36545L2.98786 2.38545L2.97906 2.38545L2.97906 2.36545M2.98786 2.40545L2.98786 2.42545L2.97905 2.42545L2.97906 2.40545M2.98786 2.44545L2.98786 2.46545L2.97905 2.46545L2.97905 2.44545M2.98786 2.48545L2.98786 2.50545L2.97905 2.50545L2.97905 2.48545M2.98786 2.52545L2.98786 2.54545L2.97905 2.54545L2.97905 2.52545M2.98786 2.56545L2.98786 2.58545L2.97905 2.58545L2.97905 2.56545"/>
		<path fill="none" stroke="#7F7F7F" stroke-width="0.0088068182" stroke-miterlimit="4" transform="matrix(113.548 0 0 113.548 816.955 919.81)" d="M2.98346 2.49545L2.98346 2.62045"/>
		<path fill="#7F7F7F" transform="matrix(113.548 0 0 113.548 816.955 919.81)" d="M-2.97835 2.2254L-2.97835 2.2254L-2.98715 2.2254L-2.98715 2.2254M-2.97835 2.2454L-2.97835 2.2654L-2.98715 2.2654L-2.98715 2.2454M-2.97835 2.2854L-2.97835 2.3054L-2.98715 2.3054L-2.98715 2.2854M-2.97835 2.3254L-2.97835 2.3454L-2.98715 2.3454L-2.98715 2.3254M-2.97835 2.3654L-2.97835 2.3854L-2.98715 2.3854L-2.98715 2.3654M-2.97835 2.4054L-2.97835 2.4254L-2.98715 2.4254L-2.98715 2.4054M-2.97835 2.4454L-2.97835 2.4654L-2.98716 2.4654L-2.98716 2.4454M-2.97835 2.4854L-2.97835 2.5054L-2.98716 2.5054L-2.98716 2.4854M-2.97835 2.5254L-2.97835 2.5454L-2.98716 2.5454L-2.98716 2.5254M-2.97835 2.5654L-2.97835 2.5854L-2.98716 2.5854L-2.98716 2.5654"/>
		<path fill="none" stroke="#7F7F7F" stroke-width="0.0088068182" stroke-miterlimit="4" transform="matrix(113.548 0 0 113.548 816.955 919.81)" d="M-2.98275 2.4954L-2.98275 2.6204"/>
		<path fill="#7F7F7F" transform="matrix(113.548 0 0 113.548 816.955 919.81)" d="M2.98346 2.59545L2.93346 2.62045L2.93346 2.57045L2.98346 2.59545"/>
		<path fill="none" stroke="#7F7F7F" stroke-width="0.0088068182" stroke-miterlimit="4" transform="matrix(113.548 0 0 113.548 816.955 919.81)" d="M2.98346 2.59545L2.93346 2.62045L2.93346 2.57045L2.98346 2.59545"/>
		<path fill="#7F7F7F" transform="matrix(113.548 0 0 113.548 816.955 919.81)" d="M-2.98275 2.5954L-2.93275 2.5704L-2.93275 2.6204L-2.98275 2.5954"/>
		<path fill="none" stroke="#7F7F7F" stroke-width="0.0088068182" stroke-miterlimit="4" transform="matrix(113.548 0 0 113.548 816.955 919.81)" d="M-2.98275 2.5954L-2.93275 2.5704L-2.93275 2.6204L-2.98275 2.5954"/>
		<text fill="#7F7F7F" transform="translate(805.297 1207.52)" font-size="12" font-family="Roboto" x="0, 6.7441406, 9.9082031, 16.652344, " y="11, ">
				5.97
		</text>
		<path fill="none" stroke="#7F7F7F" stroke-width="0.0088068182" stroke-miterlimit="4" transform="matrix(113.548 0 0 113.548 816.995 1214.52)" d=""/>
		<path fill="none" stroke="#7F7F7F" stroke-width="0.0088068182" stroke-miterlimit="4" transform="matrix(113.548 0 0 113.548 816.955 919.81)" d="M2.98346 2.59545L0.138603 2.59543M-0.1379 2.59542L-2.98275 2.5954"/>
		<path fill="#7F7F7F" transform="matrix(113.548 0 0 113.548 816.955 919.81)" d="M-2.98275 2.22981L-2.98275 2.22981L-2.98275 2.221L-2.98275 2.221M-3.00275 2.22981L-3.02275 2.22981L-3.02275 2.22101L-3.00275 2.22101M-3.04275 2.22982L-3.06275 2.22982L-3.06275 2.22101L-3.04275 2.22101M-3.08275 2.22982L-3.10275 2.22982L-3.10275 2.22101L-3.08275 2.22101M-3.12275 2.22982L-3.14275 2.22982L-3.14275 2.22102L-3.12275 2.22102M-3.16275 2.22983L-3.18275 2.22983L-3.18275 2.22102L-3.16275 2.22102M-3.20275 2.22983L-3.22275 2.22983L-3.22275 2.22102L-3.20275 2.22102M-3.24275 2.22983L-3.26275 2.22983L-3.26275 2.22103L-3.24275 2.22103M-3.28275 2.22984L-3.30275 2.22984L-3.30275 2.22103L-3.28275 2.22103M-3.32275 2.22984L-3.34275 2.22984L-3.34275 2.22103L-3.32275 2.22103M-3.36275 2.22984L-3.38275 2.22984L-3.38275 2.22104L-3.36275 2.22104M-3.40275 2.22984L-3.42275 2.22985L-3.42275 2.22104L-3.40275 2.22104M-3.44275 2.22985L-3.46275 2.22985L-3.46275 2.22104L-3.44275 2.22104M-3.48275 2.22985L-3.50275 2.22985L-3.50275 2.22105L-3.48275 2.22104M-3.52275 2.22985L-3.54275 2.22986L-3.54275 2.22105L-3.52275 2.22105M-3.56275 2.22986L-3.58275 2.22986L-3.58275 2.22105L-3.56275 2.22105M-3.60275 2.22986L-3.62275 2.22986L-3.62275 2.22106L-3.60275 2.22105M-3.64275 2.22986L-3.66275 2.22987L-3.66275 2.22106L-3.64275 2.22106M-3.68275 2.22987L-3.70275 2.22987L-3.70275 2.22106L-3.68275 2.22106M-3.72275 2.22987L-3.74275 2.22987L-3.74275 2.22106L-3.72275 2.22106M-3.76275 2.22987L-3.78275 2.22987L-3.78275 2.22107L-3.76275 2.22107M-3.80275 2.22988L-3.82275 2.22988L-3.82275 2.22107L-3.80275 2.22107M-3.84275 2.22988L-3.86275 2.22988L-3.86275 2.22107L-3.84275 2.22107M-3.88275 2.22988L-3.90275 2.22988L-3.90275 2.22108L-3.88275 2.22108M-3.92275 2.22989L-3.94275 2.22989L-3.94275 2.22108L-3.92275 2.22108M-3.96275 2.22989L-3.97816 2.22989L-3.97816 2.22108L-3.96275 2.22108"/>
		<path fill="none" stroke="#7F7F7F" stroke-width="0.0088068182" stroke-miterlimit="4" transform="matrix(113.548 0 0 113.548 816.955 919.81)" d="M-3.87816 2.22548L-4.00316 2.22549"/>
		<path fill="#7F7F7F" transform="matrix(113.548 0 0 113.548 816.955 919.81)" d="M-2.98281 1.4144L-2.98281 1.4144L-2.98281 1.4056L-2.98281 1.4056M-3.00281 1.4144L-3.02281 1.4144L-3.02281 1.4056L-3.00281 1.4056M-3.04281 1.41441L-3.06281 1.41441L-3.06281 1.4056L-3.04281 1.4056M-3.08281 1.41441L-3.10281 1.41441L-3.10281 1.4056L-3.08281 1.4056M-3.12281 1.41441L-3.14281 1.41441L-3.14281 1.40561L-3.12281 1.40561M-3.16281 1.41442L-3.18281 1.41442L-3.18281 1.40561L-3.16281 1.40561M-3.20281 1.41442L-3.22281 1.41442L-3.22281 1.40561L-3.20281 1.40561M-3.24281 1.41442L-3.26281 1.41442L-3.26281 1.40562L-3.24281 1.40562M-3.28281 1.41443L-3.30281 1.41443L-3.30281 1.40562L-3.28281 1.40562M-3.32281 1.41443L-3.34281 1.41443L-3.34281 1.40562L-3.32281 1.40562M-3.36281 1.41443L-3.38281 1.41443L-3.38281 1.40563L-3.36281 1.40562M-3.40281 1.41443L-3.42281 1.41444L-3.42281 1.40563L-3.40281 1.40563M-3.44281 1.41444L-3.46281 1.41444L-3.46281 1.40563L-3.44281 1.40563M-3.48281 1.41444L-3.50281 1.41444L-3.50281 1.40564L-3.48281 1.40563M-3.52281 1.41444L-3.54281 1.41445L-3.54281 1.40564L-3.52281 1.40564M-3.56281 1.41445L-3.58281 1.41445L-3.58281 1.40564L-3.56281 1.40564M-3.60281 1.41445L-3.62281 1.41445L-3.62281 1.40565L-3.60281 1.40564M-3.64281 1.41445L-3.66281 1.41446L-3.66281 1.40565L-3.64281 1.40565M-3.68281 1.41446L-3.70281 1.41446L-3.70281 1.40565L-3.68281 1.40565M-3.72281 1.41446L-3.74281 1.41446L-3.74281 1.40565L-3.72281 1.40565M-3.76281 1.41446L-3.78281 1.41446L-3.78281 1.40566L-3.76281 1.40566M-3.80281 1.41447L-3.82281 1.41447L-3.82281 1.40566L-3.80281 1.40566M-3.84281 1.41447L-3.86281 1.41447L-3.86281 1.40566L-3.84281 1.40566M-3.88281 1.41447L-3.90281 1.41447L-3.90281 1.40567L-3.88281 1.40567M-3.92281 1.41448L-3.94281 1.41448L-3.94281 1.40567L-3.92281 1.40567M-3.96281 1.41448L-3.97822 1.41448L-3.97822 1.40567L-3.96281 1.40567"/>
		<path fill="none" stroke="#7F7F7F" stroke-width="0.0088068182" stroke-miterlimit="4" transform="matrix(113.548 0 0 113.548 816.955 919.81)" d="M-3.87822 1.41007L-4.00322 1.41008"/>
		<path fill="#7F7F7F" transform="matrix(113.548 0 0 113.548 816.955 919.81)" d="M-3.97816 2.22549L-4.00316 2.17549L-3.95316 2.17548L-3.97816 2.22549"/>
		<path fill="none" stroke="#7F7F7F" stroke-width="0.0088068182" stroke-miterlimit="4" transform="matrix(113.548 0 0 113.548 816.955 919.81)" d="M-3.97816 2.22549L-4.00316 2.17549L-3.95316 2.17548L-3.97816 2.22549"/>
		<path fill="#7F7F7F" transform="matrix(113.548 0 0 113.548 816.955 919.81)" d="M-3.97822 1.41008L-3.95322 1.46007L-4.00322 1.46008L-3.97822 1.41008"/>
		<path fill="none" stroke="#7F7F7F" stroke-width="0.0088068182" stroke-miterlimit="4" transform="matrix(113.548 0 0 113.548 816.955 919.81)" d="M-3.97822 1.41008L-3.95322 1.46007L-4.00322 1.46008L-3.97822 1.41008"/>
		<text fill="#7F7F7F" transform="matrix(0 -1 1 0 358.238 1137.91)" font-size="12" font-family="Roboto" x="0, 6.7441406, 9.9082031, 16.652344, " y="11, ">
				0.82
		</text>
		<path fill="none" stroke="#7F7F7F" stroke-width="0.0088068182" stroke-miterlimit="4" transform="matrix(0 -113.548 113.548 0 365.238 1126.22)" d=""/>
		<path fill="none" stroke="#7F7F7F" stroke-width="0.0088068182" stroke-miterlimit="4" transform="matrix(113.548 0 0 113.548 816.955 919.81)" d="M-3.97816 2.22549L-3.97818 1.95603M-3.9782 1.67953L-3.97822 1.41008"/>
		<path fill="#7F7F7F" transform="matrix(113.548 0 0 113.548 816.955 919.81)" d="M-2.98281 1.4144L-2.98281 1.4144L-2.98281 1.4056L-2.98281 1.4056M-3.00281 1.4144L-3.02281 1.4144L-3.02281 1.4056L-3.00281 1.4056M-3.04281 1.41441L-3.06281 1.41441L-3.06281 1.4056L-3.04281 1.4056M-3.08281 1.41441L-3.10281 1.41441L-3.10281 1.4056L-3.08281 1.4056M-3.12281 1.41441L-3.14281 1.41441L-3.14281 1.40561L-3.12281 1.40561M-3.16281 1.41442L-3.18281 1.41442L-3.18281 1.40561L-3.16281 1.40561M-3.20281 1.41442L-3.22281 1.41442L-3.22281 1.40561L-3.20281 1.40561M-3.24281 1.41442L-3.26281 1.41442L-3.26281 1.40562L-3.24281 1.40562M-3.28281 1.41443L-3.30281 1.41443L-3.30281 1.40562L-3.28281 1.40562M-3.32281 1.41443L-3.34281 1.41443L-3.34281 1.40562L-3.32281 1.40562M-3.36281 1.41443L-3.38281 1.41443L-3.38281 1.40563L-3.36281 1.40562M-3.40281 1.41443L-3.42281 1.41444L-3.42281 1.40563L-3.40281 1.40563M-3.44281 1.41444L-3.46281 1.41444L-3.46281 1.40563L-3.44281 1.40563M-3.48281 1.41444L-3.50281 1.41444L-3.50281 1.40564L-3.48281 1.40563M-3.52281 1.41444L-3.54281 1.41445L-3.54281 1.40564L-3.52281 1.40564M-3.56281 1.41445L-3.58281 1.41445L-3.58281 1.40564L-3.56281 1.40564M-3.60281 1.41445L-3.62281 1.41445L-3.62281 1.40565L-3.60281 1.40564M-3.64281 1.41445L-3.66281 1.41446L-3.66281 1.40565L-3.64281 1.40565M-3.68281 1.41446L-3.70281 1.41446L-3.70281 1.40565L-3.68281 1.40565M-3.72281 1.41446L-3.74281 1.41446L-3.74281 1.40565L-3.72281 1.40565M-3.76281 1.41446L-3.78281 1.41446L-3.78281 1.40566L-3.76281 1.40566M-3.80281 1.41447L-3.82281 1.41447L-3.82281 1.40566L-3.80281 1.40566M-3.84281 1.41447L-3.86281 1.41447L-3.86281 1.40566L-3.84281 1.40566M-3.88281 1.41447L-3.90281 1.41447L-3.90281 1.40567L-3.88281 1.40567M-3.92281 1.41448L-3.94281 1.41448L-3.94281 1.40567L-3.92281 1.40567M-3.96281 1.41448L-3.97822 1.41448L-3.97822 1.40567L-3.96281 1.40567"/>
		<path fill="none" stroke="#7F7F7F" stroke-width="0.0088068182" stroke-miterlimit="4" transform="matrix(113.548 0 0 113.548 816.955 919.81)" d="M-3.87822 1.41007L-4.00322 1.41008"/>
		<path fill="#7F7F7F" transform="matrix(113.548 0 0 113.548 816.955 919.81)" d="M-2.98307 -1.82059L-2.98307 -1.82059L-2.98307 -1.82939L-2.98307 -1.82939M-3.00307 -1.82059L-3.02307 -1.82058L-3.02307 -1.82939L-3.00307 -1.82939M-3.04307 -1.82058L-3.06307 -1.82058L-3.06307 -1.82939L-3.04307 -1.82939M-3.08307 -1.82058L-3.10307 -1.82058L-3.10307 -1.82938L-3.08307 -1.82939M-3.12307 -1.82058L-3.14307 -1.82057L-3.14307 -1.82938L-3.12307 -1.82938M-3.16307 -1.82057L-3.18307 -1.82057L-3.18307 -1.82938L-3.16307 -1.82938M-3.20307 -1.82057L-3.22307 -1.82057L-3.22307 -1.82937L-3.20307 -1.82938M-3.24307 -1.82057L-3.26307 -1.82056L-3.26307 -1.82937L-3.24307 -1.82937M-3.28307 -1.82056L-3.30307 -1.82056L-3.30307 -1.82937L-3.28307 -1.82937M-3.32307 -1.82056L-3.34307 -1.82056L-3.34307 -1.82937L-3.32307 -1.82937M-3.36307 -1.82056L-3.38307 -1.82056L-3.38307 -1.82936L-3.36307 -1.82936M-3.40307 -1.82055L-3.42307 -1.82055L-3.42307 -1.82936L-3.40307 -1.82936M-3.44307 -1.82055L-3.46307 -1.82055L-3.46307 -1.82936L-3.44307 -1.82936M-3.48307 -1.82055L-3.50307 -1.82055L-3.50307 -1.82935L-3.48307 -1.82935M-3.52307 -1.82054L-3.54307 -1.82054L-3.54307 -1.82935L-3.52307 -1.82935M-3.56307 -1.82054L-3.58307 -1.82054L-3.58307 -1.82935L-3.56307 -1.82935M-3.60307 -1.82054L-3.62307 -1.82054L-3.62307 -1.82934L-3.60307 -1.82934M-3.64307 -1.82054L-3.66307 -1.82053L-3.66307 -1.82934L-3.64307 -1.82934M-3.68307 -1.82053L-3.70307 -1.82053L-3.70307 -1.82934L-3.68307 -1.82934M-3.72307 -1.82053L-3.74307 -1.82053L-3.74307 -1.82933L-3.72307 -1.82934M-3.76307 -1.82053L-3.78307 -1.82052L-3.78307 -1.82933L-3.76307 -1.82933M-3.80307 -1.82052L-3.82307 -1.82052L-3.82307 -1.82933L-3.80307 -1.82933M-3.84307 -1.82052L-3.86307 -1.82052L-3.86307 -1.82932L-3.84307 -1.82933M-3.88307 -1.82052L-3.90307 -1.82051L-3.90307 -1.82932L-3.88307 -1.82932M-3.92307 -1.82051L-3.94307 -1.82051L-3.94307 -1.82932L-3.92307 -1.82932M-3.96307 -1.82051L-3.97848 -1.82051L-3.97848 -1.82932L-3.96307 -1.82932"/>
		<path fill="none" stroke="#7F7F7F" stroke-width="0.0088068182" stroke-miterlimit="4" transform="matrix(113.548 0 0 113.548 816.955 919.81)" d="M-3.87848 -1.82492L-4.00348 -1.82491"/>
		<path fill="#7F7F7F" transform="matrix(113.548 0 0 113.548 816.955 919.81)" d="M-3.97822 1.41008L-4.00323 1.36008L-3.95323 1.36007L-3.97822 1.41008"/>
		<path fill="none" stroke="#7F7F7F" stroke-width="0.0088068182" stroke-miterlimit="4" transform="matrix(113.548 0 0 113.548 816.955 919.81)" d="M-3.97822 1.41008L-4.00323 1.36008L-3.95323 1.36007L-3.97822 1.41008"/>
		<path fill="#7F7F7F" transform="matrix(113.548 0 0 113.548 816.955 919.81)" d="M-3.97848 -1.82491L-3.95347 -1.77491L-4.00347 -1.77491L-3.97848 -1.82491"/>
		<path fill="none" stroke="#7F7F7F" stroke-width="0.0088068182" stroke-miterlimit="4" transform="matrix(113.548 0 0 113.548 816.955 919.81)" d="M-3.97848 -1.82491L-3.95347 -1.77491L-4.00347 -1.77491L-3.97848 -1.82491"/>
		<text fill="#7F7F7F" transform="matrix(0 -1 1 0 358.219 907.957)" font-size="12" font-family="Roboto" x="0, 6.7441406, 9.9082031, 16.652344, " y="11, ">
				3.23
		</text>
		<path fill="none" stroke="#7F7F7F" stroke-width="0.0088068182" stroke-miterlimit="4" transform="matrix(0 -113.548 113.548 0 365.219 896.258)" d=""/>
		<path fill="none" stroke="#7F7F7F" stroke-width="0.0088068182" stroke-miterlimit="4" transform="matrix(113.548 0 0 113.548 816.955 919.81)" d="M-3.97822 1.41008L-3.97834 -0.0691662M-3.97836 -0.345669L-3.97848 -1.82491"/>
		<path fill="#7F7F7F" transform="matrix(113.548 0 0 113.548 816.955 919.81)" d="M-2.98307 -1.82059L-2.98307 -1.82059L-2.98307 -1.82939L-2.98307 -1.82939M-3.00307 -1.82059L-3.02307 -1.82058L-3.02307 -1.82939L-3.00307 -1.82939M-3.04307 -1.82058L-3.06307 -1.82058L-3.06307 -1.82939L-3.04307 -1.82939M-3.08307 -1.82058L-3.10307 -1.82058L-3.10307 -1.82938L-3.08307 -1.82939M-3.12307 -1.82058L-3.14307 -1.82057L-3.14307 -1.82938L-3.12307 -1.82938M-3.16307 -1.82057L-3.18307 -1.82057L-3.18307 -1.82938L-3.16307 -1.82938M-3.20307 -1.82057L-3.22307 -1.82057L-3.22307 -1.82937L-3.20307 -1.82938M-3.24307 -1.82057L-3.26307 -1.82056L-3.26307 -1.82937L-3.24307 -1.82937M-3.28307 -1.82056L-3.30307 -1.82056L-3.30307 -1.82937L-3.28307 -1.82937M-3.32307 -1.82056L-3.34307 -1.82056L-3.34307 -1.82937L-3.32307 -1.82937M-3.36307 -1.82056L-3.38307 -1.82056L-3.38307 -1.82936L-3.36307 -1.82936M-3.40307 -1.82055L-3.42307 -1.82055L-3.42307 -1.82936L-3.40307 -1.82936M-3.44307 -1.82055L-3.46307 -1.82055L-3.46307 -1.82936L-3.44307 -1.82936M-3.48307 -1.82055L-3.50307 -1.82055L-3.50307 -1.82935L-3.48307 -1.82935M-3.52307 -1.82054L-3.54307 -1.82054L-3.54307 -1.82935L-3.52307 -1.82935M-3.56307 -1.82054L-3.58307 -1.82054L-3.58307 -1.82935L-3.56307 -1.82935M-3.60307 -1.82054L-3.62307 -1.82054L-3.62307 -1.82934L-3.60307 -1.82934M-3.64307 -1.82054L-3.66307 -1.82053L-3.66307 -1.82934L-3.64307 -1.82934M-3.68307 -1.82053L-3.70307 -1.82053L-3.70307 -1.82934L-3.68307 -1.82934M-3.72307 -1.82053L-3.74307 -1.82053L-3.74307 -1.82933L-3.72307 -1.82934M-3.76307 -1.82053L-3.78307 -1.82052L-3.78307 -1.82933L-3.76307 -1.82933M-3.80307 -1.82052L-3.82307 -1.82052L-3.82307 -1.82933L-3.80307 -1.82933M-3.84307 -1.82052L-3.86307 -1.82052L-3.86307 -1.82932L-3.84307 -1.82933M-3.88307 -1.82052L-3.90307 -1.82051L-3.90307 -1.82932L-3.88307 -1.82932M-3.92307 -1.82051L-3.94307 -1.82051L-3.94307 -1.82932L-3.92307 -1.82932M-3.96307 -1.82051L-3.97848 -1.82051L-3.97848 -1.82932L-3.96307 -1.82932"/>
		<path fill="none" stroke="#7F7F7F" stroke-width="0.0088068182" stroke-miterlimit="4" transform="matrix(113.548 0 0 113.548 816.955 919.81)" d="M-3.87848 -1.82492L-4.00348 -1.82491"/>
		<path fill="#7F7F7F" transform="matrix(113.548 0 0 113.548 816.955 919.81)" d="M-2.9831 -2.22059L-2.9831 -2.22059L-2.9831 -2.22939L-2.9831 -2.22939M-3.0031 -2.22059L-3.0231 -2.22058L-3.0231 -2.22939L-3.0031 -2.22939M-3.0431 -2.22058L-3.0631 -2.22058L-3.0631 -2.22939L-3.0431 -2.22939M-3.0831 -2.22058L-3.1031 -2.22058L-3.1031 -2.22938L-3.0831 -2.22939M-3.1231 -2.22058L-3.1431 -2.22057L-3.1431 -2.22938L-3.1231 -2.22938M-3.1631 -2.22057L-3.1831 -2.22057L-3.1831 -2.22938L-3.1631 -2.22938M-3.2031 -2.22057L-3.2231 -2.22057L-3.2231 -2.22937L-3.2031 -2.22938M-3.2431 -2.22057L-3.2631 -2.22057L-3.2631 -2.22937L-3.2431 -2.22937M-3.2831 -2.22056L-3.3031 -2.22056L-3.3031 -2.22937L-3.2831 -2.22937M-3.3231 -2.22056L-3.3431 -2.22056L-3.3431 -2.22937L-3.3231 -2.22937M-3.3631 -2.22056L-3.3831 -2.22056L-3.3831 -2.22936L-3.3631 -2.22936M-3.4031 -2.22055L-3.4231 -2.22055L-3.4231 -2.22936L-3.4031 -2.22936M-3.4431 -2.22055L-3.4631 -2.22055L-3.4631 -2.22936L-3.4431 -2.22936M-3.4831 -2.22055L-3.5031 -2.22055L-3.5031 -2.22935L-3.4831 -2.22935M-3.5231 -2.22054L-3.5431 -2.22054L-3.5431 -2.22935L-3.5231 -2.22935M-3.5631 -2.22054L-3.5831 -2.22054L-3.5831 -2.22935L-3.5631 -2.22935M-3.6031 -2.22054L-3.6231 -2.22054L-3.6231 -2.22934L-3.6031 -2.22935M-3.6431 -2.22054L-3.6631 -2.22053L-3.6631 -2.22934L-3.6431 -2.22934M-3.6831 -2.22053L-3.7031 -2.22053L-3.7031 -2.22934L-3.6831 -2.22934M-3.7231 -2.22053L-3.7431 -2.22053L-3.7431 -2.22933L-3.7231 -2.22934M-3.7631 -2.22053L-3.7831 -2.22052L-3.7831 -2.22933L-3.7631 -2.22933M-3.8031 -2.22052L-3.8231 -2.22052L-3.8231 -2.22933L-3.8031 -2.22933M-3.8431 -2.22052L-3.8631 -2.22052L-3.8631 -2.22932L-3.8431 -2.22933M-3.8831 -2.22052L-3.9031 -2.22051L-3.9031 -2.22932L-3.8831 -2.22932M-3.9231 -2.22051L-3.9431 -2.22051L-3.9431 -2.22932L-3.9231 -2.22932M-3.9631 -2.22051L-3.97851 -2.22051L-3.97851 -2.22932L-3.9631 -2.22932"/>
		<path fill="none" stroke="#7F7F7F" stroke-width="0.0088068182" stroke-miterlimit="4" transform="matrix(113.548 0 0 113.548 816.955 919.81)" d="M-3.87851 -2.22492L-4.00351 -2.22491"/>
		<path fill="#7F7F7F" transform="matrix(113.548 0 0 113.548 816.955 919.81)" d="M-3.97848 -1.82491L-4.00348 -1.87491L-3.95348 -1.87491L-3.97848 -1.82491"/>
		<path fill="none" stroke="#7F7F7F" stroke-width="0.0088068182" stroke-miterlimit="4" transform="matrix(113.548 0 0 113.548 816.955 919.81)" d="M-3.97848 -1.82491L-4.00348 -1.87491L-3.95348 -1.87491L-3.97848 -1.82491"/>
		<path fill="#7F7F7F" transform="matrix(113.548 0 0 113.548 816.955 919.81)" d="M-3.97851 -2.22491L-3.95351 -2.17491L-4.00351 -2.17491L-3.97851 -2.22491"/>
		<path fill="none" stroke="#7F7F7F" stroke-width="0.0088068182" stroke-miterlimit="4" transform="matrix(113.548 0 0 113.548 816.955 919.81)" d="M-3.97851 -2.22491L-3.95351 -2.17491L-4.00351 -2.17491L-3.97851 -2.22491"/>
		<text fill="#7F7F7F" transform="matrix(0 -1 1 0 358.203 701.583)" font-size="12" font-family="Roboto" x="0, 6.7441406, 9.9082031, 16.652344, " y="11, ">
				0.40
		</text>
		<path fill="none" stroke="#7F7F7F" stroke-width="0.0088068182" stroke-miterlimit="4" transform="matrix(0 -113.548 113.548 0 365.203 689.885)" d=""/>
		<path fill="none" stroke="#7F7F7F" stroke-width="0.0088068182" stroke-miterlimit="4" transform="matrix(113.548 0 0 113.548 816.955 919.81)" d="M-3.97848 -1.82491L-3.97848 -1.88666M-3.97851 -2.16316L-3.97851 -2.22491"/>
		<path fill="#7F7F7F" transform="matrix(113.548 0 0 113.548 816.955 919.81)" d="M-2.98275 2.2298L-2.98275 2.2298L-2.98275 2.221L-2.98275 2.221M-3.00275 2.2298L-3.02275 2.22981L-3.02275 2.221L-3.00275 2.221M-3.04275 2.22981L-3.06275 2.22981L-3.06275 2.221L-3.04275 2.221M-3.08275 2.22981L-3.10275 2.22981L-3.10275 2.22101L-3.08275 2.221M-3.12275 2.22981L-3.14275 2.22982L-3.14275 2.22101L-3.12275 2.22101M-3.16275 2.22982L-3.18275 2.22982L-3.18275 2.22101L-3.16275 2.22101M-3.20275 2.22982L-3.22275 2.22982L-3.22275 2.22102L-3.20275 2.22101M-3.24275 2.22982L-3.26275 2.22983L-3.26275 2.22102L-3.24275 2.22102M-3.28275 2.22983L-3.30275 2.22983L-3.30275 2.22102L-3.28275 2.22102M-3.32275 2.22983L-3.34275 2.22983L-3.34275 2.22102L-3.32275 2.22102M-3.36275 2.22983L-3.38275 2.22983L-3.38275 2.22103L-3.36275 2.22103M-3.40275 2.22984L-3.42275 2.22984L-3.42275 2.22103L-3.40275 2.22103M-3.44275 2.22984L-3.46275 2.22984L-3.46275 2.22103L-3.44275 2.22103M-3.48275 2.22984L-3.50275 2.22984L-3.50275 2.22104L-3.48275 2.22104M-3.52275 2.22985L-3.54275 2.22985L-3.54275 2.22104L-3.52275 2.22104M-3.56275 2.22985L-3.58275 2.22985L-3.58275 2.22104L-3.56275 2.22104M-3.60275 2.22985L-3.62275 2.22985L-3.62275 2.22105L-3.60275 2.22105M-3.64275 2.22986L-3.66275 2.22986L-3.66275 2.22105L-3.64275 2.22105M-3.68275 2.22986L-3.70275 2.22986L-3.70275 2.22105L-3.68275 2.22105M-3.72275 2.22986L-3.74275 2.22986L-3.74275 2.22106L-3.72275 2.22105M-3.76275 2.22986L-3.78275 2.22987L-3.78275 2.22106L-3.76275 2.22106M-3.80275 2.22987L-3.82275 2.22987L-3.82275 2.22106L-3.80275 2.22106M-3.84275 2.22987L-3.86275 2.22987L-3.86275 2.22107L-3.84275 2.22106M-3.88275 2.22987L-3.90275 2.22988L-3.90275 2.22107L-3.88275 2.22107M-3.92275 2.22988L-3.94275 2.22988L-3.94275 2.22107L-3.92275 2.22107M-3.96275 2.22988L-3.98275 2.22988L-3.98275 2.22108L-3.96275 2.22107M-4.00275 2.22988L-4.02275 2.22989L-4.02275 2.22108L-4.00275 2.22108M-4.04275 2.22989L-4.06275 2.22989L-4.06275 2.22108L-4.04275 2.22108M-4.08275 2.22989L-4.10275 2.22989L-4.10275 2.22108L-4.08275 2.22108M-4.12275 2.22989L-4.14275 2.22989L-4.14275 2.22109L-4.12275 2.22109M-4.16275 2.2299L-4.18275 2.2299L-4.18275 2.22109L-4.16275 2.22109M-4.20275 2.2299L-4.22275 2.2299L-4.22275 2.22109L-4.20275 2.22109M-4.24275 2.2299L-4.26275 2.2299L-4.26275 2.2211L-4.24275 2.2211M-4.28275 2.22991L-4.30275 2.22991L-4.30275 2.2211L-4.28275 2.2211M-4.32275 2.22991L-4.34275 2.22991L-4.34275 2.2211L-4.32275 2.2211"/>
		<path fill="none" stroke="#7F7F7F" stroke-width="0.0088068182" stroke-miterlimit="4" transform="matrix(113.548 0 0 113.548 816.955 919.81)" d="M-4.24816 2.2255L-4.37316 2.22551"/>
		<path fill="#7F7F7F" transform="matrix(113.548 0 0 113.548 816.955 919.81)" d="M-2.9831 -2.22075L-2.9831 -2.22075L-2.9831 -2.22955L-2.9831 -2.22955M-3.0031 -2.22075L-3.0231 -2.22074L-3.0231 -2.22955L-3.0031 -2.22955M-3.0431 -2.22074L-3.0631 -2.22074L-3.0631 -2.22955L-3.0431 -2.22955M-3.0831 -2.22074L-3.1031 -2.22074L-3.1031 -2.22954L-3.0831 -2.22955M-3.1231 -2.22074L-3.1431 -2.22073L-3.1431 -2.22954L-3.1231 -2.22954M-3.1631 -2.22073L-3.1831 -2.22073L-3.1831 -2.22954L-3.1631 -2.22954M-3.2031 -2.22073L-3.2231 -2.22073L-3.2231 -2.22953L-3.2031 -2.22954M-3.2431 -2.22073L-3.2631 -2.22072L-3.2631 -2.22953L-3.2431 -2.22953M-3.2831 -2.22072L-3.3031 -2.22072L-3.3031 -2.22953L-3.2831 -2.22953M-3.3231 -2.22072L-3.3431 -2.22072L-3.3431 -2.22953L-3.3231 -2.22953M-3.3631 -2.22072L-3.3831 -2.22072L-3.3831 -2.22952L-3.3631 -2.22952M-3.4031 -2.22071L-3.4231 -2.22071L-3.4231 -2.22952L-3.4031 -2.22952M-3.4431 -2.22071L-3.4631 -2.22071L-3.4631 -2.22952L-3.4431 -2.22952M-3.4831 -2.22071L-3.5031 -2.22071L-3.5031 -2.22951L-3.4831 -2.22951M-3.5231 -2.2207L-3.5431 -2.2207L-3.5431 -2.22951L-3.5231 -2.22951M-3.5631 -2.2207L-3.5831 -2.2207L-3.5831 -2.22951L-3.5631 -2.22951M-3.6031 -2.2207L-3.6231 -2.2207L-3.6231 -2.2295L-3.6031 -2.2295M-3.6431 -2.22069L-3.6631 -2.22069L-3.6631 -2.2295L-3.6431 -2.2295M-3.6831 -2.22069L-3.7031 -2.22069L-3.7031 -2.2295L-3.6831 -2.2295M-3.7231 -2.22069L-3.7431 -2.22069L-3.7431 -2.22949L-3.7231 -2.2295M-3.7631 -2.22069L-3.7831 -2.22068L-3.7831 -2.22949L-3.7631 -2.22949M-3.8031 -2.22068L-3.8231 -2.22068L-3.8231 -2.22949L-3.8031 -2.22949M-3.8431 -2.22068L-3.8631 -2.22068L-3.8631 -2.22948L-3.8431 -2.22949M-3.8831 -2.22068L-3.9031 -2.22067L-3.9031 -2.22948L-3.8831 -2.22948M-3.9231 -2.22067L-3.9431 -2.22067L-3.9431 -2.22948L-3.9231 -2.22948M-3.9631 -2.22067L-3.9831 -2.22067L-3.9831 -2.22947L-3.9631 -2.22948M-4.0031 -2.22067L-4.0231 -2.22066L-4.0231 -2.22947L-4.0031 -2.22947M-4.0431 -2.22066L-4.0631 -2.22066L-4.0631 -2.22947L-4.0431 -2.22947M-4.0831 -2.22066L-4.1031 -2.22066L-4.1031 -2.22947L-4.0831 -2.22947M-4.1231 -2.22066L-4.1431 -2.22066L-4.1431 -2.22946L-4.1231 -2.22946M-4.1631 -2.22065L-4.1831 -2.22065L-4.1831 -2.22946L-4.1631 -2.22946M-4.2031 -2.22065L-4.2231 -2.22065L-4.2231 -2.22946L-4.2031 -2.22946M-4.2431 -2.22065L-4.2631 -2.22065L-4.2631 -2.22945L-4.2431 -2.22945M-4.2831 -2.22064L-4.3031 -2.22064L-4.3031 -2.22945L-4.2831 -2.22945M-4.3231 -2.22064L-4.3431 -2.22064L-4.3431 -2.22945L-4.3231 -2.22945"/>
		<path fill="none" stroke="#7F7F7F" stroke-width="0.0088068182" stroke-miterlimit="4" transform="matrix(113.548 0 0 113.548 816.955 919.81)" d="M-4.24851 -2.22505L-4.37351 -2.22504"/>
		<path fill="#7F7F7F" transform="matrix(113.548 0 0 113.548 816.955 919.81)" d="M-4.34816 2.22551L-4.37316 2.17551L-4.32316 2.17551L-4.34816 2.22551"/>
		<path fill="none" stroke="#7F7F7F" stroke-width="0.0088068182" stroke-miterlimit="4" transform="matrix(113.548 0 0 113.548 816.955 919.81)" d="M-4.34816 2.22551L-4.37316 2.17551L-4.32316 2.17551L-4.34816 2.22551"/>
		<path fill="#7F7F7F" transform="matrix(113.548 0 0 113.548 816.955 919.81)" d="M-4.34851 -2.22504L-4.32351 -2.17504L-4.37351 -2.17504L-4.34851 -2.22504"/>
		<path fill="none" stroke="#7F7F7F" stroke-width="0.0088068182" stroke-miterlimit="4" transform="matrix(113.548 0 0 113.548 816.955 919.81)" d="M-4.34851 -2.22504L-4.32351 -2.17504L-4.37351 -2.17504L-4.34851 -2.22504"/>
		<text fill="#7F7F7F" transform="matrix(0 -1 1 0 316.208 931.535)" font-size="12" font-family="Roboto" x="0, 6.7441406, 9.9082031, 16.652344, " y="11, ">
				4.45
		</text>
		<path fill="none" stroke="#7F7F7F" stroke-width="0.0088068182" stroke-miterlimit="4" transform="matrix(0 -113.548 113.548 0 323.208 919.837)" d=""/>
		<path fill="none" stroke="#7F7F7F" stroke-width="0.0088068182" stroke-miterlimit="4" transform="matrix(113.548 0 0 113.548 816.955 919.81)" d="M-4.34816 2.22551L-4.34832 0.138484M-4.34835 -0.138019L-4.34851 -2.22504"/>
		<path fill="#7F7F7F" transform="matrix(113.548 0 0 113.548 816.955 919.81)" d="M-2.9875 -2.22515L-2.9875 -2.22515L-2.9787 -2.22515L-2.9787 -2.22515M-2.9875 -2.24515L-2.9875 -2.26515L-2.9787 -2.26515L-2.9787 -2.24515M-2.9875 -2.28515L-2.9875 -2.30515L-2.9787 -2.30515L-2.9787 -2.28515M-2.9875 -2.32515L-2.9875 -2.34515L-2.9787 -2.34515L-2.9787 -2.32515M-2.9875 -2.36515L-2.9875 -2.38515L-2.9787 -2.38515L-2.9787 -2.36515M-2.9875 -2.40515L-2.9875 -2.42515L-2.97869 -2.42515L-2.97869 -2.40515M-2.9875 -2.44515L-2.9875 -2.46515L-2.97869 -2.46515L-2.97869 -2.44515M-2.9875 -2.48515L-2.9875 -2.50515L-2.97869 -2.50515L-2.97869 -2.48515M-2.9875 -2.52515L-2.9875 -2.54515L-2.97869 -2.54515L-2.97869 -2.52515M-2.9875 -2.56515L-2.9875 -2.58515L-2.97869 -2.58515L-2.97869 -2.56515"/>
		<path fill="none" stroke="#7F7F7F" stroke-width="0.0088068182" stroke-miterlimit="4" transform="matrix(113.548 0 0 113.548 816.955 919.81)" d="M-2.9831 -2.49515L-2.9831 -2.62015"/>
		<path fill="#7F7F7F" transform="matrix(113.548 0 0 113.548 816.955 919.81)" d="M0.270367 -2.22512L0.270367 -2.22512L0.279173 -2.22512L0.279173 -2.22512M0.270367 -2.24512L0.270367 -2.26512L0.279174 -2.26512L0.279174 -2.24512M0.270367 -2.28512L0.270367 -2.30512L0.279174 -2.30512L0.279174 -2.28512M0.270368 -2.32512L0.270368 -2.34512L0.279175 -2.34512L0.279174 -2.32512M0.270368 -2.36512L0.270368 -2.38512L0.279175 -2.38512L0.279175 -2.36512M0.270368 -2.40512L0.270368 -2.42512L0.279175 -2.42512L0.279175 -2.40512M0.270369 -2.44512L0.270369 -2.46512L0.279176 -2.46512L0.279175 -2.44512M0.270369 -2.48512L0.270369 -2.50512L0.279176 -2.50512L0.279176 -2.48512M0.270369 -2.52512L0.27037 -2.54512L0.279176 -2.54512L0.279176 -2.52512M0.27037 -2.56512L0.27037 -2.58512L0.279177 -2.58512L0.279177 -2.56512"/>
		<path fill="none" stroke="#7F7F7F" stroke-width="0.0088068182" stroke-miterlimit="4" transform="matrix(113.548 0 0 113.548 816.955 919.81)" d="M0.274772 -2.49512L0.274774 -2.62012"/>
		<path fill="#7F7F7F" transform="matrix(113.548 0 0 113.548 816.955 919.81)" d="M-2.9831 -2.59515L-2.9331 -2.62015L-2.9331 -2.57015L-2.9831 -2.59515"/>
		<path fill="none" stroke="#7F7F7F" stroke-width="0.0088068182" stroke-miterlimit="4" transform="matrix(113.548 0 0 113.548 816.955 919.81)" d="M-2.9831 -2.59515L-2.9331 -2.62015L-2.9331 -2.57015L-2.9831 -2.59515"/>
		<path fill="#7F7F7F" transform="matrix(113.548 0 0 113.548 816.955 919.81)" d="M0.274773 -2.59512L0.224773 -2.57012L0.224774 -2.62012L0.274773 -2.59512"/>
		<path fill="none" stroke="#7F7F7F" stroke-width="0.0088068182" stroke-miterlimit="4" transform="matrix(113.548 0 0 113.548 816.955 919.81)" d="M0.274773 -2.59512L0.224773 -2.57012L0.224774 -2.62012L0.274773 -2.59512"/>
		<text fill="#7F7F7F" transform="translate(651.494 618.137)" font-size="12" font-family="Roboto" x="0, 6.7441406, 9.9082031, 16.652344, " y="11, ">
				3.26
		</text>
		<path fill="none" stroke="#7F7F7F" stroke-width="0.0088068182" stroke-miterlimit="4" transform="matrix(113.548 0 0 113.548 663.192 625.137)" d=""/>
		<path fill="none" stroke="#7F7F7F" stroke-width="0.0088068182" stroke-miterlimit="4" transform="matrix(113.548 0 0 113.548 816.955 919.81)" d="M-2.9831 -2.59515L-1.49241 -2.59514M-1.21591 -2.59513L0.274773 -2.59512"/>
		<path fill="#7F7F7F" transform="matrix(113.548 0 0 113.548 816.955 919.81)" d="M0.274768 -2.22952L0.274768 -2.22952L0.274772 -2.22072L0.274772 -2.22072M0.294768 -2.22953L0.314768 -2.22954L0.314772 -2.22073L0.294772 -2.22072M0.334768 -2.22955L0.354768 -2.22956L0.354772 -2.22075L0.334772 -2.22074M0.374768 -2.22956L0.394768 -2.22957L0.394772 -2.22076L0.374772 -2.22076M0.414768 -2.22958L0.434768 -2.22959L0.434772 -2.22078L0.414772 -2.22077M0.454768 -2.22959L0.474768 -2.2296L0.474772 -2.2208L0.454772 -2.22079M0.494768 -2.22961L0.514768 -2.22962L0.514772 -2.22081L0.494772 -2.2208M0.534768 -2.22963L0.554768 -2.22963L0.554772 -2.22083L0.534772 -2.22082M0.574768 -2.22964L0.594768 -2.22965L0.594772 -2.22084L0.574772 -2.22084M0.614768 -2.22966L0.634768 -2.22967L0.634772 -2.22086L0.614772 -2.22085M0.654768 -2.22967L0.674768 -2.22968L0.674772 -2.22088L0.654772 -2.22087M0.694768 -2.22969L0.714768 -2.2297L0.714772 -2.22089L0.694772 -2.22088M0.734768 -2.22971L0.754768 -2.22971L0.754772 -2.22091L0.734772 -2.2209M0.774768 -2.22972L0.794768 -2.22973L0.794772 -2.22092L0.774772 -2.22092M0.814768 -2.22974L0.834768 -2.22975L0.834772 -2.22094L0.814772 -2.22093M0.854768 -2.22975L0.874768 -2.22976L0.874772 -2.22095L0.854772 -2.22095M0.894768 -2.22977L0.914768 -2.22978L0.914772 -2.22097L0.894772 -2.22096M0.934768 -2.22979L0.954768 -2.22979L0.954772 -2.22099L0.934772 -2.22098M0.974768 -2.2298L0.994768 -2.22981L0.994772 -2.221L0.974772 -2.22099M1.01477 -2.22982L1.03477 -2.22983L1.03477 -2.22102L1.01477 -2.22101M1.05477 -2.22983L1.07477 -2.22984L1.07477 -2.22103L1.05477 -2.22103M1.09477 -2.22985L1.11477 -2.22986L1.11477 -2.22105L1.09477 -2.22104M1.13477 -2.22986L1.15477 -2.22987L1.15477 -2.22107L1.13477 -2.22106M1.17477 -2.22988L1.19477 -2.22989L1.19477 -2.22108L1.17477 -2.22107M1.21477 -2.2299L1.23477 -2.2299L1.23477 -2.2211L1.21477 -2.22109M1.25477 -2.22991L1.27477 -2.22992L1.27477 -2.22111L1.25477 -2.22111M1.29477 -2.22993L1.31477 -2.22994L1.31477 -2.22113L1.29477 -2.22112M1.33477 -2.22994L1.35477 -2.22995L1.35477 -2.22115L1.33477 -2.22114M1.37477 -2.22996L1.39477 -2.22997L1.39477 -2.22116L1.37477 -2.22115M1.41477 -2.22998L1.43477 -2.22998L1.43477 -2.22118L1.41477 -2.22117M1.45477 -2.22999L1.47477 -2.23L1.47477 -2.22119L1.45477 -2.22119M1.49477 -2.23001L1.51477 -2.23002L1.51477 -2.22121L1.49477 -2.2212M1.53477 -2.23002L1.55477 -2.23003L1.55477 -2.22123L1.53477 -2.22122M1.57477 -2.23004L1.59477 -2.23005L1.59477 -2.22124L1.57477 -2.22123M1.61477 -2.23006L1.63477 -2.23006L1.63477 -2.22126L1.61477 -2.22125M1.65477 -2.23007L1.67477 -2.23008L1.67477 -2.22127L1.65477 -2.22126M1.69477 -2.23009L1.71477 -2.2301L1.71477 -2.22129L1.69477 -2.22128M1.73477 -2.2301L1.75477 -2.23011L1.75477 -2.2213L1.73477 -2.2213M1.77477 -2.23012L1.79477 -2.23013L1.79477 -2.22132L1.77477 -2.22131M1.81477 -2.23013L1.83477 -2.23014L1.83477 -2.22134L1.81477 -2.22133M1.85477 -2.23015L1.87477 -2.23016L1.87477 -2.22135L1.85477 -2.22134M1.89477 -2.23017L1.91477 -2.23017L1.91477 -2.22137L1.89477 -2.22136M1.93477 -2.23018L1.95477 -2.23019L1.95477 -2.22138L1.93477 -2.22138M1.97477 -2.2302L1.99477 -2.23021L1.99477 -2.2214L1.97477 -2.22139M2.01477 -2.23021L2.03477 -2.23022L2.03477 -2.22142L2.01477 -2.22141M2.05477 -2.23023L2.07477 -2.23024L2.07477 -2.22143L2.05477 -2.22142M2.09477 -2.23025L2.11477 -2.23025L2.11477 -2.22145L2.09477 -2.22144M2.13477 -2.23026L2.15477 -2.23027L2.15477 -2.22146L2.13477 -2.22146M2.17477 -2.23028L2.19477 -2.23029L2.19477 -2.22148L2.17477 -2.22147M2.21477 -2.23029L2.23477 -2.2303L2.23477 -2.22149L2.21477 -2.22149M2.25477 -2.23031L2.27477 -2.23032L2.27477 -2.22151L2.25477 -2.2215M2.29477 -2.23033L2.31477 -2.23033L2.31477 -2.22153L2.29477 -2.22152M2.33477 -2.23034L2.35477 -2.23035L2.35477 -2.22154L2.33477 -2.22153M2.37477 -2.23036L2.39477 -2.23037L2.39477 -2.22156L2.37477 -2.22155M2.41477 -2.23037L2.43477 -2.23038L2.43477 -2.22157L2.41477 -2.22157M2.45477 -2.23039L2.47477 -2.2304L2.47477 -2.22159L2.45477 -2.22158M2.49477 -2.2304L2.51477 -2.23041L2.51477 -2.22161L2.49477 -2.2216M2.53477 -2.23042L2.55477 -2.23043L2.55477 -2.22162L2.53477 -2.22161M2.57477 -2.23044L2.59477 -2.23044L2.59477 -2.22164L2.57477 -2.22163M2.61477 -2.23045L2.63477 -2.23046L2.63477 -2.22165L2.61477 -2.22165M2.65477 -2.23047L2.67477 -2.23048L2.67477 -2.22167L2.65477 -2.22166M2.69477 -2.23048L2.71477 -2.23049L2.71477 -2.22169L2.69477 -2.22168M2.73477 -2.2305L2.75477 -2.23051L2.75477 -2.2217L2.73477 -2.22169M2.77477 -2.23052L2.79477 -2.23052L2.79477 -2.22172L2.77477 -2.22171M2.81477 -2.23053L2.83477 -2.23054L2.83477 -2.22173L2.81477 -2.22173M2.85477 -2.23055L2.87477 -2.23056L2.87477 -2.22175L2.85477 -2.22174M2.89477 -2.23056L2.91477 -2.23057L2.91477 -2.22177L2.89477 -2.22176M2.93477 -2.23058L2.95477 -2.23059L2.95477 -2.22178L2.93477 -2.22177M2.97477 -2.2306L2.99477 -2.2306L2.99477 -2.2218L2.97477 -2.22179M3.01477 -2.23061L3.03477 -2.23062L3.03477 -2.22181L3.01477 -2.2218M3.05477 -2.23063L3.07477 -2.23064L3.07477 -2.22183L3.05477 -2.22182M3.09477 -2.23064L3.11477 -2.23065L3.11477 -2.22184L3.09477 -2.22184M3.13477 -2.23066L3.15477 -2.23067L3.15477 -2.22186L3.13477 -2.22185M3.17477 -2.23067L3.19477 -2.23068L3.19477 -2.22188L3.17477 -2.22187M3.21477 -2.23069L3.23477 -2.2307L3.23477 -2.22189L3.21477 -2.22188M3.25477 -2.23071L3.27477 -2.23071L3.27477 -2.22191L3.25477 -2.2219M3.29477 -2.23072L3.31477 -2.23073L3.31477 -2.22192L3.29477 -2.22192M3.33477 -2.23074L3.35322 -2.23075L3.35322 -2.22194L3.33477 -2.22193"/>
		<path fill="none" stroke="#7F7F7F" stroke-width="0.0088068182" stroke-miterlimit="4" transform="matrix(113.548 0 0 113.548 816.955 919.81)" d="M3.25322 -2.2263L3.37822 -2.22635"/>
		<path fill="#7F7F7F" transform="matrix(113.548 0 0 113.548 816.955 919.81)" d="M2.98365 -1.14782L2.98365 -1.14782L2.98365 -1.13901L2.98365 -1.13901M3.00365 -1.14783L3.02365 -1.14783L3.02365 -1.13903L3.00365 -1.13902M3.04365 -1.14784L3.06365 -1.14785L3.06365 -1.13904L3.04365 -1.13904M3.08365 -1.14786L3.10365 -1.14787L3.10365 -1.13906L3.08365 -1.13905M3.12365 -1.14787L3.14365 -1.14788L3.14365 -1.13908L3.12365 -1.13907M3.16365 -1.14789L3.18365 -1.1479L3.18365 -1.13909L3.16365 -1.13908M3.20365 -1.14791L3.22365 -1.14791L3.22365 -1.13911L3.20365 -1.1391M3.24365 -1.14792L3.26365 -1.14793L3.26365 -1.13912L3.24365 -1.13912M3.28365 -1.14794L3.30365 -1.14795L3.30365 -1.13914L3.28365 -1.13913M3.32365 -1.14795L3.34365 -1.14796L3.34365 -1.13916L3.32365 -1.13915"/>
		<path fill="none" stroke="#7F7F7F" stroke-width="0.0088068182" stroke-miterlimit="4" transform="matrix(113.548 0 0 113.548 816.955 919.81)" d="M3.25365 -1.14352L3.37865 -1.14357"/>
		<path fill="#7F7F7F" transform="matrix(113.548 0 0 113.548 816.955 919.81)" d="M3.35322 -2.22634L3.37824 -2.17635L3.32824 -2.17633L3.35322 -2.22634"/>
		<path fill="none" stroke="#7F7F7F" stroke-width="0.0088068182" stroke-miterlimit="4" transform="matrix(113.548 0 0 113.548 816.955 919.81)" d="M3.35322 -2.22634L3.37824 -2.17635L3.32824 -2.17633L3.35322 -2.22634"/>
		<path fill="#7F7F7F" transform="matrix(113.548 0 0 113.548 816.955 919.81)" d="M3.35365 -1.14356L3.32863 -1.19355L3.37863 -1.19357L3.35365 -1.14356"/>
		<path fill="none" stroke="#7F7F7F" stroke-width="0.0088068182" stroke-miterlimit="4" transform="matrix(113.548 0 0 113.548 816.955 919.81)" d="M3.35365 -1.14356L3.32863 -1.19355L3.37863 -1.19357L3.35365 -1.14356"/>
		<text fill="#7F7F7F" transform="matrix(-0.000397011 -1 1 -0.000397011 1190.74 740.188)" font-size="12" font-family="Roboto" x="0, 6.7441406, 9.9082031, 16.652344, " y="11, ">
				1.08
		</text>
		<path fill="none" stroke="#7F7F7F" stroke-width="0.0088068182" stroke-miterlimit="4" transform="matrix(-0.0450799 -113.548 113.548 -0.0450799 1197.73 728.487)" d=""/>
		<path fill="none" stroke="#7F7F7F" stroke-width="0.0088068182" stroke-miterlimit="4" transform="matrix(113.548 0 0 113.548 816.955 919.81)" d="M3.35322 -2.22634L3.35338 -1.8232M3.35349 -1.5467L3.35365 -1.14356"/>
		<path transform="matrix(113.548 0 0 113.548 816.955 919.81)" d="M-2.98321 -1.82479L-2.98321 1.41021L-3.10321 1.41021L-3.10321 -1.82479L-2.98321 -1.82479M2.98279 -1.14179L0.27479 -1.14179L0.27379 -2.22479L-3.10321 -2.22479L-3.10321 -2.34479L0.39379 -2.34479L0.39479 -1.26179L3.10279 -1.26179L3.10279 2.34621L-3.10321 2.34621L-3.10321 2.22621L2.98279 2.22621L2.98279 -1.14179"/>
		<path fill="#EFEFEF" transform="matrix(113.548 0 0 113.548 816.955 919.81)" d="M0.27479 -1.14179L2.98279 -1.14179L2.98279 2.22621L-3.10821 2.22621L-3.10821 1.41021L-2.98321 1.41021L-2.98321 -1.82479L-3.10821 -1.82479L-3.10821 -2.22479L0.27379 -2.22479L0.27479 -1.14179"/>
		<path fill="white" transform="matrix(0 113.548 -113.548 0 1155.73 897.588)" d="M0.042142 0.205714C-0.00287332 0.364348 0.021071 0.535265 0.102482 0.644774C0.183892 0.754283 0.28829 0.754283 0.370658 0.644774C0.453027 0.535265 0.476013 0.364348 0.430998 0.205714"/>
		<path fill="none" stroke="black" stroke-width="0.0058712126" stroke-miterlimit="4" transform="matrix(0 113.548 -113.548 0 1155.73 897.588)" d="M0.042142 0.205714C-0.00287332 0.364348 0.021071 0.535265 0.102482 0.644774C0.183892 0.754283 0.28829 0.754283 0.370658 0.644774C0.453027 0.535265 0.476013 0.364348 0.430998 0.205714"/>
		<path fill="white" transform="matrix(0 113.548 -113.548 0 1155.73 897.588)" d="M0.0852418 0.25791C0.0708752 0.334668 0.0727908 0.421662 0.0909885 0.494327C0.109186 0.562898 0.14175 0.618164 0.174315 0.645797C0.20209 0.669337 0.225077 0.675477 0.249021 0.67036C0.272965 0.665243 0.301699 0.647844 0.327558 0.612023C0.354376 0.575179 0.376405 0.52196 0.387898 0.461576C0.400349 0.396075 0.399391 0.32341 0.387898 0.25791"/>
		<path fill="none" stroke="black" stroke-width="0.0058712126" stroke-miterlimit="4" transform="matrix(0 113.548 -113.548 0 1155.73 897.588)" d="M0.0852418 0.25791C0.0708752 0.334668 0.0727908 0.421662 0.0909885 0.494327C0.109186 0.562898 0.14175 0.618164 0.174315 0.645797C0.20209 0.669337 0.225077 0.675477 0.249021 0.67036C0.272965 0.665243 0.301699 0.647844 0.327558 0.612023C0.354376 0.575179 0.376405 0.52196 0.387898 0.461576C0.400349 0.396075 0.399391 0.32341 0.387898 0.25791"/>
		<path fill="white" transform="matrix(0 113.548 -113.548 0 1155.73 897.588)" d="M0.0536353 0C0.175592 0 0.297548 0 0.419505 0C0.449196 0 0.47314 0.0235394 0.47314 0.052196C0.47314 0.0866522 0.47314 0.121108 0.47314 0.155565C0.47314 0.184221 0.449196 0.20776 0.419505 0.20776C0.297548 0.20776 0.175592 0.20776 0.0536353 0.20776C0.0239443 0.206737 0 0.183198 0 0.154541C0 0.120426 0 0.086311 0 0.052196C0 0.0235394 0.0239443 0 0.0536353 0C0.0536353 0 0.0536353 0 0.0536353 0L0.0536353 0Z"/>
		<path fill="none" stroke="black" stroke-width="0.0058712126" stroke-miterlimit="4" transform="matrix(0 113.548 -113.548 0 1155.73 897.588)" d="M0.0536353 0C0.175592 0 0.297548 0 0.419505 0C0.449196 0 0.47314 0.0235394 0.47314 0.052196C0.47314 0.0866522 0.47314 0.121108 0.47314 0.155565C0.47314 0.184221 0.449196 0.20776 0.419505 0.20776C0.297548 0.20776 0.175592 0.20776 0.0536353 0.20776C0.0239443 0.206737 0 0.183198 0 0.154541C0 0.120426 0 0.086311 0 0.052196C0 0.0235394 0.0239443 0 0.0536353 0C0.0536353 0 0.0536353 0 0.0536353 0L0.0536353 0Z"/>
		<path fill="none" stroke="black" stroke-width="0.0058712126" stroke-miterlimit="4" transform="matrix(0 113.548 -113.548 0 1155.73 897.588)" d="M0.0852418 0.25791C0.186127 0.25791 0.287013 0.25791 0.387898 0.25791"/>
		<path fill="white" transform="matrix(0 113.548 -113.548 0 1155.73 897.588)" d="M0.283501 0.103369C0.283501 0.128239 0.262489 0.1484 0.23657 0.1484C0.210651 0.1484 0.189639 0.128239 0.189639 0.103369C0.189639 0.0784981 0.210651 0.0583367 0.23657 0.0583367C0.262489 0.0583367 0.283501 0.0784981 0.283501 0.103369C0.283501 0.103369 0.283501 0.103369 0.283501 0.103369L0.283501 0.103369Z"/>
		<path fill="none" stroke="black" stroke-width="0.0058712126" stroke-miterlimit="4" transform="matrix(0 113.548 -113.548 0 1155.73 897.588)" d="M0.283501 0.103369C0.283501 0.128239 0.262489 0.1484 0.23657 0.1484C0.210651 0.1484 0.189639 0.128239 0.189639 0.103369C0.189639 0.0784981 0.210651 0.0583367 0.23657 0.0583367C0.262489 0.0583367 0.283501 0.0784981 0.283501 0.103369C0.283501 0.103369 0.283501 0.103369 0.283501 0.103369L0.283501 0.103369Z"/>
		<path fill="none" stroke="black" stroke-width="0.0058712126" stroke-miterlimit="4" transform="matrix(0 113.548 -113.548 0 1155.73 897.588)" d="M0.23657 0.1484C0.23657 0.118379 0.23657 0.0883579 0.23657 0.0583367"/>
		<path fill="white" transform="matrix(0 113.548 -113.548 0 1155.73 897.588)" d="M0.269134 0.32034C0.269134 0.337297 0.254555 0.351044 0.23657 0.351044C0.218585 0.351044 0.204006 0.337297 0.204006 0.32034C0.204006 0.303383 0.218585 0.289637 0.23657 0.289637C0.254555 0.289637 0.269134 0.303383 0.269134 0.32034C0.269134 0.32034 0.269134 0.32034 0.269134 0.32034L0.269134 0.32034Z"/>
		<path fill="none" stroke="black" stroke-width="0.0058712126" stroke-miterlimit="4" transform="matrix(0 113.548 -113.548 0 1155.73 897.588)" d="M0.269134 0.32034C0.269134 0.337297 0.254555 0.351044 0.23657 0.351044C0.218585 0.351044 0.204006 0.337297 0.204006 0.32034C0.204006 0.303383 0.218585 0.289637 0.23657 0.289637C0.254555 0.289637 0.269134 0.303383 0.269134 0.32034C0.269134 0.32034 0.269134 0.32034 0.269134 0.32034L0.269134 0.32034Z"/>
		<path fill="white" transform="matrix(0 113.548 -113.548 0 1155.73 897.588)" d="M0.0536353 0.206737C0.0498042 0.206737 0.0459731 0.206737 0.042142 0.205714"/>
		<path fill="none" stroke="black" stroke-width="0.0058712126" stroke-miterlimit="4" transform="matrix(0 113.548 -113.548 0 1155.73 897.588)" d="M0.0536353 0.206737C0.0498042 0.206737 0.0459731 0.206737 0.042142 0.205714"/>
		<path fill="white" transform="matrix(0 113.548 -113.548 -0 526.249 930.876)" d="M0.0111665 0.0050325C0.157572 0.0050325 0.303978 0.0050325 0.450383 0.0050325C0.454495 0.0050325 0.457828 0.00953875 0.457828 0.0150975C0.457828 0.145942 0.457828 0.276787 0.457828 0.407632C0.457828 0.413191 0.454495 0.417697 0.450383 0.417697C0.303978 0.417697 0.157572 0.417697 0.0111665 0.417697C0.00705513 0.417697 0.00372218 0.413191 0.00372218 0.407632C0.00372218 0.276787 0.00372218 0.145942 0.00372218 0.0150975C0.00372218 0.00953875 0.00705513 0.0050325 0.0111665 0.0050325C0.0111665 0.0050325 0.0111665 0.0050325 0.0111665 0.0050325L0.0111665 0.0050325Z"/>
		<path fill="none" stroke="black" stroke-width="0.0058712126" stroke-miterlimit="4" transform="matrix(0 113.548 -113.548 -0 526.249 930.876)" d="M0.0111665 0.0050325C0.157572 0.0050325 0.303978 0.0050325 0.450383 0.0050325C0.454495 0.0050325 0.457828 0.00953875 0.457828 0.0150975C0.457828 0.145942 0.457828 0.276787 0.457828 0.407632C0.457828 0.413191 0.454495 0.417697 0.450383 0.417697C0.303978 0.417697 0.157572 0.417697 0.0111665 0.417697C0.00705513 0.417697 0.00372218 0.413191 0.00372218 0.407632C0.00372218 0.276787 0.00372218 0.145942 0.00372218 0.0150975C0.00372218 0.00953875 0.00705513 0.0050325 0.0111665 0.0050325C0.0111665 0.0050325 0.0111665 0.0050325 0.0111665 0.0050325L0.0111665 0.0050325Z"/>
		<path fill="none" stroke="black" stroke-width="0.0058712126" stroke-miterlimit="4" transform="matrix(0 113.548 -113.548 -0 526.249 930.876)" d="M0.405717 0.0553575C0.289089 0.0553575 0.172461 0.0553575 0.0558327 0.0553575"/>
		<path fill="white" transform="matrix(0 113.548 -113.548 -0 526.249 930.876)" d="M0.0558327 0.0553575C0.0476439 0.0553575 0.040944 0.064416 0.040944 0.0754875"/>
		<path fill="none" stroke="black" stroke-width="0.0058712126" stroke-miterlimit="4" transform="matrix(0 113.548 -113.548 -0 526.249 930.876)" d="M0.0558327 0.0553575C0.0476439 0.0553575 0.040944 0.064416 0.040944 0.0754875"/>
		<path fill="white" transform="matrix(0 113.548 -113.548 -0 526.249 930.876)" d="M0.420606 0.0754875C0.420606 0.064416 0.413906 0.0553575 0.405717 0.0553575"/>
		<path fill="none" stroke="black" stroke-width="0.0058712126" stroke-miterlimit="4" transform="matrix(0 113.548 -113.548 -0 526.249 930.876)" d="M0.420606 0.0754875C0.420606 0.064416 0.413906 0.0553575 0.405717 0.0553575"/>
		<path fill="white" transform="matrix(0 113.548 -113.548 -0 526.249 930.876)" d="M0.405717 0.0553575C0.413906 0.0553575 0.420606 0.064416 0.420606 0.0754875C0.420606 0.149298 0.420606 0.223107 0.420606 0.296917C0.420606 0.307989 0.413906 0.317047 0.405717 0.317047C0.289089 0.317047 0.172461 0.317047 0.0558327 0.317047C0.0476439 0.317047 0.040944 0.307989 0.040944 0.296917C0.040944 0.223107 0.040944 0.149298 0.040944 0.0754875C0.040944 0.064416 0.0476439 0.0553575 0.0558327 0.0553575C0.172461 0.0553575 0.289089 0.0553575 0.405717 0.0553575"/>
		<path fill="none" stroke="black" stroke-width="0.0058712126" stroke-miterlimit="4" transform="matrix(0 113.548 -113.548 -0 526.249 930.876)" d="M0.405717 0.0553575C0.413906 0.0553575 0.420606 0.064416 0.420606 0.0754875C0.420606 0.149298 0.420606 0.223107 0.420606 0.296917C0.420606 0.307989 0.413906 0.317047 0.405717 0.317047C0.289089 0.317047 0.172461 0.317047 0.0558327 0.317047C0.0476439 0.317047 0.040944 0.307989 0.040944 0.296917C0.040944 0.223107 0.040944 0.149298 0.040944 0.0754875C0.040944 0.064416 0.0476439 0.0553575 0.0558327 0.0553575C0.172461 0.0553575 0.289089 0.0553575 0.405717 0.0553575"/>
		<path fill="white" transform="matrix(0 113.548 -113.548 -0 526.249 930.876)" d="M0.253108 0.186202C0.253108 0.202879 0.243109 0.216397 0.230775 0.216397C0.218441 0.216397 0.208442 0.202879 0.208442 0.186202C0.208442 0.169526 0.218441 0.156007 0.230775 0.156007C0.243109 0.156007 0.253108 0.169526 0.253108 0.186202C0.253108 0.186202 0.253108 0.186202 0.253108 0.186202L0.253108 0.186202Z"/>
		<path fill="none" stroke="black" stroke-width="0.0058712126" stroke-miterlimit="4" transform="matrix(0 113.548 -113.548 -0 526.249 930.876)" d="M0.253108 0.186202C0.253108 0.202879 0.243109 0.216397 0.230775 0.216397C0.218441 0.216397 0.208442 0.202879 0.208442 0.186202C0.208442 0.169526 0.218441 0.156007 0.230775 0.156007C0.243109 0.156007 0.253108 0.169526 0.253108 0.186202C0.253108 0.186202 0.253108 0.186202 0.253108 0.186202L0.253108 0.186202Z"/>
		<path fill="white" transform="matrix(0 113.548 -113.548 -0 526.249 930.876)" d="M0.253108 0.367372C0.253108 0.384049 0.243109 0.397567 0.230775 0.397567C0.218441 0.397567 0.208442 0.384049 0.208442 0.367372C0.208442 0.350696 0.218441 0.337177 0.230775 0.337177C0.243109 0.337177 0.253108 0.350696 0.253108 0.367372C0.253108 0.367372 0.253108 0.367372 0.253108 0.367372L0.253108 0.367372Z"/>
		<path fill="none" stroke="black" stroke-width="0.0058712126" stroke-miterlimit="4" transform="matrix(0 113.548 -113.548 -0 526.249 930.876)" d="M0.253108 0.367372C0.253108 0.384049 0.243109 0.397567 0.230775 0.397567C0.218441 0.397567 0.208442 0.384049 0.208442 0.367372C0.208442 0.350696 0.218441 0.337177 0.230775 0.337177C0.243109 0.337177 0.253108 0.350696 0.253108 0.367372C0.253108 0.367372 0.253108 0.367372 0.253108 0.367372L0.253108 0.367372Z"/>
		<path fill="white" transform="matrix(0 113.548 -113.548 -0 526.249 930.876)" d="M0.253108 0.367372C0.253108 0.384049 0.243109 0.397567 0.230775 0.397567C0.218441 0.397567 0.208442 0.384049 0.208442 0.367372C0.208442 0.350696 0.218441 0.337177 0.230775 0.337177C0.243109 0.337177 0.253108 0.350696 0.253108 0.367372C0.253108 0.367372 0.253108 0.367372 0.253108 0.367372L0.253108 0.367372Z"/>
		<path fill="none" stroke="black" stroke-width="0.0058712126" stroke-miterlimit="4" transform="matrix(0 113.548 -113.548 -0 526.249 930.876)" d="M0.253108 0.367372C0.253108 0.384049 0.243109 0.397567 0.230775 0.397567C0.218441 0.397567 0.208442 0.384049 0.208442 0.367372C0.208442 0.350696 0.218441 0.337177 0.230775 0.337177C0.243109 0.337177 0.253108 0.350696 0.253108 0.367372C0.253108 0.367372 0.253108 0.367372 0.253108 0.367372L0.253108 0.367372Z"/>
		<path fill="white" transform="matrix(0 113.548 -113.548 -0 526.249 930.876)" d="M0.213802 0.245888C0.213802 0.280847 0.213802 0.315806 0.213802 0.350765C0.225117 0.350765 0.236433 0.350765 0.247748 0.350765C0.247748 0.350765 0.247674 0.245989 0.247674 0.245989C0.247301 0.233307 0.239485 0.223544 0.230105 0.223946C0.221321 0.224349 0.214249 0.233911 0.213802 0.245787"/>
		<path fill="none" stroke="black" stroke-width="0.0058712126" stroke-miterlimit="4" transform="matrix(0 113.548 -113.548 -0 526.249 930.876)" d="M0.213802 0.245888C0.213802 0.280847 0.213802 0.315806 0.213802 0.350765C0.225117 0.350765 0.236433 0.350765 0.247748 0.350765C0.247748 0.350765 0.247674 0.245989 0.247674 0.245989C0.247301 0.233307 0.239485 0.223544 0.230105 0.223946C0.221321 0.224349 0.214249 0.233911 0.213802 0.245787"/>
		<path fill="white" transform="matrix(0 113.548 -113.548 -0 526.249 930.876)" d="M0.253108 0.367372C0.253108 0.384049 0.243109 0.397567 0.230775 0.397567C0.218441 0.397567 0.208442 0.384049 0.208442 0.367372C0.208442 0.350696 0.218441 0.337177 0.230775 0.337177C0.243109 0.337177 0.253108 0.350696 0.253108 0.367372C0.253108 0.367372 0.253108 0.367372 0.253108 0.367372L0.253108 0.367372Z"/>
		<path fill="none" stroke="black" stroke-width="0.0058712126" stroke-miterlimit="4" transform="matrix(0 113.548 -113.548 -0 526.249 930.876)" d="M0.253108 0.367372C0.253108 0.384049 0.243109 0.397567 0.230775 0.397567C0.218441 0.397567 0.208442 0.384049 0.208442 0.367372C0.208442 0.350696 0.218441 0.337177 0.230775 0.337177C0.243109 0.337177 0.253108 0.350696 0.253108 0.367372C0.253108 0.367372 0.253108 0.367372 0.253108 0.367372L0.253108 0.367372Z"/>
		<path fill="white" transform="matrix(0 113.548 -113.548 -0 538.973 799.43)" d="M0.0161015 0.00636655C0.227211 0.00636655 0.43832 0.00636655 0.649428 0.00636655C0.655357 0.00636655 0.660163 0.0120673 0.660163 0.0190996C0.660163 0.18463 0.660163 0.35016 0.660163 0.51569C0.660163 0.522723 0.655357 0.528423 0.649428 0.528423C0.43832 0.528423 0.227211 0.528423 0.0161015 0.528423C0.0101731 0.528423 0.00536718 0.522723 0.00536718 0.51569C0.00536718 0.35016 0.00536718 0.18463 0.00536718 0.0190996C0.00536718 0.0120673 0.0101731 0.00636655 0.0161015 0.00636655C0.0161015 0.00636655 0.0161015 0.00636655 0.0161015 0.00636655L0.0161015 0.00636655Z"/>
		<path fill="none" stroke="black" stroke-width="0.0058712126" stroke-miterlimit="4" transform="matrix(0 113.548 -113.548 -0 538.973 799.43)" d="M0.0161015 0.00636655C0.227211 0.00636655 0.43832 0.00636655 0.649428 0.00636655C0.655357 0.00636655 0.660163 0.0120673 0.660163 0.0190996C0.660163 0.18463 0.660163 0.35016 0.660163 0.51569C0.660163 0.522723 0.655357 0.528423 0.649428 0.528423C0.43832 0.528423 0.227211 0.528423 0.0161015 0.528423C0.0101731 0.528423 0.00536718 0.522723 0.00536718 0.51569C0.00536718 0.35016 0.00536718 0.18463 0.00536718 0.0190996C0.00536718 0.0120673 0.0101731 0.00636655 0.0161015 0.00636655C0.0161015 0.00636655 0.0161015 0.00636655 0.0161015 0.00636655L0.0161015 0.00636655Z"/>
		<path fill="none" stroke="black" stroke-width="0.0058712126" stroke-miterlimit="4" transform="matrix(0 113.548 -113.548 -0 538.973 799.43)" d="M0.585022 0.070032C0.416851 0.070032 0.248679 0.070032 0.0805077 0.070032"/>
		<path fill="white" transform="matrix(0 113.548 -113.548 -0 538.973 799.43)" d="M0.0805077 0.070032C0.0686999 0.070032 0.059039 0.0814918 0.059039 0.0954982"/>
		<path fill="none" stroke="black" stroke-width="0.0058712126" stroke-miterlimit="4" transform="matrix(0 113.548 -113.548 -0 538.973 799.43)" d="M0.0805077 0.070032C0.0686999 0.070032 0.059039 0.0814918 0.059039 0.0954982"/>
		<path fill="white" transform="matrix(0 113.548 -113.548 -0 538.973 799.43)" d="M0.606491 0.0954982C0.606491 0.0814918 0.59683 0.070032 0.585022 0.070032"/>
		<path fill="none" stroke="black" stroke-width="0.0058712126" stroke-miterlimit="4" transform="matrix(0 113.548 -113.548 -0 538.973 799.43)" d="M0.606491 0.0954982C0.606491 0.0814918 0.59683 0.070032 0.585022 0.070032"/>
		<path fill="white" transform="matrix(0 113.548 -113.548 -0 538.973 799.43)" d="M0.585022 0.070032C0.59683 0.070032 0.606491 0.0814918 0.606491 0.0954982C0.606491 0.188874 0.606491 0.28225 0.606491 0.375626C0.606491 0.389633 0.59683 0.401092 0.585022 0.401092C0.416851 0.401092 0.248679 0.401092 0.0805077 0.401092C0.0686999 0.401092 0.059039 0.389633 0.059039 0.375626C0.059039 0.28225 0.059039 0.188874 0.059039 0.0954982C0.059039 0.0814918 0.0686999 0.070032 0.0805077 0.070032C0.248679 0.070032 0.416851 0.070032 0.585022 0.070032"/>
		<path fill="none" stroke="black" stroke-width="0.0058712126" stroke-miterlimit="4" transform="matrix(0 113.548 -113.548 -0 538.973 799.43)" d="M0.585022 0.070032C0.59683 0.070032 0.606491 0.0814918 0.606491 0.0954982C0.606491 0.188874 0.606491 0.28225 0.606491 0.375626C0.606491 0.389633 0.59683 0.401092 0.585022 0.401092C0.416851 0.401092 0.248679 0.401092 0.0805077 0.401092C0.0686999 0.401092 0.059039 0.389633 0.059039 0.375626C0.059039 0.28225 0.059039 0.188874 0.059039 0.0954982C0.059039 0.0814918 0.0686999 0.070032 0.0805077 0.070032C0.248679 0.070032 0.416851 0.070032 0.585022 0.070032"/>
		<path fill="white" transform="matrix(0 113.548 -113.548 -0 538.973 799.43)" d="M0.364968 0.235562C0.364968 0.256659 0.35055 0.273762 0.332765 0.273762C0.31498 0.273762 0.300562 0.256659 0.300562 0.235562C0.300562 0.214465 0.31498 0.197363 0.332765 0.197363C0.35055 0.197363 0.364968 0.214465 0.364968 0.235562C0.364968 0.235562 0.364968 0.235562 0.364968 0.235562L0.364968 0.235562Z"/>
		<path fill="none" stroke="black" stroke-width="0.0058712126" stroke-miterlimit="4" transform="matrix(0 113.548 -113.548 -0 538.973 799.43)" d="M0.364968 0.235562C0.364968 0.256659 0.35055 0.273762 0.332765 0.273762C0.31498 0.273762 0.300562 0.256659 0.300562 0.235562C0.300562 0.214465 0.31498 0.197363 0.332765 0.197363C0.35055 0.197363 0.364968 0.214465 0.364968 0.235562C0.364968 0.235562 0.364968 0.235562 0.364968 0.235562L0.364968 0.235562Z"/>
		<path fill="white" transform="matrix(0 113.548 -113.548 -0 538.973 799.43)" d="M0.364968 0.464758C0.364968 0.485855 0.35055 0.502957 0.332765 0.502957C0.31498 0.502957 0.300562 0.485855 0.300562 0.464758C0.300562 0.443661 0.31498 0.426559 0.332765 0.426559C0.35055 0.426559 0.364968 0.443661 0.364968 0.464758C0.364968 0.464758 0.364968 0.464758 0.364968 0.464758L0.364968 0.464758Z"/>
		<path fill="none" stroke="black" stroke-width="0.0058712126" stroke-miterlimit="4" transform="matrix(0 113.548 -113.548 -0 538.973 799.43)" d="M0.364968 0.464758C0.364968 0.485855 0.35055 0.502957 0.332765 0.502957C0.31498 0.502957 0.300562 0.485855 0.300562 0.464758C0.300562 0.443661 0.31498 0.426559 0.332765 0.426559C0.35055 0.426559 0.364968 0.443661 0.364968 0.464758C0.364968 0.464758 0.364968 0.464758 0.364968 0.464758L0.364968 0.464758Z"/>
		<path fill="white" transform="matrix(0 113.548 -113.548 -0 538.973 799.43)" d="M0.364968 0.464758C0.364968 0.485855 0.35055 0.502957 0.332765 0.502957C0.31498 0.502957 0.300562 0.485855 0.300562 0.464758C0.300562 0.443661 0.31498 0.426559 0.332765 0.426559C0.35055 0.426559 0.364968 0.443661 0.364968 0.464758C0.364968 0.464758 0.364968 0.464758 0.364968 0.464758L0.364968 0.464758Z"/>
		<path fill="none" stroke="black" stroke-width="0.0058712126" stroke-miterlimit="4" transform="matrix(0 113.548 -113.548 -0 538.973 799.43)" d="M0.364968 0.464758C0.364968 0.485855 0.35055 0.502957 0.332765 0.502957C0.31498 0.502957 0.300562 0.485855 0.300562 0.464758C0.300562 0.443661 0.31498 0.426559 0.332765 0.426559C0.35055 0.426559 0.364968 0.443661 0.364968 0.464758C0.364968 0.464758 0.364968 0.464758 0.364968 0.464758L0.364968 0.464758Z"/>
		<path fill="white" transform="matrix(0 113.548 -113.548 -0 538.973 799.43)" d="M0.308291 0.311069C0.308291 0.355296 0.308291 0.399522 0.308291 0.443748C0.324607 0.443748 0.340923 0.443748 0.357239 0.443748C0.357239 0.443748 0.357132 0.311197 0.357132 0.311197C0.356595 0.295153 0.345324 0.282802 0.331799 0.283311C0.319132 0.283821 0.308935 0.295917 0.308291 0.310942"/>
		<path fill="none" stroke="black" stroke-width="0.0058712126" stroke-miterlimit="4" transform="matrix(0 113.548 -113.548 -0 538.973 799.43)" d="M0.308291 0.311069C0.308291 0.355296 0.308291 0.399522 0.308291 0.443748C0.324607 0.443748 0.340923 0.443748 0.357239 0.443748C0.357239 0.443748 0.357132 0.311197 0.357132 0.311197C0.356595 0.295153 0.345324 0.282802 0.331799 0.283311C0.319132 0.283821 0.308935 0.295917 0.308291 0.310942"/>
		<path fill="white" transform="matrix(0 113.548 -113.548 -0 538.973 799.43)" d="M0.364968 0.464758C0.364968 0.485855 0.35055 0.502957 0.332765 0.502957C0.31498 0.502957 0.300562 0.485855 0.300562 0.464758C0.300562 0.443661 0.31498 0.426559 0.332765 0.426559C0.35055 0.426559 0.364968 0.443661 0.364968 0.464758C0.364968 0.464758 0.364968 0.464758 0.364968 0.464758L0.364968 0.464758Z"/>
		<path fill="none" stroke="black" stroke-width="0.0058712126" stroke-miterlimit="4" transform="matrix(0 113.548 -113.548 -0 538.973 799.43)" d="M0.364968 0.464758C0.364968 0.485855 0.35055 0.502957 0.332765 0.502957C0.31498 0.502957 0.300562 0.485855 0.300562 0.464758C0.300562 0.443661 0.31498 0.426559 0.332765 0.426559C0.35055 0.426559 0.364968 0.443661 0.364968 0.464758C0.364968 0.464758 0.364968 0.464758 0.364968 0.464758L0.364968 0.464758Z"/>
		<path fill="none" stroke="black" stroke-width="0.0058712126" stroke-miterlimit="4" transform="matrix(0 113.548 113.548 0 378.847 1079.91)" d="M0.81541 0.81541C0.81541 0.364896 0.450514 0 0 0C0 0.271803 0 0.543607 0 0.81541"/>
	</g>
	<text font-size="13" font-family="Roboto" x="51.023621, 58.780457, 68.054382, 71.590027, 79.308777, 82.533386, 89.718933, 96.3078, 105.25165, 114.1955, 122.20624, 125.43085, 133.63202, 140.75409, 149.23456, 158.50848, 161.73309, 165.26874, 172.98749, 176.2121, 184.41327, 192.42401, 201.22821, 209.50555, 213.0412, 221.57245, 228.96112, 237.49237, 240.71698, 252.25067, 255.60223, 263.35907, 272.633, 281.57684, 290.00653, 297.50946, 300.73407, 311.99481, 320.47528, 328.48602, 336.49677, 344.97723, 354.06708, 361.92548, 369.73309, 372.9577, 381.90155, 389.0871, 392.31171, 400.79218, 409.88837, 417.69598, 420.92059, 429.07733, 432.61298, 441.8869, 449.77069, 453.19843, 456.42303, 464.14178, 471.53046, 480.80438, 488.52313, 497.46698, 505.66815, 509.31805, 517.79852, 521.02313, 529.55438, 533.09003, 540.80878, 549.2702, 556.39227, 564.87274, 568.40839, 579.758, 587.47675, 590.70135, 599.18182, 608.27802, 616.08563, 619.31024, 630.57098, 639.05145, 647.06219, 655.07294, 663.55341, 672.64325, 680.50165, 688.30927, 691.53387, 695.06952, 704.34344, 712.80487, 719.46356, 727.89325, 736.4245, 739.96014, 749.23407, 758.08905, 760.64716, 763.87177, 775.40546, 778.75702, 786.51385, 795.78778, 804.73163, 813.16132, 820.66425, 823.88885, 830.89032, 834.42596, 845.77557, 849.12714, 856.38251, 864.04413, 871.80096, 875.33661, 884.28046, 893.55438, 896.11249, 899.3371, 907.05585, 914.71747, 922.4743, 926.00995, 933.7287, 939.83514, 948.24579, 956.52313, 964.10223, 973.04608, 980.75214, 988.55975, 991.78436, 1000.7282, 1009.0182, 1017.4987, 1024.5002, 1027.8518, 1035.7102, 1043.5178, 1046.7424, 1055.6863, 1063.697, 1066.9216, 1075.3323, 1083.7937, 1092.2551, 1100.6848, 1108.6956, 1117.1062, 1125.5676, 1133.3752, 1136.5999, 1145.5437, " y="1850.9763, ">
			THIS FLOOR PLAN IS PROVIDED WITHOUT WARRANTY OF ANY KIND. SENSOPIA DISCLAIMS ANY WARRANTY INCLUDING, WITHOUT LIMITATION, SATISFACTORY QUALITY OR ACCURACY OF
	</text>
	<text font-size="13" font-family="Roboto" x="51.023682, 59.554932, 63.090576, 74.440186, 81.828857, 91.102783, 98.821533, 102.35718, 111.30103, 120.57495, 128.2937, " y="1865.9763, ">
			DIMENSIONS.
	</text>
</svg>
