<?xml version="1.0" encoding="utf-8" ?>
<svg xmlns="http://www.w3.org/2000/svg" xmlns:xlink="http://www.w3.org/1999/xlink" width="1280" height="1920">
	<rect fill="white" width="1280" height="1920"/>
	<clipPath id="cl_6">
		<rect x="28.346457" y="28.346457" width="1223.3071" height="1782.9528"/>
	</clipPath>
	<g clip-path="url(#cl_6)">
		<path transform="matrix(39.9818 0 0 39.9818 235.152 1349.47)" d="M4.995 1.481L4.995 -0.935L5.245 -0.935L5.245 1.481L4.995 1.481M7.114 -16.777L11.256 -16.776L11.258 -18.254L11.321 -18.254L11.321 -18.385L11.377 -18.385L11.377 -16.779L14.945 -16.778L14.947 -20.722L12.406 -20.724L12.406 -20.844L12.971 -20.844L12.971 -22.723L11.901 -22.723L11.901 -22.973L13.221 -22.973L13.221 -20.974L15.197 -20.972L15.195 -16.528L15.195 -16.525L11.506 -16.526L7.244 -16.527L7.244 1.481L6.585 1.481L6.585 1.231L6.994 1.231L6.994 -16.807L7.114 -16.807L7.114 -16.777M5.245 -1.976L4.995 -1.976L4.995 -11.376L5.245 -11.376L5.245 -1.976M7.114 -18.263L7.114 -18.262L6.994 -18.262L6.994 -19.683L5.245 -19.683L5.245 -12.667L4.995 -12.667L4.995 -19.933L7.244 -19.933L7.244 -18.513L10.056 -18.514L10.06 -20.976L11.096 -20.975L11.096 -22.973L11.601 -22.973L11.601 -22.723L11.346 -22.723L11.346 -20.844L11.587 -20.844L11.587 -20.725L10.31 -20.726L10.306 -18.393L10.306 -18.264L7.114 -18.263"/>
		<path fill="#000019" fill-opacity="0.06666667" transform="matrix(39.9818 0 0 39.9818 235.152 1349.47)" d="M11.901 -22.723L12.971 -22.723L12.971 -20.844L12.406 -20.844L12.406 -20.724L14.947 -20.722L14.945 -16.778L11.377 -16.779L11.377 -18.385L11.321 -18.385L11.321 -18.259L11.258 -18.259L11.256 -16.776L7.114 -16.777L7.114 -16.807L6.994 -16.807L6.994 1.231L6.585 1.231L6.585 1.356L5.245 1.356L5.245 -0.935L5.12 -0.935L5.12 -1.976L5.245 -1.976L5.245 -11.376L5.12 -11.376L5.12 -12.667L5.245 -12.667L5.245 -19.683L6.994 -19.683L6.994 -18.262L7.114 -18.262L7.114 -18.263L10.306 -18.264L10.306 -18.388L10.31 -20.726L11.587 -20.725L11.587 -20.844L11.346 -20.844L11.346 -22.723L11.601 -22.723L11.601 -22.848L11.901 -22.848L11.901 -22.723"/>
		<path fill="white" transform="matrix(0.0185518 -39.9818 39.9818 0.0185518 821.482 650.629)" d="M0.014324 0.00334631C0.202128 0.00334631 0.389932 0.00334631 0.577736 0.00334631C0.58301 0.00334631 0.587285 0.0063427 0.587285 0.0100389C0.587285 0.097043 0.587285 0.184047 0.587285 0.271051C0.587285 0.274747 0.58301 0.277744 0.577736 0.277744C0.389932 0.277744 0.202128 0.277744 0.014324 0.277744C0.00905007 0.277744 0.00477468 0.274747 0.00477468 0.271051C0.00477468 0.184047 0.00477468 0.097043 0.00477468 0.0100389C0.00477468 0.0063427 0.00905007 0.00334631 0.014324 0.00334631C0.014324 0.00334631 0.014324 0.00334631 0.014324 0.00334631L0.014324 0.00334631Z"/>
		<path fill="none" stroke="black" stroke-width="0.0099999998" stroke-miterlimit="4" transform="matrix(0.0185518 -39.9818 39.9818 0.0185518 821.482 650.629)" d="M0.014324 0.00334631C0.202128 0.00334631 0.389932 0.00334631 0.577736 0.00334631C0.58301 0.00334631 0.587285 0.0063427 0.587285 0.0100389C0.587285 0.097043 0.587285 0.184047 0.587285 0.271051C0.587285 0.274747 0.58301 0.277744 0.577736 0.277744C0.389932 0.277744 0.202128 0.277744 0.014324 0.277744C0.00905007 0.277744 0.00477468 0.274747 0.00477468 0.271051C0.00477468 0.184047 0.00477468 0.097043 0.00477468 0.0100389C0.00477468 0.0063427 0.00905007 0.00334631 0.014324 0.00334631C0.014324 0.00334631 0.014324 0.00334631 0.014324 0.00334631L0.014324 0.00334631Z"/>
		<path fill="white" transform="matrix(0.0185518 -39.9818 39.9818 0.0185518 821.482 650.629)" d="M0.52044 0.0368094C0.370833 0.0368094 0.221227 0.0368094 0.0716202 0.0368094"/>
		<path fill="none" stroke="black" stroke-width="0.0099999998" stroke-miterlimit="4" transform="matrix(0.0185518 -39.9818 39.9818 0.0185518 821.482 650.629)" d="M0.52044 0.0368094C0.370833 0.0368094 0.221227 0.0368094 0.0716202 0.0368094"/>
		<path fill="white" transform="matrix(0.0185518 -39.9818 39.9818 0.0185518 821.482 650.629)" d="M0.0716202 0.0368094C0.0611159 0.0368094 0.0525215 0.0428328 0.0525215 0.0501946"/>
		<path fill="none" stroke="black" stroke-width="0.0099999998" stroke-miterlimit="4" transform="matrix(0.0185518 -39.9818 39.9818 0.0185518 821.482 650.629)" d="M0.0716202 0.0368094C0.0611159 0.0368094 0.0525215 0.0428328 0.0525215 0.0501946"/>
		<path fill="white" transform="matrix(0.0185518 -39.9818 39.9818 0.0185518 821.482 650.629)" d="M0.539539 0.0501946C0.539539 0.0428328 0.530944 0.0368094 0.52044 0.0368094"/>
		<path fill="none" stroke="black" stroke-width="0.0099999998" stroke-miterlimit="4" transform="matrix(0.0185518 -39.9818 39.9818 0.0185518 821.482 650.629)" d="M0.539539 0.0501946C0.539539 0.0428328 0.530944 0.0368094 0.52044 0.0368094"/>
		<path fill="white" transform="matrix(0.0185518 -39.9818 39.9818 0.0185518 821.482 650.629)" d="M0.52044 0.0368094C0.530944 0.0368094 0.539539 0.0428328 0.539539 0.0501946C0.539539 0.0992739 0.539539 0.148353 0.539539 0.197432C0.539539 0.204794 0.530944 0.210818 0.52044 0.210818C0.370833 0.210818 0.221227 0.210818 0.0716202 0.210818C0.0611159 0.210818 0.0525215 0.204794 0.0525215 0.197432C0.0525215 0.148353 0.0525215 0.0992739 0.0525215 0.0501946C0.0525215 0.0428328 0.0611159 0.0368094 0.0716202 0.0368094C0.221227 0.0368094 0.370833 0.0368094 0.52044 0.0368094"/>
		<path fill="none" stroke="black" stroke-width="0.0099999998" stroke-miterlimit="4" transform="matrix(0.0185518 -39.9818 39.9818 0.0185518 821.482 650.629)" d="M0.52044 0.0368094C0.530944 0.0368094 0.539539 0.0428328 0.539539 0.0501946C0.539539 0.0992739 0.539539 0.148353 0.539539 0.197432C0.539539 0.204794 0.530944 0.210818 0.52044 0.210818C0.370833 0.210818 0.221227 0.210818 0.0716202 0.210818C0.0611159 0.210818 0.0525215 0.204794 0.0525215 0.197432C0.0525215 0.148353 0.0525215 0.0992739 0.0525215 0.0501946C0.0525215 0.0428328 0.0611159 0.0368094 0.0716202 0.0368094C0.221227 0.0368094 0.370833 0.0368094 0.52044 0.0368094"/>
		<path fill="white" transform="matrix(0.0185518 -39.9818 39.9818 0.0185518 821.482 650.629)" d="M0.324678 0.123813C0.324678 0.134902 0.311852 0.143891 0.29603 0.143891C0.280208 0.143891 0.267382 0.134902 0.267382 0.123813C0.267382 0.112725 0.280208 0.103736 0.29603 0.103736C0.311852 0.103736 0.324678 0.112725 0.324678 0.123813C0.324678 0.123813 0.324678 0.123813 0.324678 0.123813L0.324678 0.123813Z"/>
		<path fill="none" stroke="black" stroke-width="0.0099999998" stroke-miterlimit="4" transform="matrix(0.0185518 -39.9818 39.9818 0.0185518 821.482 650.629)" d="M0.324678 0.123813C0.324678 0.134902 0.311852 0.143891 0.29603 0.143891C0.280208 0.143891 0.267382 0.134902 0.267382 0.123813C0.267382 0.112725 0.280208 0.103736 0.29603 0.103736C0.311852 0.103736 0.324678 0.112725 0.324678 0.123813C0.324678 0.123813 0.324678 0.123813 0.324678 0.123813L0.324678 0.123813Z"/>
		<path fill="white" transform="matrix(0.0185518 -39.9818 39.9818 0.0185518 821.482 650.629)" d="M0.324678 0.244281C0.324678 0.255369 0.311852 0.264358 0.29603 0.264358C0.280208 0.264358 0.267382 0.255369 0.267382 0.244281C0.267382 0.233192 0.280208 0.224203 0.29603 0.224203C0.311852 0.224203 0.324678 0.233192 0.324678 0.244281C0.324678 0.244281 0.324678 0.244281 0.324678 0.244281L0.324678 0.244281Z"/>
		<path fill="none" stroke="black" stroke-width="0.0099999998" stroke-miterlimit="4" transform="matrix(0.0185518 -39.9818 39.9818 0.0185518 821.482 650.629)" d="M0.324678 0.244281C0.324678 0.255369 0.311852 0.264358 0.29603 0.264358C0.280208 0.264358 0.267382 0.255369 0.267382 0.244281C0.267382 0.233192 0.280208 0.224203 0.29603 0.224203C0.311852 0.224203 0.324678 0.233192 0.324678 0.244281C0.324678 0.244281 0.324678 0.244281 0.324678 0.244281L0.324678 0.244281Z"/>
		<path fill="white" transform="matrix(0.0185518 -39.9818 39.9818 0.0185518 821.482 650.629)" d="M0.324678 0.244281C0.324678 0.255369 0.311852 0.264358 0.29603 0.264358C0.280208 0.264358 0.267382 0.255369 0.267382 0.244281C0.267382 0.233192 0.280208 0.224203 0.29603 0.224203C0.311852 0.224203 0.324678 0.233192 0.324678 0.244281C0.324678 0.244281 0.324678 0.244281 0.324678 0.244281L0.324678 0.244281Z"/>
		<path fill="none" stroke="black" stroke-width="0.0099999998" stroke-miterlimit="4" transform="matrix(0.0185518 -39.9818 39.9818 0.0185518 821.482 650.629)" d="M0.324678 0.244281C0.324678 0.255369 0.311852 0.264358 0.29603 0.264358C0.280208 0.264358 0.267382 0.255369 0.267382 0.244281C0.267382 0.233192 0.280208 0.224203 0.29603 0.224203C0.311852 0.224203 0.324678 0.233192 0.324678 0.244281C0.324678 0.244281 0.324678 0.244281 0.324678 0.244281L0.324678 0.244281Z"/>
		<path fill="white" transform="matrix(0.0185518 -39.9818 39.9818 0.0185518 821.482 650.629)" d="M0.274257 0.163501C0.274257 0.186746 0.274257 0.209992 0.274257 0.233238C0.288772 0.233238 0.303288 0.233238 0.317803 0.233238C0.317803 0.233238 0.317707 0.163568 0.317707 0.163568C0.31723 0.155135 0.307203 0.148643 0.295171 0.148911C0.283902 0.149178 0.27483 0.155536 0.274257 0.163434"/>
		<path fill="none" stroke="black" stroke-width="0.0099999998" stroke-miterlimit="4" transform="matrix(0.0185518 -39.9818 39.9818 0.0185518 821.482 650.629)" d="M0.274257 0.163501C0.274257 0.186746 0.274257 0.209992 0.274257 0.233238C0.288772 0.233238 0.303288 0.233238 0.317803 0.233238C0.317803 0.233238 0.317707 0.163568 0.317707 0.163568C0.31723 0.155135 0.307203 0.148643 0.295171 0.148911C0.283902 0.149178 0.27483 0.155536 0.274257 0.163434"/>
		<path fill="white" transform="matrix(0.0185518 -39.9818 39.9818 0.0185518 821.482 650.629)" d="M0.324678 0.244281C0.324678 0.255369 0.311852 0.264358 0.29603 0.264358C0.280208 0.264358 0.267382 0.255369 0.267382 0.244281C0.267382 0.233192 0.280208 0.224203 0.29603 0.224203C0.311852 0.224203 0.324678 0.233192 0.324678 0.244281C0.324678 0.244281 0.324678 0.244281 0.324678 0.244281L0.324678 0.244281Z"/>
		<path fill="none" stroke="black" stroke-width="0.0099999998" stroke-miterlimit="4" transform="matrix(0.0185518 -39.9818 39.9818 0.0185518 821.482 650.629)" d="M0.324678 0.244281C0.324678 0.255369 0.311852 0.264358 0.29603 0.264358C0.280208 0.264358 0.267382 0.255369 0.267382 0.244281C0.267382 0.233192 0.280208 0.224203 0.29603 0.224203C0.311852 0.224203 0.324678 0.233192 0.324678 0.244281C0.324678 0.244281 0.324678 0.244281 0.324678 0.244281L0.324678 0.244281Z"/>
		<path fill="white" transform="matrix(39.9818 0 0 39.9818 816.831 666.213)" d="M0.0107417 0.00369048C0.151577 0.00369048 0.292413 0.00369048 0.433248 0.00369048C0.437203 0.00369048 0.440409 0.00699504 0.440409 0.0110714C0.440409 0.107024 0.440409 0.202976 0.440409 0.298929C0.440409 0.303005 0.437203 0.30631 0.433248 0.30631C0.292413 0.30631 0.151577 0.30631 0.0107417 0.30631C0.00678671 0.30631 0.00358056 0.303005 0.00358056 0.298929C0.00358056 0.202976 0.00358056 0.107024 0.00358056 0.0110714C0.00358056 0.00699504 0.00678671 0.00369048 0.0107417 0.00369048C0.0107417 0.00369048 0.0107417 0.00369048 0.0107417 0.00369048L0.0107417 0.00369048Z"/>
		<path fill="none" stroke="black" stroke-width="0.0099999998" stroke-miterlimit="4" transform="matrix(39.9818 0 0 39.9818 816.831 666.213)" d="M0.0107417 0.00369048C0.151577 0.00369048 0.292413 0.00369048 0.433248 0.00369048C0.437203 0.00369048 0.440409 0.00699504 0.440409 0.0110714C0.440409 0.107024 0.440409 0.202976 0.440409 0.298929C0.440409 0.303005 0.437203 0.30631 0.433248 0.30631C0.292413 0.30631 0.151577 0.30631 0.0107417 0.30631C0.00678671 0.30631 0.00358056 0.303005 0.00358056 0.298929C0.00358056 0.202976 0.00358056 0.107024 0.00358056 0.0110714C0.00358056 0.00699504 0.00678671 0.00369048 0.0107417 0.00369048C0.0107417 0.00369048 0.0107417 0.00369048 0.0107417 0.00369048L0.0107417 0.00369048Z"/>
		<path fill="none" stroke="black" stroke-width="0.0099999998" stroke-miterlimit="4" transform="matrix(39.9818 0 0 39.9818 816.831 666.213)" d="M0.390282 0.0405952C0.278091 0.0405952 0.1659 0.0405952 0.0537085 0.0405952"/>
		<path fill="white" transform="matrix(39.9818 0 0 39.9818 816.831 666.213)" d="M0.0537085 0.0405952C0.0458312 0.0405952 0.0393862 0.0472381 0.0393862 0.0553571"/>
		<path fill="none" stroke="black" stroke-width="0.0099999998" stroke-miterlimit="4" transform="matrix(39.9818 0 0 39.9818 816.831 666.213)" d="M0.0537085 0.0405952C0.0458312 0.0405952 0.0393862 0.0472381 0.0393862 0.0553571"/>
		<path fill="white" transform="matrix(39.9818 0 0 39.9818 816.831 666.213)" d="M0.404604 0.0553571C0.404604 0.0472381 0.398159 0.0405952 0.390282 0.0405952"/>
		<path fill="none" stroke="black" stroke-width="0.0099999998" stroke-miterlimit="4" transform="matrix(39.9818 0 0 39.9818 816.831 666.213)" d="M0.404604 0.0553571C0.404604 0.0472381 0.398159 0.0405952 0.390282 0.0405952"/>
		<path fill="white" transform="matrix(39.9818 0 0 39.9818 816.831 666.213)" d="M0.390282 0.0405952C0.398159 0.0405952 0.404604 0.0472381 0.404604 0.0553571C0.404604 0.109484 0.404604 0.163611 0.404604 0.217738C0.404604 0.225857 0.398159 0.2325 0.390282 0.2325C0.278091 0.2325 0.1659 0.2325 0.0537085 0.2325C0.0458312 0.2325 0.0393862 0.225857 0.0393862 0.217738C0.0393862 0.163611 0.0393862 0.109484 0.0393862 0.0553571C0.0393862 0.0472381 0.0458312 0.0405952 0.0537085 0.0405952C0.1659 0.0405952 0.278091 0.0405952 0.390282 0.0405952"/>
		<path fill="none" stroke="black" stroke-width="0.0099999998" stroke-miterlimit="4" transform="matrix(39.9818 0 0 39.9818 816.831 666.213)" d="M0.390282 0.0405952C0.398159 0.0405952 0.404604 0.0472381 0.404604 0.0553571C0.404604 0.109484 0.404604 0.163611 0.404604 0.217738C0.404604 0.225857 0.398159 0.2325 0.390282 0.2325C0.278091 0.2325 0.1659 0.2325 0.0537085 0.2325C0.0458312 0.2325 0.0393862 0.225857 0.0393862 0.217738C0.0393862 0.163611 0.0393862 0.109484 0.0393862 0.0553571C0.0393862 0.0472381 0.0458312 0.0405952 0.0537085 0.0405952C0.1659 0.0405952 0.278091 0.0405952 0.390282 0.0405952"/>
		<path fill="white" transform="matrix(39.9818 0 0 39.9818 816.831 666.213)" d="M0.243478 0.136548C0.243478 0.148777 0.23386 0.15869 0.221995 0.15869C0.21013 0.15869 0.200512 0.148777 0.200512 0.136548C0.200512 0.124318 0.21013 0.114405 0.221995 0.114405C0.23386 0.114405 0.243478 0.124318 0.243478 0.136548C0.243478 0.136548 0.243478 0.136548 0.243478 0.136548L0.243478 0.136548Z"/>
		<path fill="none" stroke="black" stroke-width="0.0099999998" stroke-miterlimit="4" transform="matrix(39.9818 0 0 39.9818 816.831 666.213)" d="M0.243478 0.136548C0.243478 0.148777 0.23386 0.15869 0.221995 0.15869C0.21013 0.15869 0.200512 0.148777 0.200512 0.136548C0.200512 0.124318 0.21013 0.114405 0.221995 0.114405C0.23386 0.114405 0.243478 0.124318 0.243478 0.136548C0.243478 0.136548 0.243478 0.136548 0.243478 0.136548L0.243478 0.136548Z"/>
		<path fill="white" transform="matrix(39.9818 0 0 39.9818 816.831 666.213)" d="M0.243478 0.269405C0.243478 0.281634 0.23386 0.291548 0.221995 0.291548C0.21013 0.291548 0.200512 0.281634 0.200512 0.269405C0.200512 0.257176 0.21013 0.247262 0.221995 0.247262C0.23386 0.247262 0.243478 0.257176 0.243478 0.269405C0.243478 0.269405 0.243478 0.269405 0.243478 0.269405L0.243478 0.269405Z"/>
		<path fill="none" stroke="black" stroke-width="0.0099999998" stroke-miterlimit="4" transform="matrix(39.9818 0 0 39.9818 816.831 666.213)" d="M0.243478 0.269405C0.243478 0.281634 0.23386 0.291548 0.221995 0.291548C0.21013 0.291548 0.200512 0.281634 0.200512 0.269405C0.200512 0.257176 0.21013 0.247262 0.221995 0.247262C0.23386 0.247262 0.243478 0.257176 0.243478 0.269405C0.243478 0.269405 0.243478 0.269405 0.243478 0.269405L0.243478 0.269405Z"/>
		<path fill="white" transform="matrix(39.9818 0 0 39.9818 816.831 666.213)" d="M0.243478 0.269405C0.243478 0.281634 0.23386 0.291548 0.221995 0.291548C0.21013 0.291548 0.200512 0.281634 0.200512 0.269405C0.200512 0.257176 0.21013 0.247262 0.221995 0.247262C0.23386 0.247262 0.243478 0.257176 0.243478 0.269405C0.243478 0.269405 0.243478 0.269405 0.243478 0.269405L0.243478 0.269405Z"/>
		<path fill="none" stroke="black" stroke-width="0.0099999998" stroke-miterlimit="4" transform="matrix(39.9818 0 0 39.9818 816.831 666.213)" d="M0.243478 0.269405C0.243478 0.281634 0.23386 0.291548 0.221995 0.291548C0.21013 0.291548 0.200512 0.281634 0.200512 0.269405C0.200512 0.257176 0.21013 0.247262 0.221995 0.247262C0.23386 0.247262 0.243478 0.257176 0.243478 0.269405C0.243478 0.269405 0.243478 0.269405 0.243478 0.269405L0.243478 0.269405Z"/>
		<path fill="white" transform="matrix(39.9818 0 0 39.9818 816.831 666.213)" d="M0.205668 0.180317C0.205668 0.205953 0.205668 0.23159 0.205668 0.257226C0.216553 0.257226 0.227437 0.257226 0.238322 0.257226C0.238322 0.257226 0.238251 0.18039 0.238251 0.18039C0.237893 0.17109 0.230374 0.163931 0.22135 0.164226C0.2129 0.164521 0.206097 0.171533 0.205668 0.180243"/>
		<path fill="none" stroke="black" stroke-width="0.0099999998" stroke-miterlimit="4" transform="matrix(39.9818 0 0 39.9818 816.831 666.213)" d="M0.205668 0.180317C0.205668 0.205953 0.205668 0.23159 0.205668 0.257226C0.216553 0.257226 0.227437 0.257226 0.238322 0.257226C0.238322 0.257226 0.238251 0.18039 0.238251 0.18039C0.237893 0.17109 0.230374 0.163931 0.22135 0.164226C0.2129 0.164521 0.206097 0.171533 0.205668 0.180243"/>
		<path fill="white" transform="matrix(39.9818 0 0 39.9818 816.831 666.213)" d="M0.243478 0.269405C0.243478 0.281634 0.23386 0.291548 0.221995 0.291548C0.21013 0.291548 0.200512 0.281634 0.200512 0.269405C0.200512 0.257176 0.21013 0.247262 0.221995 0.247262C0.23386 0.247262 0.243478 0.257176 0.243478 0.269405C0.243478 0.269405 0.243478 0.269405 0.243478 0.269405L0.243478 0.269405Z"/>
		<path fill="none" stroke="black" stroke-width="0.0099999998" stroke-miterlimit="4" transform="matrix(39.9818 0 0 39.9818 816.831 666.213)" d="M0.243478 0.269405C0.243478 0.281634 0.23386 0.291548 0.221995 0.291548C0.21013 0.291548 0.200512 0.281634 0.200512 0.269405C0.200512 0.257176 0.21013 0.247262 0.221995 0.247262C0.23386 0.247262 0.243478 0.257176 0.243478 0.269405C0.243478 0.269405 0.243478 0.269405 0.243478 0.269405L0.243478 0.269405Z"/>
		<path fill="none" stroke="black" stroke-width="0.0099999998" stroke-miterlimit="4" transform="matrix(39.9818 0.0366446 0.0366446 -39.9818 698.429 551.139)" d="M0.81829 0.81829C0.81829 0.366185 0.452105 0 0 0C0 0.272763 0 0.545527 0 0.81829"/>
		<path fill="white" transform="matrix(39.9818 0 0 39.9818 732.909 447.17)" d="M0.0362617 0.198161C-0.00247239 0.350971 0.0181309 0.515612 0.0881819 0.6211C0.158233 0.726589 0.248063 0.726589 0.318938 0.6211C0.389813 0.515612 0.409592 0.350971 0.370858 0.198161"/>
		<path fill="none" stroke="black" stroke-width="0.0099999998" stroke-miterlimit="4" transform="matrix(39.9818 0 0 39.9818 732.909 447.17)" d="M0.0362617 0.198161C-0.00247239 0.350971 0.0181309 0.515612 0.0881819 0.6211C0.158233 0.726589 0.248063 0.726589 0.318938 0.6211C0.389813 0.515612 0.409592 0.350971 0.370858 0.198161"/>
		<path fill="white" transform="matrix(39.9818 0 0 39.9818 732.909 447.17)" d="M0.0733475 0.24844C0.0609856 0.322381 0.0626338 0.40618 0.0782923 0.476177C0.0939508 0.54223 0.121971 0.595467 0.149992 0.622086C0.173891 0.644761 0.19367 0.650676 0.214274 0.645747C0.234877 0.640818 0.259601 0.624058 0.281852 0.589552C0.304928 0.554061 0.323883 0.502795 0.333772 0.444629C0.344486 0.381533 0.343662 0.311536 0.333772 0.24844"/>
		<path fill="none" stroke="black" stroke-width="0.0099999998" stroke-miterlimit="4" transform="matrix(39.9818 0 0 39.9818 732.909 447.17)" d="M0.0733475 0.24844C0.0609856 0.322381 0.0626338 0.40618 0.0782923 0.476177C0.0939508 0.54223 0.121971 0.595467 0.149992 0.622086C0.173891 0.644761 0.19367 0.650676 0.214274 0.645747C0.234877 0.640818 0.259601 0.624058 0.281852 0.589552C0.304928 0.554061 0.323883 0.502795 0.333772 0.444629C0.344486 0.381533 0.343662 0.311536 0.333772 0.24844"/>
		<path fill="white" transform="matrix(39.9818 0 0 39.9818 732.909 447.17)" d="M0.0461513 0C0.15109 0 0.25603 0 0.360969 0C0.386517 0 0.40712 0.0226751 0.40712 0.0502795C0.40712 0.0834706 0.40712 0.116662 0.40712 0.149853C0.40712 0.177457 0.386517 0.200132 0.360969 0.200132C0.25603 0.200132 0.15109 0.200132 0.0461513 0.200132C0.0206032 0.199146 0 0.176471 0 0.148867C0 0.116004 0 0.083142 0 0.0502795C0 0.0226751 0.0206032 0 0.0461513 0C0.0461513 0 0.0461513 0 0.0461513 0L0.0461513 0Z"/>
		<path fill="none" stroke="black" stroke-width="0.0099999998" stroke-miterlimit="4" transform="matrix(39.9818 0 0 39.9818 732.909 447.17)" d="M0.0461513 0C0.15109 0 0.25603 0 0.360969 0C0.386517 0 0.40712 0.0226751 0.40712 0.0502795C0.40712 0.0834706 0.40712 0.116662 0.40712 0.149853C0.40712 0.177457 0.386517 0.200132 0.360969 0.200132C0.25603 0.200132 0.15109 0.200132 0.0461513 0.200132C0.0206032 0.199146 0 0.176471 0 0.148867C0 0.116004 0 0.083142 0 0.0502795C0 0.0226751 0.0206032 0 0.0461513 0C0.0461513 0 0.0461513 0 0.0461513 0L0.0461513 0Z"/>
		<path fill="none" stroke="black" stroke-width="0.0099999998" stroke-miterlimit="4" transform="matrix(39.9818 0 0 39.9818 732.909 447.17)" d="M0.0733475 0.24844C0.160156 0.24844 0.246964 0.24844 0.333772 0.24844"/>
		<path fill="white" transform="matrix(39.9818 0 0 39.9818 732.909 447.17)" d="M0.243942 0.0995732C0.243942 0.12353 0.225863 0.142952 0.20356 0.142952C0.181257 0.142952 0.163178 0.12353 0.163178 0.0995732C0.163178 0.075616 0.181257 0.0561948 0.20356 0.0561948C0.225863 0.0561948 0.243942 0.075616 0.243942 0.0995732C0.243942 0.0995732 0.243942 0.0995732 0.243942 0.0995732L0.243942 0.0995732Z"/>
		<path fill="none" stroke="black" stroke-width="0.0099999998" stroke-miterlimit="4" transform="matrix(39.9818 0 0 39.9818 732.909 447.17)" d="M0.243942 0.0995732C0.243942 0.12353 0.225863 0.142952 0.20356 0.142952C0.181257 0.142952 0.163178 0.12353 0.163178 0.0995732C0.163178 0.075616 0.181257 0.0561948 0.20356 0.0561948C0.225863 0.0561948 0.243942 0.075616 0.243942 0.0995732C0.243942 0.0995732 0.243942 0.0995732 0.243942 0.0995732L0.243942 0.0995732Z"/>
		<path fill="none" stroke="black" stroke-width="0.0099999998" stroke-miterlimit="4" transform="matrix(39.9818 0 0 39.9818 732.909 447.17)" d="M0.20356 0.142952C0.20356 0.114033 0.20356 0.0851137 0.20356 0.0561948"/>
		<path fill="white" transform="matrix(39.9818 0 0 39.9818 732.909 447.17)" d="M0.23158 0.308578C0.23158 0.324913 0.219035 0.338154 0.20356 0.338154C0.188085 0.338154 0.17554 0.324913 0.17554 0.308578C0.17554 0.292244 0.188085 0.279002 0.20356 0.279002C0.219035 0.279002 0.23158 0.292244 0.23158 0.308578C0.23158 0.308578 0.23158 0.308578 0.23158 0.308578L0.23158 0.308578Z"/>
		<path fill="none" stroke="black" stroke-width="0.0099999998" stroke-miterlimit="4" transform="matrix(39.9818 0 0 39.9818 732.909 447.17)" d="M0.23158 0.308578C0.23158 0.324913 0.219035 0.338154 0.20356 0.338154C0.188085 0.338154 0.17554 0.324913 0.17554 0.308578C0.17554 0.292244 0.188085 0.279002 0.20356 0.279002C0.219035 0.279002 0.23158 0.292244 0.23158 0.308578C0.23158 0.308578 0.23158 0.308578 0.23158 0.308578L0.23158 0.308578Z"/>
		<path fill="white" transform="matrix(39.9818 0 0 39.9818 732.909 447.17)" d="M0.0461513 0.199146C0.0428547 0.199146 0.0395582 0.199146 0.0362617 0.198161"/>
		<path fill="none" stroke="black" stroke-width="0.0099999998" stroke-miterlimit="4" transform="matrix(39.9818 0 0 39.9818 732.909 447.17)" d="M0.0461513 0.199146C0.0428547 0.199146 0.0395582 0.199146 0.0362617 0.198161"/>
		<path fill="white" transform="matrix(-0 -39.9818 39.9818 0 738.67 512.502)" d="M0.016716 0.00449571C0.235882 0.00449571 0.455048 0.00449571 0.674214 0.00449571C0.680369 0.00449571 0.685358 0.00852131 0.685358 0.0134871C0.685358 0.130376 0.685358 0.247264 0.685358 0.364153C0.685358 0.369119 0.680369 0.373144 0.674214 0.373144C0.455048 0.373144 0.235882 0.373144 0.016716 0.373144C0.0105614 0.373144 0.00557202 0.369119 0.00557202 0.364153C0.00557202 0.247264 0.00557202 0.130376 0.00557202 0.0134871C0.00557202 0.00852131 0.0105614 0.00449571 0.016716 0.00449571C0.016716 0.00449571 0.016716 0.00449571 0.016716 0.00449571L0.016716 0.00449571Z"/>
		<path fill="none" stroke="black" stroke-width="0.0099999998" stroke-miterlimit="4" transform="matrix(-0 -39.9818 39.9818 0 738.67 512.502)" d="M0.016716 0.00449571C0.235882 0.00449571 0.455048 0.00449571 0.674214 0.00449571C0.680369 0.00449571 0.685358 0.00852131 0.685358 0.0134871C0.685358 0.130376 0.685358 0.247264 0.685358 0.364153C0.685358 0.369119 0.680369 0.373144 0.674214 0.373144C0.455048 0.373144 0.235882 0.373144 0.016716 0.373144C0.0105614 0.373144 0.00557202 0.369119 0.00557202 0.364153C0.00557202 0.247264 0.00557202 0.130376 0.00557202 0.0134871C0.00557202 0.00852131 0.0105614 0.00449571 0.016716 0.00449571C0.016716 0.00449571 0.016716 0.00449571 0.016716 0.00449571L0.016716 0.00449571Z"/>
		<path fill="none" stroke="black" stroke-width="0.0099999998" stroke-miterlimit="4" transform="matrix(-0 -39.9818 39.9818 0 738.67 512.502)" d="M0.60735 0.0494529C0.43276 0.0494529 0.25817 0.0494529 0.0835802 0.0494529"/>
		<path fill="white" transform="matrix(-0 -39.9818 39.9818 0 738.67 512.502)" d="M0.0835802 0.0494529C0.0713218 0.0494529 0.0612922 0.0575451 0.0612922 0.0674357"/>
		<path fill="none" stroke="black" stroke-width="0.0099999998" stroke-miterlimit="4" transform="matrix(-0 -39.9818 39.9818 0 738.67 512.502)" d="M0.0835802 0.0494529C0.0713218 0.0494529 0.0612922 0.0575451 0.0612922 0.0674357"/>
		<path fill="white" transform="matrix(-0 -39.9818 39.9818 0 738.67 512.502)" d="M0.629638 0.0674357C0.629638 0.0575451 0.619608 0.0494529 0.60735 0.0494529"/>
		<path fill="none" stroke="black" stroke-width="0.0099999998" stroke-miterlimit="4" transform="matrix(-0 -39.9818 39.9818 0 738.67 512.502)" d="M0.629638 0.0674357C0.629638 0.0575451 0.619608 0.0494529 0.60735 0.0494529"/>
		<path fill="white" transform="matrix(-0 -39.9818 39.9818 0 738.67 512.502)" d="M0.60735 0.0494529C0.619608 0.0494529 0.629638 0.0575451 0.629638 0.0674357C0.629638 0.133373 0.629638 0.19931 0.629638 0.265247C0.629638 0.275138 0.619608 0.28323 0.60735 0.28323C0.43276 0.28323 0.25817 0.28323 0.0835802 0.28323C0.0713218 0.28323 0.0612922 0.275138 0.0612922 0.265247C0.0612922 0.19931 0.0612922 0.133373 0.0612922 0.0674357C0.0612922 0.0575451 0.0713218 0.0494529 0.0835802 0.0494529C0.25817 0.0494529 0.43276 0.0494529 0.60735 0.0494529"/>
		<path fill="none" stroke="black" stroke-width="0.0099999998" stroke-miterlimit="4" transform="matrix(-0 -39.9818 39.9818 0 738.67 512.502)" d="M0.60735 0.0494529C0.619608 0.0494529 0.629638 0.0575451 0.629638 0.0674357C0.629638 0.133373 0.629638 0.19931 0.629638 0.265247C0.629638 0.275138 0.619608 0.28323 0.60735 0.28323C0.43276 0.28323 0.25817 0.28323 0.0835802 0.28323C0.0713218 0.28323 0.0612922 0.275138 0.0612922 0.265247C0.0612922 0.19931 0.0612922 0.133373 0.0612922 0.0674357C0.0612922 0.0575451 0.0713218 0.0494529 0.0835802 0.0494529C0.25817 0.0494529 0.43276 0.0494529 0.60735 0.0494529"/>
		<path fill="white" transform="matrix(-0 -39.9818 39.9818 0 738.67 512.502)" d="M0.378897 0.166341C0.378897 0.181239 0.363929 0.193316 0.345465 0.193316C0.327001 0.193316 0.312033 0.181239 0.312033 0.166341C0.312033 0.151444 0.327001 0.139367 0.345465 0.139367C0.363929 0.139367 0.378897 0.151444 0.378897 0.166341C0.378897 0.166341 0.378897 0.166341 0.378897 0.166341L0.378897 0.166341Z"/>
		<path fill="none" stroke="black" stroke-width="0.0099999998" stroke-miterlimit="4" transform="matrix(-0 -39.9818 39.9818 0 738.67 512.502)" d="M0.378897 0.166341C0.378897 0.181239 0.363929 0.193316 0.345465 0.193316C0.327001 0.193316 0.312033 0.181239 0.312033 0.166341C0.312033 0.151444 0.327001 0.139367 0.345465 0.139367C0.363929 0.139367 0.378897 0.151444 0.378897 0.166341C0.378897 0.166341 0.378897 0.166341 0.378897 0.166341L0.378897 0.166341Z"/>
		<path fill="white" transform="matrix(-0 -39.9818 39.9818 0 738.67 512.502)" d="M0.378897 0.328187C0.378897 0.343085 0.363929 0.355161 0.345465 0.355161C0.327001 0.355161 0.312033 0.343085 0.312033 0.328187C0.312033 0.31329 0.327001 0.301213 0.345465 0.301213C0.363929 0.301213 0.378897 0.31329 0.378897 0.328187C0.378897 0.328187 0.378897 0.328187 0.378897 0.328187L0.378897 0.328187Z"/>
		<path fill="none" stroke="black" stroke-width="0.0099999998" stroke-miterlimit="4" transform="matrix(-0 -39.9818 39.9818 0 738.67 512.502)" d="M0.378897 0.328187C0.378897 0.343085 0.363929 0.355161 0.345465 0.355161C0.327001 0.355161 0.312033 0.343085 0.312033 0.328187C0.312033 0.31329 0.327001 0.301213 0.345465 0.301213C0.363929 0.301213 0.378897 0.31329 0.378897 0.328187C0.378897 0.328187 0.378897 0.328187 0.378897 0.328187L0.378897 0.328187Z"/>
		<path fill="white" transform="matrix(-0 -39.9818 39.9818 0 738.67 512.502)" d="M0.378897 0.328187C0.378897 0.343085 0.363929 0.355161 0.345465 0.355161C0.327001 0.355161 0.312033 0.343085 0.312033 0.328187C0.312033 0.31329 0.327001 0.301213 0.345465 0.301213C0.363929 0.301213 0.378897 0.31329 0.378897 0.328187C0.378897 0.328187 0.378897 0.328187 0.378897 0.328187L0.378897 0.328187Z"/>
		<path fill="none" stroke="black" stroke-width="0.0099999998" stroke-miterlimit="4" transform="matrix(-0 -39.9818 39.9818 0 738.67 512.502)" d="M0.378897 0.328187C0.378897 0.343085 0.363929 0.355161 0.345465 0.355161C0.327001 0.355161 0.312033 0.343085 0.312033 0.328187C0.312033 0.31329 0.327001 0.301213 0.345465 0.301213C0.363929 0.301213 0.378897 0.31329 0.378897 0.328187C0.378897 0.328187 0.378897 0.328187 0.378897 0.328187L0.378897 0.328187Z"/>
		<path fill="white" transform="matrix(-0 -39.9818 39.9818 0 738.67 512.502)" d="M0.320057 0.219661C0.320057 0.250891 0.320057 0.282121 0.320057 0.313351C0.336996 0.313351 0.353934 0.313351 0.370873 0.313351C0.370873 0.313351 0.370762 0.219751 0.370762 0.219751C0.370205 0.208421 0.358504 0.1997 0.344462 0.200059C0.331312 0.200419 0.320725 0.208961 0.320057 0.219571"/>
		<path fill="none" stroke="black" stroke-width="0.0099999998" stroke-miterlimit="4" transform="matrix(-0 -39.9818 39.9818 0 738.67 512.502)" d="M0.320057 0.219661C0.320057 0.250891 0.320057 0.282121 0.320057 0.313351C0.336996 0.313351 0.353934 0.313351 0.370873 0.313351C0.370873 0.313351 0.370762 0.219751 0.370762 0.219751C0.370205 0.208421 0.358504 0.1997 0.344462 0.200059C0.331312 0.200419 0.320725 0.208961 0.320057 0.219571"/>
		<path fill="white" transform="matrix(-0 -39.9818 39.9818 0 738.67 512.502)" d="M0.378897 0.328187C0.378897 0.343085 0.363929 0.355161 0.345465 0.355161C0.327001 0.355161 0.312033 0.343085 0.312033 0.328187C0.312033 0.31329 0.327001 0.301213 0.345465 0.301213C0.363929 0.301213 0.378897 0.31329 0.378897 0.328187C0.378897 0.328187 0.378897 0.328187 0.378897 0.328187L0.378897 0.328187Z"/>
		<path fill="none" stroke="black" stroke-width="0.0099999998" stroke-miterlimit="4" transform="matrix(-0 -39.9818 39.9818 0 738.67 512.502)" d="M0.378897 0.328187C0.378897 0.343085 0.363929 0.355161 0.345465 0.355161C0.327001 0.355161 0.312033 0.343085 0.312033 0.328187C0.312033 0.31329 0.327001 0.301213 0.345465 0.301213C0.363929 0.301213 0.378897 0.31329 0.378897 0.328187C0.378897 0.328187 0.378897 0.328187 0.378897 0.328187L0.378897 0.328187Z"/>
		<path fill="white" transform="matrix(39.9818 0 -0 -39.9818 698.989 440.939)" d="M0 0C0.1 0 0.2 0 0.3 0C0.3 0.04 0.3 0.08 0.3 0.12C0.2 0.12 0.1 0.12 0 0.12C0 0.08 0 0.04 0 0C0 0 0 0 0 0L0 0Z"/>
		<path fill="none" stroke="black" stroke-width="0.0099999998" stroke-miterlimit="4" transform="matrix(39.9818 0 -0 -39.9818 698.989 440.939)" d="M0 0C0.1 0 0.2 0 0.3 0"/>
		<path fill="none" stroke="black" stroke-width="0.0099999998" stroke-miterlimit="4" transform="matrix(39.9818 0 -0 -39.9818 698.989 440.939)" d="M0.3 0.12C0.2 0.12 0.1 0.12 0 0.12"/>
		<path fill="none" stroke="black" stroke-width="0.0099999998" stroke-miterlimit="4" transform="matrix(39.9818 0 -0 -39.9818 698.989 440.939)" d="M0 0.06C0.1 0.06 0.2 0.06 0.3 0.06"/>
		<path fill="white" transform="matrix(39.9818 0 -0 -39.9818 698.989 440.939)" d="M0.08 0.12C0.0533333 0.12 0.0266667 0.12 0 0.12C0 0.08 0 0.04 0 0C0.0266667 0 0.0533333 0 0.08 0"/>
		<path fill="none" stroke="black" stroke-width="0.0099999998" stroke-miterlimit="4" transform="matrix(39.9818 0 -0 -39.9818 698.989 440.939)" d="M0.08 0.12C0.0533333 0.12 0.0266667 0.12 0 0.12C0 0.08 0 0.04 0 0C0.0266667 0 0.0533333 0 0.08 0"/>
		<path fill="none" stroke="black" stroke-width="0.039999999" stroke-miterlimit="4" transform="matrix(39.9818 0 -0 -39.9818 698.989 440.939)" d="M0 0.06C0.0266667 0.06 0.0533333 0.06 0.08 0.06"/>
		<path fill="white" transform="matrix(39.9818 0 -0 -39.9818 707.785 440.939)" d="M0 0C0.0266667 0 0.0533333 0 0.08 0C0.08 0.04 0.08 0.08 0.08 0.12C0.0533333 0.12 0.0266667 0.12 0 0.12"/>
		<path fill="none" stroke="black" stroke-width="0.0099999998" stroke-miterlimit="4" transform="matrix(39.9818 0 -0 -39.9818 707.785 440.939)" d="M0 0C0.0266667 0 0.0533333 0 0.08 0C0.08 0.04 0.08 0.08 0.08 0.12C0.0533333 0.12 0.0266667 0.12 0 0.12"/>
		<path fill="none" stroke="black" stroke-width="0.039999999" stroke-miterlimit="4" transform="matrix(39.9818 0 -0 -39.9818 707.785 440.939)" d="M0 0.06C0.0266667 0.06 0.0533333 0.06 0.08 0.06"/>
		<path fill="none" stroke="black" stroke-width="0.0099999998" stroke-miterlimit="4" transform="matrix(0 -39.9818 -39.9818 -0 484.105 1312.06)" d="M1.04133 1.04133C1.04133 0.465995 0.575335 0 0 0C0 0.34711 0 0.69422 0 1.04133"/>
		<text fill="white" transform="translate(712.582 579.356)" font-size="19.999998" font-family="Roboto" x="0, 12.451202, 23.321609, 29.859467, 40.866486, 47.443222, 58.840561, 70.2379, " y="18, ">
				Bathroom
		</text>
		<text fill="white" transform="translate(716.46 602.356)" font-size="19.999998" font-family="Roboto" x="0, 11.231461, 22.462921, 27.732239, 38.963699, 50.19516, 55.152222, 72.677582, " y="18, ">
				16.58 m²
		</text>
		<text fill="white" transform="translate(707.21 625.356)" font-size="19.999998" font-family="Roboto" x="0, 11.231461, 16.500778, 27.732239, 38.963699, 43.920761, 54.586258, 59.54332, 70.77478, 76.044098, 87.275558, " y="18, ">
				4.64 × 3.95
		</text>
		<text fill="white" transform="translate(712.582 579.456)" font-size="19.999998" font-family="Roboto" x="0, 12.451202, 23.321609, 29.859467, 40.866486, 47.443222, 58.840561, 70.2379, " y="18, ">
				Bathroom
		</text>
		<text fill="white" transform="translate(716.46 602.456)" font-size="19.999998" font-family="Roboto" x="0, 11.231461, 22.462921, 27.732239, 38.963699, 50.19516, 55.152222, 72.677582, " y="18, ">
				16.58 m²
		</text>
		<text fill="white" transform="translate(707.21 625.456)" font-size="19.999998" font-family="Roboto" x="0, 11.231461, 16.500778, 27.732239, 38.963699, 43.920761, 54.586258, 59.54332, 70.77478, 76.044098, 87.275558, " y="18, ">
				4.64 × 3.95
		</text>
		<text fill="white" transform="translate(712.582 579.556)" font-size="19.999998" font-family="Roboto" x="0, 12.451202, 23.321609, 29.859467, 40.866486, 47.443222, 58.840561, 70.2379, " y="18, ">
				Bathroom
		</text>
		<text fill="white" transform="translate(716.46 602.556)" font-size="19.999998" font-family="Roboto" x="0, 11.231461, 22.462921, 27.732239, 38.963699, 50.19516, 55.152222, 72.677582, " y="18, ">
				16.58 m²
		</text>
		<text fill="white" transform="translate(707.21 625.556)" font-size="19.999998" font-family="Roboto" x="0, 11.231461, 16.500778, 27.732239, 38.963699, 43.920761, 54.586258, 59.54332, 70.77478, 76.044098, 87.275558, " y="18, ">
				4.64 × 3.95
		</text>
		<text fill="white" transform="translate(712.682 579.356)" font-size="19.999998" font-family="Roboto" x="0, 12.451202, 23.321609, 29.859467, 40.866486, 47.443222, 58.840561, 70.2379, " y="18, ">
				Bathroom
		</text>
		<text fill="white" transform="translate(716.56 602.356)" font-size="19.999998" font-family="Roboto" x="0, 11.231461, 22.462921, 27.732239, 38.963699, 50.19516, 55.152222, 72.677582, " y="18, ">
				16.58 m²
		</text>
		<text fill="white" transform="translate(707.31 625.356)" font-size="19.999998" font-family="Roboto" x="0, 11.231461, 16.500778, 27.732239, 38.963699, 43.920761, 54.586258, 59.54332, 70.77478, 76.044098, 87.275558, " y="18, ">
				4.64 × 3.95
		</text>
		<text fill="white" transform="translate(712.682 579.556)" font-size="19.999998" font-family="Roboto" x="0, 12.451202, 23.321609, 29.859467, 40.866486, 47.443222, 58.840561, 70.2379, " y="18, ">
				Bathroom
		</text>
		<text fill="white" transform="translate(716.56 602.556)" font-size="19.999998" font-family="Roboto" x="0, 11.231461, 22.462921, 27.732239, 38.963699, 50.19516, 55.152222, 72.677582, " y="18, ">
				16.58 m²
		</text>
		<text fill="white" transform="translate(707.31 625.556)" font-size="19.999998" font-family="Roboto" x="0, 11.231461, 16.500778, 27.732239, 38.963699, 43.920761, 54.586258, 59.54332, 70.77478, 76.044098, 87.275558, " y="18, ">
				4.64 × 3.95
		</text>
		<text fill="white" transform="translate(712.782 579.356)" font-size="19.999998" font-family="Roboto" x="0, 12.451202, 23.321609, 29.859467, 40.866486, 47.443222, 58.840561, 70.2379, " y="18, ">
				Bathroom
		</text>
		<text fill="white" transform="translate(716.66 602.356)" font-size="19.999998" font-family="Roboto" x="0, 11.231461, 22.462921, 27.732239, 38.963699, 50.19516, 55.152222, 72.677582, " y="18, ">
				16.58 m²
		</text>
		<text fill="white" transform="translate(707.41 625.356)" font-size="19.999998" font-family="Roboto" x="0, 11.231461, 16.500778, 27.732239, 38.963699, 43.920761, 54.586258, 59.54332, 70.77478, 76.044098, 87.275558, " y="18, ">
				4.64 × 3.95
		</text>
		<text fill="white" transform="translate(712.782 579.456)" font-size="19.999998" font-family="Roboto" x="0, 12.451202, 23.321609, 29.859467, 40.866486, 47.443222, 58.840561, 70.2379, " y="18, ">
				Bathroom
		</text>
		<text fill="white" transform="translate(716.66 602.456)" font-size="19.999998" font-family="Roboto" x="0, 11.231461, 22.462921, 27.732239, 38.963699, 50.19516, 55.152222, 72.677582, " y="18, ">
				16.58 m²
		</text>
		<text fill="white" transform="translate(707.41 625.456)" font-size="19.999998" font-family="Roboto" x="0, 11.231461, 16.500778, 27.732239, 38.963699, 43.920761, 54.586258, 59.54332, 70.77478, 76.044098, 87.275558, " y="18, ">
				4.64 × 3.95
		</text>
		<text fill="white" transform="translate(712.782 579.556)" font-size="19.999998" font-family="Roboto" x="0, 12.451202, 23.321609, 29.859467, 40.866486, 47.443222, 58.840561, 70.2379, " y="18, ">
				Bathroom
		</text>
		<text fill="white" transform="translate(716.66 602.556)" font-size="19.999998" font-family="Roboto" x="0, 11.231461, 22.462921, 27.732239, 38.963699, 50.19516, 55.152222, 72.677582, " y="18, ">
				16.58 m²
		</text>
		<text fill="white" transform="translate(707.41 625.556)" font-size="19.999998" font-family="Roboto" x="0, 11.231461, 16.500778, 27.732239, 38.963699, 43.920761, 54.586258, 59.54332, 70.77478, 76.044098, 87.275558, " y="18, ">
				4.64 × 3.95
		</text>
		<text fill="#3F3F3F" transform="translate(712.682 579.456)" font-size="19.999998" font-family="Roboto" x="0, 12.451202, 23.321609, 29.859467, 40.866486, 47.443222, 58.840561, 70.2379, " y="18, ">
				Bathroom
		</text>
		<text fill="#3F3F3F" transform="translate(716.56 602.456)" font-size="19.999998" font-family="Roboto" x="0, 11.231461, 22.462921, 27.732239, 38.963699, 50.19516, 55.152222, 72.677582, " y="18, ">
				16.58 m²
		</text>
		<text fill="#3F3F3F" transform="translate(707.31 625.456)" font-size="19.999998" font-family="Roboto" x="0, 11.231461, 16.500778, 27.732239, 38.963699, 43.920761, 54.586258, 59.54332, 70.77478, 76.044098, 87.275558, " y="18, ">
				4.64 × 3.95
		</text>
		<text fill="white" transform="translate(568.573 625.875)" font-size="19.999998" font-family="Roboto" x="0, 14.256439, 25.126846, 29.986328, 34.84581, 49.863373, 60.587296, " y="18, ">
				Hallway
		</text>
		<text fill="white" transform="translate(569.207 648.875)" font-size="19.999998" font-family="Roboto" x="0, 11.231461, 16.500778, 27.732239, 38.963699, 43.920761, 61.446121, " y="18, ">
				6.16 m²
		</text>
		<text fill="white" transform="translate(568.573 625.975)" font-size="19.999998" font-family="Roboto" x="0, 14.256439, 25.126846, 29.986328, 34.84581, 49.863373, 60.587296, " y="18, ">
				Hallway
		</text>
		<text fill="white" transform="translate(569.207 648.975)" font-size="19.999998" font-family="Roboto" x="0, 11.231461, 16.500778, 27.732239, 38.963699, 43.920761, 61.446121, " y="18, ">
				6.16 m²
		</text>
		<text fill="white" transform="translate(568.573 626.075)" font-size="19.999998" font-family="Roboto" x="0, 14.256439, 25.126846, 29.986328, 34.84581, 49.863373, 60.587296, " y="18, ">
				Hallway
		</text>
		<text fill="white" transform="translate(569.207 649.075)" font-size="19.999998" font-family="Roboto" x="0, 11.231461, 16.500778, 27.732239, 38.963699, 43.920761, 61.446121, " y="18, ">
				6.16 m²
		</text>
		<text fill="white" transform="translate(568.673 625.875)" font-size="19.999998" font-family="Roboto" x="0, 14.256439, 25.126846, 29.986328, 34.84581, 49.863373, 60.587296, " y="18, ">
				Hallway
		</text>
		<text fill="white" transform="translate(569.307 648.875)" font-size="19.999998" font-family="Roboto" x="0, 11.231461, 16.500778, 27.732239, 38.963699, 43.920761, 61.446121, " y="18, ">
				6.16 m²
		</text>
		<text fill="white" transform="translate(568.673 626.075)" font-size="19.999998" font-family="Roboto" x="0, 14.256439, 25.126846, 29.986328, 34.84581, 49.863373, 60.587296, " y="18, ">
				Hallway
		</text>
		<text fill="white" transform="translate(569.307 649.075)" font-size="19.999998" font-family="Roboto" x="0, 11.231461, 16.500778, 27.732239, 38.963699, 43.920761, 61.446121, " y="18, ">
				6.16 m²
		</text>
		<text fill="white" transform="translate(568.773 625.875)" font-size="19.999998" font-family="Roboto" x="0, 14.256439, 25.126846, 29.986328, 34.84581, 49.863373, 60.587296, " y="18, ">
				Hallway
		</text>
		<text fill="white" transform="translate(569.407 648.875)" font-size="19.999998" font-family="Roboto" x="0, 11.231461, 16.500778, 27.732239, 38.963699, 43.920761, 61.446121, " y="18, ">
				6.16 m²
		</text>
		<text fill="white" transform="translate(568.773 625.975)" font-size="19.999998" font-family="Roboto" x="0, 14.256439, 25.126846, 29.986328, 34.84581, 49.863373, 60.587296, " y="18, ">
				Hallway
		</text>
		<text fill="white" transform="translate(569.407 648.975)" font-size="19.999998" font-family="Roboto" x="0, 11.231461, 16.500778, 27.732239, 38.963699, 43.920761, 61.446121, " y="18, ">
				6.16 m²
		</text>
		<text fill="white" transform="translate(568.773 626.075)" font-size="19.999998" font-family="Roboto" x="0, 14.256439, 25.126846, 29.986328, 34.84581, 49.863373, 60.587296, " y="18, ">
				Hallway
		</text>
		<text fill="white" transform="translate(569.407 649.075)" font-size="19.999998" font-family="Roboto" x="0, 11.231461, 16.500778, 27.732239, 38.963699, 43.920761, 61.446121, " y="18, ">
				6.16 m²
		</text>
		<text fill="#3F3F3F" transform="translate(568.673 625.975)" font-size="19.999998" font-family="Roboto" x="0, 14.256439, 25.126846, 29.986328, 34.84581, 49.863373, 60.587296, " y="18, ">
				Hallway
		</text>
		<text fill="#3F3F3F" transform="translate(569.307 648.975)" font-size="19.999998" font-family="Roboto" x="0, 11.231461, 16.500778, 27.732239, 38.963699, 43.920761, 61.446121, " y="18, ">
				6.16 m²
		</text>
		<text fill="white" transform="translate(444.715 968.991)" font-size="19.999998" font-family="Roboto" x="0, 14.256439, 25.126846, 29.986328, 34.84581, 49.863373, 60.587296, " y="18, ">
				Hallway
		</text>
		<text fill="white" transform="translate(444.715 969.091)" font-size="19.999998" font-family="Roboto" x="0, 14.256439, 25.126846, 29.986328, 34.84581, 49.863373, 60.587296, " y="18, ">
				Hallway
		</text>
		<text fill="white" transform="translate(444.715 969.191)" font-size="19.999998" font-family="Roboto" x="0, 14.256439, 25.126846, 29.986328, 34.84581, 49.863373, 60.587296, " y="18, ">
				Hallway
		</text>
		<text fill="white" transform="translate(444.815 968.991)" font-size="19.999998" font-family="Roboto" x="0, 14.256439, 25.126846, 29.986328, 34.84581, 49.863373, 60.587296, " y="18, ">
				Hallway
		</text>
		<text fill="white" transform="translate(444.815 969.191)" font-size="19.999998" font-family="Roboto" x="0, 14.256439, 25.126846, 29.986328, 34.84581, 49.863373, 60.587296, " y="18, ">
				Hallway
		</text>
		<text fill="white" transform="translate(444.915 968.991)" font-size="19.999998" font-family="Roboto" x="0, 14.256439, 25.126846, 29.986328, 34.84581, 49.863373, 60.587296, " y="18, ">
				Hallway
		</text>
		<text fill="white" transform="translate(444.915 969.091)" font-size="19.999998" font-family="Roboto" x="0, 14.256439, 25.126846, 29.986328, 34.84581, 49.863373, 60.587296, " y="18, ">
				Hallway
		</text>
		<text fill="white" transform="translate(444.915 969.191)" font-size="19.999998" font-family="Roboto" x="0, 14.256439, 25.126846, 29.986328, 34.84581, 49.863373, 60.587296, " y="18, ">
				Hallway
		</text>
		<text fill="#3F3F3F" transform="translate(444.815 969.091)" font-size="19.999998" font-family="Roboto" x="0, 14.256439, 25.126846, 29.986328, 34.84581, 49.863373, 60.587296, " y="18, ">
				Hallway
		</text>
	</g>
	<text font-size="13" font-family="Roboto" x="51.023621, 58.780457, 68.054382, 71.590027, 79.308777, 82.533386, 89.718933, 96.3078, 105.25165, 114.1955, 122.20624, 125.43085, 133.63202, 140.75409, 149.23456, 158.50848, 161.73309, 165.26874, 172.98749, 176.2121, 184.41327, 192.42401, 201.22821, 209.50555, 213.0412, 221.57245, 228.96112, 237.49237, 240.71698, 252.25067, 255.60223, 263.35907, 272.633, 281.57684, 290.00653, 297.50946, 300.73407, 311.99481, 320.47528, 328.48602, 336.49677, 344.97723, 354.06708, 361.92548, 369.73309, 372.9577, 381.90155, 389.0871, 392.31171, 400.79218, 409.88837, 417.69598, 420.92059, 429.07733, 432.61298, 441.8869, 449.77069, 453.19843, 456.42303, 464.14178, 471.53046, 480.80438, 488.52313, 497.46698, 505.66815, 509.31805, 517.79852, 521.02313, 529.55438, 533.09003, 540.80878, 549.2702, 556.39227, 564.87274, 568.40839, 579.758, 587.47675, 590.70135, 599.18182, 608.27802, 616.08563, 619.31024, 630.57098, 639.05145, 647.06219, 655.07294, 663.55341, 672.64325, 680.50165, 688.30927, 691.53387, 695.06952, 704.34344, 712.80487, 719.46356, 727.89325, 736.4245, 739.96014, 749.23407, 758.08905, 760.64716, 763.87177, 775.40546, 778.75702, 786.51385, 795.78778, 804.73163, 813.16132, 820.66425, 823.88885, 830.89032, 834.42596, 845.77557, 849.12714, 856.38251, 864.04413, 871.80096, 875.33661, 884.28046, 893.55438, 896.11249, 899.3371, 907.05585, 914.71747, 922.4743, 926.00995, 933.7287, 939.83514, 948.24579, 956.52313, 964.10223, 973.04608, 980.75214, 988.55975, 991.78436, 1000.7282, 1009.0182, 1017.4987, 1024.5002, 1027.8518, 1035.7102, 1043.5178, 1046.7424, 1055.6863, 1063.697, 1066.9216, 1075.3323, 1083.7937, 1092.2551, 1100.6848, 1108.6956, 1117.1062, 1125.5676, 1133.3752, 1136.5999, 1145.5437, " y="1850.9763, ">
			THIS FLOOR PLAN IS PROVIDED WITHOUT WARRANTY OF ANY KIND. SENSOPIA DISCLAIMS ANY WARRANTY INCLUDING, WITHOUT LIMITATION, SATISFACTORY QUALITY OR ACCURACY OF
	</text>
	<text font-size="13" font-family="Roboto" x="51.023682, 59.554932, 63.090576, 74.440186, 81.828857, 91.102783, 98.821533, 102.35718, 111.30103, 120.57495, 128.2937, " y="1865.9763, ">
			DIMENSIONS.
	</text>
</svg>
