<?xml version="1.0" encoding="utf-8" ?>
<svg xmlns="http://www.w3.org/2000/svg" xmlns:xlink="http://www.w3.org/1999/xlink" width="1280" height="1920">
	<rect fill="white" width="1280" height="1920"/>
	<clipPath id="cl_35">
		<rect x="42.519684" y="42.519684" width="226.77164" height="226.77164"/>
	</clipPath>
	<g clip-path="url(#cl_35)">
		<path transform="matrix(2.70354 0 0 2.70354 227.407 213.99)" d="M7.258 -5.545L7.63 -5.545L7.629 -5.295L7.008 -5.295L7.008 -15.864L7.258 -16.268L7.258 -5.545M9.098 -5.295L8.848 -5.295L8.848 -5.555L8.846 -15.15L9.096 -15.15L9.098 -5.295M-15.592 -5.658L-14.196 -5.658L-14.196 -5.408L-15.842 -5.408L-15.842 -5.451L-15.713 -5.693L-15.712 -5.693L-15.712 -5.695L-15.708 -5.702L-15.712 -5.704L-15.712 -6.71L-15.592 -6.71L-15.592 -5.658M-10.718 -5.409L-12.043 -5.409L-12.044 -5.659L-10.718 -5.659L-10.718 -5.409M-3.938 -5.411L-8.565 -5.41L-8.565 -5.66L-3.938 -5.661L-3.938 -5.411M0.361 -5.833L0.352 -5.819L0.361 -5.813L0.486 -5.736L0.486 -5.412L-1.785 -5.411L-1.785 -5.661L0.236 -5.662L0.236 -6.914L0.359 -6.914L0.361 -5.833M-15.715 -26.105L-8.75 -26.105L-8.751 -29.76L-15.715 -29.758L-15.715 -29.891L-16.903 -29.889L-16.903 -30.008L-8.619 -30.01L-8.62 -33.82L-30.46 -33.804L-30.459 -30.004L-21.822 -30.006L-21.822 -29.883L-21.893 -29.883L-21.893 -28.748L-22.017 -28.748L-22.017 -29.878L-30.446 -29.889L-30.442 -13.572L-22.016 -13.588L-22.016 -14.708L-21.899 -14.708L-21.9 -13.461L-30.232 -13.457L-30.249 -13.466L-30.326 -13.323L-30.692 -13.322L-30.705 -13.322L-30.709 -29.754L-30.71 -34.054L-30.71 -34.076L-8.752 -34.092L-8.462 -34.092L-8.462 -33.83L-8.502 -33.83L-8.497 -10.323L-8.618 -10.323L-8.62 -25.855L-15.594 -25.855L-15.594 -9.734L-9.381 -9.734L-9.381 -9.614L-15.593 -9.613L-15.593 -8.843L-15.712 -8.843L-15.715 -26.105M0.355 -9.042L0.236 -9.041L0.236 -9.606L-6.927 -9.604L-6.928 -22.45L0.331 -22.45L0.355 -9.042M-6.808 -22.331L-6.807 -9.724L0.226 -9.726L0.216 -22.333L-6.808 -22.331M-43.698 -14.005L-46.114 -14.005L-46.114 -14.255L-43.698 -14.255L-43.698 -14.005M-47.155 -14.255L-47.155 -14.005L-56.553 -14.006L-56.553 -14.256L-47.155 -14.255M-63.434 -16.005L-64.858 -16.005L-64.858 -14.257L-57.843 -14.256L-57.843 -14.006L-65.108 -14.007L-65.108 -16.254L-63.684 -16.254L-63.684 -19.085L-66.137 -19.087L-66.137 -20.105L-68.134 -20.102L-68.135 -20.606L-67.884 -20.606L-67.884 -20.352L-65.887 -20.355L-65.887 -19.337L-63.564 -19.335L-63.434 -19.335L-63.434 -16.005M-63.555 -20.391L-61.943 -20.39L-61.944 -23.963L-65.89 -23.96L-65.888 -21.98L-67.887 -21.976L-67.885 -20.906L-68.135 -20.906L-68.137 -22.226L-66.138 -22.229L-66.14 -24.21L-61.695 -24.213L-61.691 -16.254L-43.698 -16.256L-43.698 -15.595L-43.948 -15.595L-43.948 -16.006L-61.949 -16.004L-61.95 -20.27L-63.424 -20.271L-63.424 -20.35L-63.555 -20.35L-63.555 -20.391M14.931 -18.688L15.182 -18.688L15.182 -18.036L9.095 -18.036L9.096 -15.795L8.846 -15.795L8.845 -18.286L14.931 -18.286L14.931 -18.688M-21.899 -16.639L-22.016 -16.639L-22.016 -17.892L-21.898 -17.892L-21.899 -16.639M7.258 -16.711L7.141 -16.783L7.138 -23.155L7.257 -23.155L7.258 -16.711M-21.898 -19.027L-22.016 -19.027L-22.016 -19.074L-21.898 -19.074L-21.898 -19.027M11.816 -19.836L11.816 -19.956L11.865 -19.956L11.865 -21.491L14.932 -21.491L14.932 -22.401L15.182 -22.401L15.182 -19.767L14.931 -19.768L14.931 -19.836L14.889 -19.836L14.889 -19.956L14.932 -19.956L14.932 -21.371L11.985 -21.371L11.985 -19.956L12.831 -19.956L12.831 -19.836L11.816 -19.836M8.965 -19.836L8.965 -19.828L8.845 -19.828L8.844 -23.522L14.93 -23.522L14.93 -26.89L12.222 -26.89L12.221 -27.973L8.843 -27.973L8.841 -37.424L8.809 -37.424L8.809 -37.674L9.091 -37.674L9.093 -28.223L12.471 -28.223L12.472 -27.14L15.182 -27.14L15.182 -23.237L14.932 -23.237L14.932 -23.403L8.965 -23.402L8.964 -19.956L11.037 -19.956L11.037 -19.836L8.965 -19.836M14.246 -19.836L13.508 -19.836L13.508 -19.956L14.246 -19.956L14.246 -19.836M-21.897 -20.712L-22.016 -20.712L-22.017 -22.717L-21.896 -22.717L-21.897 -20.712M0.191 -33.848L-6.811 -33.843L-6.807 -23.518L0.199 -23.521L0.197 -26.231L0.317 -26.231L0.317 -26.232L0.324 -26.232L0.329 -23.39L0.206 -23.39L0.206 -23.4L-6.928 -23.4L-6.929 -33.83L-7.021 -33.83L-7.021 -34.092L0.441 -34.098L0.468 -34.098L0.468 -33.858L0.31 -33.858L0.313 -32.426L0.192 -32.426L0.191 -33.848M7.257 -23.857L7.138 -23.857L7.138 -23.982L7.257 -23.982L7.257 -23.857M8.964 -24.338L8.844 -24.338L8.843 -27.573L8.964 -27.573L8.964 -24.338M-22.017 -27.253L-21.894 -27.253L-21.895 -24.669L-22.017 -24.669L-22.017 -27.253M7.309 -37.424L7.257 -37.424L7.257 -25.834L7.137 -25.834L7.133 -33.865L7.007 -33.865L7.007 -37.674L7.309 -37.674L7.309 -37.424M0.194 -29.977L0.317 -29.977L0.321 -27.841L0.196 -27.841L0.194 -29.977M-18.83 -30.007L-18.83 -29.887L-19.827 -29.886L-19.827 -30.007L-18.83 -30.007M0.193 -30.933L0.313 -30.933L0.313 -30.934L0.315 -30.934L0.316 -30.723L0.193 -30.723L0.193 -30.933"/>
		<path transform="matrix(2.70354 0 0 2.70354 227.407 213.99)" d="M-15.652 -5.593L-15.741 -5.64L-15.713 -5.693L-15.712 -5.693L-15.712 -5.695L-15.708 -5.702L-15.712 -5.704L-15.712 -6.71L-15.652 -6.71L-15.652 -5.593M0.361 -5.833L0.352 -5.819L0.361 -5.813L0.412 -5.782L0.301 -5.603L0.299 -6.914L0.359 -6.914L0.361 -5.833M-15.653 -8.843L-15.712 -8.843L-15.715 -29.891L-16.903 -29.889L-16.903 -29.949L-15.656 -29.951L-15.653 -8.843M0.355 -9.042L0.295 -9.041L0.271 -22.45L0.331 -22.45L0.355 -9.042M-21.9 -13.461L-30.232 -13.457L-30.249 -13.466L-30.282 -13.404L-30.493 -13.517L-21.96 -13.521L-21.959 -14.708L-21.899 -14.708L-21.9 -13.461M-21.899 -16.639L-21.959 -16.639L-21.958 -17.892L-21.898 -17.892L-21.899 -16.639M7.201 -16.766L7.192 -16.752L7.141 -16.783L7.138 -23.155L7.198 -23.155L7.201 -16.766M-21.898 -19.027L-21.958 -19.027L-21.958 -19.074L-21.898 -19.074L-21.898 -19.027M-21.897 -20.712L-21.957 -20.712L-21.956 -22.717L-21.896 -22.717L-21.897 -20.712M0.264 -26.231L0.317 -26.231L0.317 -26.232L0.324 -26.232L0.329 -23.39L0.269 -23.39L0.264 -26.231M7.198 -23.857L7.138 -23.857L7.138 -23.982L7.198 -23.982L7.198 -23.857M-21.954 -27.253L-21.894 -27.253L-21.895 -24.669L-21.955 -24.669L-21.954 -27.253M7.197 -25.834L7.137 -25.834L7.133 -33.865L6.066 -33.864L6.066 -33.924L7.193 -33.925L7.197 -25.834M0.257 -29.977L0.317 -29.977L0.321 -27.841L0.261 -27.841L0.257 -29.977M-21.953 -29.943L-21.822 -29.943L-21.822 -29.883L-21.893 -29.883L-21.893 -28.748L-21.954 -28.748L-21.953 -29.943M-18.83 -29.887L-19.827 -29.886L-19.827 -29.946L-18.83 -29.947L-18.83 -29.887M0.255 -30.933L0.313 -30.933L0.313 -30.934L0.315 -30.934L0.316 -30.723L0.256 -30.723L0.255 -30.933M0.25 -33.918L1.356 -33.919L1.356 -33.859L0.31 -33.858L0.313 -32.426L0.253 -32.426L0.25 -33.918M4.31 -33.862L3.095 -33.861L3.095 -33.921L4.31 -33.922L4.31 -33.862"/>
		<path fill="#000019" fill-opacity="0.06666667" transform="matrix(2.70354 0 0 2.70354 227.407 213.99)" d="M8.809 -37.424L8.841 -37.424L8.843 -27.973L12.221 -27.973L12.222 -26.89L14.93 -26.89L14.93 -23.522L8.844 -23.522L8.845 -19.828L8.965 -19.828L8.965 -19.836L11.037 -19.836L11.037 -19.956L8.964 -19.956L8.965 -23.402L14.932 -23.403L14.932 -23.237L15.057 -23.237L15.057 -22.401L14.932 -22.401L14.932 -21.491L11.865 -21.491L11.865 -19.956L11.816 -19.956L11.816 -19.836L12.831 -19.836L12.831 -19.956L11.985 -19.956L11.985 -21.371L14.932 -21.371L14.932 -19.956L14.889 -19.956L14.889 -19.836L14.931 -19.836L14.931 -19.768L15.056 -19.768L15.056 -18.688L14.931 -18.688L14.931 -18.286L8.845 -18.286L8.846 -15.795L8.971 -15.795L8.971 -15.15L8.846 -15.15L8.848 -5.55L8.848 -5.42L7.63 -5.42L7.63 -5.545L7.258 -5.545L7.257 -23.155L7.133 -23.155L7.133 -23.857L7.257 -23.857L7.257 -23.982L7.133 -23.982L7.132 -24.403L7.132 -25.834L7.257 -25.834L7.257 -37.424L7.309 -37.424L7.309 -37.549L8.809 -37.549L8.809 -37.424M-7.021 -33.83L-6.929 -33.83L-6.928 -23.4L0.206 -23.4L0.206 -23.39L0.334 -23.39L0.336 -22.45L-6.928 -22.45L-6.927 -9.604L0.236 -9.606L0.236 -9.041L0.36 -9.042L0.364 -6.914L0.236 -6.914L0.236 -5.662L-1.785 -5.661L-1.785 -5.536L-3.938 -5.536L-3.938 -5.661L-8.565 -5.66L-8.565 -5.535L-10.718 -5.534L-10.718 -5.659L-12.044 -5.659L-12.044 -5.534L-14.196 -5.533L-14.196 -5.658L-15.592 -5.658L-15.592 -6.71L-15.717 -6.71L-15.718 -8.843L-15.593 -8.843L-15.593 -9.613L-8.497 -9.614L-8.502 -33.83L-8.462 -33.83L-8.462 -33.955L-7.021 -33.955L-7.021 -33.83M0.226 -9.726L-6.807 -9.724L-6.808 -22.331L0.216 -22.333L0.226 -9.726M-8.618 -9.734L-15.594 -9.734L-15.594 -25.855L-8.62 -25.855L-8.618 -9.734M-22.017 -29.878L-22.017 -28.748L-21.889 -28.748L-21.89 -27.253L-22.017 -27.253L-22.017 -24.669L-21.891 -24.669L-21.891 -22.717L-22.017 -22.717L-22.016 -20.712L-21.892 -20.712L-21.893 -19.074L-22.016 -19.074L-22.016 -19.027L-21.893 -19.027L-21.893 -17.892L-22.016 -17.892L-22.016 -16.639L-21.894 -16.639L-21.894 -14.708L-22.016 -14.708L-22.016 -13.588L-30.442 -13.572L-30.446 -29.889L-22.017 -29.878M-61.943 -20.39L-63.555 -20.391L-63.555 -20.35L-63.429 -20.35L-63.429 -20.271L-61.95 -20.27L-61.949 -16.004L-43.948 -16.006L-43.948 -15.595L-43.823 -15.595L-43.823 -14.255L-46.114 -14.255L-46.114 -14.13L-47.155 -14.13L-47.155 -14.255L-56.553 -14.256L-56.553 -14.131L-57.843 -14.131L-57.843 -14.256L-64.858 -14.257L-64.858 -16.005L-63.434 -16.005L-63.434 -19.335L-63.559 -19.335L-65.887 -19.337L-65.887 -20.355L-67.884 -20.352L-67.884 -20.606L-68.009 -20.606L-68.01 -20.906L-67.885 -20.906L-67.887 -21.976L-65.888 -21.98L-65.89 -23.96L-61.944 -23.963L-61.943 -20.39M13.508 -19.956L13.508 -19.836L14.246 -19.836L14.246 -19.956L13.508 -19.956M0.192 -32.426L0.318 -32.426L0.321 -30.934L0.193 -30.933L0.193 -30.723L0.321 -30.723L0.322 -29.977L0.194 -29.977L0.196 -27.841L0.326 -27.841L0.329 -26.232L0.197 -26.231L0.199 -23.521L-6.807 -23.518L-6.811 -33.843L0.191 -33.848L0.192 -32.426M8.843 -27.573L8.844 -24.338L8.964 -24.338L8.964 -27.573L8.843 -27.573M-8.619 -30.01L-16.903 -30.008L-16.903 -29.884L-18.83 -29.882L-18.83 -30.007L-19.827 -30.007L-19.827 -29.88L-21.822 -29.878L-21.822 -30.006L-30.459 -30.004L-30.46 -33.804L-8.62 -33.82L-8.619 -30.01"/>
		<path fill="#000019" fill-opacity="0.06666667" transform="matrix(2.70354 0 0 2.70354 227.407 213.99)" d="M-7.881 -8.823L-9.381 -8.823L-9.381 -10.323L-7.881 -10.323L-7.881 -8.823"/>
		<clipPath id="cl_36">
			<rect x="202.0453" y="186.08173" width="4.0553131" height="4.0553131"/>
		</clipPath>
		<g clip-path="url(#cl_36)">
			<path fill="none" stroke="#7F7F7F" stroke-width="0.55482715" stroke-miterlimit="4" transform="matrix(2.70354 0 0 2.70354 227.407 213.99)" d="M-9.381 -7.36392L-6.42192 -10.323"/>
		</g>
		<path fill="white" fill-opacity="0.80000001" d="M42.5197 42.5197L269.291 42.5197L269.291 269.291L42.5197 269.291L42.5197 42.5197Z"/>
		<path transform="matrix(2.70354 0 0 2.70354 174.579 127.723)" d="M11.0413 2.01901L1.4893 2.02201L2.6373 2.02101L2.6373 1.90101L10.9213 1.89901L10.9203 -1.91099L-10.9197 -1.89499L-10.9187 1.90501L-2.2817 1.90301L-2.2817 2.02301L-11.0387 2.02501L-11.0397 -2.01499L11.0403 -2.03099L11.0413 2.01901M-0.2867 1.90201L0.7103 1.90201L0.7103 2.02201L-0.2867 2.02201L-0.2867 1.90201"/>
		<path fill="#EFEFEF" transform="matrix(2.70354 0 0 2.70354 174.579 127.723)" d="M10.9213 1.89901L2.6373 1.90101L2.6373 2.02601L0.7103 2.02701L0.7103 1.90201L-0.2867 1.90201L-0.2867 2.02701L-2.2817 2.02801L-2.2817 1.90301L-10.9187 1.90501L-10.9197 -1.89499L10.9203 -1.91099L10.9213 1.89901"/>
	</g>
	<clipPath id="cl_37">
		<rect x="283.46457" y="42.519684" width="954.01575" height="1754.6063"/>
	</clipPath>
	<g clip-path="url(#cl_37)">
		<path fill="#7F7F7F" transform="matrix(41.1407 0 0 41.1407 760.469 896.45)" d="M10.9329 1.89877L10.9329 1.89877L10.9086 1.89877L10.9086 1.89877M10.9329 1.91877L10.9329 1.93877L10.9086 1.93877L10.9086 1.91877M10.9329 1.95877L10.9329 1.97877L10.9086 1.97877L10.9086 1.95877M10.9329 1.99877L10.9329 2.01877L10.9086 2.01877L10.9086 1.99877M10.9329 2.03877L10.9329 2.05877L10.9086 2.05877L10.9086 2.03877M10.9329 2.07877L10.9329 2.09877L10.9086 2.09877L10.9086 2.07877M10.9329 2.11877L10.9329 2.13877L10.9086 2.13877L10.9086 2.11877M10.9329 2.15877L10.9329 2.17877L10.9086 2.17877L10.9086 2.15877M10.9329 2.19877L10.9329 2.21877L10.9086 2.21877L10.9086 2.19877M10.9329 2.23877L10.933 2.25877L10.9086 2.25877L10.9086 2.23877M10.933 2.27877L10.933 2.29877L10.9087 2.29877L10.9086 2.27877M10.933 2.31877L10.933 2.33877L10.9087 2.33877L10.9087 2.31877M10.933 2.35877L10.933 2.37877L10.9087 2.37877L10.9087 2.35877M10.933 2.39877L10.933 2.41877L10.9087 2.41877L10.9087 2.39877M10.933 2.43877L10.933 2.45877L10.9087 2.45877L10.9087 2.43877M10.933 2.47877L10.933 2.49877L10.9087 2.49877L10.9087 2.47877M10.933 2.51877L10.933 2.53877L10.9087 2.53877L10.9087 2.51877M10.933 2.55877L10.933 2.57877L10.9087 2.57877L10.9087 2.55877M10.933 2.59877L10.933 2.61877L10.9087 2.61877L10.9087 2.59877M10.933 2.63877L10.9331 2.65877L10.9087 2.65877L10.9087 2.63877M10.9331 2.67877L10.9331 2.69877L10.9088 2.69877L10.9087 2.67877M10.9331 2.71877L10.9331 2.73877L10.9088 2.73877L10.9088 2.71877M10.9331 2.75877L10.9331 2.77877L10.9088 2.77877L10.9088 2.75877M10.9331 2.79877L10.9331 2.81877L10.9088 2.81877L10.9088 2.79877M10.9331 2.83877L10.9331 2.85877L10.9088 2.85877L10.9088 2.83877M10.9331 2.87877L10.9331 2.89877L10.9088 2.89877L10.9088 2.87877M10.9331 2.91877L10.9331 2.93877L10.9088 2.93877L10.9088 2.91877M10.9331 2.95877L10.9331 2.97877L10.9088 2.97877L10.9088 2.95877M10.9331 2.99877L10.9331 3.01877L10.9088 3.01877L10.9088 2.99877M10.9331 3.03877L10.9331 3.04232L10.9088 3.04233L10.9088 3.03877"/>
		<path fill="none" stroke="#7F7F7F" stroke-width="0.024306819" stroke-miterlimit="4" transform="matrix(41.1407 0 0 41.1407 760.469 896.45)" d="M10.921 2.94232L10.921 3.06732"/>
		<path fill="#7F7F7F" transform="matrix(41.1407 0 0 41.1407 760.469 896.45)" d="M2.64874 1.9008L2.64874 1.9008L2.62443 1.90081L2.62443 1.90081M2.64874 1.9208L2.64875 1.9408L2.62444 1.94081L2.62443 1.92081M2.64875 1.9608L2.64876 1.9808L2.62445 1.98081L2.62444 1.96081M2.64876 2.0008L2.64877 2.0208L2.62446 2.02081L2.62445 2.00081M2.64877 2.0408L2.64877 2.0608L2.62447 2.06081L2.62446 2.04081M2.64878 2.0808L2.64878 2.1008L2.62448 2.10081L2.62447 2.08081M2.64879 2.1208L2.64879 2.1408L2.62449 2.14081L2.62448 2.12081M2.6488 2.1608L2.6488 2.1808L2.6245 2.18081L2.62449 2.16081M2.64881 2.2008L2.64881 2.2208L2.62451 2.22081L2.6245 2.20081M2.64882 2.2408L2.64882 2.2608L2.62452 2.26081L2.62451 2.24081M2.64883 2.2808L2.64883 2.3008L2.62453 2.30081L2.62452 2.28081M2.64884 2.3208L2.64884 2.3408L2.62454 2.34081L2.62453 2.32081M2.64885 2.3608L2.64885 2.3808L2.62455 2.38081L2.62454 2.36081M2.64886 2.4008L2.64886 2.4208L2.62456 2.42081L2.62455 2.40081M2.64887 2.4408L2.64887 2.4608L2.62457 2.46081L2.62456 2.44081M2.64888 2.4808L2.64888 2.5008L2.62458 2.50081L2.62457 2.48081M2.64889 2.5208L2.64889 2.5408L2.62459 2.54081L2.62458 2.52081M2.6489 2.5608L2.6489 2.5808L2.6246 2.58081L2.62459 2.56081M2.64891 2.6008L2.64891 2.6208L2.62461 2.62081L2.6246 2.60081M2.64892 2.6408L2.64892 2.6608L2.62462 2.66081L2.62461 2.64081M2.64893 2.6808L2.64893 2.7008L2.62462 2.70081L2.62462 2.68081M2.64894 2.7208L2.64894 2.7408L2.62463 2.74081L2.62463 2.72081M2.64895 2.7608L2.64895 2.7808L2.62464 2.78081L2.62464 2.76081M2.64896 2.8008L2.64896 2.8208L2.62465 2.82081L2.62465 2.80081M2.64897 2.8408L2.64897 2.8608L2.62466 2.86081L2.62466 2.84081M2.64898 2.8808L2.64898 2.9008L2.62467 2.90081L2.62467 2.88081M2.64899 2.9208L2.64899 2.9408L2.62468 2.94081L2.62468 2.92081M2.649 2.9608L2.649 2.9808L2.62469 2.98081L2.62469 2.96081M2.64901 3.0008L2.64901 3.0208L2.6247 3.02081L2.6247 3.00081M2.64902 3.0408L2.64902 3.04435L2.62471 3.04436L2.62471 3.04081"/>
		<path fill="none" stroke="#7F7F7F" stroke-width="0.024306819" stroke-miterlimit="4" transform="matrix(41.1407 0 0 41.1407 760.469 896.45)" d="M2.63684 2.94436L2.63687 3.06936"/>
		<path fill="#7F7F7F" transform="matrix(41.1407 0 0 41.1407 760.469 896.45)" d="M10.921 3.04233L10.871 3.06734L10.871 3.01734L10.921 3.04233"/>
		<path fill="none" stroke="#7F7F7F" stroke-width="0.024306819" stroke-miterlimit="4" transform="matrix(41.1407 0 0 41.1407 760.469 896.45)" d="M10.921 3.04233L10.871 3.06734L10.871 3.01734L10.921 3.04233"/>
		<path fill="#7F7F7F" transform="matrix(41.1407 0 0 41.1407 760.469 896.45)" d="M2.63686 3.04436L2.68686 3.01935L2.68687 3.06935L2.63686 3.04436"/>
		<path fill="none" stroke="#7F7F7F" stroke-width="0.024306819" stroke-miterlimit="4" transform="matrix(41.1407 0 0 41.1407 760.469 896.45)" d="M2.63686 3.04436L2.68686 3.01935L2.68687 3.06935L2.63686 3.04436"/>
		<text fill="#7F7F7F" transform="matrix(1 -0.000245425 0.000245425 1 1031.35 1017.16)" font-size="8.2281437" font-family="Roboto" x="0, 4.6190338, 6.786087, 11.405121, " y="7, ">
				8.28
		</text>
		<path fill="none" stroke="#7F7F7F" stroke-width="0.024306819" stroke-miterlimit="4" transform="matrix(41.1407 -0.0100969 0.0100969 41.1407 1039.36 1021.65)" d=""/>
		<path fill="none" stroke="#7F7F7F" stroke-width="0.024306819" stroke-miterlimit="4" transform="matrix(41.1407 0 0 41.1407 760.469 896.45)" d="M10.921 3.04233L7.0709 3.04327M6.48695 3.04341L2.63686 3.04436"/>
		<path fill="#7F7F7F" transform="matrix(41.1407 0 0 41.1407 760.469 896.45)" d="M2.64874 1.9008L2.64874 1.9008L2.62443 1.90081L2.62443 1.90081M2.64874 1.9208L2.64875 1.9408L2.62444 1.94081L2.62443 1.92081M2.64875 1.9608L2.64876 1.9808L2.62445 1.98081L2.62444 1.96081M2.64876 2.0008L2.64877 2.0208L2.62446 2.02081L2.62445 2.00081M2.64877 2.0408L2.64877 2.0608L2.62447 2.06081L2.62446 2.04081M2.64878 2.0808L2.64878 2.1008L2.62448 2.10081L2.62447 2.08081M2.64879 2.1208L2.64879 2.1408L2.62449 2.14081L2.62448 2.12081M2.6488 2.1608L2.6488 2.1808L2.6245 2.18081L2.62449 2.16081M2.64881 2.2008L2.64881 2.2208L2.62451 2.22081L2.6245 2.20081M2.64882 2.2408L2.64882 2.2608L2.62452 2.26081L2.62451 2.24081M2.64883 2.2808L2.64883 2.3008L2.62453 2.30081L2.62452 2.28081M2.64884 2.3208L2.64884 2.3408L2.62454 2.34081L2.62453 2.32081M2.64885 2.3608L2.64885 2.3808L2.62455 2.38081L2.62454 2.36081M2.64886 2.4008L2.64886 2.4208L2.62456 2.42081L2.62455 2.40081M2.64887 2.4408L2.64887 2.4608L2.62457 2.46081L2.62456 2.44081M2.64888 2.4808L2.64888 2.5008L2.62458 2.50081L2.62457 2.48081M2.64889 2.5208L2.64889 2.5408L2.62459 2.54081L2.62458 2.52081M2.6489 2.5608L2.6489 2.5808L2.6246 2.58081L2.62459 2.56081M2.64891 2.6008L2.64891 2.6208L2.62461 2.62081L2.6246 2.60081M2.64892 2.6408L2.64892 2.6608L2.62462 2.66081L2.62461 2.64081M2.64893 2.6808L2.64893 2.7008L2.62462 2.70081L2.62462 2.68081M2.64894 2.7208L2.64894 2.7408L2.62463 2.74081L2.62463 2.72081M2.64895 2.7608L2.64895 2.7808L2.62464 2.78081L2.62464 2.76081M2.64896 2.8008L2.64896 2.8208L2.62465 2.82081L2.62465 2.80081M2.64897 2.8408L2.64897 2.8608L2.62466 2.86081L2.62466 2.84081M2.64898 2.8808L2.64898 2.9008L2.62467 2.90081L2.62467 2.88081M2.64899 2.9208L2.64899 2.9408L2.62468 2.94081L2.62468 2.92081M2.649 2.9608L2.649 2.9808L2.62469 2.98081L2.62469 2.96081M2.64901 3.0008L2.64901 3.0208L2.6247 3.02081L2.6247 3.00081M2.64902 3.0408L2.64902 3.04435L2.62471 3.04436L2.62471 3.04081"/>
		<path fill="none" stroke="#7F7F7F" stroke-width="0.024306819" stroke-miterlimit="4" transform="matrix(41.1407 0 0 41.1407 760.469 896.45)" d="M2.63684 2.94436L2.63687 3.06936"/>
		<path fill="#7F7F7F" transform="matrix(41.1407 0 0 41.1407 760.469 896.45)" d="M0.721626 1.90127L0.721626 1.90127L0.697319 1.90128L0.697319 1.90128M0.72163 1.92127L0.721635 1.94127L0.697329 1.94128L0.697324 1.92128M0.72164 1.96127L0.721645 1.98127L0.697338 1.98128L0.697334 1.96128M0.72165 2.00127L0.721655 2.02127L0.697348 2.02128L0.697343 2.00128M0.72166 2.04127L0.721665 2.06127L0.697358 2.06128L0.697353 2.04128M0.72167 2.08127L0.721675 2.10127L0.697368 2.10128L0.697363 2.08128M0.72168 2.12127L0.721684 2.14127L0.697378 2.14128L0.697373 2.12128M0.721689 2.16127L0.721694 2.18127L0.697388 2.18128L0.697383 2.16128M0.721699 2.20127L0.721704 2.22127L0.697397 2.22128L0.697392 2.20128M0.721709 2.24127L0.721714 2.26127L0.697407 2.26128L0.697402 2.24128M0.721719 2.28127L0.721724 2.30127L0.697417 2.30128L0.697412 2.28128M0.721729 2.32127L0.721734 2.34127L0.697427 2.34128L0.697422 2.32128M0.721738 2.36127L0.721743 2.38127L0.697437 2.38128L0.697432 2.36128M0.721748 2.40127L0.721753 2.42127L0.697446 2.42128L0.697442 2.40128M0.721758 2.44127L0.721763 2.46127L0.697456 2.46128L0.697451 2.44128M0.721768 2.48127L0.721773 2.50127L0.697466 2.50128L0.697461 2.48128M0.721778 2.52127L0.721783 2.54127L0.697476 2.54128L0.697471 2.52128M0.721788 2.56127L0.721792 2.58127L0.697486 2.58128L0.697481 2.56128M0.721797 2.60127L0.721802 2.62127L0.697496 2.62128L0.697491 2.60128M0.721807 2.64127L0.721812 2.66127L0.697505 2.66128L0.6975 2.64128M0.721817 2.68127L0.721822 2.70127L0.697515 2.70128L0.69751 2.68128M0.721827 2.72127L0.721832 2.74127L0.697525 2.74128L0.69752 2.72128M0.721837 2.76127L0.721842 2.78127L0.697535 2.78128L0.69753 2.76128M0.721846 2.80127L0.721851 2.82127L0.697545 2.82128L0.69754 2.80128M0.721856 2.84127L0.721861 2.86127L0.697554 2.86128L0.69755 2.84128M0.721866 2.88127L0.721871 2.90127L0.697564 2.90128L0.697559 2.88128M0.721876 2.92127L0.721881 2.94127L0.697574 2.94128L0.697569 2.92128M0.721886 2.96127L0.721891 2.98127L0.697584 2.98128L0.697579 2.96128M0.721896 3.00127L0.7219 3.02127L0.697594 3.02128L0.697589 3.00128M0.721905 3.04127L0.721906 3.04483L0.697599 3.04483L0.697599 3.04128"/>
		<path fill="none" stroke="#7F7F7F" stroke-width="0.024306819" stroke-miterlimit="4" transform="matrix(41.1407 0 0 41.1407 760.469 896.45)" d="M0.709728 2.94483L0.709759 3.06983"/>
		<path fill="#7F7F7F" transform="matrix(41.1407 0 0 41.1407 760.469 896.45)" d="M2.63686 3.04436L2.58687 3.06937L2.58686 3.01937L2.63686 3.04436"/>
		<path fill="none" stroke="#7F7F7F" stroke-width="0.024306819" stroke-miterlimit="4" transform="matrix(41.1407 0 0 41.1407 760.469 896.45)" d="M2.63686 3.04436L2.58687 3.06937L2.58686 3.01937L2.63686 3.04436"/>
		<path fill="#7F7F7F" transform="matrix(41.1407 0 0 41.1407 760.469 896.45)" d="M0.709753 3.04483L0.759747 3.01982L0.759759 3.06982L0.709753 3.04483"/>
		<path fill="none" stroke="#7F7F7F" stroke-width="0.024306819" stroke-miterlimit="4" transform="matrix(41.1407 0 0 41.1407 760.469 896.45)" d="M0.709753 3.04483L0.759747 3.01982L0.759759 3.06982L0.709753 3.04483"/>
		<text fill="#7F7F7F" transform="matrix(1 -0.000245425 0.000245425 1 821.297 1017.21)" font-size="8.2281437" font-family="Roboto" x="0, 4.6190338, 6.786087, 11.405121, " y="7, ">
				1.93
		</text>
		<path fill="none" stroke="#7F7F7F" stroke-width="0.024306819" stroke-miterlimit="4" transform="matrix(41.1407 -0.0100969 0.0100969 41.1407 829.31 1021.71)" d=""/>
		<path fill="none" stroke="#7F7F7F" stroke-width="0.024306819" stroke-miterlimit="4" transform="matrix(41.1407 0 0 41.1407 760.469 896.45)" d="M2.63686 3.04436L1.96528 3.04452M1.38133 3.04467L0.709753 3.04483"/>
		<path fill="#7F7F7F" transform="matrix(41.1407 0 0 41.1407 760.469 896.45)" d="M0.721626 1.90127L0.721626 1.90127L0.697319 1.90128L0.697319 1.90128M0.72163 1.92127L0.721635 1.94127L0.697329 1.94128L0.697324 1.92128M0.72164 1.96127L0.721645 1.98127L0.697338 1.98128L0.697334 1.96128M0.72165 2.00127L0.721655 2.02127L0.697348 2.02128L0.697343 2.00128M0.72166 2.04127L0.721665 2.06127L0.697358 2.06128L0.697353 2.04128M0.72167 2.08127L0.721675 2.10127L0.697368 2.10128L0.697363 2.08128M0.72168 2.12127L0.721684 2.14127L0.697378 2.14128L0.697373 2.12128M0.721689 2.16127L0.721694 2.18127L0.697388 2.18128L0.697383 2.16128M0.721699 2.20127L0.721704 2.22127L0.697397 2.22128L0.697392 2.20128M0.721709 2.24127L0.721714 2.26127L0.697407 2.26128L0.697402 2.24128M0.721719 2.28127L0.721724 2.30127L0.697417 2.30128L0.697412 2.28128M0.721729 2.32127L0.721734 2.34127L0.697427 2.34128L0.697422 2.32128M0.721738 2.36127L0.721743 2.38127L0.697437 2.38128L0.697432 2.36128M0.721748 2.40127L0.721753 2.42127L0.697446 2.42128L0.697442 2.40128M0.721758 2.44127L0.721763 2.46127L0.697456 2.46128L0.697451 2.44128M0.721768 2.48127L0.721773 2.50127L0.697466 2.50128L0.697461 2.48128M0.721778 2.52127L0.721783 2.54127L0.697476 2.54128L0.697471 2.52128M0.721788 2.56127L0.721792 2.58127L0.697486 2.58128L0.697481 2.56128M0.721797 2.60127L0.721802 2.62127L0.697496 2.62128L0.697491 2.60128M0.721807 2.64127L0.721812 2.66127L0.697505 2.66128L0.6975 2.64128M0.721817 2.68127L0.721822 2.70127L0.697515 2.70128L0.69751 2.68128M0.721827 2.72127L0.721832 2.74127L0.697525 2.74128L0.69752 2.72128M0.721837 2.76127L0.721842 2.78127L0.697535 2.78128L0.69753 2.76128M0.721846 2.80127L0.721851 2.82127L0.697545 2.82128L0.69754 2.80128M0.721856 2.84127L0.721861 2.86127L0.697554 2.86128L0.69755 2.84128M0.721866 2.88127L0.721871 2.90127L0.697564 2.90128L0.697559 2.88128M0.721876 2.92127L0.721881 2.94127L0.697574 2.94128L0.697569 2.92128M0.721886 2.96127L0.721891 2.98127L0.697584 2.98128L0.697579 2.96128M0.721896 3.00127L0.7219 3.02127L0.697594 3.02128L0.697589 3.00128M0.721905 3.04127L0.721906 3.04483L0.697599 3.04483L0.697599 3.04128"/>
		<path fill="none" stroke="#7F7F7F" stroke-width="0.024306819" stroke-miterlimit="4" transform="matrix(41.1407 0 0 41.1407 760.469 896.45)" d="M0.709728 2.94483L0.709759 3.06983"/>
		<path fill="#7F7F7F" transform="matrix(41.1407 0 0 41.1407 760.469 896.45)" d="M-0.275348 1.90152L-0.275348 1.90152L-0.299655 1.90152L-0.299655 1.90152M-0.275343 1.92152L-0.275338 1.94152L-0.299645 1.94152L-0.29965 1.92152M-0.275333 1.96152L-0.275328 1.98152L-0.299635 1.98152L-0.29964 1.96152M-0.275324 2.00152L-0.275319 2.02152L-0.299625 2.02152L-0.29963 2.00152M-0.275314 2.04152L-0.275309 2.06152L-0.299616 2.06152L-0.299621 2.04152M-0.275304 2.08152L-0.275299 2.10152L-0.299606 2.10152L-0.299611 2.08152M-0.275294 2.12152L-0.275289 2.14152L-0.299596 2.14152L-0.299601 2.12152M-0.275284 2.16152L-0.275279 2.18152L-0.299586 2.18152L-0.299591 2.16152M-0.275274 2.20152L-0.27527 2.22152L-0.299576 2.22152L-0.299581 2.20152M-0.275265 2.24152L-0.27526 2.26152L-0.299567 2.26152L-0.299571 2.24152M-0.275255 2.28152L-0.27525 2.30152L-0.299557 2.30152L-0.299562 2.28152M-0.275245 2.32152L-0.27524 2.34152L-0.299547 2.34152L-0.299552 2.32152M-0.275235 2.36152L-0.27523 2.38152L-0.299537 2.38152L-0.299542 2.36152M-0.275225 2.40152L-0.27522 2.42152L-0.299527 2.42152L-0.299532 2.40152M-0.275216 2.44152L-0.275211 2.46152L-0.299517 2.46152L-0.299522 2.44152M-0.275206 2.48152L-0.275201 2.50152L-0.299508 2.50152L-0.299513 2.48152M-0.275196 2.52152L-0.275191 2.54152L-0.299498 2.54152L-0.299503 2.52152M-0.275186 2.56152L-0.275181 2.58152L-0.299488 2.58152L-0.299493 2.56152M-0.275176 2.60152L-0.275171 2.62152L-0.299478 2.62152L-0.299483 2.60152M-0.275166 2.64152L-0.275162 2.66152L-0.299468 2.66152L-0.299473 2.64152M-0.275157 2.68152L-0.275152 2.70152L-0.299459 2.70152L-0.299463 2.68152M-0.275147 2.72152L-0.275142 2.74152L-0.299449 2.74152L-0.299454 2.72152M-0.275137 2.76152L-0.275132 2.78152L-0.299439 2.78152L-0.299444 2.76152M-0.275127 2.80152L-0.275122 2.82152L-0.299429 2.82152L-0.299434 2.80152M-0.275117 2.84152L-0.275112 2.86152L-0.299419 2.86152L-0.299424 2.84152M-0.275108 2.88152L-0.275103 2.90152L-0.299409 2.90152L-0.299414 2.88152M-0.275098 2.92152L-0.275093 2.94152L-0.2994 2.94152L-0.299405 2.92152M-0.275088 2.96152L-0.275083 2.98152L-0.29939 2.98152L-0.299395 2.96152M-0.275078 3.00152L-0.275073 3.02152L-0.29938 3.02152L-0.299385 3.00152M-0.275068 3.04152L-0.275067 3.04507L-0.299374 3.04508L-0.299375 3.04152"/>
		<path fill="none" stroke="#7F7F7F" stroke-width="0.024306819" stroke-miterlimit="4" transform="matrix(41.1407 0 0 41.1407 760.469 896.45)" d="M-0.287245 2.94508L-0.287215 3.07008"/>
		<path fill="#7F7F7F" transform="matrix(41.1407 0 0 41.1407 760.469 896.45)" d="M0.709753 3.04483L0.659759 3.06984L0.659747 3.01984L0.709753 3.04483"/>
		<path fill="none" stroke="#7F7F7F" stroke-width="0.024306819" stroke-miterlimit="4" transform="matrix(41.1407 0 0 41.1407 760.469 896.45)" d="M0.709753 3.04483L0.659759 3.06984L0.659747 3.01984L0.709753 3.04483"/>
		<path fill="#7F7F7F" transform="matrix(41.1407 0 0 41.1407 760.469 896.45)" d="M-0.287221 3.04508L-0.237227 3.02006L-0.237215 3.07006L-0.287221 3.04508"/>
		<path fill="none" stroke="#7F7F7F" stroke-width="0.024306819" stroke-miterlimit="4" transform="matrix(41.1407 0 0 41.1407 760.469 896.45)" d="M-0.287221 3.04508L-0.237227 3.02006L-0.237215 3.07006L-0.287221 3.04508"/>
		<text fill="#7F7F7F" transform="matrix(1 -0.000245425 0.000245425 1 761.147 1017.22)" font-size="8.2281437" font-family="Roboto" x="0, 4.6190338, 6.786087, 11.405121, " y="7, ">
				1.00
		</text>
		<path fill="none" stroke="#7F7F7F" stroke-width="0.024306819" stroke-miterlimit="4" transform="matrix(41.1407 -0.0100969 0.0100969 41.1407 769.16 1021.72)" d=""/>
		<path fill="none" stroke="#7F7F7F" stroke-width="0.024306819" stroke-miterlimit="4" transform="matrix(41.1407 0 0 41.1407 760.469 896.45)" d="M0.709753 3.04483L0.503241 3.04488M-0.0807094 3.04503L-0.287221 3.04508"/>
		<path fill="#7F7F7F" transform="matrix(41.1407 0 0 41.1407 760.469 896.45)" d="M-0.275348 1.90152L-0.275348 1.90152L-0.299655 1.90152L-0.299655 1.90152M-0.275343 1.92152L-0.275338 1.94152L-0.299645 1.94152L-0.29965 1.92152M-0.275333 1.96152L-0.275328 1.98152L-0.299635 1.98152L-0.29964 1.96152M-0.275324 2.00152L-0.275319 2.02152L-0.299625 2.02152L-0.29963 2.00152M-0.275314 2.04152L-0.275309 2.06152L-0.299616 2.06152L-0.299621 2.04152M-0.275304 2.08152L-0.275299 2.10152L-0.299606 2.10152L-0.299611 2.08152M-0.275294 2.12152L-0.275289 2.14152L-0.299596 2.14152L-0.299601 2.12152M-0.275284 2.16152L-0.275279 2.18152L-0.299586 2.18152L-0.299591 2.16152M-0.275274 2.20152L-0.27527 2.22152L-0.299576 2.22152L-0.299581 2.20152M-0.275265 2.24152L-0.27526 2.26152L-0.299567 2.26152L-0.299571 2.24152M-0.275255 2.28152L-0.27525 2.30152L-0.299557 2.30152L-0.299562 2.28152M-0.275245 2.32152L-0.27524 2.34152L-0.299547 2.34152L-0.299552 2.32152M-0.275235 2.36152L-0.27523 2.38152L-0.299537 2.38152L-0.299542 2.36152M-0.275225 2.40152L-0.27522 2.42152L-0.299527 2.42152L-0.299532 2.40152M-0.275216 2.44152L-0.275211 2.46152L-0.299517 2.46152L-0.299522 2.44152M-0.275206 2.48152L-0.275201 2.50152L-0.299508 2.50152L-0.299513 2.48152M-0.275196 2.52152L-0.275191 2.54152L-0.299498 2.54152L-0.299503 2.52152M-0.275186 2.56152L-0.275181 2.58152L-0.299488 2.58152L-0.299493 2.56152M-0.275176 2.60152L-0.275171 2.62152L-0.299478 2.62152L-0.299483 2.60152M-0.275166 2.64152L-0.275162 2.66152L-0.299468 2.66152L-0.299473 2.64152M-0.275157 2.68152L-0.275152 2.70152L-0.299459 2.70152L-0.299463 2.68152M-0.275147 2.72152L-0.275142 2.74152L-0.299449 2.74152L-0.299454 2.72152M-0.275137 2.76152L-0.275132 2.78152L-0.299439 2.78152L-0.299444 2.76152M-0.275127 2.80152L-0.275122 2.82152L-0.299429 2.82152L-0.299434 2.80152M-0.275117 2.84152L-0.275112 2.86152L-0.299419 2.86152L-0.299424 2.84152M-0.275108 2.88152L-0.275103 2.90152L-0.299409 2.90152L-0.299414 2.88152M-0.275098 2.92152L-0.275093 2.94152L-0.2994 2.94152L-0.299405 2.92152M-0.275088 2.96152L-0.275083 2.98152L-0.29939 2.98152L-0.299395 2.96152M-0.275078 3.00152L-0.275073 3.02152L-0.29938 3.02152L-0.299385 3.00152M-0.275068 3.04152L-0.275067 3.04507L-0.299374 3.04508L-0.299375 3.04152"/>
		<path fill="none" stroke="#7F7F7F" stroke-width="0.024306819" stroke-miterlimit="4" transform="matrix(41.1407 0 0 41.1407 760.469 896.45)" d="M-0.287245 2.94508L-0.287215 3.07008"/>
		<path fill="#7F7F7F" transform="matrix(41.1407 0 0 41.1407 760.469 896.45)" d="M-2.27032 1.90201L-2.27032 1.90201L-2.29462 1.90201L-2.29462 1.90201M-2.27031 1.92201L-2.27031 1.94201L-2.29462 1.94201L-2.29462 1.92201M-2.2703 1.96201L-2.2703 1.98201L-2.29461 1.98201L-2.29461 1.96201M-2.27029 2.00201L-2.27029 2.02201L-2.2946 2.02201L-2.2946 2.00201M-2.27028 2.04201L-2.27028 2.06201L-2.29459 2.06201L-2.29459 2.04201M-2.27027 2.08201L-2.27027 2.10201L-2.29458 2.10201L-2.29458 2.08201M-2.27026 2.12201L-2.27026 2.14201L-2.29457 2.14201L-2.29457 2.12201M-2.27025 2.16201L-2.27025 2.18201L-2.29456 2.18201L-2.29456 2.16201M-2.27024 2.20201L-2.27024 2.22201L-2.29455 2.22201L-2.29455 2.20201M-2.27023 2.24201L-2.27023 2.26201L-2.29454 2.26201L-2.29454 2.24201M-2.27022 2.28201L-2.27022 2.30201L-2.29453 2.30201L-2.29453 2.28201M-2.27022 2.32201L-2.27021 2.34201L-2.29452 2.34201L-2.29452 2.32201M-2.27021 2.36201L-2.2702 2.38201L-2.29451 2.38201L-2.29451 2.36201M-2.2702 2.40201L-2.27019 2.42201L-2.2945 2.42201L-2.2945 2.40201M-2.27019 2.44201L-2.27018 2.46201L-2.29449 2.46201L-2.29449 2.44201M-2.27018 2.48201L-2.27017 2.50201L-2.29448 2.50201L-2.29448 2.48201M-2.27017 2.52201L-2.27016 2.54201L-2.29447 2.54201L-2.29447 2.52201M-2.27016 2.56201L-2.27015 2.58201L-2.29446 2.58201L-2.29446 2.56201M-2.27015 2.60201L-2.27014 2.62201L-2.29445 2.62201L-2.29445 2.60201M-2.27014 2.64201L-2.27013 2.66201L-2.29444 2.66201L-2.29444 2.64201M-2.27013 2.68201L-2.27012 2.70201L-2.29443 2.70201L-2.29443 2.68201M-2.27012 2.72201L-2.27011 2.74201L-2.29442 2.74201L-2.29442 2.72201M-2.27011 2.76201L-2.2701 2.78201L-2.29441 2.78201L-2.29441 2.76201M-2.2701 2.80201L-2.27009 2.82201L-2.2944 2.82201L-2.2944 2.80201M-2.27009 2.84201L-2.27008 2.86201L-2.29439 2.86201L-2.29439 2.84201M-2.27008 2.88201L-2.27007 2.90201L-2.29438 2.90201L-2.29438 2.88201M-2.27007 2.92201L-2.27006 2.94201L-2.29437 2.94201L-2.29437 2.92201M-2.27006 2.96201L-2.27005 2.98201L-2.29436 2.98201L-2.29436 2.96201M-2.27005 3.00201L-2.27004 3.02201L-2.29435 3.02201L-2.29435 3.00201M-2.27004 3.04201L-2.27004 3.04556L-2.29434 3.04557L-2.29435 3.04201"/>
		<path fill="none" stroke="#7F7F7F" stroke-width="0.024306819" stroke-miterlimit="4" transform="matrix(41.1407 0 0 41.1407 760.469 896.45)" d="M-2.28222 2.94557L-2.28218 3.07057"/>
		<path fill="#7F7F7F" transform="matrix(41.1407 0 0 41.1407 760.469 896.45)" d="M-0.287221 3.04508L-0.337215 3.07009L-0.337227 3.02009L-0.287221 3.04508"/>
		<path fill="none" stroke="#7F7F7F" stroke-width="0.024306819" stroke-miterlimit="4" transform="matrix(41.1407 0 0 41.1407 760.469 896.45)" d="M-0.287221 3.04508L-0.337215 3.07009L-0.337227 3.02009L-0.287221 3.04508"/>
		<path fill="#7F7F7F" transform="matrix(41.1407 0 0 41.1407 760.469 896.45)" d="M-2.28219 3.04557L-2.2322 3.02055L-2.23218 3.07055L-2.28219 3.04557"/>
		<path fill="none" stroke="#7F7F7F" stroke-width="0.024306819" stroke-miterlimit="4" transform="matrix(41.1407 0 0 41.1407 760.469 896.45)" d="M-2.28219 3.04557L-2.2322 3.02055L-2.23218 3.07055L-2.28219 3.04557"/>
		<text fill="#7F7F7F" transform="matrix(1 -0.000245425 0.000245425 1 699.602 1017.24)" font-size="8.2281437" font-family="Roboto" x="0, 4.6190338, 6.786087, 11.405121, " y="7, ">
				1.99
		</text>
		<path fill="none" stroke="#7F7F7F" stroke-width="0.024306819" stroke-miterlimit="4" transform="matrix(41.1407 -0.0100969 0.0100969 41.1407 707.615 1021.74)" d=""/>
		<path fill="none" stroke="#7F7F7F" stroke-width="0.024306819" stroke-miterlimit="4" transform="matrix(41.1407 0 0 41.1407 760.469 896.45)" d="M-0.287221 3.04508L-0.99273 3.04525M-1.57668 3.04539L-2.28219 3.04557"/>
		<path fill="#7F7F7F" transform="matrix(41.1407 0 0 41.1407 760.469 896.45)" d="M-2.27032 1.90201L-2.27032 1.90201L-2.29462 1.90201L-2.29462 1.90201M-2.27031 1.92201L-2.27031 1.94201L-2.29462 1.94201L-2.29462 1.92201M-2.2703 1.96201L-2.2703 1.98201L-2.29461 1.98201L-2.29461 1.96201M-2.27029 2.00201L-2.27029 2.02201L-2.2946 2.02201L-2.2946 2.00201M-2.27028 2.04201L-2.27028 2.06201L-2.29459 2.06201L-2.29459 2.04201M-2.27027 2.08201L-2.27027 2.10201L-2.29458 2.10201L-2.29458 2.08201M-2.27026 2.12201L-2.27026 2.14201L-2.29457 2.14201L-2.29457 2.12201M-2.27025 2.16201L-2.27025 2.18201L-2.29456 2.18201L-2.29456 2.16201M-2.27024 2.20201L-2.27024 2.22201L-2.29455 2.22201L-2.29455 2.20201M-2.27023 2.24201L-2.27023 2.26201L-2.29454 2.26201L-2.29454 2.24201M-2.27022 2.28201L-2.27022 2.30201L-2.29453 2.30201L-2.29453 2.28201M-2.27022 2.32201L-2.27021 2.34201L-2.29452 2.34201L-2.29452 2.32201M-2.27021 2.36201L-2.2702 2.38201L-2.29451 2.38201L-2.29451 2.36201M-2.2702 2.40201L-2.27019 2.42201L-2.2945 2.42201L-2.2945 2.40201M-2.27019 2.44201L-2.27018 2.46201L-2.29449 2.46201L-2.29449 2.44201M-2.27018 2.48201L-2.27017 2.50201L-2.29448 2.50201L-2.29448 2.48201M-2.27017 2.52201L-2.27016 2.54201L-2.29447 2.54201L-2.29447 2.52201M-2.27016 2.56201L-2.27015 2.58201L-2.29446 2.58201L-2.29446 2.56201M-2.27015 2.60201L-2.27014 2.62201L-2.29445 2.62201L-2.29445 2.60201M-2.27014 2.64201L-2.27013 2.66201L-2.29444 2.66201L-2.29444 2.64201M-2.27013 2.68201L-2.27012 2.70201L-2.29443 2.70201L-2.29443 2.68201M-2.27012 2.72201L-2.27011 2.74201L-2.29442 2.74201L-2.29442 2.72201M-2.27011 2.76201L-2.2701 2.78201L-2.29441 2.78201L-2.29441 2.76201M-2.2701 2.80201L-2.27009 2.82201L-2.2944 2.82201L-2.2944 2.80201M-2.27009 2.84201L-2.27008 2.86201L-2.29439 2.86201L-2.29439 2.84201M-2.27008 2.88201L-2.27007 2.90201L-2.29438 2.90201L-2.29438 2.88201M-2.27007 2.92201L-2.27006 2.94201L-2.29437 2.94201L-2.29437 2.92201M-2.27006 2.96201L-2.27005 2.98201L-2.29436 2.98201L-2.29436 2.96201M-2.27005 3.00201L-2.27004 3.02201L-2.29435 3.02201L-2.29435 3.00201M-2.27004 3.04201L-2.27004 3.04556L-2.29434 3.04557L-2.29435 3.04201"/>
		<path fill="none" stroke="#7F7F7F" stroke-width="0.024306819" stroke-miterlimit="4" transform="matrix(41.1407 0 0 41.1407 760.469 896.45)" d="M-2.28222 2.94557L-2.28218 3.07057"/>
		<path fill="#7F7F7F" transform="matrix(41.1407 0 0 41.1407 760.469 896.45)" d="M-10.9068 1.90413L-10.9068 1.90413L-10.9311 1.90413L-10.9311 1.90413M-10.9068 1.92413L-10.9068 1.94413L-10.9311 1.94413L-10.9311 1.92413M-10.9068 1.96413L-10.9068 1.98413L-10.9311 1.98413L-10.9311 1.96413M-10.9068 2.00413L-10.9068 2.02413L-10.9311 2.02413L-10.9311 2.00413M-10.9068 2.04413L-10.9068 2.06413L-10.9311 2.06413L-10.9311 2.04413M-10.9068 2.08413L-10.9068 2.10413L-10.9311 2.10413L-10.9311 2.08413M-10.9068 2.12413L-10.9068 2.14413L-10.9311 2.14413L-10.9311 2.12413M-10.9068 2.16413L-10.9068 2.18413L-10.9311 2.18413L-10.9311 2.16413M-10.9068 2.20413L-10.9068 2.22413L-10.9311 2.22413L-10.9311 2.20413M-10.9068 2.24413L-10.9067 2.26413L-10.9311 2.26413L-10.9311 2.24413M-10.9067 2.28413L-10.9067 2.30413L-10.931 2.30413L-10.9311 2.28413M-10.9067 2.32413L-10.9067 2.34413L-10.931 2.34413L-10.931 2.32413M-10.9067 2.36413L-10.9067 2.38413L-10.931 2.38413L-10.931 2.36413M-10.9067 2.40413L-10.9067 2.42413L-10.931 2.42413L-10.931 2.40413M-10.9067 2.44413L-10.9067 2.46413L-10.931 2.46413L-10.931 2.44413M-10.9067 2.48413L-10.9067 2.50413L-10.931 2.50413L-10.931 2.48413M-10.9067 2.52413L-10.9067 2.54413L-10.931 2.54413L-10.931 2.52413M-10.9067 2.56413L-10.9067 2.58413L-10.931 2.58413L-10.931 2.56413M-10.9067 2.60413L-10.9067 2.62413L-10.931 2.62413L-10.931 2.60413M-10.9067 2.64413L-10.9067 2.66413L-10.931 2.66413L-10.931 2.64413M-10.9066 2.68413L-10.9066 2.70413L-10.9309 2.70413L-10.931 2.68413M-10.9066 2.72413L-10.9066 2.74413L-10.9309 2.74413L-10.9309 2.72413M-10.9066 2.76413L-10.9066 2.78413L-10.9309 2.78413L-10.9309 2.76413M-10.9066 2.80413L-10.9066 2.82413L-10.9309 2.82413L-10.9309 2.80413M-10.9066 2.84413L-10.9066 2.86413L-10.9309 2.86413L-10.9309 2.84413M-10.9066 2.88413L-10.9066 2.90413L-10.9309 2.90413L-10.9309 2.88413M-10.9066 2.92413L-10.9066 2.94413L-10.9309 2.94413L-10.9309 2.92413M-10.9066 2.96413L-10.9066 2.98413L-10.9309 2.98413L-10.9309 2.96413M-10.9066 3.00413L-10.9066 3.02413L-10.9309 3.02413L-10.9309 3.00413M-10.9066 3.04413L-10.9066 3.04768L-10.9309 3.04769L-10.9309 3.04413"/>
		<path fill="none" stroke="#7F7F7F" stroke-width="0.024306819" stroke-miterlimit="4" transform="matrix(41.1407 0 0 41.1407 760.469 896.45)" d="M-10.9187 2.94769L-10.9187 3.07269"/>
		<path fill="#7F7F7F" transform="matrix(41.1407 0 0 41.1407 760.469 896.45)" d="M-2.28219 3.04557L-2.33218 3.07058L-2.3322 3.02058L-2.28219 3.04557"/>
		<path fill="none" stroke="#7F7F7F" stroke-width="0.024306819" stroke-miterlimit="4" transform="matrix(41.1407 0 0 41.1407 760.469 896.45)" d="M-2.28219 3.04557L-2.33218 3.07058L-2.3322 3.02058L-2.28219 3.04557"/>
		<path fill="#7F7F7F" transform="matrix(41.1407 0 0 41.1407 760.469 896.45)" d="M-10.9187 3.04768L-10.8687 3.02267L-10.8687 3.07267L-10.9187 3.04768"/>
		<path fill="none" stroke="#7F7F7F" stroke-width="0.024306819" stroke-miterlimit="4" transform="matrix(41.1407 0 0 41.1407 760.469 896.45)" d="M-10.9187 3.04768L-10.8687 3.02267L-10.8687 3.07267L-10.9187 3.04768"/>
		<text fill="#7F7F7F" transform="matrix(1 -0.000245425 0.000245425 1 480.908 1017.29)" font-size="8.2281437" font-family="Roboto" x="0, 4.6190338, 6.786087, 11.405121, " y="7, ">
				8.64
		</text>
		<path fill="none" stroke="#7F7F7F" stroke-width="0.024306819" stroke-miterlimit="4" transform="matrix(41.1407 -0.0100969 0.0100969 41.1407 488.921 1021.79)" d=""/>
		<path fill="none" stroke="#7F7F7F" stroke-width="0.024306819" stroke-miterlimit="4" transform="matrix(41.1407 0 0 41.1407 760.469 896.45)" d="M-2.28219 3.04557L-6.30847 3.04655M-6.89243 3.0467L-10.9187 3.04768"/>
		<path fill="#7F7F7F" transform="matrix(41.1407 0 0 41.1407 760.469 896.45)" d="M10.9329 1.89877L10.9329 1.89877L10.9086 1.89877L10.9086 1.89877M10.9329 1.91877L10.9329 1.93877L10.9086 1.93877L10.9086 1.91877M10.9329 1.95877L10.9329 1.97877L10.9086 1.97877L10.9086 1.95877M10.9329 1.99877L10.9329 2.01877L10.9086 2.01877L10.9086 1.99877M10.9329 2.03877L10.9329 2.05877L10.9086 2.05877L10.9086 2.03877M10.9329 2.07877L10.9329 2.09877L10.9086 2.09877L10.9086 2.07877M10.9329 2.11877L10.9329 2.13877L10.9086 2.13877L10.9086 2.11877M10.9329 2.15877L10.9329 2.17877L10.9086 2.17877L10.9086 2.15877M10.9329 2.19877L10.9329 2.21877L10.9086 2.21877L10.9086 2.19877M10.9329 2.23877L10.933 2.25877L10.9086 2.25877L10.9086 2.23877M10.933 2.27877L10.933 2.29877L10.9087 2.29877L10.9086 2.27877M10.933 2.31877L10.933 2.33877L10.9087 2.33877L10.9087 2.31877M10.933 2.35877L10.933 2.37877L10.9087 2.37877L10.9087 2.35877M10.933 2.39877L10.933 2.41877L10.9087 2.41877L10.9087 2.39877M10.933 2.43877L10.933 2.45877L10.9087 2.45877L10.9087 2.43877M10.933 2.47877L10.933 2.49877L10.9087 2.49877L10.9087 2.47877M10.933 2.51877L10.933 2.53877L10.9087 2.53877L10.9087 2.51877M10.933 2.55877L10.933 2.57877L10.9087 2.57877L10.9087 2.55877M10.933 2.59877L10.933 2.61877L10.9087 2.61877L10.9087 2.59877M10.933 2.63877L10.9331 2.65877L10.9087 2.65877L10.9087 2.63877M10.9331 2.67877L10.9331 2.69877L10.9088 2.69877L10.9087 2.67877M10.9331 2.71877L10.9331 2.73877L10.9088 2.73877L10.9088 2.71877M10.9331 2.75877L10.9331 2.77877L10.9088 2.77877L10.9088 2.75877M10.9331 2.79877L10.9331 2.81877L10.9088 2.81877L10.9088 2.79877M10.9331 2.83877L10.9331 2.85877L10.9088 2.85877L10.9088 2.83877M10.9331 2.87877L10.9331 2.89877L10.9088 2.89877L10.9088 2.87877M10.9331 2.91877L10.9331 2.93877L10.9088 2.93877L10.9088 2.91877M10.9331 2.95877L10.9331 2.97877L10.9088 2.97877L10.9088 2.95877M10.9331 2.99877L10.9331 3.01877L10.9088 3.01877L10.9088 2.99877M10.9331 3.03877L10.9331 3.05877L10.9088 3.05877L10.9088 3.03877M10.9332 3.07877L10.9332 3.09877L10.9089 3.09877L10.9088 3.07877M10.9332 3.11877L10.9332 3.13877L10.9089 3.13877L10.9089 3.11877M10.9332 3.15877L10.9332 3.17877L10.9089 3.17877L10.9089 3.15877M10.9332 3.19877L10.9332 3.21877L10.9089 3.21877L10.9089 3.19877M10.9332 3.23877L10.9332 3.25877L10.9089 3.25877L10.9089 3.23877M10.9332 3.27877L10.9332 3.29877L10.9089 3.29877L10.9089 3.27877M10.9332 3.31877L10.9332 3.33877L10.9089 3.33877L10.9089 3.31877M10.9332 3.35877L10.9332 3.37877L10.9089 3.37877L10.9089 3.35877M10.9332 3.39877L10.9332 3.41232L10.9089 3.41233L10.9089 3.39877"/>
		<path fill="none" stroke="#7F7F7F" stroke-width="0.024306819" stroke-miterlimit="4" transform="matrix(41.1407 0 0 41.1407 760.469 896.45)" d="M10.9211 3.31233L10.9211 3.43733"/>
		<path fill="#7F7F7F" transform="matrix(41.1407 0 0 41.1407 760.469 896.45)" d="M-10.9068 1.90413L-10.9068 1.90413L-10.9311 1.90413L-10.9311 1.90413M-10.9068 1.92413L-10.9068 1.94413L-10.9311 1.94413L-10.9311 1.92413M-10.9068 1.96413L-10.9068 1.98413L-10.9311 1.98413L-10.9311 1.96413M-10.9068 2.00413L-10.9068 2.02413L-10.9311 2.02413L-10.9311 2.00413M-10.9068 2.04413L-10.9068 2.06413L-10.9311 2.06413L-10.9311 2.04413M-10.9068 2.08413L-10.9068 2.10413L-10.9311 2.10413L-10.9311 2.08413M-10.9068 2.12413L-10.9068 2.14413L-10.9311 2.14413L-10.9311 2.12413M-10.9068 2.16413L-10.9068 2.18413L-10.9311 2.18413L-10.9311 2.16413M-10.9068 2.20413L-10.9068 2.22413L-10.9311 2.22413L-10.9311 2.20413M-10.9068 2.24413L-10.9067 2.26413L-10.9311 2.26413L-10.9311 2.24413M-10.9067 2.28413L-10.9067 2.30413L-10.931 2.30413L-10.9311 2.28413M-10.9067 2.32413L-10.9067 2.34413L-10.931 2.34413L-10.931 2.32413M-10.9067 2.36413L-10.9067 2.38413L-10.931 2.38413L-10.931 2.36413M-10.9067 2.40413L-10.9067 2.42413L-10.931 2.42413L-10.931 2.40413M-10.9067 2.44413L-10.9067 2.46413L-10.931 2.46413L-10.931 2.44413M-10.9067 2.48413L-10.9067 2.50413L-10.931 2.50413L-10.931 2.48413M-10.9067 2.52413L-10.9067 2.54413L-10.931 2.54413L-10.931 2.52413M-10.9067 2.56413L-10.9067 2.58413L-10.931 2.58413L-10.931 2.56413M-10.9067 2.60413L-10.9067 2.62413L-10.931 2.62413L-10.931 2.60413M-10.9067 2.64413L-10.9066 2.66413L-10.931 2.66413L-10.931 2.64413M-10.9066 2.68413L-10.9066 2.70413L-10.9309 2.70413L-10.931 2.68413M-10.9066 2.72413L-10.9066 2.74413L-10.9309 2.74413L-10.9309 2.72413M-10.9066 2.76413L-10.9066 2.78413L-10.9309 2.78413L-10.9309 2.76413M-10.9066 2.80413L-10.9066 2.82413L-10.9309 2.82413L-10.9309 2.80413M-10.9066 2.84413L-10.9066 2.86413L-10.9309 2.86413L-10.9309 2.84413M-10.9066 2.88413L-10.9066 2.90413L-10.9309 2.90413L-10.9309 2.88413M-10.9066 2.92413L-10.9066 2.94413L-10.9309 2.94413L-10.9309 2.92413M-10.9066 2.96413L-10.9066 2.98413L-10.9309 2.98413L-10.9309 2.96413M-10.9066 3.00413L-10.9066 3.02413L-10.9309 3.02413L-10.9309 3.00413M-10.9066 3.04413L-10.9066 3.06413L-10.9309 3.06413L-10.9309 3.04413M-10.9065 3.08413L-10.9065 3.10413L-10.9308 3.10413L-10.9309 3.08413M-10.9065 3.12413L-10.9065 3.14413L-10.9308 3.14413L-10.9308 3.12413M-10.9065 3.16413L-10.9065 3.18413L-10.9308 3.18413L-10.9308 3.16413M-10.9065 3.20413L-10.9065 3.22413L-10.9308 3.22413L-10.9308 3.20413M-10.9065 3.24413L-10.9065 3.26413L-10.9308 3.26413L-10.9308 3.24413M-10.9065 3.28413L-10.9065 3.30413L-10.9308 3.30413L-10.9308 3.28413M-10.9065 3.32413L-10.9065 3.34413L-10.9308 3.34413L-10.9308 3.32413M-10.9065 3.36413L-10.9065 3.38413L-10.9308 3.38413L-10.9308 3.36413M-10.9065 3.40413L-10.9065 3.41768L-10.9308 3.41769L-10.9308 3.40413"/>
		<path fill="none" stroke="#7F7F7F" stroke-width="0.024306819" stroke-miterlimit="4" transform="matrix(41.1407 0 0 41.1407 760.469 896.45)" d="M-10.9186 3.31768L-10.9186 3.44268"/>
		<path fill="#7F7F7F" transform="matrix(41.1407 0 0 41.1407 760.469 896.45)" d="M10.9211 3.41232L10.8711 3.43734L10.8711 3.38734L10.9211 3.41232"/>
		<path fill="none" stroke="#7F7F7F" stroke-width="0.024306819" stroke-miterlimit="4" transform="matrix(41.1407 0 0 41.1407 760.469 896.45)" d="M10.9211 3.41232L10.8711 3.43734L10.8711 3.38734L10.9211 3.41232"/>
		<path fill="#7F7F7F" transform="matrix(41.1407 0 0 41.1407 760.469 896.45)" d="M-10.9186 3.41769L-10.8686 3.39267L-10.8686 3.44267L-10.9186 3.41769"/>
		<path fill="none" stroke="#7F7F7F" stroke-width="0.024306819" stroke-miterlimit="4" transform="matrix(41.1407 0 0 41.1407 760.469 896.45)" d="M-10.9186 3.41769L-10.8686 3.39267L-10.8686 3.44267L-10.9186 3.41769"/>
		<text fill="#7F7F7F" transform="matrix(1 -0.000245425 0.000245425 1 750.197 1032.45)" font-size="8.2281437" font-family="Roboto" x="0, 4.6190338, 9.2380676, 11.405121, 16.024155, " y="7, ">
				21.84
		</text>
		<path fill="none" stroke="#7F7F7F" stroke-width="0.024306819" stroke-miterlimit="4" transform="matrix(41.1407 -0.0100969 0.0100969 41.1407 760.519 1036.95)" d=""/>
		<path fill="none" stroke="#7F7F7F" stroke-width="0.024306819" stroke-miterlimit="4" transform="matrix(41.1407 0 0 41.1407 760.469 896.45)" d="M10.9211 3.41232L0.349344 3.41492M-0.346881 3.41509L-10.9186 3.41769"/>
		<path fill="#7F7F7F" transform="matrix(41.1407 0 0 41.1407 760.469 896.45)" d="M-10.919 1.91628L-10.919 1.91628L-10.919 1.89198L-10.919 1.89198M-10.939 1.91629L-10.959 1.9163L-10.959 1.89199L-10.939 1.89198M-10.979 1.91631L-10.999 1.91632L-10.999 1.89201L-10.979 1.892M-11.019 1.91632L-11.039 1.91633L-11.039 1.89203L-11.019 1.89202M-11.059 1.91634L-11.079 1.91635L-11.079 1.89204L-11.059 1.89203M-11.099 1.91636L-11.119 1.91636L-11.119 1.89206L-11.099 1.89205M-11.139 1.91637L-11.159 1.91638L-11.159 1.89207L-11.139 1.89207M-11.179 1.91639L-11.199 1.9164L-11.199 1.89209L-11.179 1.89208M-11.219 1.9164L-11.239 1.91641L-11.239 1.89211L-11.219 1.8921M-11.259 1.91642L-11.279 1.91643L-11.279 1.89212L-11.259 1.89211"/>
		<path fill="none" stroke="#7F7F7F" stroke-width="0.024306819" stroke-miterlimit="4" transform="matrix(41.1407 0 0 41.1407 760.469 896.45)" d="M-11.189 1.90424L-11.314 1.90429"/>
		<path fill="#7F7F7F" transform="matrix(41.1407 0 0 41.1407 760.469 896.45)" d="M-10.9205 -1.88377L-10.9205 -1.88377L-10.9205 -1.90807L-10.9205 -1.90807M-10.9405 -1.88376L-10.9605 -1.88375L-10.9605 -1.90806L-10.9405 -1.90807M-10.9805 -1.88374L-11.0005 -1.88373L-11.0005 -1.90804L-10.9805 -1.90805M-11.0205 -1.88373L-11.0405 -1.88372L-11.0405 -1.90802L-11.0205 -1.90803M-11.0605 -1.88371L-11.0805 -1.8837L-11.0805 -1.90801L-11.0605 -1.90802M-11.1005 -1.88369L-11.1205 -1.88369L-11.1205 -1.90799L-11.1005 -1.908M-11.1405 -1.88368L-11.1605 -1.88367L-11.1605 -1.90798L-11.1405 -1.90798M-11.1805 -1.88366L-11.2005 -1.88365L-11.2005 -1.90796L-11.1805 -1.90797M-11.2205 -1.88365L-11.2405 -1.88364L-11.2405 -1.90794L-11.2205 -1.90795M-11.2605 -1.88363L-11.2805 -1.88362L-11.2805 -1.90793L-11.2605 -1.90794"/>
		<path fill="none" stroke="#7F7F7F" stroke-width="0.024306819" stroke-miterlimit="4" transform="matrix(41.1407 0 0 41.1407 760.469 896.45)" d="M-11.1905 -1.89581L-11.3155 -1.89576"/>
		<path fill="#7F7F7F" transform="matrix(41.1407 0 0 41.1407 760.469 896.45)" d="M-11.289 1.90428L-11.314 1.85429L-11.264 1.85427L-11.289 1.90428"/>
		<path fill="none" stroke="#7F7F7F" stroke-width="0.024306819" stroke-miterlimit="4" transform="matrix(41.1407 0 0 41.1407 760.469 896.45)" d="M-11.289 1.90428L-11.314 1.85429L-11.264 1.85427L-11.289 1.90428"/>
		<path fill="#7F7F7F" transform="matrix(41.1407 0 0 41.1407 760.469 896.45)" d="M-11.2905 -1.89577L-11.2655 -1.84578L-11.3155 -1.84576L-11.2905 -1.89577"/>
		<path fill="none" stroke="#7F7F7F" stroke-width="0.024306819" stroke-miterlimit="4" transform="matrix(41.1407 0 0 41.1407 760.469 896.45)" d="M-11.2905 -1.89577L-11.2655 -1.84578L-11.3155 -1.84576L-11.2905 -1.89577"/>
		<text fill="#7F7F7F" transform="matrix(-0.000405236 -1 1 -0.000405236 291.503 904.639)" font-size="8.2281437" font-family="Roboto" x="0, 4.6190338, 6.786087, 11.405121, " y="7, ">
				3.80
		</text>
		<path fill="none" stroke="#7F7F7F" stroke-width="0.024306819" stroke-miterlimit="4" transform="matrix(-0.0166717 -41.1407 41.1407 -0.0166717 296 896.625)" d=""/>
		<path fill="none" stroke="#7F7F7F" stroke-width="0.024306819" stroke-miterlimit="4" transform="matrix(41.1407 0 0 41.1407 760.469 896.45)" d="M-11.289 1.90428L-11.2896 0.29623M-11.2899 -0.28772L-11.2905 -1.89577"/>
		<path fill="#7F7F7F" transform="matrix(41.1407 0 0 41.1407 760.469 896.45)" d="M-10.9327 -1.89591L-10.9327 -1.89591L-10.9084 -1.89593L-10.9084 -1.89593M-10.9327 -1.91591L-10.9327 -1.93591L-10.9084 -1.93593L-10.9084 -1.91593M-10.9327 -1.95591L-10.9327 -1.97591L-10.9084 -1.97593L-10.9084 -1.95593M-10.9328 -1.99591L-10.9328 -2.01591L-10.9085 -2.01593L-10.9084 -1.99593M-10.9328 -2.03591L-10.9328 -2.05591L-10.9085 -2.05593L-10.9085 -2.03593M-10.9328 -2.07591L-10.9328 -2.09591L-10.9085 -2.09593L-10.9085 -2.07593M-10.9328 -2.11591L-10.9329 -2.13591L-10.9085 -2.13593L-10.9085 -2.11593M-10.9329 -2.15591L-10.9329 -2.17591L-10.9086 -2.17593L-10.9086 -2.15593M-10.9329 -2.19591L-10.9329 -2.21591L-10.9086 -2.21593L-10.9086 -2.19593M-10.9329 -2.23591L-10.9329 -2.25591L-10.9086 -2.25593L-10.9086 -2.23593"/>
		<path fill="none" stroke="#7F7F7F" stroke-width="0.024306819" stroke-miterlimit="4" transform="matrix(41.1407 0 0 41.1407 760.469 896.45)" d="M-10.9207 -2.16592L-10.9208 -2.29092"/>
		<path fill="#7F7F7F" transform="matrix(41.1407 0 0 41.1407 760.469 896.45)" d="M10.9072 -1.91142L10.9072 -1.91142L10.9316 -1.91144L10.9316 -1.91144M10.9072 -1.93142L10.9072 -1.95142L10.9315 -1.95144L10.9315 -1.93144M10.9072 -1.97142L10.9072 -1.99142L10.9315 -1.99144L10.9315 -1.97144M10.9072 -2.01142L10.9072 -2.03142L10.9315 -2.03144L10.9315 -2.01144M10.9071 -2.05142L10.9071 -2.07142L10.9314 -2.07144L10.9315 -2.05144M10.9071 -2.09142L10.9071 -2.11142L10.9314 -2.11144L10.9314 -2.09144M10.9071 -2.13142L10.9071 -2.15142L10.9314 -2.15144L10.9314 -2.13144M10.9071 -2.17142L10.907 -2.19142L10.9314 -2.19144L10.9314 -2.17144M10.907 -2.21142L10.907 -2.23142L10.9313 -2.23144L10.9313 -2.21144M10.907 -2.25142L10.907 -2.27142L10.9313 -2.27144L10.9313 -2.25144"/>
		<path fill="none" stroke="#7F7F7F" stroke-width="0.024306819" stroke-miterlimit="4" transform="matrix(41.1407 0 0 41.1407 760.469 896.45)" d="M10.9192 -2.18143L10.9191 -2.30643"/>
		<path fill="#7F7F7F" transform="matrix(41.1407 0 0 41.1407 760.469 896.45)" d="M-10.9208 -2.26592L-10.8708 -2.29096L-10.8708 -2.24096L-10.9208 -2.26592"/>
		<path fill="none" stroke="#7F7F7F" stroke-width="0.024306819" stroke-miterlimit="4" transform="matrix(41.1407 0 0 41.1407 760.469 896.45)" d="M-10.9208 -2.26592L-10.8708 -2.29096L-10.8708 -2.24096L-10.9208 -2.26592"/>
		<path fill="#7F7F7F" transform="matrix(41.1407 0 0 41.1407 760.469 896.45)" d="M10.9191 -2.28143L10.8692 -2.25639L10.8691 -2.30639L10.9191 -2.28143"/>
		<path fill="none" stroke="#7F7F7F" stroke-width="0.024306819" stroke-miterlimit="4" transform="matrix(41.1407 0 0 41.1407 760.469 896.45)" d="M10.9191 -2.28143L10.8692 -2.25639L10.8691 -2.30639L10.9191 -2.28143"/>
		<text fill="#7F7F7F" transform="matrix(1 -0.000710167 0.000710167 1 750.11 798.416)" font-size="8.2281437" font-family="Roboto" x="0, 4.6190338, 9.2380676, 11.405121, 16.024155, " y="7, ">
				21.84
		</text>
		<path fill="none" stroke="#7F7F7F" stroke-width="0.024306819" stroke-miterlimit="4" transform="matrix(41.1407 -0.0292168 0.0292168 41.1407 760.435 802.909)" d=""/>
		<path fill="none" stroke="#7F7F7F" stroke-width="0.024306819" stroke-miterlimit="4" transform="matrix(41.1407 0 0 41.1407 760.469 896.45)" d="M-10.9208 -2.26592L-0.34894 -2.27343M0.347285 -2.27392L10.9191 -2.28143"/>
		<path fill="#7F7F7F" transform="matrix(41.1407 0 0 41.1407 760.469 896.45)" d="M10.9194 -1.92358L10.9194 -1.92358L10.9194 -1.89928L10.9194 -1.89928M10.9394 -1.92359L10.9594 -1.9236L10.9594 -1.89929L10.9394 -1.89928M10.9794 -1.9236L10.9994 -1.92361L10.9994 -1.8993L10.9794 -1.8993M11.0194 -1.92362L11.0394 -1.92362L11.0394 -1.89932L11.0194 -1.89931M11.0594 -1.92363L11.0794 -1.92364L11.0794 -1.89933L11.0594 -1.89932M11.0994 -1.92365L11.1194 -1.92365L11.1194 -1.89935L11.0994 -1.89934M11.1394 -1.92366L11.1594 -1.92367L11.1594 -1.89936L11.1394 -1.89935M11.1794 -1.92367L11.1994 -1.92368L11.1994 -1.89937L11.1794 -1.89937M11.2194 -1.92369L11.2394 -1.92369L11.2394 -1.89939L11.2194 -1.89938M11.2594 -1.9237L11.2794 -1.92371L11.2794 -1.8994L11.2594 -1.89939"/>
		<path fill="none" stroke="#7F7F7F" stroke-width="0.024306819" stroke-miterlimit="4" transform="matrix(41.1407 0 0 41.1407 760.469 896.45)" d="M11.1894 -1.91152L11.3144 -1.91157"/>
		<path fill="#7F7F7F" transform="matrix(41.1407 0 0 41.1407 760.469 896.45)" d="M10.9207 1.88662L10.9207 1.88662L10.9207 1.91092L10.9207 1.91092M10.9407 1.88661L10.9607 1.8866L10.9607 1.91091L10.9407 1.91092M10.9807 1.8866L11.0007 1.88659L11.0007 1.9109L10.9807 1.9109M11.0207 1.88658L11.0407 1.88658L11.0407 1.91088L11.0207 1.91089M11.0607 1.88657L11.0807 1.88656L11.0807 1.91087L11.0607 1.91088M11.1007 1.88655L11.1207 1.88655L11.1207 1.91085L11.1007 1.91086M11.1407 1.88654L11.1607 1.88653L11.1607 1.91084L11.1407 1.91085M11.1807 1.88653L11.2007 1.88652L11.2007 1.91083L11.1807 1.91083M11.2207 1.88651L11.2407 1.88651L11.2407 1.91081L11.2207 1.91082M11.2607 1.8865L11.2807 1.88649L11.2807 1.9108L11.2607 1.91081"/>
		<path fill="none" stroke="#7F7F7F" stroke-width="0.024306819" stroke-miterlimit="4" transform="matrix(41.1407 0 0 41.1407 760.469 896.45)" d="M11.1907 1.89868L11.3157 1.89863"/>
		<path fill="#7F7F7F" transform="matrix(41.1407 0 0 41.1407 760.469 896.45)" d="M11.2894 -1.91156L11.3144 -1.86157L11.2644 -1.86155L11.2894 -1.91156"/>
		<path fill="none" stroke="#7F7F7F" stroke-width="0.024306819" stroke-miterlimit="4" transform="matrix(41.1407 0 0 41.1407 760.469 896.45)" d="M11.2894 -1.91156L11.3144 -1.86157L11.2644 -1.86155L11.2894 -1.91156"/>
		<path fill="#7F7F7F" transform="matrix(41.1407 0 0 41.1407 760.469 896.45)" d="M11.2907 1.89864L11.2657 1.84865L11.3157 1.84863L11.2907 1.89864"/>
		<path fill="none" stroke="#7F7F7F" stroke-width="0.024306819" stroke-miterlimit="4" transform="matrix(41.1407 0 0 41.1407 760.469 896.45)" d="M11.2907 1.89864L11.2657 1.84865L11.3157 1.84863L11.2907 1.89864"/>
		<text fill="#7F7F7F" transform="matrix(-0.000343843 -1 1 -0.000343843 1220.45 904.198)" font-size="8.2281437" font-family="Roboto" x="0, 4.6190338, 6.786087, 11.405121, " y="7, ">
				3.81
		</text>
		<path fill="none" stroke="#7F7F7F" stroke-width="0.024306819" stroke-miterlimit="4" transform="matrix(-0.014146 -41.1407 41.1407 -0.014146 1224.95 896.184)" d=""/>
		<path fill="none" stroke="#7F7F7F" stroke-width="0.024306819" stroke-miterlimit="4" transform="matrix(41.1407 0 0 41.1407 760.469 896.45)" d="M11.2894 -1.91156L11.29 -0.298433M11.2902 0.285518L11.2907 1.89864"/>
		<path transform="matrix(41.1407 0 0 41.1407 760.469 896.45)" d="M11.0413 2.01901L1.4893 2.02201L2.6373 2.02101L2.6373 1.90101L10.9213 1.89901L10.9203 -1.91099L-10.9197 -1.89499L-10.9187 1.90501L-2.2817 1.90301L-2.2817 2.02301L-11.0387 2.02501L-11.0397 -2.01499L11.0403 -2.03099L11.0413 2.01901M-0.2867 1.90201L0.7103 1.90201L0.7103 2.02201L-0.2867 2.02201L-0.2867 1.90201"/>
		<path fill="#EFEFEF" transform="matrix(41.1407 0 0 41.1407 760.469 896.45)" d="M10.9213 1.89901L2.6373 1.90101L2.6373 2.02601L0.7103 2.02701L0.7103 1.90201L-0.2867 1.90201L-0.2867 2.02701L-2.2817 2.02801L-2.2817 1.90301L-10.9187 1.90501L-10.9197 -1.89499L10.9203 -1.91099L10.9213 1.89901"/>
		<path fill="none" stroke="black" stroke-width="0.010000001" stroke-miterlimit="4" transform="matrix(41.1407 -0.0100896 -0.0100896 -41.1407 789.667 1016.78)" d="M1.92711 0.963555C1.92711 0.64237 1.92711 0.321185 1.92711 0C1.39475 0 0.963555 0.431191 0.963555 0.963555C0.963555 0.431191 0.532364 0 0 0C0 0.321185 0 0.64237 0 0.963555"/>
		<path fill="white" transform="matrix(-41.1407 0.0100896 0.0100896 41.1407 748.641 974.68)" d="M0 0C0.66499 0 1.32998 0 1.99497 0C1.99497 0.04 1.99497 0.08 1.99497 0.12C1.32998 0.12 0.66499 0.12 0 0.12C0 0.08 0 0.04 0 0L0 0Z"/>
		<path fill="white" transform="matrix(-41.1407 0.0100896 0.0100896 41.1407 748.641 974.68)" d="M0 0C0.66499 0 1.32998 0 1.99497 0"/>
		<path fill="none" stroke="black" stroke-width="0.0099999998" stroke-miterlimit="4" transform="matrix(-41.1407 0.0100896 0.0100896 41.1407 748.641 974.68)" d="M0 0C0.66499 0 1.32998 0 1.99497 0"/>
		<path fill="white" transform="matrix(-41.1407 0.0100896 0.0100896 41.1407 748.641 974.68)" d="M1.99497 0.12C1.32998 0.12 0.66499 0.12 0 0.12"/>
		<path fill="none" stroke="black" stroke-width="0.0099999998" stroke-miterlimit="4" transform="matrix(-41.1407 0.0100896 0.0100896 41.1407 748.641 974.68)" d="M1.99497 0.12C1.32998 0.12 0.66499 0.12 0 0.12"/>
		<path fill="none" stroke="black" stroke-width="0.0099999998" stroke-miterlimit="4" transform="matrix(-41.1407 0.0100896 0.0100896 41.1407 748.641 974.68)" d="M0 0.04C0.332495 0.04 0.66499 0.04 0.997485 0.04"/>
		<path fill="none" stroke="black" stroke-width="0.0099999998" stroke-miterlimit="4" transform="matrix(-41.1407 0.0100896 0.0100896 41.1407 748.641 974.68)" d="M0.997485 0.08C1.32998 0.08 1.66247 0.08 1.99497 0.08"/>
		<path fill="white" transform="matrix(-41.1407 0.0100896 0.0100896 41.1407 748.641 974.68)" d="M0.08 0.12C0.0533333 0.12 0.0266667 0.12 0 0.12C0 0.08 0 0.04 0 0C0.0266667 0 0.0533333 0 0.08 0"/>
		<path fill="none" stroke="black" stroke-width="0.0099999998" stroke-miterlimit="4" transform="matrix(-41.1407 0.0100896 0.0100896 41.1407 748.641 974.68)" d="M0.08 0.12C0.0533333 0.12 0.0266667 0.12 0 0.12C0 0.08 0 0.04 0 0C0.0266667 0 0.0533333 0 0.08 0"/>
		<path fill="none" stroke="black" stroke-width="0.039999999" stroke-miterlimit="4" transform="matrix(-41.1407 0.0100896 0.0100896 41.1407 748.641 974.68)" d="M0 0.04C0.0266667 0.04 0.0533333 0.04 0.08 0.04"/>
		<path fill="none" stroke="black" stroke-width="0.039999999" stroke-miterlimit="4" transform="matrix(-41.1407 0.0100896 0.0100896 41.1407 709.249 974.689)" d="M0 0.08C0.0266667 0.08 0.0533333 0.08 0.08 0.08"/>
		<path fill="none" stroke="black" stroke-width="0.039999999" stroke-miterlimit="4" transform="matrix(-41.1407 0.0100896 0.0100896 41.1407 709.249 974.689)" d="M0 0.04C0.0266667 0.04 0.0533333 0.04 0.08 0.04"/>
		<path fill="white" transform="matrix(-41.1407 0.0100896 0.0100896 41.1407 669.858 974.699)" d="M0 0C0.0266667 0 0.0533333 0 0.08 0C0.08 0.04 0.08 0.08 0.08 0.12C0.0533333 0.12 0.0266667 0.12 0 0.12"/>
		<path fill="none" stroke="black" stroke-width="0.0099999998" stroke-miterlimit="4" transform="matrix(-41.1407 0.0100896 0.0100896 41.1407 669.858 974.699)" d="M0 0C0.0266667 0 0.0533333 0 0.08 0C0.08 0.04 0.08 0.08 0.08 0.12C0.0533333 0.12 0.0266667 0.12 0 0.12"/>
		<path fill="none" stroke="black" stroke-width="0.039999999" stroke-miterlimit="4" transform="matrix(-41.1407 0.0100896 0.0100896 41.1407 669.858 974.699)" d="M0 0.08C0.0266667 0.08 0.0533333 0.08 0.08 0.08"/>
	</g>
	<text font-size="13" font-family="Roboto" x="51.023621, 58.780457, 68.054382, 71.590027, 79.308777, 82.533386, 89.718933, 96.3078, 105.25165, 114.1955, 122.20624, 125.43085, 133.63202, 140.75409, 149.23456, 158.50848, 161.73309, 165.26874, 172.98749, 176.2121, 184.41327, 192.42401, 201.22821, 209.50555, 213.0412, 221.57245, 228.96112, 237.49237, 240.71698, 252.25067, 255.60223, 263.35907, 272.633, 281.57684, 290.00653, 297.50946, 300.73407, 311.99481, 320.47528, 328.48602, 336.49677, 344.97723, 354.06708, 361.92548, 369.73309, 372.9577, 381.90155, 389.0871, 392.31171, 400.79218, 409.88837, 417.69598, 420.92059, 429.07733, 432.61298, 441.8869, 449.77069, 453.19843, 456.42303, 464.14178, 471.53046, 480.80438, 488.52313, 497.46698, 505.66815, 509.31805, 517.79852, 521.02313, 529.55438, 533.09003, 540.80878, 549.2702, 556.39227, 564.87274, 568.40839, 579.758, 587.47675, 590.70135, 599.18182, 608.27802, 616.08563, 619.31024, 630.57098, 639.05145, 647.06219, 655.07294, 663.55341, 672.64325, 680.50165, 688.30927, 691.53387, 695.06952, 704.34344, 712.80487, 719.46356, 727.89325, 736.4245, 739.96014, 749.23407, 758.08905, 760.64716, 763.87177, 775.40546, 778.75702, 786.51385, 795.78778, 804.73163, 813.16132, 820.66425, 823.88885, 830.89032, 834.42596, 845.77557, 849.12714, 856.38251, 864.04413, 871.80096, 875.33661, 884.28046, 893.55438, 896.11249, 899.3371, 907.05585, 914.71747, 922.4743, 926.00995, 933.7287, 939.83514, 948.24579, 956.52313, 964.10223, 973.04608, 980.75214, 988.55975, 991.78436, 1000.7282, 1009.0182, 1017.4987, 1024.5002, 1027.8518, 1035.7102, 1043.5178, 1046.7424, 1055.6863, 1063.697, 1066.9216, 1075.3323, 1083.7937, 1092.2551, 1100.6848, 1108.6956, 1117.1062, 1125.5676, 1133.3752, 1136.5999, 1145.5437, " y="1850.9763, ">
			THIS FLOOR PLAN IS PROVIDED WITHOUT WARRANTY OF ANY KIND. SENSOPIA DISCLAIMS ANY WARRANTY INCLUDING, WITHOUT LIMITATION, SATISFACTORY QUALITY OR ACCURACY OF
	</text>
	<text font-size="13" font-family="Roboto" x="51.023682, 59.554932, 63.090576, 74.440186, 81.828857, 91.102783, 98.821533, 102.35718, 111.30103, 120.57495, 128.2937, " y="1865.9763, ">
			DIMENSIONS.
	</text>
</svg>
