<?xml version="1.0" encoding="utf-8" ?>
<svg xmlns="http://www.w3.org/2000/svg" xmlns:xlink="http://www.w3.org/1999/xlink" width="1280" height="1920">
	<rect fill="white" width="1280" height="1920"/>
	<clipPath id="cl_2f">
		<rect x="42.519684" y="42.519684" width="226.77164" height="226.77164"/>
	</clipPath>
	<g clip-path="url(#cl_2f)">
		<path transform="matrix(2.70354 0 0 2.70354 227.407 213.99)" d="M7.258 -5.545L7.63 -5.545L7.629 -5.295L7.008 -5.295L7.008 -15.864L7.258 -16.268L7.258 -5.545M9.098 -5.295L8.848 -5.295L8.848 -5.555L8.846 -15.15L9.096 -15.15L9.098 -5.295M-15.592 -5.658L-14.196 -5.658L-14.196 -5.408L-15.842 -5.408L-15.842 -5.451L-15.713 -5.693L-15.712 -5.693L-15.712 -5.695L-15.708 -5.702L-15.712 -5.704L-15.712 -6.71L-15.592 -6.71L-15.592 -5.658M-10.718 -5.409L-12.043 -5.409L-12.044 -5.659L-10.718 -5.659L-10.718 -5.409M-3.938 -5.411L-8.565 -5.41L-8.565 -5.66L-3.938 -5.661L-3.938 -5.411M0.361 -5.833L0.352 -5.819L0.361 -5.813L0.486 -5.736L0.486 -5.412L-1.785 -5.411L-1.785 -5.661L0.236 -5.662L0.236 -6.914L0.359 -6.914L0.361 -5.833M-15.715 -26.105L-8.75 -26.105L-8.751 -29.76L-15.715 -29.758L-15.715 -29.891L-16.903 -29.889L-16.903 -30.008L-8.619 -30.01L-8.62 -33.82L-30.46 -33.804L-30.459 -30.004L-21.822 -30.006L-21.822 -29.883L-21.893 -29.883L-21.893 -28.748L-22.017 -28.748L-22.017 -29.878L-30.446 -29.889L-30.442 -13.572L-22.016 -13.588L-22.016 -14.708L-21.899 -14.708L-21.9 -13.461L-30.232 -13.457L-30.249 -13.466L-30.326 -13.323L-30.692 -13.322L-30.705 -13.322L-30.709 -29.754L-30.71 -34.054L-30.71 -34.076L-8.752 -34.092L-8.462 -34.092L-8.462 -33.83L-8.502 -33.83L-8.497 -10.323L-8.618 -10.323L-8.62 -25.855L-15.594 -25.855L-15.594 -9.734L-9.381 -9.734L-9.381 -9.614L-15.593 -9.613L-15.593 -8.843L-15.712 -8.843L-15.715 -26.105M0.355 -9.042L0.236 -9.041L0.236 -9.606L-6.927 -9.604L-6.928 -22.45L0.331 -22.45L0.355 -9.042M-6.808 -22.331L-6.807 -9.724L0.226 -9.726L0.216 -22.333L-6.808 -22.331M-43.698 -14.005L-46.114 -14.005L-46.114 -14.255L-43.698 -14.255L-43.698 -14.005M-47.155 -14.255L-47.155 -14.005L-56.553 -14.006L-56.553 -14.256L-47.155 -14.255M-63.434 -16.005L-64.858 -16.005L-64.858 -14.257L-57.843 -14.256L-57.843 -14.006L-65.108 -14.007L-65.108 -16.254L-63.684 -16.254L-63.684 -19.085L-66.137 -19.087L-66.137 -20.105L-68.134 -20.102L-68.135 -20.606L-67.884 -20.606L-67.884 -20.352L-65.887 -20.355L-65.887 -19.337L-63.564 -19.335L-63.434 -19.335L-63.434 -16.005M-63.555 -20.391L-61.943 -20.39L-61.944 -23.963L-65.89 -23.96L-65.888 -21.98L-67.887 -21.976L-67.885 -20.906L-68.135 -20.906L-68.137 -22.226L-66.138 -22.229L-66.14 -24.21L-61.695 -24.213L-61.691 -16.254L-43.698 -16.256L-43.698 -15.595L-43.948 -15.595L-43.948 -16.006L-61.949 -16.004L-61.95 -20.27L-63.424 -20.271L-63.424 -20.35L-63.555 -20.35L-63.555 -20.391M14.931 -18.688L15.182 -18.688L15.182 -18.036L9.095 -18.036L9.096 -15.795L8.846 -15.795L8.845 -18.286L14.931 -18.286L14.931 -18.688M-21.899 -16.639L-22.016 -16.639L-22.016 -17.892L-21.898 -17.892L-21.899 -16.639M7.258 -16.711L7.141 -16.783L7.138 -23.155L7.257 -23.155L7.258 -16.711M-21.898 -19.027L-22.016 -19.027L-22.016 -19.074L-21.898 -19.074L-21.898 -19.027M11.816 -19.836L11.816 -19.956L11.865 -19.956L11.865 -21.491L14.932 -21.491L14.932 -22.401L15.182 -22.401L15.182 -19.767L14.931 -19.768L14.931 -19.836L14.889 -19.836L14.889 -19.956L14.932 -19.956L14.932 -21.371L11.985 -21.371L11.985 -19.956L12.831 -19.956L12.831 -19.836L11.816 -19.836M8.965 -19.836L8.965 -19.828L8.845 -19.828L8.844 -23.522L14.93 -23.522L14.93 -26.89L12.222 -26.89L12.221 -27.973L8.843 -27.973L8.841 -37.424L8.809 -37.424L8.809 -37.674L9.091 -37.674L9.093 -28.223L12.471 -28.223L12.472 -27.14L15.182 -27.14L15.182 -23.237L14.932 -23.237L14.932 -23.403L8.965 -23.402L8.964 -19.956L11.037 -19.956L11.037 -19.836L8.965 -19.836M14.246 -19.836L13.508 -19.836L13.508 -19.956L14.246 -19.956L14.246 -19.836M-21.897 -20.712L-22.016 -20.712L-22.017 -22.717L-21.896 -22.717L-21.897 -20.712M0.191 -33.848L-6.811 -33.843L-6.807 -23.518L0.199 -23.521L0.197 -26.231L0.317 -26.231L0.317 -26.232L0.324 -26.232L0.329 -23.39L0.206 -23.39L0.206 -23.4L-6.928 -23.4L-6.929 -33.83L-7.021 -33.83L-7.021 -34.092L0.441 -34.098L0.468 -34.098L0.468 -33.858L0.31 -33.858L0.313 -32.426L0.192 -32.426L0.191 -33.848M7.257 -23.857L7.138 -23.857L7.138 -23.982L7.257 -23.982L7.257 -23.857M8.964 -24.338L8.844 -24.338L8.843 -27.573L8.964 -27.573L8.964 -24.338M-22.017 -27.253L-21.894 -27.253L-21.895 -24.669L-22.017 -24.669L-22.017 -27.253M7.309 -37.424L7.257 -37.424L7.257 -25.834L7.137 -25.834L7.133 -33.865L7.007 -33.865L7.007 -37.674L7.309 -37.674L7.309 -37.424M0.194 -29.977L0.317 -29.977L0.321 -27.841L0.196 -27.841L0.194 -29.977M-18.83 -30.007L-18.83 -29.887L-19.827 -29.886L-19.827 -30.007L-18.83 -30.007M0.193 -30.933L0.313 -30.933L0.313 -30.934L0.315 -30.934L0.316 -30.723L0.193 -30.723L0.193 -30.933"/>
		<path transform="matrix(2.70354 0 0 2.70354 227.407 213.99)" d="M-15.652 -5.593L-15.741 -5.64L-15.713 -5.693L-15.712 -5.693L-15.712 -5.695L-15.708 -5.702L-15.712 -5.704L-15.712 -6.71L-15.652 -6.71L-15.652 -5.593M0.361 -5.833L0.352 -5.819L0.361 -5.813L0.412 -5.782L0.301 -5.603L0.299 -6.914L0.359 -6.914L0.361 -5.833M-15.653 -8.843L-15.712 -8.843L-15.715 -29.891L-16.903 -29.889L-16.903 -29.949L-15.656 -29.951L-15.653 -8.843M0.355 -9.042L0.295 -9.041L0.271 -22.45L0.331 -22.45L0.355 -9.042M-21.9 -13.461L-30.232 -13.457L-30.249 -13.466L-30.282 -13.404L-30.493 -13.517L-21.96 -13.521L-21.959 -14.708L-21.899 -14.708L-21.9 -13.461M-21.899 -16.639L-21.959 -16.639L-21.958 -17.892L-21.898 -17.892L-21.899 -16.639M7.201 -16.766L7.192 -16.752L7.141 -16.783L7.138 -23.155L7.198 -23.155L7.201 -16.766M-21.898 -19.027L-21.958 -19.027L-21.958 -19.074L-21.898 -19.074L-21.898 -19.027M-21.897 -20.712L-21.957 -20.712L-21.956 -22.717L-21.896 -22.717L-21.897 -20.712M0.264 -26.231L0.317 -26.231L0.317 -26.232L0.324 -26.232L0.329 -23.39L0.269 -23.39L0.264 -26.231M7.198 -23.857L7.138 -23.857L7.138 -23.982L7.198 -23.982L7.198 -23.857M-21.954 -27.253L-21.894 -27.253L-21.895 -24.669L-21.955 -24.669L-21.954 -27.253M7.197 -25.834L7.137 -25.834L7.133 -33.865L6.066 -33.864L6.066 -33.924L7.193 -33.925L7.197 -25.834M0.257 -29.977L0.317 -29.977L0.321 -27.841L0.261 -27.841L0.257 -29.977M-21.953 -29.943L-21.822 -29.943L-21.822 -29.883L-21.893 -29.883L-21.893 -28.748L-21.954 -28.748L-21.953 -29.943M-18.83 -29.887L-19.827 -29.886L-19.827 -29.946L-18.83 -29.947L-18.83 -29.887M0.255 -30.933L0.313 -30.933L0.313 -30.934L0.315 -30.934L0.316 -30.723L0.256 -30.723L0.255 -30.933M0.25 -33.918L1.356 -33.919L1.356 -33.859L0.31 -33.858L0.313 -32.426L0.253 -32.426L0.25 -33.918M4.31 -33.862L3.095 -33.861L3.095 -33.921L4.31 -33.922L4.31 -33.862"/>
		<path fill="#000019" fill-opacity="0.06666667" transform="matrix(2.70354 0 0 2.70354 227.407 213.99)" d="M8.809 -37.424L8.841 -37.424L8.843 -27.973L12.221 -27.973L12.222 -26.89L14.93 -26.89L14.93 -23.522L8.844 -23.522L8.845 -19.828L8.965 -19.828L8.965 -19.836L11.037 -19.836L11.037 -19.956L8.964 -19.956L8.965 -23.402L14.932 -23.403L14.932 -23.237L15.057 -23.237L15.057 -22.401L14.932 -22.401L14.932 -21.491L11.865 -21.491L11.865 -19.956L11.816 -19.956L11.816 -19.836L12.831 -19.836L12.831 -19.956L11.985 -19.956L11.985 -21.371L14.932 -21.371L14.932 -19.956L14.889 -19.956L14.889 -19.836L14.931 -19.836L14.931 -19.768L15.056 -19.768L15.056 -18.688L14.931 -18.688L14.931 -18.286L8.845 -18.286L8.846 -15.795L8.971 -15.795L8.971 -15.15L8.846 -15.15L8.848 -5.55L8.848 -5.42L7.63 -5.42L7.63 -5.545L7.258 -5.545L7.257 -23.155L7.133 -23.155L7.133 -23.857L7.257 -23.857L7.257 -23.982L7.133 -23.982L7.132 -24.403L7.132 -25.834L7.257 -25.834L7.257 -37.424L7.309 -37.424L7.309 -37.549L8.809 -37.549L8.809 -37.424M-7.021 -33.83L-6.929 -33.83L-6.928 -23.4L0.206 -23.4L0.206 -23.39L0.334 -23.39L0.336 -22.45L-6.928 -22.45L-6.927 -9.604L0.236 -9.606L0.236 -9.041L0.36 -9.042L0.364 -6.914L0.236 -6.914L0.236 -5.662L-1.785 -5.661L-1.785 -5.536L-3.938 -5.536L-3.938 -5.661L-8.565 -5.66L-8.565 -5.535L-10.718 -5.534L-10.718 -5.659L-12.044 -5.659L-12.044 -5.534L-14.196 -5.533L-14.196 -5.658L-15.592 -5.658L-15.592 -6.71L-15.717 -6.71L-15.718 -8.843L-15.593 -8.843L-15.593 -9.613L-8.497 -9.614L-8.502 -33.83L-8.462 -33.83L-8.462 -33.955L-7.021 -33.955L-7.021 -33.83M0.226 -9.726L-6.807 -9.724L-6.808 -22.331L0.216 -22.333L0.226 -9.726M-8.618 -9.734L-15.594 -9.734L-15.594 -25.855L-8.62 -25.855L-8.618 -9.734M-22.017 -29.878L-22.017 -28.748L-21.889 -28.748L-21.89 -27.253L-22.017 -27.253L-22.017 -24.669L-21.891 -24.669L-21.891 -22.717L-22.017 -22.717L-22.016 -20.712L-21.892 -20.712L-21.893 -19.074L-22.016 -19.074L-22.016 -19.027L-21.893 -19.027L-21.893 -17.892L-22.016 -17.892L-22.016 -16.639L-21.894 -16.639L-21.894 -14.708L-22.016 -14.708L-22.016 -13.588L-30.442 -13.572L-30.446 -29.889L-22.017 -29.878M-61.943 -20.39L-63.555 -20.391L-63.555 -20.35L-63.429 -20.35L-63.429 -20.271L-61.95 -20.27L-61.949 -16.004L-43.948 -16.006L-43.948 -15.595L-43.823 -15.595L-43.823 -14.255L-46.114 -14.255L-46.114 -14.13L-47.155 -14.13L-47.155 -14.255L-56.553 -14.256L-56.553 -14.131L-57.843 -14.131L-57.843 -14.256L-64.858 -14.257L-64.858 -16.005L-63.434 -16.005L-63.434 -19.335L-63.559 -19.335L-65.887 -19.337L-65.887 -20.355L-67.884 -20.352L-67.884 -20.606L-68.009 -20.606L-68.01 -20.906L-67.885 -20.906L-67.887 -21.976L-65.888 -21.98L-65.89 -23.96L-61.944 -23.963L-61.943 -20.39M13.508 -19.956L13.508 -19.836L14.246 -19.836L14.246 -19.956L13.508 -19.956M0.192 -32.426L0.318 -32.426L0.321 -30.934L0.193 -30.933L0.193 -30.723L0.321 -30.723L0.322 -29.977L0.194 -29.977L0.196 -27.841L0.326 -27.841L0.329 -26.232L0.197 -26.231L0.199 -23.521L-6.807 -23.518L-6.811 -33.843L0.191 -33.848L0.192 -32.426M8.843 -27.573L8.844 -24.338L8.964 -24.338L8.964 -27.573L8.843 -27.573M-8.619 -30.01L-16.903 -30.008L-16.903 -29.884L-18.83 -29.882L-18.83 -30.007L-19.827 -30.007L-19.827 -29.88L-21.822 -29.878L-21.822 -30.006L-30.459 -30.004L-30.46 -33.804L-8.62 -33.82L-8.619 -30.01"/>
		<path fill="#000019" fill-opacity="0.06666667" transform="matrix(2.70354 0 0 2.70354 227.407 213.99)" d="M-7.881 -8.823L-9.381 -8.823L-9.381 -10.323L-7.881 -10.323L-7.881 -8.823"/>
		<clipPath id="cl_30">
			<rect x="202.0453" y="186.08173" width="4.0553131" height="4.0553131"/>
		</clipPath>
		<g clip-path="url(#cl_30)">
			<path fill="none" stroke="#7F7F7F" stroke-width="0.55482715" stroke-miterlimit="4" transform="matrix(2.70354 0 0 2.70354 227.407 213.99)" d="M-9.381 -7.36392L-6.42192 -10.323"/>
		</g>
		<path fill="white" fill-opacity="0.80000001" d="M42.5197 42.5197L269.291 42.5197L269.291 269.291L42.5197 269.291L42.5197 42.5197Z"/>
		<path transform="matrix(2.70354 0 0 2.70354 194.676 165.881)" d="M3.60864 8.181L-3.60736 8.181L-3.60736 -8.18L3.60664 -8.18L3.60864 8.181M-3.48736 -8.06L-3.48736 8.061L3.48864 8.061L3.48664 -8.06L-3.48736 -8.06"/>
		<path fill="#EFEFEF" transform="matrix(2.70354 0 0 2.70354 194.676 165.881)" d="M3.48864 8.061L-3.48736 8.061L-3.48736 -8.06L3.48664 -8.06L3.48864 8.061"/>
	</g>
	<clipPath id="cl_31">
		<rect x="283.46457" y="42.519684" width="954.01575" height="1754.6063"/>
	</clipPath>
	<g clip-path="url(#cl_31)">
		<path fill="#7F7F7F" transform="matrix(101.382 0 0 101.382 760.472 919.823)" d="M3.4859 -8.06528L3.4859 -8.06528L3.4859 -8.05542L3.4859 -8.05542M3.5059 -8.06528L3.5259 -8.06529L3.5259 -8.05542L3.5059 -8.05542M3.5459 -8.06529L3.5659 -8.06529L3.5659 -8.05543L3.5459 -8.05543M3.5859 -8.06529L3.6059 -8.0653L3.6059 -8.05543L3.5859 -8.05543M3.6259 -8.0653L3.6459 -8.0653L3.6459 -8.05544L3.6259 -8.05544M3.6659 -8.0653L3.6859 -8.06531L3.6859 -8.05544L3.6659 -8.05544M3.7059 -8.06531L3.7259 -8.06531L3.7259 -8.05545L3.7059 -8.05545M3.7459 -8.06531L3.7659 -8.06532L3.7659 -8.05545L3.7459 -8.05545M3.7859 -8.06532L3.8059 -8.06532L3.8059 -8.05546L3.7859 -8.05546M3.8259 -8.06532L3.8459 -8.06533L3.8459 -8.05546L3.8259 -8.05546"/>
		<path fill="none" stroke="#7F7F7F" stroke-width="0.0098636365" stroke-miterlimit="4" transform="matrix(101.382 0 0 101.382 760.472 919.823)" d="M3.7559 -8.06038L3.8809 -8.0604"/>
		<path fill="#7F7F7F" transform="matrix(101.382 0 0 101.382 760.472 919.823)" d="M3.48794 8.05556L3.48794 8.05556L3.48794 8.06542L3.48794 8.06542M3.50794 8.05556L3.52794 8.05555L3.52794 8.06542L3.50794 8.06542M3.54794 8.05555L3.56794 8.05555L3.56794 8.06541L3.54794 8.06541M3.58794 8.05555L3.60794 8.05554L3.60794 8.06541L3.58794 8.06541M3.62794 8.05554L3.64794 8.05554L3.64794 8.0654L3.62794 8.0654M3.66794 8.05554L3.68794 8.05553L3.68794 8.0654L3.66794 8.0654M3.70794 8.05553L3.72794 8.05553L3.72794 8.06539L3.70794 8.06539M3.74794 8.05553L3.76794 8.05552L3.76794 8.06539L3.74794 8.06539M3.78794 8.05552L3.80794 8.05552L3.80794 8.06538L3.78794 8.06538M3.82794 8.05552L3.84794 8.05551L3.84794 8.06538L3.82794 8.06538"/>
		<path fill="none" stroke="#7F7F7F" stroke-width="0.0098636365" stroke-miterlimit="4" transform="matrix(101.382 0 0 101.382 760.472 919.823)" d="M3.75794 8.06046L3.88294 8.06044"/>
		<path fill="#7F7F7F" transform="matrix(101.382 0 0 101.382 760.472 919.823)" d="M3.8559 -8.0604L3.88091 -8.0104L3.83091 -8.01039L3.8559 -8.0604"/>
		<path fill="none" stroke="#7F7F7F" stroke-width="0.0098636365" stroke-miterlimit="4" transform="matrix(101.382 0 0 101.382 760.472 919.823)" d="M3.8559 -8.0604L3.88091 -8.0104L3.83091 -8.01039L3.8559 -8.0604"/>
		<path fill="#7F7F7F" transform="matrix(101.382 0 0 101.382 760.472 919.823)" d="M3.85794 8.06044L3.83293 8.01045L3.88293 8.01044L3.85794 8.06044"/>
		<path fill="none" stroke="#7F7F7F" stroke-width="0.0098636365" stroke-miterlimit="4" transform="matrix(101.382 0 0 101.382 760.472 919.823)" d="M3.85794 8.06044L3.83293 8.01045L3.88293 8.01044L3.85794 8.06044"/>
		<text fill="#7F7F7F" transform="matrix(0 -1 1 0 1144.5 934.896)" font-size="12" font-family="Roboto" x="0, 6.7441406, 13.488281, 16.652344, 23.396484, " y="11, ">
				16.12
		</text>
		<path fill="none" stroke="#7F7F7F" stroke-width="0.0098636365" stroke-miterlimit="4" transform="matrix(0 -101.382 101.382 0 1151.5 919.825)" d=""/>
		<path fill="none" stroke="#7F7F7F" stroke-width="0.0098636365" stroke-miterlimit="4" transform="matrix(101.382 0 0 101.382 760.472 919.823)" d="M3.8559 -8.0604L3.8569 -0.188079M3.85694 0.188126L3.85794 8.06044"/>
		<path fill="#7F7F7F" transform="matrix(101.382 0 0 101.382 760.472 919.823)" d="M3.49287 8.06049L3.49287 8.06049L3.48301 8.06049L3.48301 8.06049M3.49287 8.08049L3.49287 8.10049L3.48301 8.10049L3.48301 8.08049M3.49288 8.12049L3.49288 8.14049L3.48301 8.14049L3.48301 8.12049M3.49288 8.16049L3.49288 8.18049L3.48301 8.18049L3.48301 8.16049M3.49288 8.20049L3.49288 8.22049L3.48302 8.22049L3.48302 8.20049M3.49288 8.24049L3.49288 8.26049L3.48302 8.26049L3.48302 8.24049M3.49288 8.28049L3.49288 8.30049L3.48302 8.30049L3.48302 8.28049M3.49289 8.32049L3.49289 8.34049L3.48302 8.34049L3.48302 8.32049M3.49289 8.36049L3.49289 8.38049L3.48302 8.38049L3.48302 8.36049M3.49289 8.40049L3.49289 8.42049L3.48303 8.42049L3.48303 8.40049"/>
		<path fill="none" stroke="#7F7F7F" stroke-width="0.0098636365" stroke-miterlimit="4" transform="matrix(101.382 0 0 101.382 760.472 919.823)" d="M3.48795 8.33049L3.48796 8.45549"/>
		<path fill="#7F7F7F" transform="matrix(101.382 0 0 101.382 760.472 919.823)" d="M-3.48249 8.06085L-3.48249 8.06085L-3.49235 8.06085L-3.49235 8.06085M-3.48249 8.08085L-3.48249 8.10085L-3.49235 8.10085L-3.49235 8.08085M-3.48249 8.12085L-3.48248 8.14085L-3.49235 8.14085L-3.49235 8.12085M-3.48248 8.16085L-3.48248 8.18085L-3.49235 8.18085L-3.49235 8.16085M-3.48248 8.20085L-3.48248 8.22085L-3.49234 8.22085L-3.49234 8.20085M-3.48248 8.24085L-3.48248 8.26085L-3.49234 8.26085L-3.49234 8.24085M-3.48248 8.28085L-3.48248 8.30085L-3.49234 8.30085L-3.49234 8.28085M-3.48247 8.32085L-3.48247 8.34085L-3.49234 8.34085L-3.49234 8.32085M-3.48247 8.36085L-3.48247 8.38085L-3.49234 8.38085L-3.49234 8.36085M-3.48247 8.40085L-3.48247 8.42085L-3.49233 8.42085L-3.49233 8.40085"/>
		<path fill="none" stroke="#7F7F7F" stroke-width="0.0098636365" stroke-miterlimit="4" transform="matrix(101.382 0 0 101.382 760.472 919.823)" d="M-3.48741 8.33085L-3.4874 8.45585"/>
		<path fill="#7F7F7F" transform="matrix(101.382 0 0 101.382 760.472 919.823)" d="M3.48796 8.43049L3.43796 8.45549L3.43796 8.40549L3.48796 8.43049"/>
		<path fill="none" stroke="#7F7F7F" stroke-width="0.0098636365" stroke-miterlimit="4" transform="matrix(101.382 0 0 101.382 760.472 919.823)" d="M3.48796 8.43049L3.43796 8.45549L3.43796 8.40549L3.48796 8.43049"/>
		<path fill="#7F7F7F" transform="matrix(101.382 0 0 101.382 760.472 919.823)" d="M-3.4874 8.43085L-3.4374 8.40585L-3.4374 8.45585L-3.4874 8.43085"/>
		<path fill="none" stroke="#7F7F7F" stroke-width="0.0098636365" stroke-miterlimit="4" transform="matrix(101.382 0 0 101.382 760.472 919.823)" d="M-3.4874 8.43085L-3.4374 8.40585L-3.4374 8.45585L-3.4874 8.43085"/>
		<text fill="#7F7F7F" transform="translate(748.802 1767.55)" font-size="12" font-family="Roboto" x="0, 6.7441406, 9.9082031, 16.652344, " y="11, ">
				6.98
		</text>
		<path fill="none" stroke="#7F7F7F" stroke-width="0.0098636365" stroke-miterlimit="4" transform="matrix(101.382 0 0 101.382 760.501 1774.55)" d=""/>
		<path fill="none" stroke="#7F7F7F" stroke-width="0.0098636365" stroke-miterlimit="4" transform="matrix(101.382 0 0 101.382 760.472 919.823)" d="M3.48796 8.43049L0.155121 8.43066M-0.154563 8.43068L-3.4874 8.43085"/>
		<path fill="#7F7F7F" transform="matrix(101.382 0 0 101.382 760.472 919.823)" d="M-3.48742 8.06578L-3.48742 8.06578L-3.48742 8.05592L-3.48742 8.05592M-3.50742 8.06578L-3.52742 8.06578L-3.52742 8.05592L-3.50742 8.05592M-3.54742 8.06578L-3.56742 8.06578L-3.56742 8.05592L-3.54742 8.05592M-3.58742 8.06578L-3.60742 8.06579L-3.60742 8.05592L-3.58742 8.05592M-3.62742 8.06579L-3.64742 8.06579L-3.64742 8.05592L-3.62742 8.05592M-3.66742 8.06579L-3.68742 8.06579L-3.68742 8.05592L-3.66742 8.05592M-3.70742 8.06579L-3.72742 8.06579L-3.72742 8.05593L-3.70742 8.05593M-3.74742 8.06579L-3.76742 8.06579L-3.76742 8.05593L-3.74742 8.05593M-3.78742 8.06579L-3.80742 8.06579L-3.80742 8.05593L-3.78742 8.05593M-3.82742 8.06579L-3.84742 8.06579L-3.84742 8.05593L-3.82742 8.05593"/>
		<path fill="none" stroke="#7F7F7F" stroke-width="0.0098636365" stroke-miterlimit="4" transform="matrix(101.382 0 0 101.382 760.472 919.823)" d="M-3.75742 8.06086L-3.88242 8.06086"/>
		<path fill="#7F7F7F" transform="matrix(101.382 0 0 101.382 760.472 919.823)" d="M-3.48794 -8.05592L-3.48794 -8.05592L-3.48794 -8.06578L-3.48794 -8.06578M-3.50794 -8.05592L-3.52794 -8.05592L-3.52794 -8.06578L-3.50794 -8.06578M-3.54794 -8.05592L-3.56794 -8.05592L-3.56794 -8.06578L-3.54794 -8.06578M-3.58794 -8.05591L-3.60794 -8.05591L-3.60794 -8.06578L-3.58794 -8.06578M-3.62794 -8.05591L-3.64794 -8.05591L-3.64794 -8.06578L-3.62794 -8.06578M-3.66794 -8.05591L-3.68794 -8.05591L-3.68794 -8.06577L-3.66794 -8.06578M-3.70794 -8.05591L-3.72794 -8.05591L-3.72794 -8.06577L-3.70794 -8.06577M-3.74794 -8.05591L-3.76794 -8.05591L-3.76794 -8.06577L-3.74794 -8.06577M-3.78794 -8.05591L-3.80794 -8.05591L-3.80794 -8.06577L-3.78794 -8.06577M-3.82794 -8.05591L-3.84794 -8.05591L-3.84794 -8.06577L-3.82794 -8.06577"/>
		<path fill="none" stroke="#7F7F7F" stroke-width="0.0098636365" stroke-miterlimit="4" transform="matrix(101.382 0 0 101.382 760.472 919.823)" d="M-3.75794 -8.06084L-3.88294 -8.06084"/>
		<path fill="#7F7F7F" transform="matrix(101.382 0 0 101.382 760.472 919.823)" d="M-3.85742 8.06086L-3.88242 8.01086L-3.83242 8.01086L-3.85742 8.06086"/>
		<path fill="none" stroke="#7F7F7F" stroke-width="0.0098636365" stroke-miterlimit="4" transform="matrix(101.382 0 0 101.382 760.472 919.823)" d="M-3.85742 8.06086L-3.88242 8.01086L-3.83242 8.01086L-3.85742 8.06086"/>
		<path fill="#7F7F7F" transform="matrix(101.382 0 0 101.382 760.472 919.823)" d="M-3.85794 -8.06084L-3.83294 -8.01084L-3.88294 -8.01084L-3.85794 -8.06084"/>
		<path fill="none" stroke="#7F7F7F" stroke-width="0.0098636365" stroke-miterlimit="4" transform="matrix(101.382 0 0 101.382 760.472 919.823)" d="M-3.85794 -8.06084L-3.83294 -8.01084L-3.88294 -8.01084L-3.85794 -8.06084"/>
		<text fill="#7F7F7F" transform="matrix(0 -1 1 0 362.371 934.894)" font-size="12" font-family="Roboto" x="0, 6.7441406, 13.488281, 16.652344, 23.396484, " y="11, ">
				16.12
		</text>
		<path fill="none" stroke="#7F7F7F" stroke-width="0.0098636365" stroke-miterlimit="4" transform="matrix(0 -101.382 101.382 0 369.371 919.824)" d=""/>
		<path fill="none" stroke="#7F7F7F" stroke-width="0.0098636365" stroke-miterlimit="4" transform="matrix(101.382 0 0 101.382 760.472 919.823)" d="M-3.85742 8.06086L-3.85767 0.188115M-3.85769 -0.188091L-3.85794 -8.06084"/>
		<path fill="#7F7F7F" transform="matrix(101.382 0 0 101.382 760.472 919.823)" d="M-3.49287 -8.06085L-3.49287 -8.06085L-3.48301 -8.06085L-3.48301 -8.06085M-3.49287 -8.08085L-3.49287 -8.10085L-3.48301 -8.10085L-3.48301 -8.08085M-3.49287 -8.12085L-3.49287 -8.14085L-3.483 -8.14085L-3.483 -8.12085M-3.49286 -8.16085L-3.49286 -8.18085L-3.483 -8.18085L-3.483 -8.16085M-3.49286 -8.20085L-3.49286 -8.22085L-3.483 -8.22085L-3.483 -8.20085M-3.49286 -8.24085L-3.49286 -8.26085L-3.48299 -8.26085L-3.483 -8.24085M-3.49286 -8.28085L-3.49285 -8.30085L-3.48299 -8.30085L-3.48299 -8.28085M-3.49285 -8.32085L-3.49285 -8.34085L-3.48299 -8.34085L-3.48299 -8.32085M-3.49285 -8.36085L-3.49285 -8.38085L-3.48299 -8.38085L-3.48299 -8.36085M-3.49285 -8.40085L-3.49285 -8.42085L-3.48298 -8.42085L-3.48298 -8.40085"/>
		<path fill="none" stroke="#7F7F7F" stroke-width="0.0098636365" stroke-miterlimit="4" transform="matrix(101.382 0 0 101.382 760.472 919.823)" d="M-3.48792 -8.33085L-3.48791 -8.45585"/>
		<path fill="#7F7F7F" transform="matrix(101.382 0 0 101.382 760.472 919.823)" d="M3.48097 -8.06035L3.48097 -8.06035L3.49083 -8.06035L3.49083 -8.06035M3.48097 -8.08035L3.48097 -8.10035L3.49083 -8.10035L3.49083 -8.08035M3.48097 -8.12035L3.48097 -8.14035L3.49084 -8.14035L3.49084 -8.12035M3.48098 -8.16035L3.48098 -8.18035L3.49084 -8.18035L3.49084 -8.16035M3.48098 -8.20035L3.48098 -8.22035L3.49084 -8.22035L3.49084 -8.20035M3.48098 -8.24035L3.48098 -8.26035L3.49085 -8.26035L3.49084 -8.24035M3.48098 -8.28035L3.48099 -8.30035L3.49085 -8.30035L3.49085 -8.28035M3.48099 -8.32035L3.48099 -8.34035L3.49085 -8.34035L3.49085 -8.32035M3.48099 -8.36035L3.48099 -8.38035L3.49085 -8.38035L3.49085 -8.36035M3.48099 -8.40035L3.48099 -8.42035L3.49086 -8.42035L3.49086 -8.40035"/>
		<path fill="none" stroke="#7F7F7F" stroke-width="0.0098636365" stroke-miterlimit="4" transform="matrix(101.382 0 0 101.382 760.472 919.823)" d="M3.48592 -8.33035L3.48593 -8.45535"/>
		<path fill="#7F7F7F" transform="matrix(101.382 0 0 101.382 760.472 919.823)" d="M-3.48791 -8.43085L-3.43791 -8.45585L-3.43792 -8.40585L-3.48791 -8.43085"/>
		<path fill="none" stroke="#7F7F7F" stroke-width="0.0098636365" stroke-miterlimit="4" transform="matrix(101.382 0 0 101.382 760.472 919.823)" d="M-3.48791 -8.43085L-3.43791 -8.45585L-3.43792 -8.40585L-3.48791 -8.43085"/>
		<path fill="#7F7F7F" transform="matrix(101.382 0 0 101.382 760.472 919.823)" d="M3.48593 -8.43035L3.43592 -8.40535L3.43593 -8.45535L3.48593 -8.43035"/>
		<path fill="none" stroke="#7F7F7F" stroke-width="0.0098636365" stroke-miterlimit="4" transform="matrix(101.382 0 0 101.382 760.472 919.823)" d="M3.48593 -8.43035L3.43592 -8.40535L3.43593 -8.45535L3.48593 -8.43035"/>
		<text fill="#7F7F7F" transform="translate(748.673 58.1075)" font-size="12" font-family="Roboto" x="0, 6.7441406, 9.9082031, 16.652344, " y="11, ">
				6.97
		</text>
		<path fill="none" stroke="#7F7F7F" stroke-width="0.0098636365" stroke-miterlimit="4" transform="matrix(101.382 0 0 101.382 760.372 65.1075)" d=""/>
		<path fill="none" stroke="#7F7F7F" stroke-width="0.0098636365" stroke-miterlimit="4" transform="matrix(101.382 0 0 101.382 760.472 919.823)" d="M-3.48791 -8.43085L-0.155835 -8.43061M0.153848 -8.43059L3.48593 -8.43035"/>
		<path transform="matrix(101.382 0 0 101.382 760.472 919.823)" d="M3.60864 8.181L-3.60736 8.181L-3.60736 -8.18L3.60664 -8.18L3.60864 8.181M-3.48736 -8.06L-3.48736 8.061L3.48864 8.061L3.48664 -8.06L-3.48736 -8.06"/>
		<path fill="#EFEFEF" transform="matrix(101.382 0 0 101.382 760.472 919.823)" d="M3.48864 8.061L-3.48736 8.061L-3.48736 -8.06L3.48664 -8.06L3.48864 8.061"/>
	</g>
	<text font-size="13" font-family="Roboto" x="51.023621, 58.780457, 68.054382, 71.590027, 79.308777, 82.533386, 89.718933, 96.3078, 105.25165, 114.1955, 122.20624, 125.43085, 133.63202, 140.75409, 149.23456, 158.50848, 161.73309, 165.26874, 172.98749, 176.2121, 184.41327, 192.42401, 201.22821, 209.50555, 213.0412, 221.57245, 228.96112, 237.49237, 240.71698, 252.25067, 255.60223, 263.35907, 272.633, 281.57684, 290.00653, 297.50946, 300.73407, 311.99481, 320.47528, 328.48602, 336.49677, 344.97723, 354.06708, 361.92548, 369.73309, 372.9577, 381.90155, 389.0871, 392.31171, 400.79218, 409.88837, 417.69598, 420.92059, 429.07733, 432.61298, 441.8869, 449.77069, 453.19843, 456.42303, 464.14178, 471.53046, 480.80438, 488.52313, 497.46698, 505.66815, 509.31805, 517.79852, 521.02313, 529.55438, 533.09003, 540.80878, 549.2702, 556.39227, 564.87274, 568.40839, 579.758, 587.47675, 590.70135, 599.18182, 608.27802, 616.08563, 619.31024, 630.57098, 639.05145, 647.06219, 655.07294, 663.55341, 672.64325, 680.50165, 688.30927, 691.53387, 695.06952, 704.34344, 712.80487, 719.46356, 727.89325, 736.4245, 739.96014, 749.23407, 758.08905, 760.64716, 763.87177, 775.40546, 778.75702, 786.51385, 795.78778, 804.73163, 813.16132, 820.66425, 823.88885, 830.89032, 834.42596, 845.77557, 849.12714, 856.38251, 864.04413, 871.80096, 875.33661, 884.28046, 893.55438, 896.11249, 899.3371, 907.05585, 914.71747, 922.4743, 926.00995, 933.7287, 939.83514, 948.24579, 956.52313, 964.10223, 973.04608, 980.75214, 988.55975, 991.78436, 1000.7282, 1009.0182, 1017.4987, 1024.5002, 1027.8518, 1035.7102, 1043.5178, 1046.7424, 1055.6863, 1063.697, 1066.9216, 1075.3323, 1083.7937, 1092.2551, 1100.6848, 1108.6956, 1117.1062, 1125.5676, 1133.3752, 1136.5999, 1145.5437, " y="1850.9763, ">
			THIS FLOOR PLAN IS PROVIDED WITHOUT WARRANTY OF ANY KIND. SENSOPIA DISCLAIMS ANY WARRANTY INCLUDING, WITHOUT LIMITATION, SATISFACTORY QUALITY OR ACCURACY OF
	</text>
	<text font-size="13" font-family="Roboto" x="51.023682, 59.554932, 63.090576, 74.440186, 81.828857, 91.102783, 98.821533, 102.35718, 111.30103, 120.57495, 128.2937, " y="1865.9763, ">
			DIMENSIONS.
	</text>
</svg>
