<?xml version="1.0" encoding="utf-8" ?>
<svg xmlns="http://www.w3.org/2000/svg" xmlns:xlink="http://www.w3.org/1999/xlink" width="1280" height="1920">
	<rect fill="white" width="1280" height="1920"/>
	<clipPath id="cl_14">
		<rect x="42.519684" y="42.519684" width="226.77164" height="226.77164"/>
	</clipPath>
	<g clip-path="url(#cl_14)">
		<path transform="matrix(2.70354 0 0 2.70354 227.407 213.99)" d="M7.258 -5.545L7.63 -5.545L7.629 -5.295L7.008 -5.295L7.008 -15.864L7.258 -16.268L7.258 -5.545M9.098 -5.295L8.848 -5.295L8.848 -5.555L8.846 -15.15L9.096 -15.15L9.098 -5.295M-15.592 -5.658L-14.196 -5.658L-14.196 -5.408L-15.842 -5.408L-15.842 -5.451L-15.713 -5.693L-15.712 -5.693L-15.712 -5.695L-15.708 -5.702L-15.712 -5.704L-15.712 -6.71L-15.592 -6.71L-15.592 -5.658M-10.718 -5.409L-12.043 -5.409L-12.044 -5.659L-10.718 -5.659L-10.718 -5.409M-3.938 -5.411L-8.565 -5.41L-8.565 -5.66L-3.938 -5.661L-3.938 -5.411M0.361 -5.833L0.352 -5.819L0.361 -5.813L0.486 -5.736L0.486 -5.412L-1.785 -5.411L-1.785 -5.661L0.236 -5.662L0.236 -6.914L0.359 -6.914L0.361 -5.833M-15.715 -26.105L-8.75 -26.105L-8.751 -29.76L-15.715 -29.758L-15.715 -29.891L-16.903 -29.889L-16.903 -30.008L-8.619 -30.01L-8.62 -33.82L-30.46 -33.804L-30.459 -30.004L-21.822 -30.006L-21.822 -29.883L-21.893 -29.883L-21.893 -28.748L-22.017 -28.748L-22.017 -29.878L-30.446 -29.889L-30.442 -13.572L-22.016 -13.588L-22.016 -14.708L-21.899 -14.708L-21.9 -13.461L-30.232 -13.457L-30.249 -13.466L-30.326 -13.323L-30.692 -13.322L-30.705 -13.322L-30.709 -29.754L-30.71 -34.054L-30.71 -34.076L-8.752 -34.092L-8.462 -34.092L-8.462 -33.83L-8.502 -33.83L-8.497 -10.323L-8.618 -10.323L-8.62 -25.855L-15.594 -25.855L-15.594 -9.734L-9.381 -9.734L-9.381 -9.614L-15.593 -9.613L-15.593 -8.843L-15.712 -8.843L-15.715 -26.105M0.355 -9.042L0.236 -9.041L0.236 -9.606L-6.927 -9.604L-6.928 -22.45L0.331 -22.45L0.355 -9.042M-6.808 -22.331L-6.807 -9.724L0.226 -9.726L0.216 -22.333L-6.808 -22.331M-43.698 -14.005L-46.114 -14.005L-46.114 -14.255L-43.698 -14.255L-43.698 -14.005M-47.155 -14.255L-47.155 -14.005L-56.553 -14.006L-56.553 -14.256L-47.155 -14.255M-63.434 -16.005L-64.858 -16.005L-64.858 -14.257L-57.843 -14.256L-57.843 -14.006L-65.108 -14.007L-65.108 -16.254L-63.684 -16.254L-63.684 -19.085L-66.137 -19.087L-66.137 -20.105L-68.134 -20.102L-68.135 -20.606L-67.884 -20.606L-67.884 -20.352L-65.887 -20.355L-65.887 -19.337L-63.564 -19.335L-63.434 -19.335L-63.434 -16.005M-63.555 -20.391L-61.943 -20.39L-61.944 -23.963L-65.89 -23.96L-65.888 -21.98L-67.887 -21.976L-67.885 -20.906L-68.135 -20.906L-68.137 -22.226L-66.138 -22.229L-66.14 -24.21L-61.695 -24.213L-61.691 -16.254L-43.698 -16.256L-43.698 -15.595L-43.948 -15.595L-43.948 -16.006L-61.949 -16.004L-61.95 -20.27L-63.424 -20.271L-63.424 -20.35L-63.555 -20.35L-63.555 -20.391M14.931 -18.688L15.182 -18.688L15.182 -18.036L9.095 -18.036L9.096 -15.795L8.846 -15.795L8.845 -18.286L14.931 -18.286L14.931 -18.688M-21.899 -16.639L-22.016 -16.639L-22.016 -17.892L-21.898 -17.892L-21.899 -16.639M7.258 -16.711L7.141 -16.783L7.138 -23.155L7.257 -23.155L7.258 -16.711M-21.898 -19.027L-22.016 -19.027L-22.016 -19.074L-21.898 -19.074L-21.898 -19.027M11.816 -19.836L11.816 -19.956L11.865 -19.956L11.865 -21.491L14.932 -21.491L14.932 -22.401L15.182 -22.401L15.182 -19.767L14.931 -19.768L14.931 -19.836L14.889 -19.836L14.889 -19.956L14.932 -19.956L14.932 -21.371L11.985 -21.371L11.985 -19.956L12.831 -19.956L12.831 -19.836L11.816 -19.836M8.965 -19.836L8.965 -19.828L8.845 -19.828L8.844 -23.522L14.93 -23.522L14.93 -26.89L12.222 -26.89L12.221 -27.973L8.843 -27.973L8.841 -37.424L8.809 -37.424L8.809 -37.674L9.091 -37.674L9.093 -28.223L12.471 -28.223L12.472 -27.14L15.182 -27.14L15.182 -23.237L14.932 -23.237L14.932 -23.403L8.965 -23.402L8.964 -19.956L11.037 -19.956L11.037 -19.836L8.965 -19.836M14.246 -19.836L13.508 -19.836L13.508 -19.956L14.246 -19.956L14.246 -19.836M-21.897 -20.712L-22.016 -20.712L-22.017 -22.717L-21.896 -22.717L-21.897 -20.712M0.191 -33.848L-6.811 -33.843L-6.807 -23.518L0.199 -23.521L0.197 -26.231L0.317 -26.231L0.317 -26.232L0.324 -26.232L0.329 -23.39L0.206 -23.39L0.206 -23.4L-6.928 -23.4L-6.929 -33.83L-7.021 -33.83L-7.021 -34.092L0.441 -34.098L0.468 -34.098L0.468 -33.858L0.31 -33.858L0.313 -32.426L0.192 -32.426L0.191 -33.848M7.257 -23.857L7.138 -23.857L7.138 -23.982L7.257 -23.982L7.257 -23.857M8.964 -24.338L8.844 -24.338L8.843 -27.573L8.964 -27.573L8.964 -24.338M-22.017 -27.253L-21.894 -27.253L-21.895 -24.669L-22.017 -24.669L-22.017 -27.253M7.309 -37.424L7.257 -37.424L7.257 -25.834L7.137 -25.834L7.133 -33.865L7.007 -33.865L7.007 -37.674L7.309 -37.674L7.309 -37.424M0.194 -29.977L0.317 -29.977L0.321 -27.841L0.196 -27.841L0.194 -29.977M-18.83 -30.007L-18.83 -29.887L-19.827 -29.886L-19.827 -30.007L-18.83 -30.007M0.193 -30.933L0.313 -30.933L0.313 -30.934L0.315 -30.934L0.316 -30.723L0.193 -30.723L0.193 -30.933"/>
		<path transform="matrix(2.70354 0 0 2.70354 227.407 213.99)" d="M-15.652 -5.593L-15.741 -5.64L-15.713 -5.693L-15.712 -5.693L-15.712 -5.695L-15.708 -5.702L-15.712 -5.704L-15.712 -6.71L-15.652 -6.71L-15.652 -5.593M0.361 -5.833L0.352 -5.819L0.361 -5.813L0.412 -5.782L0.301 -5.603L0.299 -6.914L0.359 -6.914L0.361 -5.833M-15.653 -8.843L-15.712 -8.843L-15.715 -29.891L-16.903 -29.889L-16.903 -29.949L-15.656 -29.951L-15.653 -8.843M0.355 -9.042L0.295 -9.041L0.271 -22.45L0.331 -22.45L0.355 -9.042M-21.9 -13.461L-30.232 -13.457L-30.249 -13.466L-30.282 -13.404L-30.493 -13.517L-21.96 -13.521L-21.959 -14.708L-21.899 -14.708L-21.9 -13.461M-21.899 -16.639L-21.959 -16.639L-21.958 -17.892L-21.898 -17.892L-21.899 -16.639M7.201 -16.766L7.192 -16.752L7.141 -16.783L7.138 -23.155L7.198 -23.155L7.201 -16.766M-21.898 -19.027L-21.958 -19.027L-21.958 -19.074L-21.898 -19.074L-21.898 -19.027M-21.897 -20.712L-21.957 -20.712L-21.956 -22.717L-21.896 -22.717L-21.897 -20.712M0.264 -26.231L0.317 -26.231L0.317 -26.232L0.324 -26.232L0.329 -23.39L0.269 -23.39L0.264 -26.231M7.198 -23.857L7.138 -23.857L7.138 -23.982L7.198 -23.982L7.198 -23.857M-21.954 -27.253L-21.894 -27.253L-21.895 -24.669L-21.955 -24.669L-21.954 -27.253M7.197 -25.834L7.137 -25.834L7.133 -33.865L6.066 -33.864L6.066 -33.924L7.193 -33.925L7.197 -25.834M0.257 -29.977L0.317 -29.977L0.321 -27.841L0.261 -27.841L0.257 -29.977M-21.953 -29.943L-21.822 -29.943L-21.822 -29.883L-21.893 -29.883L-21.893 -28.748L-21.954 -28.748L-21.953 -29.943M-18.83 -29.887L-19.827 -29.886L-19.827 -29.946L-18.83 -29.947L-18.83 -29.887M0.255 -30.933L0.313 -30.933L0.313 -30.934L0.315 -30.934L0.316 -30.723L0.256 -30.723L0.255 -30.933M0.25 -33.918L1.356 -33.919L1.356 -33.859L0.31 -33.858L0.313 -32.426L0.253 -32.426L0.25 -33.918M4.31 -33.862L3.095 -33.861L3.095 -33.921L4.31 -33.922L4.31 -33.862"/>
		<path fill="#000019" fill-opacity="0.06666667" transform="matrix(2.70354 0 0 2.70354 227.407 213.99)" d="M8.809 -37.424L8.841 -37.424L8.843 -27.973L12.221 -27.973L12.222 -26.89L14.93 -26.89L14.93 -23.522L8.844 -23.522L8.845 -19.828L8.965 -19.828L8.965 -19.836L11.037 -19.836L11.037 -19.956L8.964 -19.956L8.965 -23.402L14.932 -23.403L14.932 -23.237L15.057 -23.237L15.057 -22.401L14.932 -22.401L14.932 -21.491L11.865 -21.491L11.865 -19.956L11.816 -19.956L11.816 -19.836L12.831 -19.836L12.831 -19.956L11.985 -19.956L11.985 -21.371L14.932 -21.371L14.932 -19.956L14.889 -19.956L14.889 -19.836L14.931 -19.836L14.931 -19.768L15.056 -19.768L15.056 -18.688L14.931 -18.688L14.931 -18.286L8.845 -18.286L8.846 -15.795L8.971 -15.795L8.971 -15.15L8.846 -15.15L8.848 -5.55L8.848 -5.42L7.63 -5.42L7.63 -5.545L7.258 -5.545L7.257 -23.155L7.133 -23.155L7.133 -23.857L7.257 -23.857L7.257 -23.982L7.133 -23.982L7.132 -24.403L7.132 -25.834L7.257 -25.834L7.257 -37.424L7.309 -37.424L7.309 -37.549L8.809 -37.549L8.809 -37.424M-7.021 -33.83L-6.929 -33.83L-6.928 -23.4L0.206 -23.4L0.206 -23.39L0.334 -23.39L0.336 -22.45L-6.928 -22.45L-6.927 -9.604L0.236 -9.606L0.236 -9.041L0.36 -9.042L0.364 -6.914L0.236 -6.914L0.236 -5.662L-1.785 -5.661L-1.785 -5.536L-3.938 -5.536L-3.938 -5.661L-8.565 -5.66L-8.565 -5.535L-10.718 -5.534L-10.718 -5.659L-12.044 -5.659L-12.044 -5.534L-14.196 -5.533L-14.196 -5.658L-15.592 -5.658L-15.592 -6.71L-15.717 -6.71L-15.718 -8.843L-15.593 -8.843L-15.593 -9.613L-8.497 -9.614L-8.502 -33.83L-8.462 -33.83L-8.462 -33.955L-7.021 -33.955L-7.021 -33.83M0.226 -9.726L-6.807 -9.724L-6.808 -22.331L0.216 -22.333L0.226 -9.726M-8.618 -9.734L-15.594 -9.734L-15.594 -25.855L-8.62 -25.855L-8.618 -9.734M-22.017 -29.878L-22.017 -28.748L-21.889 -28.748L-21.89 -27.253L-22.017 -27.253L-22.017 -24.669L-21.891 -24.669L-21.891 -22.717L-22.017 -22.717L-22.016 -20.712L-21.892 -20.712L-21.893 -19.074L-22.016 -19.074L-22.016 -19.027L-21.893 -19.027L-21.893 -17.892L-22.016 -17.892L-22.016 -16.639L-21.894 -16.639L-21.894 -14.708L-22.016 -14.708L-22.016 -13.588L-30.442 -13.572L-30.446 -29.889L-22.017 -29.878M-61.943 -20.39L-63.555 -20.391L-63.555 -20.35L-63.429 -20.35L-63.429 -20.271L-61.95 -20.27L-61.949 -16.004L-43.948 -16.006L-43.948 -15.595L-43.823 -15.595L-43.823 -14.255L-46.114 -14.255L-46.114 -14.13L-47.155 -14.13L-47.155 -14.255L-56.553 -14.256L-56.553 -14.131L-57.843 -14.131L-57.843 -14.256L-64.858 -14.257L-64.858 -16.005L-63.434 -16.005L-63.434 -19.335L-63.559 -19.335L-65.887 -19.337L-65.887 -20.355L-67.884 -20.352L-67.884 -20.606L-68.009 -20.606L-68.01 -20.906L-67.885 -20.906L-67.887 -21.976L-65.888 -21.98L-65.89 -23.96L-61.944 -23.963L-61.943 -20.39M13.508 -19.956L13.508 -19.836L14.246 -19.836L14.246 -19.956L13.508 -19.956M0.192 -32.426L0.318 -32.426L0.321 -30.934L0.193 -30.933L0.193 -30.723L0.321 -30.723L0.322 -29.977L0.194 -29.977L0.196 -27.841L0.326 -27.841L0.329 -26.232L0.197 -26.231L0.199 -23.521L-6.807 -23.518L-6.811 -33.843L0.191 -33.848L0.192 -32.426M8.843 -27.573L8.844 -24.338L8.964 -24.338L8.964 -27.573L8.843 -27.573M-8.619 -30.01L-16.903 -30.008L-16.903 -29.884L-18.83 -29.882L-18.83 -30.007L-19.827 -30.007L-19.827 -29.88L-21.822 -29.878L-21.822 -30.006L-30.459 -30.004L-30.46 -33.804L-8.62 -33.82L-8.619 -30.01"/>
		<path fill="#000019" fill-opacity="0.06666667" transform="matrix(2.70354 0 0 2.70354 227.407 213.99)" d="M-7.881 -8.823L-9.381 -8.823L-9.381 -10.323L-7.881 -10.323L-7.881 -8.823"/>
		<clipPath id="cl_15">
			<rect x="202.0453" y="186.08173" width="4.0553131" height="4.0553131"/>
		</clipPath>
		<g clip-path="url(#cl_15)">
			<path fill="none" stroke="#7F7F7F" stroke-width="0.55482715" stroke-miterlimit="4" transform="matrix(2.70354 0 0 2.70354 227.407 213.99)" d="M-9.381 -7.36392L-6.42192 -10.323"/>
		</g>
		<path fill="white" fill-opacity="0.80000001" d="M42.5197 42.5197L269.291 42.5197L269.291 269.291L42.5197 269.291L42.5197 42.5197Z"/>
		<path transform="matrix(2.70354 0 0 2.70354 249.187 155.905)" d="M-0.79917 -2.49724L-0.79917 -2.37224L-0.91917 -2.37224L-0.91917 -1.67024L-0.79917 -1.67024L-0.79817 15.9398L-0.42617 15.9398L-0.42717 16.0598L-0.91817 16.0598L-0.91917 -16.0592L-0.74717 -16.0592L-0.74717 -15.9392L-0.79917 -15.9392L-0.79917 -4.34924L-0.91917 -4.34924L-0.91917 -2.49724L-0.79917 -2.49724M0.91183 16.0598L0.79183 16.0598L0.79183 15.9298L0.78983 6.33476L0.90983 6.33476L0.91183 16.0598M0.90983 5.68976L0.78983 5.68976L0.78883 3.19876L0.90883 3.19876L0.90983 5.68976M0.90883 1.65676L0.78883 1.65676L0.78783 -2.03724L0.90783 -2.03724L0.90883 1.65676M0.90783 -2.85324L0.78783 -2.85324L0.78683 -6.08824L0.90683 -6.08824L0.90783 -2.85324M0.90683 -6.48824L0.78683 -6.48824L0.78483 -15.9392L0.75283 -15.9392L0.75283 -16.0592L0.90483 -16.0592L0.90683 -6.48824"/>
		<path fill="#EFEFEF" transform="matrix(2.70354 0 0 2.70354 249.187 155.905)" d="M0.75283 -15.9392L0.78483 -15.9392L0.78683 -6.48824L0.91183 -6.48824L0.91183 -6.08824L0.78683 -6.08824L0.78783 -2.85324L0.91283 -2.85324L0.91283 -2.03724L0.78783 -2.03724L0.78883 1.65676L0.91383 1.65676L0.91383 3.19876L0.78883 3.19876L0.78983 5.68976L0.91483 5.68976L0.91483 6.33476L0.78983 6.33476L0.79183 15.9348L0.79183 16.0648L-0.42617 16.0648L-0.42617 15.9398L-0.79817 15.9398L-0.79917 -1.67024L-0.92417 -1.67024L-0.92417 -2.37224L-0.79917 -2.37224L-0.79917 -2.49724L-0.92417 -2.49724L-0.92417 -4.34924L-0.79917 -4.34924L-0.79917 -15.9392L-0.74717 -15.9392L-0.74717 -16.0642L0.75283 -16.0642L0.75283 -15.9392"/>
	</g>
	<clipPath id="cl_16">
		<rect x="283.46457" y="42.519684" width="954.01575" height="1754.6063"/>
	</clipPath>
	<g clip-path="url(#cl_16)">
		<path fill="#7F7F7F" transform="matrix(51.6129 0 0 51.6129 773.842 919.821)" d="M-0.79794 15.9488L-0.79794 15.9488L-0.79794 15.9294L-0.79794 15.9294M-0.81794 15.9488L-0.83794 15.9488L-0.83794 15.9294L-0.81794 15.9294M-0.85794 15.9488L-0.87794 15.9488L-0.87794 15.9294L-0.85794 15.9294M-0.89794 15.9488L-0.91794 15.9488L-0.91794 15.9294L-0.89794 15.9294M-0.93794 15.9488L-0.95794 15.9488L-0.95794 15.9294L-0.93794 15.9294M-0.97794 15.9488L-0.99794 15.9488L-0.99794 15.9294L-0.97794 15.9294M-1.01794 15.9488L-1.03794 15.9488L-1.03794 15.9294L-1.01794 15.9294M-1.05794 15.9488L-1.07794 15.9488L-1.07794 15.9294L-1.05794 15.9294M-1.09794 15.9488L-1.11794 15.9488L-1.11794 15.9294L-1.09794 15.9294M-1.13794 15.9488L-1.15794 15.9488L-1.15794 15.9294L-1.13794 15.9294M-1.17794 15.9488L-1.19794 15.9488L-1.19794 15.9294L-1.17794 15.9294M-1.21794 15.9488L-1.23794 15.9488L-1.23794 15.9294L-1.21794 15.9294M-1.25794 15.9488L-1.27794 15.9488L-1.27794 15.9294L-1.25794 15.9294M-1.29794 15.9488L-1.31794 15.9488L-1.31794 15.9294L-1.29794 15.9294M-1.33794 15.9488L-1.35794 15.9488L-1.35794 15.9294L-1.33794 15.9294M-1.37794 15.9488L-1.39794 15.9488L-1.39794 15.9294L-1.37794 15.9294M-1.41794 15.9488L-1.43794 15.9488L-1.43794 15.9294L-1.41794 15.9294M-1.45794 15.9488L-1.47794 15.9488L-1.47794 15.9294L-1.45794 15.9294M-1.49794 15.9488L-1.51794 15.9488L-1.51794 15.9294L-1.49794 15.9294M-1.53794 15.9488L-1.55794 15.9488L-1.55794 15.9294L-1.53794 15.9294M-1.57794 15.9488L-1.59794 15.9488L-1.59794 15.9294L-1.57794 15.9294M-1.61794 15.9488L-1.63794 15.9488L-1.63794 15.9294L-1.61794 15.9294M-1.65794 15.9488L-1.67794 15.9488L-1.67794 15.9294L-1.65794 15.9294"/>
		<path fill="none" stroke="#7F7F7F" stroke-width="0.019375002" stroke-miterlimit="4" transform="matrix(51.6129 0 0 51.6129 773.842 919.821)" d="M-1.57967 15.9391L-1.70467 15.9391"/>
		<path fill="#7F7F7F" transform="matrix(51.6129 0 0 51.6129 773.842 919.821)" d="M-0.798586 -1.66147L-0.798586 -1.66147L-0.798587 -1.68085L-0.798587 -1.68085M-0.818586 -1.66147L-0.838586 -1.66147L-0.838587 -1.68085L-0.818587 -1.68085M-0.858586 -1.66147L-0.878586 -1.66147L-0.878587 -1.68085L-0.858587 -1.68085M-0.898586 -1.66147L-0.918586 -1.66147L-0.918587 -1.68085L-0.898587 -1.68085M-0.938586 -1.66147L-0.958586 -1.66147L-0.958587 -1.68084L-0.938587 -1.68084M-0.978586 -1.66147L-0.998586 -1.66147L-0.998587 -1.68084L-0.978587 -1.68084M-1.01859 -1.66147L-1.03859 -1.66147L-1.03859 -1.68084L-1.01859 -1.68084M-1.05859 -1.66147L-1.07859 -1.66146L-1.07859 -1.68084L-1.05859 -1.68084M-1.09859 -1.66146L-1.11859 -1.66146L-1.11859 -1.68084L-1.09859 -1.68084M-1.13859 -1.66146L-1.15859 -1.66146L-1.15859 -1.68084L-1.13859 -1.68084M-1.17859 -1.66146L-1.19859 -1.66146L-1.19859 -1.68084L-1.17859 -1.68084M-1.21859 -1.66146L-1.23859 -1.66146L-1.23859 -1.68083L-1.21859 -1.68083M-1.25859 -1.66146L-1.27859 -1.66146L-1.27859 -1.68083L-1.25859 -1.68083M-1.29859 -1.66146L-1.31859 -1.66146L-1.31859 -1.68083L-1.29859 -1.68083M-1.33859 -1.66146L-1.35859 -1.66145L-1.35859 -1.68083L-1.33859 -1.68083M-1.37859 -1.66145L-1.39859 -1.66145L-1.39859 -1.68083L-1.37859 -1.68083M-1.41859 -1.66145L-1.43859 -1.66145L-1.43859 -1.68083L-1.41859 -1.68083M-1.45859 -1.66145L-1.47859 -1.66145L-1.47859 -1.68082L-1.45859 -1.68083M-1.49859 -1.66145L-1.51859 -1.66145L-1.51859 -1.68082L-1.49859 -1.68082M-1.53859 -1.66145L-1.55859 -1.66145L-1.55859 -1.68082L-1.53859 -1.68082M-1.57859 -1.66145L-1.59859 -1.66145L-1.59859 -1.68082L-1.57859 -1.68082M-1.61859 -1.66144L-1.63859 -1.66144L-1.63859 -1.68082L-1.61859 -1.68082M-1.65859 -1.66144L-1.67859 -1.66144L-1.67859 -1.68082L-1.65859 -1.68082"/>
		<path fill="none" stroke="#7F7F7F" stroke-width="0.019375002" stroke-miterlimit="4" transform="matrix(51.6129 0 0 51.6129 773.842 919.821)" d="M-1.58032 -1.67113L-1.70532 -1.67113"/>
		<path fill="#7F7F7F" transform="matrix(51.6129 0 0 51.6129 773.842 919.821)" d="M-1.67967 15.9391L-1.70467 15.8891L-1.65467 15.8891L-1.67967 15.9391"/>
		<path fill="none" stroke="#7F7F7F" stroke-width="0.019375002" stroke-miterlimit="4" transform="matrix(51.6129 0 0 51.6129 773.842 919.821)" d="M-1.67967 15.9391L-1.70467 15.8891L-1.65467 15.8891L-1.67967 15.9391"/>
		<path fill="#7F7F7F" transform="matrix(51.6129 0 0 51.6129 773.842 919.821)" d="M-1.68032 -1.67113L-1.65531 -1.62113L-1.70531 -1.62113L-1.68032 -1.67113"/>
		<path fill="none" stroke="#7F7F7F" stroke-width="0.019375002" stroke-miterlimit="4" transform="matrix(51.6129 0 0 51.6129 773.842 919.821)" d="M-1.68032 -1.67113L-1.65531 -1.62113L-1.70531 -1.62113L-1.68032 -1.67113"/>
		<text fill="#7F7F7F" transform="matrix(0 -1 1 0 681.132 1300.98)" font-size="10.32258" font-family="Roboto" x="0, 5.7957458, 11.591492, 14.310608, 20.106354, " y="9, ">
				17.61
		</text>
		<path fill="none" stroke="#7F7F7F" stroke-width="0.019375002" stroke-miterlimit="4" transform="matrix(0 -51.6129 51.6129 0 687.132 1288.03)" d=""/>
		<path fill="none" stroke="#7F7F7F" stroke-width="0.019375002" stroke-miterlimit="4" transform="matrix(51.6129 0 0 51.6129 773.842 919.821)" d="M-1.67967 15.9391L-1.67998 7.46242M-1.68001 6.80557L-1.68032 -1.67113"/>
		<path fill="#7F7F7F" transform="matrix(51.6129 0 0 51.6129 773.842 919.821)" d="M-0.798586 -1.66147L-0.798586 -1.66147L-0.798587 -1.68085L-0.798587 -1.68085M-0.818586 -1.66147L-0.838586 -1.66147L-0.838587 -1.68085L-0.818587 -1.68085M-0.858586 -1.66147L-0.878586 -1.66147L-0.878587 -1.68085L-0.858587 -1.68085M-0.898586 -1.66147L-0.918586 -1.66147L-0.918587 -1.68085L-0.898587 -1.68085M-0.938586 -1.66147L-0.958586 -1.66147L-0.958587 -1.68084L-0.938587 -1.68084M-0.978586 -1.66147L-0.998586 -1.66147L-0.998587 -1.68084L-0.978587 -1.68084M-1.01859 -1.66147L-1.03859 -1.66147L-1.03859 -1.68084L-1.01859 -1.68084M-1.05859 -1.66147L-1.07859 -1.66146L-1.07859 -1.68084L-1.05859 -1.68084M-1.09859 -1.66146L-1.11859 -1.66146L-1.11859 -1.68084L-1.09859 -1.68084M-1.13859 -1.66146L-1.15859 -1.66146L-1.15859 -1.68084L-1.13859 -1.68084M-1.17859 -1.66146L-1.19859 -1.66146L-1.19859 -1.68084L-1.17859 -1.68084M-1.21859 -1.66146L-1.23859 -1.66146L-1.23859 -1.68083L-1.21859 -1.68083M-1.25859 -1.66146L-1.27859 -1.66146L-1.27859 -1.68083L-1.25859 -1.68083M-1.29859 -1.66146L-1.31859 -1.66146L-1.31859 -1.68083L-1.29859 -1.68083M-1.33859 -1.66146L-1.35859 -1.66145L-1.35859 -1.68083L-1.33859 -1.68083M-1.37859 -1.66145L-1.39859 -1.66145L-1.39859 -1.68083L-1.37859 -1.68083M-1.41859 -1.66145L-1.43859 -1.66145L-1.43859 -1.68083L-1.41859 -1.68083M-1.45859 -1.66145L-1.47859 -1.66145L-1.47859 -1.68082L-1.45859 -1.68083M-1.49859 -1.66145L-1.51859 -1.66145L-1.51859 -1.68082L-1.49859 -1.68082M-1.53859 -1.66145L-1.55859 -1.66145L-1.55859 -1.68082L-1.53859 -1.68082M-1.57859 -1.66145L-1.59859 -1.66145L-1.59859 -1.68082L-1.57859 -1.68082M-1.61859 -1.66144L-1.63859 -1.66144L-1.63859 -1.68082L-1.61859 -1.68082M-1.65859 -1.66144L-1.67859 -1.66144L-1.67859 -1.68082L-1.65859 -1.68082"/>
		<path fill="none" stroke="#7F7F7F" stroke-width="0.019375002" stroke-miterlimit="4" transform="matrix(51.6129 0 0 51.6129 773.842 919.821)" d="M-1.58032 -1.67113L-1.70532 -1.67113"/>
		<path fill="#7F7F7F" transform="matrix(51.6129 0 0 51.6129 773.842 919.821)" d="M-0.798612 -2.3632L-0.798612 -2.3632L-0.798612 -2.38258L-0.798612 -2.38258M-0.818612 -2.3632L-0.838612 -2.3632L-0.838612 -2.38258L-0.818612 -2.38258M-0.858612 -2.3632L-0.878612 -2.3632L-0.878612 -2.38258L-0.858612 -2.38258M-0.898612 -2.3632L-0.918612 -2.3632L-0.918612 -2.38258L-0.898612 -2.38258M-0.938612 -2.3632L-0.958612 -2.3632L-0.958612 -2.38257L-0.938612 -2.38257M-0.978612 -2.3632L-0.998612 -2.3632L-0.998612 -2.38257L-0.978612 -2.38257M-1.01861 -2.3632L-1.03861 -2.3632L-1.03861 -2.38257L-1.01861 -2.38257M-1.05861 -2.3632L-1.07861 -2.36319L-1.07861 -2.38257L-1.05861 -2.38257M-1.09861 -2.36319L-1.11861 -2.36319L-1.11861 -2.38257L-1.09861 -2.38257M-1.13861 -2.36319L-1.15861 -2.36319L-1.15861 -2.38257L-1.13861 -2.38257M-1.17861 -2.36319L-1.19861 -2.36319L-1.19861 -2.38257L-1.17861 -2.38257M-1.21861 -2.36319L-1.23861 -2.36319L-1.23861 -2.38256L-1.21861 -2.38256M-1.25861 -2.36319L-1.27861 -2.36319L-1.27861 -2.38256L-1.25861 -2.38256M-1.29861 -2.36319L-1.31861 -2.36319L-1.31861 -2.38256L-1.29861 -2.38256M-1.33861 -2.36319L-1.35861 -2.36318L-1.35861 -2.38256L-1.33861 -2.38256M-1.37861 -2.36318L-1.39861 -2.36318L-1.39861 -2.38256L-1.37861 -2.38256M-1.41861 -2.36318L-1.43861 -2.36318L-1.43861 -2.38256L-1.41861 -2.38256M-1.45861 -2.36318L-1.47861 -2.36318L-1.47861 -2.38256L-1.45861 -2.38256M-1.49861 -2.36318L-1.51861 -2.36318L-1.51861 -2.38255L-1.49861 -2.38255M-1.53861 -2.36318L-1.55861 -2.36318L-1.55861 -2.38255L-1.53861 -2.38255M-1.57861 -2.36318L-1.59861 -2.36318L-1.59861 -2.38255L-1.57861 -2.38255M-1.61861 -2.36317L-1.63861 -2.36317L-1.63861 -2.38255L-1.61861 -2.38255M-1.65861 -2.36317L-1.67861 -2.36317L-1.67861 -2.38255L-1.65861 -2.38255"/>
		<path fill="none" stroke="#7F7F7F" stroke-width="0.019375002" stroke-miterlimit="4" transform="matrix(51.6129 0 0 51.6129 773.842 919.821)" d="M-1.58034 -2.37286L-1.70534 -2.37286"/>
		<path fill="#7F7F7F" transform="matrix(51.6129 0 0 51.6129 773.842 919.821)" d="M-1.68032 -1.67113L-1.70532 -1.72113L-1.65532 -1.72113L-1.68032 -1.67113"/>
		<path fill="none" stroke="#7F7F7F" stroke-width="0.019375002" stroke-miterlimit="4" transform="matrix(51.6129 0 0 51.6129 773.842 919.821)" d="M-1.68032 -1.67113L-1.70532 -1.72113L-1.65532 -1.72113L-1.68032 -1.67113"/>
		<path fill="#7F7F7F" transform="matrix(51.6129 0 0 51.6129 773.842 919.821)" d="M-1.68034 -2.37286L-1.65534 -2.32286L-1.70534 -2.32286L-1.68034 -2.37286"/>
		<path fill="none" stroke="#7F7F7F" stroke-width="0.019375002" stroke-miterlimit="4" transform="matrix(51.6129 0 0 51.6129 773.842 919.821)" d="M-1.68034 -2.37286L-1.65534 -2.32286L-1.70534 -2.32286L-1.68034 -2.37286"/>
		<text fill="#7F7F7F" transform="matrix(0 -1 1 0 681.115 825.513)" font-size="10.32258" font-family="Roboto" x="0, 5.7957458, 8.5148621, 14.310608, " y="9, ">
				0.70
		</text>
		<path fill="none" stroke="#7F7F7F" stroke-width="0.019375002" stroke-miterlimit="4" transform="matrix(0 -51.6129 51.6129 0 687.115 815.46)" d=""/>
		<path fill="none" stroke="#7F7F7F" stroke-width="0.019375002" stroke-miterlimit="4" transform="matrix(51.6129 0 0 51.6129 773.842 919.821)" d="M-1.68032 -1.67113L-1.68032 -1.74971M-1.68034 -2.29428L-1.68034 -2.37286"/>
		<path fill="#7F7F7F" transform="matrix(51.6129 0 0 51.6129 773.842 919.821)" d="M-0.798632 -2.9036L-0.798632 -2.9036L-0.798632 -2.92297L-0.798632 -2.92297M-0.818632 -2.9036L-0.838632 -2.9036L-0.838632 -2.92297L-0.818632 -2.92297M-0.858632 -2.9036L-0.878632 -2.9036L-0.878632 -2.92297L-0.858632 -2.92297M-0.898632 -2.9036L-0.918632 -2.90359L-0.918632 -2.92297L-0.898632 -2.92297M-0.938632 -2.90359L-0.958632 -2.90359L-0.958632 -2.92297L-0.938632 -2.92297M-0.978632 -2.90359L-0.998632 -2.90359L-0.998632 -2.92297L-0.978632 -2.92297M-1.01863 -2.90359L-1.03863 -2.90359L-1.03863 -2.92297L-1.01863 -2.92297M-1.05863 -2.90359L-1.07863 -2.90359L-1.07863 -2.92296L-1.05863 -2.92296M-1.09863 -2.90359L-1.11863 -2.90359L-1.11863 -2.92296L-1.09863 -2.92296M-1.13863 -2.90359L-1.15863 -2.90359L-1.15863 -2.92296L-1.13863 -2.92296M-1.17863 -2.90359L-1.19863 -2.90358L-1.19863 -2.92296L-1.17863 -2.92296M-1.21863 -2.90358L-1.23863 -2.90358L-1.23863 -2.92296L-1.21863 -2.92296M-1.25863 -2.90358L-1.27863 -2.90358L-1.27863 -2.92296L-1.25863 -2.92296M-1.29863 -2.90358L-1.31863 -2.90358L-1.31863 -2.92295L-1.29863 -2.92296M-1.33863 -2.90358L-1.35863 -2.90358L-1.35863 -2.92295L-1.33863 -2.92295M-1.37863 -2.90358L-1.39863 -2.90358L-1.39863 -2.92295L-1.37863 -2.92295M-1.41863 -2.90358L-1.43863 -2.90358L-1.43863 -2.92295L-1.41863 -2.92295M-1.45863 -2.90357L-1.47863 -2.90357L-1.47863 -2.92295L-1.45863 -2.92295M-1.49863 -2.90357L-1.51863 -2.90357L-1.51863 -2.92295L-1.49863 -2.92295M-1.53863 -2.90357L-1.55863 -2.90357L-1.55863 -2.92295L-1.53863 -2.92295M-1.57863 -2.90357L-1.59863 -2.90357L-1.59863 -2.92294L-1.57863 -2.92295M-1.61863 -2.90357L-1.63863 -2.90357L-1.63863 -2.92294L-1.61863 -2.92294M-1.65863 -2.90357L-1.67863 -2.90357L-1.67863 -2.92294L-1.65863 -2.92294"/>
		<path fill="none" stroke="#7F7F7F" stroke-width="0.019375002" stroke-miterlimit="4" transform="matrix(51.6129 0 0 51.6129 773.842 919.821)" d="M-1.58036 -2.91326L-1.70536 -2.91325"/>
		<path fill="#7F7F7F" transform="matrix(51.6129 0 0 51.6129 773.842 919.821)" d="M-0.798684 -4.34032L-0.798684 -4.34032L-0.798685 -4.35969L-0.798685 -4.35969M-0.818684 -4.34032L-0.838684 -4.34032L-0.838685 -4.35969L-0.818685 -4.35969M-0.858684 -4.34032L-0.878684 -4.34032L-0.878685 -4.35969L-0.858685 -4.35969M-0.898684 -4.34032L-0.918684 -4.34031L-0.918685 -4.35969L-0.898685 -4.35969M-0.938684 -4.34031L-0.958684 -4.34031L-0.958685 -4.35969L-0.938685 -4.35969M-0.978684 -4.34031L-0.998684 -4.34031L-0.998685 -4.35969L-0.978685 -4.35969M-1.01868 -4.34031L-1.03868 -4.34031L-1.03868 -4.35968L-1.01868 -4.35969M-1.05868 -4.34031L-1.07868 -4.34031L-1.07869 -4.35968L-1.05868 -4.35968M-1.09868 -4.34031L-1.11868 -4.34031L-1.11869 -4.35968L-1.09869 -4.35968M-1.13868 -4.34031L-1.15868 -4.34031L-1.15868 -4.35968L-1.13868 -4.35968M-1.17868 -4.34031L-1.19868 -4.3403L-1.19869 -4.35968L-1.17869 -4.35968M-1.21868 -4.3403L-1.23868 -4.3403L-1.23869 -4.35968L-1.21869 -4.35968M-1.25868 -4.3403L-1.27868 -4.3403L-1.27868 -4.35968L-1.25868 -4.35968M-1.29868 -4.3403L-1.31868 -4.3403L-1.31868 -4.35967L-1.29868 -4.35968M-1.33868 -4.3403L-1.35868 -4.3403L-1.35869 -4.35967L-1.33868 -4.35967M-1.37868 -4.3403L-1.39868 -4.3403L-1.39868 -4.35967L-1.37868 -4.35967M-1.41868 -4.3403L-1.43868 -4.3403L-1.43869 -4.35967L-1.41869 -4.35967M-1.45868 -4.34029L-1.47868 -4.34029L-1.47869 -4.35967L-1.45869 -4.35967M-1.49868 -4.34029L-1.51868 -4.34029L-1.51868 -4.35967L-1.49869 -4.35967M-1.53868 -4.34029L-1.55868 -4.34029L-1.55868 -4.35967L-1.53868 -4.35967M-1.57868 -4.34029L-1.59868 -4.34029L-1.59869 -4.35966L-1.57868 -4.35967M-1.61868 -4.34029L-1.63868 -4.34029L-1.63868 -4.35966L-1.61869 -4.35966M-1.65868 -4.34029L-1.67868 -4.34029L-1.67869 -4.35966L-1.65869 -4.35966"/>
		<path fill="none" stroke="#7F7F7F" stroke-width="0.019375002" stroke-miterlimit="4" transform="matrix(51.6129 0 0 51.6129 773.842 919.821)" d="M-1.58041 -4.34998L-1.70541 -4.34997"/>
		<path fill="#7F7F7F" transform="matrix(51.6129 0 0 51.6129 773.842 919.821)" d="M-1.68036 -2.91325L-1.70536 -2.96325L-1.65536 -2.96326L-1.68036 -2.91325"/>
		<path fill="none" stroke="#7F7F7F" stroke-width="0.019375002" stroke-miterlimit="4" transform="matrix(51.6129 0 0 51.6129 773.842 919.821)" d="M-1.68036 -2.91325L-1.70536 -2.96325L-1.65536 -2.96326L-1.68036 -2.91325"/>
		<path fill="#7F7F7F" transform="matrix(51.6129 0 0 51.6129 773.842 919.821)" d="M-1.68041 -4.34997L-1.65541 -4.29997L-1.70541 -4.29997L-1.68041 -4.34997"/>
		<path fill="none" stroke="#7F7F7F" stroke-width="0.019375002" stroke-miterlimit="4" transform="matrix(51.6129 0 0 51.6129 773.842 919.821)" d="M-1.68041 -4.34997L-1.65541 -4.29997L-1.70541 -4.29997L-1.68041 -4.34997"/>
		<text fill="#7F7F7F" transform="matrix(0 -1 1 0 681.112 742.436)" font-size="10.32258" font-family="Roboto" x="0, 5.7957458, 8.5148621, 14.310608, " y="9, ">
				1.44
		</text>
		<path fill="none" stroke="#7F7F7F" stroke-width="0.019375002" stroke-miterlimit="4" transform="matrix(0 -51.6129 51.6129 0 687.112 732.383)" d=""/>
		<path fill="none" stroke="#7F7F7F" stroke-width="0.019375002" stroke-miterlimit="4" transform="matrix(51.6129 0 0 51.6129 773.842 919.821)" d="M-1.68036 -2.91325L-1.68038 -3.35933M-1.6804 -3.90389L-1.68041 -4.34997"/>
		<path fill="#7F7F7F" transform="matrix(51.6129 0 0 51.6129 773.842 919.821)" d="M-0.798684 -4.34032L-0.798684 -4.34032L-0.798685 -4.35969L-0.798685 -4.35969M-0.818684 -4.34032L-0.838684 -4.34032L-0.838685 -4.35969L-0.818685 -4.35969M-0.858684 -4.34032L-0.878684 -4.34032L-0.878685 -4.35969L-0.858685 -4.35969M-0.898684 -4.34032L-0.918684 -4.34031L-0.918685 -4.35969L-0.898685 -4.35969M-0.938684 -4.34031L-0.958684 -4.34031L-0.958685 -4.35969L-0.938685 -4.35969M-0.978684 -4.34031L-0.998684 -4.34031L-0.998685 -4.35969L-0.978685 -4.35969M-1.01868 -4.34031L-1.03868 -4.34031L-1.03868 -4.35968L-1.01868 -4.35969M-1.05868 -4.34031L-1.07868 -4.34031L-1.07869 -4.35968L-1.05868 -4.35968M-1.09868 -4.34031L-1.11868 -4.34031L-1.11869 -4.35968L-1.09869 -4.35968M-1.13868 -4.34031L-1.15868 -4.34031L-1.15868 -4.35968L-1.13868 -4.35968M-1.17868 -4.34031L-1.19868 -4.3403L-1.19869 -4.35968L-1.17869 -4.35968M-1.21868 -4.3403L-1.23868 -4.3403L-1.23869 -4.35968L-1.21869 -4.35968M-1.25868 -4.3403L-1.27868 -4.3403L-1.27868 -4.35968L-1.25868 -4.35968M-1.29868 -4.3403L-1.31868 -4.3403L-1.31868 -4.35967L-1.29868 -4.35968M-1.33868 -4.3403L-1.35868 -4.3403L-1.35869 -4.35967L-1.33868 -4.35967M-1.37868 -4.3403L-1.39868 -4.3403L-1.39868 -4.35967L-1.37868 -4.35967M-1.41868 -4.3403L-1.43868 -4.3403L-1.43869 -4.35967L-1.41869 -4.35967M-1.45868 -4.34029L-1.47868 -4.34029L-1.47869 -4.35967L-1.45869 -4.35967M-1.49868 -4.34029L-1.51868 -4.34029L-1.51868 -4.35967L-1.49869 -4.35967M-1.53868 -4.34029L-1.55868 -4.34029L-1.55868 -4.35967L-1.53868 -4.35967M-1.57868 -4.34029L-1.59868 -4.34029L-1.59869 -4.35966L-1.57868 -4.35967M-1.61868 -4.34029L-1.63868 -4.34029L-1.63868 -4.35966L-1.61869 -4.35966M-1.65868 -4.34029L-1.67868 -4.34029L-1.67869 -4.35966L-1.65869 -4.35966"/>
		<path fill="none" stroke="#7F7F7F" stroke-width="0.019375002" stroke-miterlimit="4" transform="matrix(51.6129 0 0 51.6129 773.842 919.821)" d="M-1.58041 -4.34998L-1.70541 -4.34997"/>
		<path fill="#7F7F7F" transform="matrix(51.6129 0 0 51.6129 773.842 919.821)" d="M-0.79911 -15.9296L-0.79911 -15.9296L-0.79911 -15.949L-0.79911 -15.949M-0.81911 -15.9296L-0.83911 -15.9296L-0.83911 -15.949L-0.81911 -15.949M-0.85911 -15.9296L-0.87911 -15.9296L-0.87911 -15.949L-0.85911 -15.949M-0.89911 -15.9296L-0.91911 -15.9296L-0.91911 -15.949L-0.89911 -15.949M-0.93911 -15.9296L-0.95911 -15.9296L-0.95911 -15.949L-0.93911 -15.949M-0.97911 -15.9296L-0.99911 -15.9296L-0.99911 -15.949L-0.97911 -15.949M-1.01911 -15.9296L-1.03911 -15.9296L-1.03911 -15.949L-1.01911 -15.949M-1.05911 -15.9296L-1.07911 -15.9296L-1.07911 -15.949L-1.05911 -15.949M-1.09911 -15.9296L-1.11911 -15.9296L-1.11911 -15.949L-1.09911 -15.949M-1.13911 -15.9296L-1.15911 -15.9296L-1.15911 -15.949L-1.13911 -15.949M-1.17911 -15.9296L-1.19911 -15.9296L-1.19911 -15.949L-1.17911 -15.949M-1.21911 -15.9296L-1.23911 -15.9296L-1.23911 -15.949L-1.21911 -15.949M-1.25911 -15.9296L-1.27911 -15.9296L-1.27911 -15.949L-1.25911 -15.949M-1.29911 -15.9296L-1.31911 -15.9296L-1.31911 -15.949L-1.29911 -15.949M-1.33911 -15.9296L-1.35911 -15.9296L-1.35911 -15.949L-1.33911 -15.949M-1.37911 -15.9296L-1.39911 -15.9296L-1.39911 -15.949L-1.37911 -15.949M-1.41911 -15.9296L-1.43911 -15.9296L-1.43911 -15.949L-1.41911 -15.949M-1.45911 -15.9296L-1.47911 -15.9296L-1.47911 -15.949L-1.45911 -15.949M-1.49911 -15.9296L-1.51911 -15.9296L-1.51911 -15.949L-1.49911 -15.949M-1.53911 -15.9296L-1.55911 -15.9296L-1.55911 -15.949L-1.53911 -15.949M-1.57911 -15.9296L-1.59911 -15.9296L-1.59911 -15.949L-1.57911 -15.949M-1.61911 -15.9296L-1.63911 -15.9296L-1.63911 -15.949L-1.61911 -15.949M-1.65911 -15.9296L-1.67911 -15.9296L-1.67911 -15.949L-1.65911 -15.949"/>
		<path fill="none" stroke="#7F7F7F" stroke-width="0.019375002" stroke-miterlimit="4" transform="matrix(51.6129 0 0 51.6129 773.842 919.821)" d="M-1.58084 -15.9393L-1.70584 -15.9393"/>
		<path fill="#7F7F7F" transform="matrix(51.6129 0 0 51.6129 773.842 919.821)" d="M-1.68041 -4.34997L-1.70542 -4.39997L-1.65542 -4.39998L-1.68041 -4.34997"/>
		<path fill="none" stroke="#7F7F7F" stroke-width="0.019375002" stroke-miterlimit="4" transform="matrix(51.6129 0 0 51.6129 773.842 919.821)" d="M-1.68041 -4.34997L-1.70542 -4.39997L-1.65542 -4.39998L-1.68041 -4.34997"/>
		<path fill="#7F7F7F" transform="matrix(51.6129 0 0 51.6129 773.842 919.821)" d="M-1.68084 -15.9393L-1.65584 -15.8893L-1.70584 -15.8893L-1.68084 -15.9393"/>
		<path fill="none" stroke="#7F7F7F" stroke-width="0.019375002" stroke-miterlimit="4" transform="matrix(51.6129 0 0 51.6129 773.842 919.821)" d="M-1.68084 -15.9393L-1.65584 -15.8893L-1.70584 -15.8893L-1.68084 -15.9393"/>
		<text fill="#7F7F7F" transform="matrix(0 -1 1 0 681.1 409.178)" font-size="10.32258" font-family="Roboto" x="0, 5.7957458, 11.591492, 14.310608, 20.106354, " y="9, ">
				11.59
		</text>
		<path fill="none" stroke="#7F7F7F" stroke-width="0.019375002" stroke-miterlimit="4" transform="matrix(0 -51.6129 51.6129 0 687.1 396.227)" d=""/>
		<path fill="none" stroke="#7F7F7F" stroke-width="0.019375002" stroke-miterlimit="4" transform="matrix(51.6129 0 0 51.6129 773.842 919.821)" d="M-1.68041 -4.34997L-1.68062 -9.8162M-1.68064 -10.4731L-1.68084 -15.9393"/>
		<path fill="#7F7F7F" transform="matrix(51.6129 0 0 51.6129 773.842 919.821)" d="M-0.79794 15.9488L-0.79794 15.9488L-0.79794 15.9294L-0.79794 15.9294M-0.81794 15.9488L-0.83794 15.9488L-0.83794 15.9294L-0.81794 15.9294M-0.85794 15.9488L-0.87794 15.9488L-0.87794 15.9294L-0.85794 15.9294M-0.89794 15.9488L-0.91794 15.9488L-0.91794 15.9294L-0.89794 15.9294M-0.93794 15.9488L-0.95794 15.9488L-0.95794 15.9294L-0.93794 15.9294M-0.97794 15.9488L-0.99794 15.9488L-0.99794 15.9294L-0.97794 15.9294M-1.01794 15.9488L-1.03794 15.9488L-1.03794 15.9294L-1.01794 15.9294M-1.05794 15.9488L-1.07794 15.9488L-1.07794 15.9294L-1.05794 15.9294M-1.09794 15.9488L-1.11794 15.9488L-1.11794 15.9294L-1.09794 15.9294M-1.13794 15.9488L-1.15794 15.9488L-1.15794 15.9294L-1.13794 15.9294M-1.17794 15.9488L-1.19794 15.9488L-1.19794 15.9294L-1.17794 15.9294M-1.21794 15.9488L-1.23794 15.9488L-1.23794 15.9294L-1.21794 15.9294M-1.25794 15.9488L-1.27794 15.9488L-1.27794 15.9294L-1.25794 15.9294M-1.29794 15.9488L-1.31794 15.9488L-1.31794 15.9294L-1.29794 15.9294M-1.33794 15.9488L-1.35794 15.9488L-1.35794 15.9294L-1.33794 15.9294M-1.37794 15.9488L-1.39794 15.9488L-1.39794 15.9294L-1.37794 15.9294M-1.41794 15.9488L-1.43794 15.9488L-1.43794 15.9294L-1.41794 15.9294M-1.45794 15.9488L-1.47794 15.9488L-1.47794 15.9294L-1.45794 15.9294M-1.49794 15.9488L-1.51794 15.9488L-1.51794 15.9294L-1.49794 15.9294M-1.53794 15.9488L-1.55794 15.9488L-1.55794 15.9294L-1.53794 15.9294M-1.57794 15.9488L-1.59794 15.9488L-1.59794 15.9294L-1.57794 15.9294M-1.61794 15.9488L-1.63794 15.9488L-1.63794 15.9294L-1.61794 15.9294M-1.65794 15.9488L-1.67794 15.9488L-1.67794 15.9294L-1.65794 15.9294M-1.69794 15.9488L-1.71794 15.9488L-1.71794 15.9294L-1.69794 15.9294M-1.73794 15.9488L-1.75794 15.9488L-1.75794 15.9294L-1.73794 15.9294M-1.77794 15.9488L-1.79794 15.9488L-1.79794 15.9294L-1.77794 15.9294M-1.81794 15.9488L-1.83794 15.9488L-1.83794 15.9294L-1.81794 15.9294M-1.85794 15.9488L-1.87794 15.9488L-1.87794 15.9294L-1.85794 15.9294M-1.89794 15.9488L-1.91794 15.9488L-1.91794 15.9294L-1.89794 15.9294M-1.93794 15.9488L-1.95794 15.9488L-1.95794 15.9294L-1.93794 15.9294M-1.97794 15.9488L-1.99794 15.9488L-1.99794 15.9294L-1.97794 15.9294M-2.01794 15.9488L-2.03794 15.9488L-2.03794 15.9294L-2.01794 15.9294"/>
		<path fill="none" stroke="#7F7F7F" stroke-width="0.019375002" stroke-miterlimit="4" transform="matrix(51.6129 0 0 51.6129 773.842 919.821)" d="M-1.94967 15.9391L-2.07467 15.9391"/>
		<path fill="#7F7F7F" transform="matrix(51.6129 0 0 51.6129 773.842 919.821)" d="M-0.79911 -15.9296L-0.79911 -15.9296L-0.79911 -15.949L-0.79911 -15.949M-0.81911 -15.9296L-0.83911 -15.9296L-0.83911 -15.949L-0.81911 -15.949M-0.85911 -15.9296L-0.87911 -15.9296L-0.87911 -15.949L-0.85911 -15.949M-0.89911 -15.9296L-0.91911 -15.9296L-0.91911 -15.949L-0.89911 -15.949M-0.93911 -15.9296L-0.95911 -15.9296L-0.95911 -15.949L-0.93911 -15.949M-0.97911 -15.9296L-0.99911 -15.9296L-0.99911 -15.949L-0.97911 -15.949M-1.01911 -15.9296L-1.03911 -15.9296L-1.03911 -15.949L-1.01911 -15.949M-1.05911 -15.9296L-1.07911 -15.9296L-1.07911 -15.949L-1.05911 -15.949M-1.09911 -15.9296L-1.11911 -15.9296L-1.11911 -15.949L-1.09911 -15.949M-1.13911 -15.9296L-1.15911 -15.9296L-1.15911 -15.949L-1.13911 -15.949M-1.17911 -15.9296L-1.19911 -15.9296L-1.19911 -15.949L-1.17911 -15.949M-1.21911 -15.9296L-1.23911 -15.9296L-1.23911 -15.949L-1.21911 -15.949M-1.25911 -15.9296L-1.27911 -15.9296L-1.27911 -15.949L-1.25911 -15.949M-1.29911 -15.9296L-1.31911 -15.9296L-1.31911 -15.949L-1.29911 -15.949M-1.33911 -15.9296L-1.35911 -15.9296L-1.35911 -15.949L-1.33911 -15.949M-1.37911 -15.9296L-1.39911 -15.9296L-1.39911 -15.949L-1.37911 -15.949M-1.41911 -15.9296L-1.43911 -15.9296L-1.43911 -15.949L-1.41911 -15.949M-1.45911 -15.9296L-1.47911 -15.9296L-1.47911 -15.949L-1.45911 -15.949M-1.49911 -15.9296L-1.51911 -15.9296L-1.51911 -15.949L-1.49911 -15.949M-1.53911 -15.9296L-1.55911 -15.9296L-1.55911 -15.949L-1.53911 -15.949M-1.57911 -15.9296L-1.59911 -15.9296L-1.59911 -15.949L-1.57911 -15.949M-1.61911 -15.9296L-1.63911 -15.9296L-1.63911 -15.949L-1.61911 -15.949M-1.65911 -15.9296L-1.67911 -15.9296L-1.67911 -15.949L-1.65911 -15.949M-1.69911 -15.9296L-1.71911 -15.9296L-1.71911 -15.949L-1.69911 -15.949M-1.73911 -15.9296L-1.75911 -15.9296L-1.75911 -15.949L-1.73911 -15.949M-1.77911 -15.9296L-1.79911 -15.9296L-1.79911 -15.949L-1.77911 -15.949M-1.81911 -15.9296L-1.83911 -15.9296L-1.83911 -15.949L-1.81911 -15.949M-1.85911 -15.9296L-1.87911 -15.9296L-1.87911 -15.949L-1.85911 -15.949M-1.89911 -15.9296L-1.91911 -15.9296L-1.91911 -15.949L-1.89911 -15.949M-1.93911 -15.9296L-1.95911 -15.9296L-1.95911 -15.949L-1.93911 -15.949M-1.97911 -15.9296L-1.99911 -15.9296L-1.99911 -15.949L-1.97911 -15.949M-2.01911 -15.9296L-2.03911 -15.9296L-2.03911 -15.949L-2.01911 -15.949"/>
		<path fill="none" stroke="#7F7F7F" stroke-width="0.019375002" stroke-miterlimit="4" transform="matrix(51.6129 0 0 51.6129 773.842 919.821)" d="M-1.95084 -15.9393L-2.07584 -15.9393"/>
		<path fill="#7F7F7F" transform="matrix(51.6129 0 0 51.6129 773.842 919.821)" d="M-2.04967 15.9391L-2.07467 15.8891L-2.02467 15.8891L-2.04967 15.9391"/>
		<path fill="none" stroke="#7F7F7F" stroke-width="0.019375002" stroke-miterlimit="4" transform="matrix(51.6129 0 0 51.6129 773.842 919.821)" d="M-2.04967 15.9391L-2.07467 15.8891L-2.02467 15.8891L-2.04967 15.9391"/>
		<path fill="#7F7F7F" transform="matrix(51.6129 0 0 51.6129 773.842 919.821)" d="M-2.05084 -15.9393L-2.02584 -15.8893L-2.07584 -15.8893L-2.05084 -15.9393"/>
		<path fill="none" stroke="#7F7F7F" stroke-width="0.019375002" stroke-miterlimit="4" transform="matrix(51.6129 0 0 51.6129 773.842 919.821)" d="M-2.05084 -15.9393L-2.02584 -15.8893L-2.07584 -15.8893L-2.05084 -15.9393"/>
		<text fill="#7F7F7F" transform="matrix(0 -1 1 0 662.022 932.769)" font-size="10.32258" font-family="Roboto" x="0, 5.7957458, 11.591492, 14.310608, 20.106354, " y="9, ">
				31.89
		</text>
		<path fill="none" stroke="#7F7F7F" stroke-width="0.019375002" stroke-miterlimit="4" transform="matrix(0 -51.6129 51.6129 0 668.022 919.818)" d=""/>
		<path fill="none" stroke="#7F7F7F" stroke-width="0.019375002" stroke-miterlimit="4" transform="matrix(51.6129 0 0 51.6129 773.842 919.821)" d="M-2.04967 15.9391L-2.05024 0.328363M-2.05027 -0.328491L-2.05084 -15.9393"/>
		<path fill="#7F7F7F" transform="matrix(51.6129 0 0 51.6129 773.842 919.821)" d="M-0.75665 -15.9393L-0.75665 -15.9393L-0.737275 -15.9393L-0.737275 -15.9393M-0.756652 -15.9593L-0.756654 -15.9793L-0.737279 -15.9793L-0.737277 -15.9593M-0.756657 -15.9993L-0.756659 -16.0193L-0.737284 -16.0193L-0.737282 -15.9993M-0.756661 -16.0393L-0.756664 -16.0593L-0.737289 -16.0593L-0.737286 -16.0393M-0.756666 -16.0793L-0.756668 -16.0993L-0.737293 -16.0993L-0.737291 -16.0793M-0.75667 -16.1193L-0.756673 -16.1393L-0.737298 -16.1393L-0.737295 -16.1193M-0.756675 -16.1593L-0.756677 -16.1793L-0.737302 -16.1793L-0.7373 -16.1593M-0.756679 -16.1993L-0.756682 -16.2193L-0.737307 -16.2193L-0.737304 -16.1993M-0.756684 -16.2393L-0.756686 -16.2593L-0.737311 -16.2593L-0.737309 -16.2393M-0.756689 -16.2793L-0.756691 -16.2993L-0.737316 -16.2993L-0.737314 -16.2793"/>
		<path fill="none" stroke="#7F7F7F" stroke-width="0.019375002" stroke-miterlimit="4" transform="matrix(51.6129 0 0 51.6129 773.842 919.821)" d="M-0.746993 -16.2093L-0.747007 -16.3343"/>
		<path fill="#7F7F7F" transform="matrix(51.6129 0 0 51.6129 773.842 919.821)" d="M0.74335 -15.9395L0.74335 -15.9395L0.762725 -15.9395L0.762725 -15.9395M0.743348 -15.9595L0.743346 -15.9795L0.762721 -15.9795L0.762723 -15.9595M0.743343 -15.9995L0.743341 -16.0195L0.762716 -16.0195L0.762718 -15.9995M0.743339 -16.0395L0.743336 -16.0595L0.762711 -16.0595L0.762714 -16.0395M0.743334 -16.0795L0.743332 -16.0995L0.762707 -16.0995L0.762709 -16.0795M0.74333 -16.1195L0.743327 -16.1395L0.762702 -16.1395L0.762705 -16.1195M0.743325 -16.1595L0.743323 -16.1795L0.762698 -16.1795L0.7627 -16.1595M0.743321 -16.1995L0.743318 -16.2195L0.762693 -16.2195L0.762696 -16.1995M0.743316 -16.2395L0.743314 -16.2595L0.762689 -16.2595L0.762691 -16.2395M0.743311 -16.2795L0.743309 -16.2995L0.762684 -16.2995L0.762686 -16.2795"/>
		<path fill="none" stroke="#7F7F7F" stroke-width="0.019375002" stroke-miterlimit="4" transform="matrix(51.6129 0 0 51.6129 773.842 919.821)" d="M0.753007 -16.2095L0.752993 -16.3345"/>
		<path fill="#7F7F7F" transform="matrix(51.6129 0 0 51.6129 773.842 919.821)" d="M-0.747004 -16.3093L-0.697007 -16.3343L-0.697002 -16.2843L-0.747004 -16.3093"/>
		<path fill="none" stroke="#7F7F7F" stroke-width="0.019375002" stroke-miterlimit="4" transform="matrix(51.6129 0 0 51.6129 773.842 919.821)" d="M-0.747004 -16.3093L-0.697007 -16.3343L-0.697002 -16.2843L-0.747004 -16.3093"/>
		<path fill="#7F7F7F" transform="matrix(51.6129 0 0 51.6129 773.842 919.821)" d="M0.752996 -16.3095L0.702998 -16.2845L0.702993 -16.3345L0.752996 -16.3095"/>
		<path fill="none" stroke="#7F7F7F" stroke-width="0.019375002" stroke-miterlimit="4" transform="matrix(51.6129 0 0 51.6129 773.842 919.821)" d="M0.752996 -16.3095L0.702998 -16.2845L0.702993 -16.3345L0.752996 -16.3095"/>
		<text fill="#7F7F7F" transform="translate(763.943 72.0453)" font-size="10.32258" font-family="Roboto" x="0, 5.7957458, 8.5148621, 14.310608, " y="9, ">
				1.50
		</text>
		<path fill="none" stroke="#7F7F7F" stroke-width="0.019375002" stroke-miterlimit="4" transform="matrix(51.6129 0 0 51.6129 773.996 78.0453)" d=""/>
		<path fill="none" stroke="#7F7F7F" stroke-width="0.019375002" stroke-miterlimit="4" transform="matrix(51.6129 0 0 51.6129 773.842 919.821)" d="M-0.747004 -16.3093L-0.269285 -16.3094M0.275276 -16.3094L0.752996 -16.3095"/>
		<path fill="#7F7F7F" transform="matrix(51.6129 0 0 51.6129 773.842 919.821)" d="M-0.808797 -15.9393L-0.808797 -15.9393L-0.789423 -15.9393L-0.789423 -15.9393M-0.8088 -15.9593L-0.808802 -15.9793L-0.789427 -15.9793L-0.789425 -15.9593M-0.808804 -15.9993L-0.808807 -16.0193L-0.789432 -16.0193L-0.789429 -15.9993M-0.808809 -16.0393L-0.808811 -16.0593L-0.789436 -16.0593L-0.789434 -16.0393M-0.808813 -16.0793L-0.808816 -16.0993L-0.789441 -16.0993L-0.789438 -16.0793M-0.808818 -16.1193L-0.80882 -16.1393L-0.789445 -16.1393L-0.789443 -16.1193M-0.808822 -16.1593L-0.808825 -16.1793L-0.78945 -16.1793L-0.789447 -16.1593M-0.808827 -16.1993L-0.808829 -16.2193L-0.789454 -16.2193L-0.789452 -16.1993M-0.808832 -16.2393L-0.808834 -16.2593L-0.789459 -16.2593L-0.789457 -16.2393M-0.808836 -16.2793L-0.808838 -16.2993L-0.789463 -16.2993L-0.789461 -16.2793M-0.808841 -16.3193L-0.808843 -16.3393L-0.789468 -16.3393L-0.789466 -16.3193M-0.808845 -16.3593L-0.808847 -16.3793L-0.789473 -16.3793L-0.78947 -16.3593M-0.80885 -16.3993L-0.808852 -16.4193L-0.789477 -16.4193L-0.789475 -16.3993M-0.808854 -16.4393L-0.808857 -16.4593L-0.789482 -16.4593L-0.789479 -16.4393M-0.808859 -16.4793L-0.808861 -16.4993L-0.789486 -16.4993L-0.789484 -16.4793M-0.808863 -16.5193L-0.808866 -16.5393L-0.789491 -16.5393L-0.789488 -16.5193M-0.808868 -16.5593L-0.80887 -16.5793L-0.789495 -16.5793L-0.789493 -16.5593M-0.808872 -16.5993L-0.808875 -16.6193L-0.7895 -16.6193L-0.789497 -16.5993M-0.808877 -16.6393L-0.808879 -16.6593L-0.789504 -16.6593L-0.789502 -16.6393"/>
		<path fill="none" stroke="#7F7F7F" stroke-width="0.019375002" stroke-miterlimit="4" transform="matrix(51.6129 0 0 51.6129 773.842 919.821)" d="M-0.799183 -16.5793L-0.799197 -16.7043"/>
		<path fill="#7F7F7F" transform="matrix(51.6129 0 0 51.6129 773.842 919.821)" d="M0.775473 -15.9395L0.775473 -15.9395L0.794847 -15.9395L0.794847 -15.9395M0.77547 -15.9595L0.775468 -15.9795L0.794843 -15.9795L0.794845 -15.9595M0.775466 -15.9995L0.775463 -16.0195L0.794838 -16.0195L0.794841 -15.9995M0.775461 -16.0395L0.775459 -16.0595L0.794834 -16.0595L0.794836 -16.0395M0.775457 -16.0795L0.775454 -16.0995L0.794829 -16.0995L0.794832 -16.0795M0.775452 -16.1195L0.77545 -16.1395L0.794825 -16.1395L0.794827 -16.1195M0.775448 -16.1595L0.775445 -16.1795L0.79482 -16.1795L0.794823 -16.1595M0.775443 -16.1995L0.775441 -16.2195L0.794816 -16.2195L0.794818 -16.1995M0.775438 -16.2395L0.775436 -16.2595L0.794811 -16.2595L0.794813 -16.2395M0.775434 -16.2795L0.775432 -16.2995L0.794807 -16.2995L0.794809 -16.2795M0.775429 -16.3195L0.775427 -16.3395L0.794802 -16.3395L0.794804 -16.3195M0.775425 -16.3595L0.775423 -16.3795L0.794797 -16.3795L0.7948 -16.3595M0.77542 -16.3995L0.775418 -16.4195L0.794793 -16.4195L0.794795 -16.3995M0.775416 -16.4395L0.775413 -16.4595L0.794788 -16.4595L0.794791 -16.4395M0.775411 -16.4795L0.775409 -16.4995L0.794784 -16.4995L0.794786 -16.4795M0.775407 -16.5195L0.775404 -16.5395L0.794779 -16.5395L0.794782 -16.5195M0.775402 -16.5595L0.7754 -16.5795L0.794775 -16.5795L0.794777 -16.5595M0.775398 -16.5995L0.775395 -16.6195L0.79477 -16.6195L0.794773 -16.5995M0.775393 -16.6395L0.775391 -16.6595L0.794766 -16.6595L0.794768 -16.6395"/>
		<path fill="none" stroke="#7F7F7F" stroke-width="0.019375002" stroke-miterlimit="4" transform="matrix(51.6129 0 0 51.6129 773.842 919.821)" d="M0.785087 -16.5795L0.785073 -16.7045"/>
		<path fill="#7F7F7F" transform="matrix(51.6129 0 0 51.6129 773.842 919.821)" d="M-0.799194 -16.6793L-0.749197 -16.7043L-0.749191 -16.6543L-0.799194 -16.6793"/>
		<path fill="none" stroke="#7F7F7F" stroke-width="0.019375002" stroke-miterlimit="4" transform="matrix(51.6129 0 0 51.6129 773.842 919.821)" d="M-0.799194 -16.6793L-0.749197 -16.7043L-0.749191 -16.6543L-0.799194 -16.6793"/>
		<path fill="#7F7F7F" transform="matrix(51.6129 0 0 51.6129 773.842 919.821)" d="M0.785076 -16.6795L0.735079 -16.6545L0.735073 -16.7045L0.785076 -16.6795"/>
		<path fill="none" stroke="#7F7F7F" stroke-width="0.019375002" stroke-miterlimit="4" transform="matrix(51.6129 0 0 51.6129 773.842 919.821)" d="M0.785076 -16.6795L0.735079 -16.6545L0.735073 -16.7045L0.785076 -16.6795"/>
		<text fill="#7F7F7F" transform="translate(763.424 52.9486)" font-size="10.32258" font-family="Roboto" x="0, 5.7957458, 8.5148621, 14.310608, " y="9, ">
				1.58
		</text>
		<path fill="none" stroke="#7F7F7F" stroke-width="0.019375002" stroke-miterlimit="4" transform="matrix(51.6129 0 0 51.6129 773.477 58.9486)" d=""/>
		<path fill="none" stroke="#7F7F7F" stroke-width="0.019375002" stroke-miterlimit="4" transform="matrix(51.6129 0 0 51.6129 773.842 919.821)" d="M-0.799194 -16.6793L-0.279339 -16.6794M0.265221 -16.6794L0.785076 -16.6795"/>
		<path fill="#7F7F7F" transform="matrix(51.6129 0 0 51.6129 773.842 919.821)" d="M0.785158 -15.9492L0.785158 -15.9492L0.785162 -15.9298L0.785162 -15.9298M0.805158 -15.9492L0.825158 -15.9492L0.825162 -15.9298L0.805162 -15.9298M0.845158 -15.9492L0.865158 -15.9492L0.865162 -15.9298L0.845162 -15.9298M0.885158 -15.9492L0.905158 -15.9492L0.905162 -15.9298L0.885162 -15.9298M0.925158 -15.9492L0.945158 -15.9492L0.945162 -15.9298L0.925162 -15.9298M0.965158 -15.9492L0.985158 -15.9492L0.985162 -15.9299L0.965162 -15.9298M1.00516 -15.9492L1.02516 -15.9492L1.02516 -15.9299L1.00516 -15.9299M1.04516 -15.9492L1.06516 -15.9492L1.06516 -15.9299L1.04516 -15.9299M1.08516 -15.9492L1.10516 -15.9493L1.10516 -15.9299L1.08516 -15.9299M1.12516 -15.9493L1.14516 -15.9493L1.14516 -15.9299L1.12516 -15.9299"/>
		<path fill="none" stroke="#7F7F7F" stroke-width="0.019375002" stroke-miterlimit="4" transform="matrix(51.6129 0 0 51.6129 773.842 919.821)" d="M1.05516 -15.9396L1.18016 -15.9396"/>
		<path fill="#7F7F7F" transform="matrix(51.6129 0 0 51.6129 773.842 919.821)" d="M0.787417 -6.49811L0.787417 -6.49811L0.787421 -6.47874L0.787421 -6.47874M0.807417 -6.49812L0.827417 -6.49812L0.827421 -6.47875L0.807421 -6.47874M0.847417 -6.49813L0.867417 -6.49813L0.867421 -6.47875L0.847421 -6.47875M0.887417 -6.49813L0.907417 -6.49814L0.907421 -6.47876L0.887421 -6.47876M0.927417 -6.49814L0.947417 -6.49815L0.947421 -6.47877L0.927421 -6.47877M0.967417 -6.49815L0.987417 -6.49816L0.987421 -6.47878L0.967421 -6.47878M1.00742 -6.49816L1.02742 -6.49817L1.02742 -6.47879L1.00742 -6.47879M1.04742 -6.49817L1.06742 -6.49818L1.06742 -6.4788L1.04742 -6.4788M1.08742 -6.49818L1.10742 -6.49819L1.10742 -6.47881L1.08742 -6.47881M1.12742 -6.49819L1.14742 -6.4982L1.14742 -6.47882L1.12742 -6.47882"/>
		<path fill="none" stroke="#7F7F7F" stroke-width="0.019375002" stroke-miterlimit="4" transform="matrix(51.6129 0 0 51.6129 773.842 919.821)" d="M1.05742 -6.48849L1.18242 -6.48852"/>
		<path fill="#7F7F7F" transform="matrix(51.6129 0 0 51.6129 773.842 919.821)" d="M1.15516 -15.9396L1.18017 -15.8896L1.13017 -15.8896L1.15516 -15.9396"/>
		<path fill="none" stroke="#7F7F7F" stroke-width="0.019375002" stroke-miterlimit="4" transform="matrix(51.6129 0 0 51.6129 773.842 919.821)" d="M1.15516 -15.9396L1.18017 -15.8896L1.13017 -15.8896L1.15516 -15.9396"/>
		<path fill="#7F7F7F" transform="matrix(51.6129 0 0 51.6129 773.842 919.821)" d="M1.15742 -6.48851L1.13241 -6.53851L1.18241 -6.53852L1.15742 -6.48851"/>
		<path fill="none" stroke="#7F7F7F" stroke-width="0.019375002" stroke-miterlimit="4" transform="matrix(51.6129 0 0 51.6129 773.842 919.821)" d="M1.15742 -6.48851L1.13241 -6.53851L1.18241 -6.53852L1.15742 -6.48851"/>
		<text fill="#7F7F7F" transform="matrix(0 -1 1 0 827.521 351.085)" font-size="10.32258" font-family="Roboto" x="0, 5.7957458, 8.5148621, 14.310608, " y="9, ">
				9.45
		</text>
		<path fill="none" stroke="#7F7F7F" stroke-width="0.019375002" stroke-miterlimit="4" transform="matrix(0 -51.6129 51.6129 0 833.521 341.031)" d=""/>
		<path fill="none" stroke="#7F7F7F" stroke-width="0.019375002" stroke-miterlimit="4" transform="matrix(51.6129 0 0 51.6129 773.842 919.821)" d="M1.15516 -15.9396L1.15622 -11.4863M1.15635 -10.9418L1.15742 -6.48851"/>
		<path fill="#7F7F7F" transform="matrix(51.6129 0 0 51.6129 773.842 919.821)" d="M0.787512 -6.09811L0.787512 -6.09811L0.787517 -6.07874L0.787517 -6.07874M0.807512 -6.09812L0.827512 -6.09812L0.827517 -6.07875L0.807517 -6.07874M0.847512 -6.09812L0.867512 -6.09813L0.867517 -6.07875L0.847517 -6.07875M0.887512 -6.09813L0.907512 -6.09814L0.907517 -6.07876L0.887517 -6.07876M0.927512 -6.09814L0.947512 -6.09815L0.947517 -6.07877L0.927517 -6.07877M0.967512 -6.09815L0.987512 -6.09816L0.987517 -6.07878L0.967517 -6.07878M1.00751 -6.09816L1.02751 -6.09817L1.02752 -6.07879L1.00752 -6.07879M1.04751 -6.09817L1.06751 -6.09818L1.06752 -6.0788L1.04752 -6.0788M1.08751 -6.09818L1.10751 -6.09819L1.10752 -6.07881L1.08752 -6.07881M1.12751 -6.09819L1.14751 -6.0982L1.14752 -6.07882L1.12752 -6.07882"/>
		<path fill="none" stroke="#7F7F7F" stroke-width="0.019375002" stroke-miterlimit="4" transform="matrix(51.6129 0 0 51.6129 773.842 919.821)" d="M1.05751 -6.08849L1.18251 -6.08852"/>
		<path fill="#7F7F7F" transform="matrix(51.6129 0 0 51.6129 773.842 919.821)" d="M0.788286 -2.86311L0.788286 -2.86311L0.78829 -2.84374L0.78829 -2.84374M0.808286 -2.86312L0.828286 -2.86312L0.82829 -2.84375L0.80829 -2.84374M0.848286 -2.86313L0.868286 -2.86313L0.86829 -2.84376L0.84829 -2.84375M0.888286 -2.86314L0.908286 -2.86314L0.90829 -2.84377L0.88829 -2.84376M0.928286 -2.86315L0.948286 -2.86315L0.94829 -2.84378L0.92829 -2.84377M0.968286 -2.86316L0.988286 -2.86316L0.98829 -2.84379L0.96829 -2.84378M1.00829 -2.86317L1.02829 -2.86317L1.02829 -2.8438L1.00829 -2.84379M1.04829 -2.86318L1.06829 -2.86318L1.06829 -2.84381L1.04829 -2.8438M1.08829 -2.86319L1.10829 -2.86319L1.10829 -2.84382L1.08829 -2.84381M1.12829 -2.8632L1.14829 -2.8632L1.14829 -2.84383L1.12829 -2.84382"/>
		<path fill="none" stroke="#7F7F7F" stroke-width="0.019375002" stroke-miterlimit="4" transform="matrix(51.6129 0 0 51.6129 773.842 919.821)" d="M1.05829 -2.85349L1.18329 -2.85352"/>
		<path fill="#7F7F7F" transform="matrix(51.6129 0 0 51.6129 773.842 919.821)" d="M1.15751 -6.08851L1.18253 -6.03852L1.13253 -6.03851L1.15751 -6.08851"/>
		<path fill="none" stroke="#7F7F7F" stroke-width="0.019375002" stroke-miterlimit="4" transform="matrix(51.6129 0 0 51.6129 773.842 919.821)" d="M1.15751 -6.08851L1.18253 -6.03852L1.13253 -6.03851L1.15751 -6.08851"/>
		<path fill="#7F7F7F" transform="matrix(51.6129 0 0 51.6129 773.842 919.821)" d="M1.15829 -2.85351L1.13328 -2.90351L1.18328 -2.90352L1.15829 -2.85351"/>
		<path fill="none" stroke="#7F7F7F" stroke-width="0.019375002" stroke-miterlimit="4" transform="matrix(51.6129 0 0 51.6129 773.842 919.821)" d="M1.15829 -2.85351L1.13328 -2.90351L1.18328 -2.90352L1.15829 -2.85351"/>
		<text fill="#7F7F7F" transform="matrix(0 -1 1 0 827.604 699.112)" font-size="10.32258" font-family="Roboto" x="0, 5.7957458, 8.5148621, 14.310608, " y="9, ">
				3.23
		</text>
		<path fill="none" stroke="#7F7F7F" stroke-width="0.019375002" stroke-miterlimit="4" transform="matrix(0 -51.6129 51.6129 0 833.604 689.059)" d=""/>
		<path fill="none" stroke="#7F7F7F" stroke-width="0.019375002" stroke-miterlimit="4" transform="matrix(51.6129 0 0 51.6129 773.842 919.821)" d="M1.15751 -6.08851L1.15784 -4.74329M1.15797 -4.19873L1.15829 -2.85351"/>
		<path fill="#7F7F7F" transform="matrix(51.6129 0 0 51.6129 773.842 919.821)" d="M0.788286 -2.86311L0.788286 -2.86311L0.78829 -2.84374L0.78829 -2.84374M0.808286 -2.86312L0.828286 -2.86312L0.82829 -2.84375L0.80829 -2.84374M0.848286 -2.86313L0.868286 -2.86313L0.86829 -2.84376L0.84829 -2.84375M0.888286 -2.86314L0.908286 -2.86314L0.90829 -2.84377L0.88829 -2.84376M0.928286 -2.86315L0.948286 -2.86315L0.94829 -2.84378L0.92829 -2.84377M0.968286 -2.86316L0.988286 -2.86316L0.98829 -2.84379L0.96829 -2.84378M1.00829 -2.86317L1.02829 -2.86317L1.02829 -2.8438L1.00829 -2.84379M1.04829 -2.86318L1.06829 -2.86318L1.06829 -2.84381L1.04829 -2.8438M1.08829 -2.86319L1.10829 -2.86319L1.10829 -2.84382L1.08829 -2.84381M1.12829 -2.8632L1.14829 -2.8632L1.14829 -2.84383L1.12829 -2.84382"/>
		<path fill="none" stroke="#7F7F7F" stroke-width="0.019375002" stroke-miterlimit="4" transform="matrix(51.6129 0 0 51.6129 773.842 919.821)" d="M1.05829 -2.85349L1.18329 -2.85352"/>
		<path fill="#7F7F7F" transform="matrix(51.6129 0 0 51.6129 773.842 919.821)" d="M0.788481 -2.0477L0.788481 -2.0477L0.788485 -2.02833L0.788485 -2.02833M0.808481 -2.04771L0.828481 -2.04771L0.828485 -2.02834L0.808485 -2.02833M0.848481 -2.04772L0.868481 -2.04772L0.868485 -2.02835L0.848485 -2.02834M0.88848 -2.04773L0.908481 -2.04773L0.908485 -2.02836L0.888485 -2.02835M0.928481 -2.04774L0.94848 -2.04774L0.948485 -2.02837L0.928485 -2.02836M0.968481 -2.04775L0.988481 -2.04775L0.988485 -2.02838L0.968485 -2.02837M1.00848 -2.04776L1.02848 -2.04776L1.02849 -2.02839L1.00849 -2.02838M1.04848 -2.04777L1.06848 -2.04777L1.06849 -2.0284L1.04849 -2.02839M1.08848 -2.04778L1.10848 -2.04778L1.10849 -2.02841L1.08849 -2.0284M1.12848 -2.04779L1.14848 -2.04779L1.14849 -2.02842L1.12849 -2.02841"/>
		<path fill="none" stroke="#7F7F7F" stroke-width="0.019375002" stroke-miterlimit="4" transform="matrix(51.6129 0 0 51.6129 773.842 919.821)" d="M1.05848 -2.03808L1.18348 -2.03811"/>
		<path fill="#7F7F7F" transform="matrix(51.6129 0 0 51.6129 773.842 919.821)" d="M1.15829 -2.85351L1.1833 -2.80352L1.1333 -2.80351L1.15829 -2.85351"/>
		<path fill="none" stroke="#7F7F7F" stroke-width="0.019375002" stroke-miterlimit="4" transform="matrix(51.6129 0 0 51.6129 773.842 919.821)" d="M1.15829 -2.85351L1.1833 -2.80352L1.1333 -2.80351L1.15829 -2.85351"/>
		<path fill="#7F7F7F" transform="matrix(51.6129 0 0 51.6129 773.842 919.821)" d="M1.15848 -2.03811L1.13347 -2.0881L1.18347 -2.08811L1.15848 -2.03811"/>
		<path fill="none" stroke="#7F7F7F" stroke-width="0.019375002" stroke-miterlimit="4" transform="matrix(51.6129 0 0 51.6129 773.842 919.821)" d="M1.15848 -2.03811L1.13347 -2.0881L1.18347 -2.08811L1.15848 -2.03811"/>
		<text fill="#7F7F7F" transform="matrix(0 -1 1 0 827.629 803.639)" font-size="10.32258" font-family="Roboto" x="0, 5.7957458, 8.5148621, 14.310608, " y="9, ">
				0.82
		</text>
		<path fill="none" stroke="#7F7F7F" stroke-width="0.019375002" stroke-miterlimit="4" transform="matrix(0 -51.6129 51.6129 0 833.629 793.585)" d=""/>
		<path fill="none" stroke="#7F7F7F" stroke-width="0.019375002" stroke-miterlimit="4" transform="matrix(51.6129 0 0 51.6129 773.842 919.821)" d="M1.15829 -2.85351L1.15832 -2.71809M1.15845 -2.17353L1.15848 -2.03811"/>
		<path fill="#7F7F7F" transform="matrix(51.6129 0 0 51.6129 773.842 919.821)" d="M0.788481 -2.0477L0.788481 -2.0477L0.788485 -2.02833L0.788485 -2.02833M0.808481 -2.04771L0.828481 -2.04771L0.828485 -2.02834L0.808485 -2.02833M0.848481 -2.04772L0.868481 -2.04772L0.868485 -2.02835L0.848485 -2.02834M0.88848 -2.04773L0.908481 -2.04773L0.908485 -2.02836L0.888485 -2.02835M0.928481 -2.04774L0.94848 -2.04774L0.948485 -2.02837L0.928485 -2.02836M0.968481 -2.04775L0.988481 -2.04775L0.988485 -2.02838L0.968485 -2.02837M1.00848 -2.04776L1.02848 -2.04776L1.02849 -2.02839L1.00849 -2.02838M1.04848 -2.04777L1.06848 -2.04777L1.06849 -2.0284L1.04849 -2.02839M1.08848 -2.04778L1.10848 -2.04778L1.10849 -2.02841L1.08849 -2.0284M1.12848 -2.04779L1.14848 -2.04779L1.14849 -2.02842L1.12849 -2.02841"/>
		<path fill="none" stroke="#7F7F7F" stroke-width="0.019375002" stroke-miterlimit="4" transform="matrix(51.6129 0 0 51.6129 773.842 919.821)" d="M1.05848 -2.03808L1.18348 -2.03811"/>
		<path fill="#7F7F7F" transform="matrix(51.6129 0 0 51.6129 773.842 919.821)" d="M0.789364 1.64645L0.789364 1.64645L0.789368 1.66583L0.789368 1.66583M0.809363 1.64645L0.829364 1.64644L0.829368 1.66582L0.809368 1.66582M0.849364 1.64644L0.869363 1.64643L0.869368 1.66581L0.849368 1.66581M0.889363 1.64643L0.909364 1.64642L0.909368 1.6658L0.889368 1.6658M0.929363 1.64642L0.949363 1.64642L0.949368 1.66579L0.929368 1.6658M0.969364 1.64641L0.989363 1.64641L0.989368 1.66578L0.969368 1.66579M1.00936 1.6464L1.02936 1.6464L1.02937 1.66577L1.00937 1.66578M1.04936 1.64639L1.06936 1.64639L1.06937 1.66576L1.04937 1.66577M1.08936 1.64638L1.10936 1.64638L1.10937 1.66575L1.08937 1.66576M1.12936 1.64637L1.14936 1.64637L1.14937 1.66574L1.12937 1.66575"/>
		<path fill="none" stroke="#7F7F7F" stroke-width="0.019375002" stroke-miterlimit="4" transform="matrix(51.6129 0 0 51.6129 773.842 919.821)" d="M1.05937 1.65608L1.18437 1.65605"/>
		<path fill="#7F7F7F" transform="matrix(51.6129 0 0 51.6129 773.842 919.821)" d="M1.15848 -2.03811L1.18349 -1.98811L1.13349 -1.9881L1.15848 -2.03811"/>
		<path fill="none" stroke="#7F7F7F" stroke-width="0.019375002" stroke-miterlimit="4" transform="matrix(51.6129 0 0 51.6129 773.842 919.821)" d="M1.15848 -2.03811L1.18349 -1.98811L1.13349 -1.9881L1.15848 -2.03811"/>
		<path fill="#7F7F7F" transform="matrix(51.6129 0 0 51.6129 773.842 919.821)" d="M1.15937 1.65605L1.13435 1.60606L1.18435 1.60605L1.15937 1.65605"/>
		<path fill="none" stroke="#7F7F7F" stroke-width="0.019375002" stroke-miterlimit="4" transform="matrix(51.6129 0 0 51.6129 773.842 919.821)" d="M1.15937 1.65605L1.13435 1.60606L1.18435 1.60605L1.15937 1.65605"/>
		<text fill="#7F7F7F" transform="matrix(0 -1 1 0 827.657 920.015)" font-size="10.32258" font-family="Roboto" x="0, 5.7957458, 8.5148621, 14.310608, " y="9, ">
				3.69
		</text>
		<path fill="none" stroke="#7F7F7F" stroke-width="0.019375002" stroke-miterlimit="4" transform="matrix(0 -51.6129 51.6129 0 833.657 909.961)" d=""/>
		<path fill="none" stroke="#7F7F7F" stroke-width="0.019375002" stroke-miterlimit="4" transform="matrix(51.6129 0 0 51.6129 773.842 919.821)" d="M1.15848 -2.03811L1.15886 -0.463306M1.15899 0.0812542L1.15937 1.65605"/>
		<path fill="#7F7F7F" transform="matrix(51.6129 0 0 51.6129 773.842 919.821)" d="M0.789364 1.64645L0.789364 1.64645L0.789368 1.66583L0.789368 1.66583M0.809363 1.64645L0.829364 1.64644L0.829368 1.66582L0.809368 1.66582M0.849364 1.64644L0.869363 1.64643L0.869368 1.66581L0.849368 1.66581M0.889363 1.64643L0.909364 1.64642L0.909368 1.6658L0.889368 1.6658M0.929363 1.64642L0.949363 1.64642L0.949368 1.66579L0.929368 1.6658M0.969364 1.64641L0.989363 1.64641L0.989368 1.66578L0.969368 1.66579M1.00936 1.6464L1.02936 1.6464L1.02937 1.66577L1.00937 1.66578M1.04936 1.64639L1.06936 1.64639L1.06937 1.66576L1.04937 1.66577M1.08936 1.64638L1.10936 1.64638L1.10937 1.66575L1.08937 1.66576M1.12936 1.64637L1.14936 1.64637L1.14937 1.66574L1.12937 1.66575"/>
		<path fill="none" stroke="#7F7F7F" stroke-width="0.019375002" stroke-miterlimit="4" transform="matrix(51.6129 0 0 51.6129 773.842 919.821)" d="M1.05937 1.65608L1.18437 1.65605"/>
		<path fill="#7F7F7F" transform="matrix(51.6129 0 0 51.6129 773.842 919.821)" d="M0.789732 3.18879L0.789732 3.18879L0.789737 3.20817L0.789737 3.20817M0.809732 3.18879L0.829732 3.18878L0.829737 3.20816L0.809737 3.20816M0.849732 3.18878L0.869732 3.18877L0.869737 3.20815L0.849737 3.20815M0.889732 3.18877L0.909732 3.18877L0.909737 3.20814L0.889737 3.20814M0.929732 3.18876L0.949732 3.18876L0.949737 3.20813L0.929737 3.20814M0.969732 3.18875L0.989732 3.18875L0.989737 3.20812L0.969737 3.20813M1.00973 3.18874L1.02973 3.18874L1.02974 3.20811L1.00974 3.20812M1.04973 3.18873L1.06973 3.18873L1.06974 3.2081L1.04974 3.20811M1.08973 3.18872L1.10973 3.18872L1.10974 3.20809L1.08974 3.2081M1.12973 3.18871L1.14973 3.18871L1.14974 3.20808L1.12974 3.20809"/>
		<path fill="none" stroke="#7F7F7F" stroke-width="0.019375002" stroke-miterlimit="4" transform="matrix(51.6129 0 0 51.6129 773.842 919.821)" d="M1.05973 3.19842L1.18473 3.19839"/>
		<path fill="#7F7F7F" transform="matrix(51.6129 0 0 51.6129 773.842 919.821)" d="M1.15937 1.65605L1.18438 1.70605L1.13438 1.70606L1.15937 1.65605"/>
		<path fill="none" stroke="#7F7F7F" stroke-width="0.019375002" stroke-miterlimit="4" transform="matrix(51.6129 0 0 51.6129 773.842 919.821)" d="M1.15937 1.65605L1.18438 1.70605L1.13438 1.70606L1.15937 1.65605"/>
		<path fill="#7F7F7F" transform="matrix(51.6129 0 0 51.6129 773.842 919.821)" d="M1.15973 3.19839L1.13472 3.1484L1.18472 3.14839L1.15973 3.19839"/>
		<path fill="none" stroke="#7F7F7F" stroke-width="0.019375002" stroke-miterlimit="4" transform="matrix(51.6129 0 0 51.6129 773.842 919.821)" d="M1.15973 3.19839L1.13472 3.1484L1.18472 3.14839L1.15973 3.19839"/>
		<text fill="#7F7F7F" transform="matrix(0 -1 1 0 827.689 1055.15)" font-size="10.32258" font-family="Roboto" x="0, 5.7957458, 8.5148621, 14.310608, " y="9, ">
				1.54
		</text>
		<path fill="none" stroke="#7F7F7F" stroke-width="0.019375002" stroke-miterlimit="4" transform="matrix(0 -51.6129 51.6129 0 833.689 1045.1)" d=""/>
		<path fill="none" stroke="#7F7F7F" stroke-width="0.019375002" stroke-miterlimit="4" transform="matrix(51.6129 0 0 51.6129 773.842 919.821)" d="M1.15937 1.65605L1.15949 2.15494M1.15962 2.6995L1.15973 3.19839"/>
		<path fill="#7F7F7F" transform="matrix(51.6129 0 0 51.6129 773.842 919.821)" d="M0.789732 3.18879L0.789732 3.18879L0.789737 3.20817L0.789737 3.20817M0.809732 3.18879L0.829732 3.18878L0.829737 3.20816L0.809737 3.20816M0.849732 3.18878L0.869732 3.18877L0.869737 3.20815L0.849737 3.20815M0.889732 3.18877L0.909732 3.18877L0.909737 3.20814L0.889737 3.20814M0.929732 3.18876L0.949732 3.18876L0.949737 3.20813L0.929737 3.20814M0.969732 3.18875L0.989732 3.18875L0.989737 3.20812L0.969737 3.20813M1.00973 3.18874L1.02973 3.18874L1.02974 3.20811L1.00974 3.20812M1.04973 3.18873L1.06973 3.18873L1.06974 3.2081L1.04974 3.20811M1.08973 3.18872L1.10973 3.18872L1.10974 3.20809L1.08974 3.2081M1.12973 3.18871L1.14973 3.18871L1.14974 3.20808L1.12974 3.20809"/>
		<path fill="none" stroke="#7F7F7F" stroke-width="0.019375002" stroke-miterlimit="4" transform="matrix(51.6129 0 0 51.6129 773.842 919.821)" d="M1.05973 3.19842L1.18473 3.19839"/>
		<path fill="#7F7F7F" transform="matrix(51.6129 0 0 51.6129 773.842 919.821)" d="M0.790328 5.67981L0.790328 5.67981L0.790332 5.69918L0.790332 5.69918M0.810328 5.6798L0.830328 5.6798L0.830332 5.69917L0.810332 5.69918M0.850328 5.67979L0.870328 5.67979L0.870332 5.69916L0.850332 5.69917M0.890328 5.67979L0.910328 5.67978L0.910332 5.69916L0.890332 5.69916M0.930328 5.67978L0.950328 5.67977L0.950332 5.69915L0.930332 5.69915M0.970328 5.67977L0.990328 5.67976L0.990332 5.69914L0.970332 5.69914M1.01033 5.67976L1.03033 5.67975L1.03033 5.69913L1.01033 5.69913M1.05033 5.67975L1.07033 5.67974L1.07033 5.69912L1.05033 5.69912M1.09033 5.67974L1.11033 5.67973L1.11033 5.69911L1.09033 5.69911M1.13033 5.67973L1.15033 5.67972L1.15033 5.6991L1.13033 5.6991"/>
		<path fill="none" stroke="#7F7F7F" stroke-width="0.019375002" stroke-miterlimit="4" transform="matrix(51.6129 0 0 51.6129 773.842 919.821)" d="M1.06033 5.68943L1.18533 5.6894"/>
		<path fill="#7F7F7F" transform="matrix(51.6129 0 0 51.6129 773.842 919.821)" d="M1.15973 3.19839L1.18475 3.24839L1.13475 3.2484L1.15973 3.19839"/>
		<path fill="none" stroke="#7F7F7F" stroke-width="0.019375002" stroke-miterlimit="4" transform="matrix(51.6129 0 0 51.6129 773.842 919.821)" d="M1.15973 3.19839L1.18475 3.24839L1.13475 3.2484L1.15973 3.19839"/>
		<path fill="#7F7F7F" transform="matrix(51.6129 0 0 51.6129 773.842 919.821)" d="M1.16033 5.68941L1.13532 5.63941L1.18532 5.6394L1.16033 5.68941"/>
		<path fill="none" stroke="#7F7F7F" stroke-width="0.019375002" stroke-miterlimit="4" transform="matrix(51.6129 0 0 51.6129 773.842 919.821)" d="M1.16033 5.68941L1.13532 5.63941L1.18532 5.6394L1.16033 5.68941"/>
		<text fill="#7F7F7F" transform="matrix(0 -1 1 0 827.714 1159.24)" font-size="10.32258" font-family="Roboto" x="0, 5.7957458, 8.5148621, 14.310608, " y="9, ">
				2.49
		</text>
		<path fill="none" stroke="#7F7F7F" stroke-width="0.019375002" stroke-miterlimit="4" transform="matrix(0 -51.6129 51.6129 0 833.714 1149.18)" d=""/>
		<path fill="none" stroke="#7F7F7F" stroke-width="0.019375002" stroke-miterlimit="4" transform="matrix(51.6129 0 0 51.6129 773.842 919.821)" d="M1.15973 3.19839L1.15997 4.17162M1.1601 4.71618L1.16033 5.68941"/>
		<path fill="#7F7F7F" transform="matrix(51.6129 0 0 51.6129 773.842 919.821)" d="M0.790328 5.67981L0.790328 5.67981L0.790332 5.69918L0.790332 5.69918M0.810328 5.6798L0.830328 5.6798L0.830332 5.69917L0.810332 5.69918M0.850328 5.67979L0.870328 5.67979L0.870332 5.69916L0.850332 5.69917M0.890328 5.67979L0.910328 5.67978L0.910332 5.69916L0.890332 5.69916M0.930328 5.67978L0.950328 5.67977L0.950332 5.69915L0.930332 5.69915M0.970328 5.67977L0.990328 5.67976L0.990332 5.69914L0.970332 5.69914M1.01033 5.67976L1.03033 5.67975L1.03033 5.69913L1.01033 5.69913M1.05033 5.67975L1.07033 5.67974L1.07033 5.69912L1.05033 5.69912M1.09033 5.67974L1.11033 5.67973L1.11033 5.69911L1.09033 5.69911M1.13033 5.67973L1.15033 5.67972L1.15033 5.6991L1.13033 5.6991"/>
		<path fill="none" stroke="#7F7F7F" stroke-width="0.019375002" stroke-miterlimit="4" transform="matrix(51.6129 0 0 51.6129 773.842 919.821)" d="M1.06033 5.68943L1.18533 5.6894"/>
		<path fill="#7F7F7F" transform="matrix(51.6129 0 0 51.6129 773.842 919.821)" d="M0.790482 6.32504L0.790482 6.32504L0.790487 6.34441L0.790487 6.34441M0.810482 6.32503L0.830482 6.32503L0.830487 6.3444L0.810486 6.34441M0.850482 6.32503L0.870482 6.32502L0.870486 6.3444L0.850487 6.3444M0.890482 6.32502L0.910482 6.32501L0.910487 6.34439L0.890487 6.34439M0.930482 6.32501L0.950482 6.325L0.950486 6.34438L0.930487 6.34438M0.970482 6.325L0.990482 6.32499L0.990487 6.34437L0.970487 6.34437M1.01048 6.32499L1.03048 6.32498L1.03049 6.34436L1.01049 6.34436M1.05048 6.32498L1.07048 6.32497L1.07049 6.34435L1.05049 6.34435M1.09048 6.32497L1.11048 6.32496L1.11049 6.34434L1.09049 6.34434M1.13048 6.32496L1.15048 6.32495L1.15049 6.34433L1.13049 6.34433"/>
		<path fill="none" stroke="#7F7F7F" stroke-width="0.019375002" stroke-miterlimit="4" transform="matrix(51.6129 0 0 51.6129 773.842 919.821)" d="M1.06048 6.33466L1.18548 6.33463"/>
		<path fill="#7F7F7F" transform="matrix(51.6129 0 0 51.6129 773.842 919.821)" d="M1.16033 5.68941L1.18534 5.7394L1.13534 5.73941L1.16033 5.68941"/>
		<path fill="none" stroke="#7F7F7F" stroke-width="0.019375002" stroke-miterlimit="4" transform="matrix(51.6129 0 0 51.6129 773.842 919.821)" d="M1.16033 5.68941L1.18534 5.7394L1.13534 5.73941L1.16033 5.68941"/>
		<path fill="#7F7F7F" transform="matrix(51.6129 0 0 51.6129 773.842 919.821)" d="M1.16048 6.33464L1.13547 6.28464L1.18547 6.28463L1.16048 6.33464"/>
		<path fill="none" stroke="#7F7F7F" stroke-width="0.019375002" stroke-miterlimit="4" transform="matrix(51.6129 0 0 51.6129 773.842 919.821)" d="M1.16048 6.33464L1.13547 6.28464L1.18547 6.28463L1.16048 6.33464"/>
		<text fill="#7F7F7F" transform="matrix(0 -1 1 0 827.734 1240.17)" font-size="10.32258" font-family="Roboto" x="0, 5.7957458, 8.5148621, 14.310608, " y="9, ">
				0.65
		</text>
		<path fill="none" stroke="#7F7F7F" stroke-width="0.019375002" stroke-miterlimit="4" transform="matrix(0 -51.6129 51.6129 0 833.734 1230.12)" d=""/>
		<path fill="none" stroke="#7F7F7F" stroke-width="0.019375002" stroke-miterlimit="4" transform="matrix(51.6129 0 0 51.6129 773.842 919.821)" d="M1.16033 5.68941L1.16034 5.73974M1.16047 6.2843L1.16048 6.33464"/>
		<path fill="#7F7F7F" transform="matrix(51.6129 0 0 51.6129 773.842 919.821)" d="M0.790482 6.32504L0.790482 6.32504L0.790487 6.34441L0.790487 6.34441M0.810482 6.32503L0.830482 6.32503L0.830487 6.3444L0.810486 6.34441M0.850482 6.32503L0.870482 6.32502L0.870486 6.3444L0.850487 6.3444M0.890482 6.32502L0.910482 6.32501L0.910487 6.34439L0.890487 6.34439M0.930482 6.32501L0.950482 6.325L0.950486 6.34438L0.930487 6.34438M0.970482 6.325L0.990482 6.32499L0.990487 6.34437L0.970487 6.34437M1.01048 6.32499L1.03048 6.32498L1.03049 6.34436L1.01049 6.34436M1.05048 6.32498L1.07048 6.32497L1.07049 6.34435L1.05049 6.34435M1.09048 6.32497L1.11048 6.32496L1.11049 6.34434L1.09049 6.34434M1.13048 6.32496L1.15048 6.32495L1.15049 6.34433L1.13049 6.34433"/>
		<path fill="none" stroke="#7F7F7F" stroke-width="0.019375002" stroke-miterlimit="4" transform="matrix(51.6129 0 0 51.6129 773.842 919.821)" d="M1.06048 6.33466L1.18548 6.33463"/>
		<path fill="#7F7F7F" transform="matrix(51.6129 0 0 51.6129 773.842 919.821)" d="M0.792778 15.9299L0.792778 15.9299L0.792782 15.9493L0.792782 15.9493M0.812778 15.9299L0.832778 15.9299L0.832782 15.9492L0.812782 15.9493M0.852778 15.9299L0.872778 15.9299L0.872782 15.9492L0.852782 15.9492M0.892778 15.9299L0.912778 15.9299L0.912782 15.9492L0.892782 15.9492M0.932778 15.9298L0.952778 15.9298L0.952782 15.9492L0.932782 15.9492M0.972778 15.9298L0.992778 15.9298L0.992782 15.9492L0.972782 15.9492M1.01278 15.9298L1.03278 15.9298L1.03278 15.9492L1.01278 15.9492M1.05278 15.9298L1.07278 15.9298L1.07278 15.9492L1.05278 15.9492M1.09278 15.9298L1.11278 15.9298L1.11278 15.9492L1.09278 15.9492M1.13278 15.9298L1.15278 15.9298L1.15278 15.9492L1.13278 15.9492"/>
		<path fill="none" stroke="#7F7F7F" stroke-width="0.019375002" stroke-miterlimit="4" transform="matrix(51.6129 0 0 51.6129 773.842 919.821)" d="M1.06278 15.9395L1.18778 15.9395"/>
		<path fill="#7F7F7F" transform="matrix(51.6129 0 0 51.6129 773.842 919.821)" d="M1.16048 6.33464L1.1855 6.38463L1.1355 6.38464L1.16048 6.33464"/>
		<path fill="none" stroke="#7F7F7F" stroke-width="0.019375002" stroke-miterlimit="4" transform="matrix(51.6129 0 0 51.6129 773.842 919.821)" d="M1.16048 6.33464L1.1855 6.38463L1.1355 6.38464L1.16048 6.33464"/>
		<path fill="#7F7F7F" transform="matrix(51.6129 0 0 51.6129 773.842 919.821)" d="M1.16278 15.9395L1.13777 15.8895L1.18777 15.8895L1.16278 15.9395"/>
		<path fill="none" stroke="#7F7F7F" stroke-width="0.019375002" stroke-miterlimit="4" transform="matrix(51.6129 0 0 51.6129 773.842 919.821)" d="M1.16278 15.9395L1.13777 15.8895L1.18777 15.8895L1.16278 15.9395"/>
		<text fill="#7F7F7F" transform="matrix(0 -1 1 0 827.797 1504.69)" font-size="10.32258" font-family="Roboto" x="0, 5.7957458, 8.5148621, 14.310608, " y="9, ">
				9.60
		</text>
		<path fill="none" stroke="#7F7F7F" stroke-width="0.019375002" stroke-miterlimit="4" transform="matrix(0 -51.6129 51.6129 0 833.797 1494.64)" d=""/>
		<path fill="none" stroke="#7F7F7F" stroke-width="0.019375002" stroke-miterlimit="4" transform="matrix(51.6129 0 0 51.6129 773.842 919.821)" d="M1.16048 6.33464L1.16157 10.8648M1.1617 11.4093L1.16278 15.9395"/>
		<path fill="#7F7F7F" transform="matrix(51.6129 0 0 51.6129 773.842 919.821)" d="M0.785158 -15.9492L0.785158 -15.9492L0.785162 -15.9298L0.785162 -15.9298M0.805158 -15.9492L0.825158 -15.9492L0.825162 -15.9298L0.805162 -15.9298M0.845158 -15.9492L0.865158 -15.9492L0.865162 -15.9298L0.845162 -15.9298M0.885158 -15.9492L0.905158 -15.9492L0.905162 -15.9298L0.885162 -15.9298M0.925158 -15.9492L0.945158 -15.9492L0.945162 -15.9298L0.925162 -15.9298M0.965158 -15.9492L0.985158 -15.9492L0.985162 -15.9299L0.965162 -15.9298M1.00516 -15.9492L1.02516 -15.9492L1.02516 -15.9299L1.00516 -15.9299M1.04516 -15.9492L1.06516 -15.9492L1.06516 -15.9299L1.04516 -15.9299M1.08516 -15.9492L1.10516 -15.9493L1.10516 -15.9299L1.08516 -15.9299M1.12516 -15.9493L1.14516 -15.9493L1.14516 -15.9299L1.12516 -15.9299M1.16516 -15.9493L1.18516 -15.9493L1.18516 -15.9299L1.16516 -15.9299M1.20516 -15.9493L1.22516 -15.9493L1.22516 -15.9299L1.20516 -15.9299M1.24516 -15.9493L1.26516 -15.9493L1.26516 -15.9299L1.24516 -15.9299M1.28516 -15.9493L1.30516 -15.9493L1.30516 -15.9299L1.28516 -15.9299M1.32516 -15.9493L1.34516 -15.9493L1.34516 -15.9299L1.32516 -15.9299M1.36516 -15.9493L1.38516 -15.9493L1.38516 -15.9299L1.36516 -15.9299M1.40516 -15.9493L1.42516 -15.9493L1.42516 -15.93L1.40516 -15.93M1.44516 -15.9493L1.46516 -15.9493L1.46516 -15.93L1.44516 -15.93M1.48516 -15.9493L1.50516 -15.9493L1.50516 -15.93L1.48516 -15.93M1.52516 -15.9494L1.52516 -15.9494L1.52516 -15.93L1.52516 -15.93"/>
		<path fill="none" stroke="#7F7F7F" stroke-width="0.019375002" stroke-miterlimit="4" transform="matrix(51.6129 0 0 51.6129 773.842 919.821)" d="M1.42516 -15.9396L1.55016 -15.9397"/>
		<path fill="#7F7F7F" transform="matrix(51.6129 0 0 51.6129 773.842 919.821)" d="M0.792778 15.9299L0.792778 15.9299L0.792782 15.9493L0.792782 15.9493M0.812778 15.9299L0.832778 15.9299L0.832782 15.9492L0.812782 15.9493M0.852778 15.9299L0.872778 15.9299L0.872782 15.9492L0.852782 15.9492M0.892778 15.9299L0.912778 15.9299L0.912782 15.9492L0.892782 15.9492M0.932778 15.9298L0.952778 15.9298L0.952782 15.9492L0.932782 15.9492M0.972778 15.9298L0.992778 15.9298L0.992782 15.9492L0.972782 15.9492M1.01278 15.9298L1.03278 15.9298L1.03278 15.9492L1.01278 15.9492M1.05278 15.9298L1.07278 15.9298L1.07278 15.9492L1.05278 15.9492M1.09278 15.9298L1.11278 15.9298L1.11278 15.9492L1.09278 15.9492M1.13278 15.9298L1.15278 15.9298L1.15278 15.9492L1.13278 15.9492M1.17278 15.9298L1.19278 15.9298L1.19278 15.9492L1.17278 15.9492M1.21278 15.9298L1.23278 15.9298L1.23278 15.9492L1.21278 15.9492M1.25278 15.9298L1.27278 15.9298L1.27278 15.9491L1.25278 15.9491M1.29278 15.9298L1.31278 15.9298L1.31278 15.9491L1.29278 15.9491M1.33278 15.9298L1.35278 15.9297L1.35278 15.9491L1.33278 15.9491M1.37278 15.9297L1.39278 15.9297L1.39278 15.9491L1.37278 15.9491M1.41278 15.9297L1.43278 15.9297L1.43278 15.9491L1.41278 15.9491M1.45278 15.9297L1.47278 15.9297L1.47278 15.9491L1.45278 15.9491M1.49278 15.9297L1.51278 15.9297L1.51278 15.9491L1.49278 15.9491M1.53278 15.9297L1.53278 15.9297L1.53278 15.9491L1.53278 15.9491"/>
		<path fill="none" stroke="#7F7F7F" stroke-width="0.019375002" stroke-miterlimit="4" transform="matrix(51.6129 0 0 51.6129 773.842 919.821)" d="M1.43278 15.9394L1.55778 15.9394"/>
		<path fill="#7F7F7F" transform="matrix(51.6129 0 0 51.6129 773.842 919.821)" d="M1.52516 -15.9397L1.55017 -15.8897L1.50017 -15.8897L1.52516 -15.9397"/>
		<path fill="none" stroke="#7F7F7F" stroke-width="0.019375002" stroke-miterlimit="4" transform="matrix(51.6129 0 0 51.6129 773.842 919.821)" d="M1.52516 -15.9397L1.55017 -15.8897L1.50017 -15.8897L1.52516 -15.9397"/>
		<path fill="#7F7F7F" transform="matrix(51.6129 0 0 51.6129 773.842 919.821)" d="M1.53278 15.9394L1.50777 15.8894L1.55777 15.8894L1.53278 15.9394"/>
		<path fill="none" stroke="#7F7F7F" stroke-width="0.019375002" stroke-miterlimit="4" transform="matrix(51.6129 0 0 51.6129 773.842 919.821)" d="M1.53278 15.9394L1.50777 15.8894L1.55777 15.8894L1.53278 15.9394"/>
		<text fill="#7F7F7F" transform="matrix(0 -1 1 0 846.756 932.765)" font-size="10.32258" font-family="Roboto" x="0, 5.7957458, 11.591492, 14.310608, 20.106354, " y="9, ">
				31.88
		</text>
		<path fill="none" stroke="#7F7F7F" stroke-width="0.019375002" stroke-miterlimit="4" transform="matrix(0 -51.6129 51.6129 0 852.756 919.814)" d=""/>
		<path fill="none" stroke="#7F7F7F" stroke-width="0.019375002" stroke-miterlimit="4" transform="matrix(51.6129 0 0 51.6129 773.842 919.821)" d="M1.52516 -15.9397L1.52889 -0.328563M1.52905 0.32829L1.53278 15.9394"/>
		<path fill="#7F7F7F" transform="matrix(51.6129 0 0 51.6129 773.842 919.821)" d="M0.802467 15.9396L0.802467 15.9396L0.783092 15.9396L0.783092 15.9396M0.802461 15.9596L0.802455 15.9796L0.78308 15.9796L0.783086 15.9596M0.802449 15.9996L0.802443 16.0196L0.783068 16.0196L0.783074 15.9996M0.802437 16.0396L0.802431 16.0596L0.783056 16.0596L0.783062 16.0396M0.802425 16.0796L0.802419 16.0996L0.783044 16.0996L0.78305 16.0796M0.802413 16.1196L0.802407 16.1396L0.783032 16.1396L0.783038 16.1196M0.802401 16.1596L0.802395 16.1796L0.78302 16.1796L0.783026 16.1596M0.802389 16.1996L0.802383 16.2196L0.783008 16.2196L0.783014 16.1996M0.802377 16.2396L0.802371 16.2596L0.782996 16.2596L0.783002 16.2396M0.802365 16.2796L0.802359 16.2996L0.782984 16.2996L0.78299 16.2796"/>
		<path fill="none" stroke="#7F7F7F" stroke-width="0.019375002" stroke-miterlimit="4" transform="matrix(51.6129 0 0 51.6129 773.842 919.821)" d="M0.792699 16.2096L0.792661 16.3346"/>
		<path fill="#7F7F7F" transform="matrix(51.6129 0 0 51.6129 773.842 919.821)" d="M-0.416413 15.9392L-0.416413 15.9392L-0.435788 15.9392L-0.435788 15.9392M-0.416419 15.9592L-0.416425 15.9792L-0.4358 15.9792L-0.435794 15.9592M-0.416431 15.9992L-0.416437 16.0192L-0.435812 16.0192L-0.435806 15.9992M-0.416443 16.0392L-0.416449 16.0592L-0.435824 16.0592L-0.435818 16.0392M-0.416455 16.0792L-0.416461 16.0992L-0.435836 16.0992L-0.43583 16.0792M-0.416467 16.1192L-0.416473 16.1392L-0.435848 16.1392L-0.435842 16.1192M-0.416479 16.1592L-0.416485 16.1792L-0.43586 16.1792L-0.435854 16.1592M-0.416491 16.1992L-0.416497 16.2192L-0.435872 16.2192L-0.435866 16.1992M-0.416503 16.2392L-0.416509 16.2592L-0.435884 16.2592L-0.435878 16.2392M-0.416515 16.2792L-0.416521 16.2992L-0.435896 16.2992L-0.43589 16.2792"/>
		<path fill="none" stroke="#7F7F7F" stroke-width="0.019375002" stroke-miterlimit="4" transform="matrix(51.6129 0 0 51.6129 773.842 919.821)" d="M-0.426181 16.2092L-0.426219 16.3342"/>
		<path fill="#7F7F7F" transform="matrix(51.6129 0 0 51.6129 773.842 919.821)" d="M0.792668 16.3096L0.742661 16.3346L0.742676 16.2846L0.792668 16.3096"/>
		<path fill="none" stroke="#7F7F7F" stroke-width="0.019375002" stroke-miterlimit="4" transform="matrix(51.6129 0 0 51.6129 773.842 919.821)" d="M0.792668 16.3096L0.742661 16.3346L0.742676 16.2846L0.792668 16.3096"/>
		<path fill="#7F7F7F" transform="matrix(51.6129 0 0 51.6129 773.842 919.821)" d="M-0.426212 16.3092L-0.376204 16.2842L-0.376219 16.3342L-0.426212 16.3092"/>
		<path fill="none" stroke="#7F7F7F" stroke-width="0.019375002" stroke-miterlimit="4" transform="matrix(51.6129 0 0 51.6129 773.842 919.821)" d="M-0.426212 16.3092L-0.376204 16.2842L-0.376219 16.3342L-0.426212 16.3092"/>
		<text fill="#7F7F7F" transform="matrix(1 0.00030175 -0.00030175 1 773.247 1755.59)" font-size="10.32258" font-family="Roboto" x="0, 5.7957458, 8.5148621, 14.310608, " y="9, ">
				1.22
		</text>
		<path fill="none" stroke="#7F7F7F" stroke-width="0.019375002" stroke-miterlimit="4" transform="matrix(51.6129 0.0155742 -0.0155742 51.6129 783.299 1761.6)" d=""/>
		<path fill="none" stroke="#7F7F7F" stroke-width="0.019375002" stroke-miterlimit="4" transform="matrix(51.6129 0 0 51.6129 773.842 919.821)" d="M0.792668 16.3096L0.455509 16.3095M-0.089052 16.3093L-0.426212 16.3092"/>
		<path fill="#7F7F7F" transform="matrix(51.6129 0 0 51.6129 773.842 919.821)" d="M0.802467 15.9396L0.802467 15.9396L0.783092 15.9396L0.783092 15.9396M0.802461 15.9596L0.802455 15.9796L0.78308 15.9796L0.783086 15.9596M0.802449 15.9996L0.802443 16.0196L0.783068 16.0196L0.783074 15.9996M0.802437 16.0396L0.802431 16.0596L0.783056 16.0596L0.783062 16.0396M0.802425 16.0796L0.802419 16.0996L0.783044 16.0996L0.78305 16.0796M0.802413 16.1196L0.802407 16.1396L0.783032 16.1396L0.783038 16.1196M0.802401 16.1596L0.802395 16.1796L0.78302 16.1796L0.783026 16.1596M0.802389 16.1996L0.802383 16.2196L0.783008 16.2196L0.783014 16.1996M0.802377 16.2396L0.802371 16.2596L0.782996 16.2596L0.783002 16.2396M0.802365 16.2796L0.802359 16.2996L0.782984 16.2996L0.78299 16.2796M0.802353 16.3196L0.802347 16.3396L0.782972 16.3396L0.782978 16.3196M0.802341 16.3596L0.802335 16.3796L0.78296 16.3796L0.782966 16.3596M0.802329 16.3996L0.802323 16.4196L0.782948 16.4196L0.782954 16.3996M0.802317 16.4396L0.802311 16.4596L0.782936 16.4596L0.782942 16.4396M0.802305 16.4796L0.802298 16.4996L0.782924 16.4996L0.78293 16.4796M0.802292 16.5196L0.802286 16.5396L0.782911 16.5396L0.782917 16.5196M0.80228 16.5596L0.802274 16.5796L0.782899 16.5796L0.782905 16.5596M0.802268 16.5996L0.802262 16.6196L0.782887 16.6196L0.782893 16.5996M0.802256 16.6396L0.80225 16.6596L0.782875 16.6596L0.782881 16.6396"/>
		<path fill="none" stroke="#7F7F7F" stroke-width="0.019375002" stroke-miterlimit="4" transform="matrix(51.6129 0 0 51.6129 773.842 919.821)" d="M0.792587 16.5796L0.792549 16.7046"/>
		<path fill="#7F7F7F" transform="matrix(51.6129 0 0 51.6129 773.842 919.821)" d="M-0.788253 15.9391L-0.788253 15.9391L-0.807627 15.9391L-0.807627 15.9391M-0.788259 15.9591L-0.788265 15.9791L-0.80764 15.9791L-0.807634 15.9591M-0.788271 15.9991L-0.788277 16.0191L-0.807652 16.0191L-0.807646 15.9991M-0.788283 16.0391L-0.788289 16.0591L-0.807664 16.0591L-0.807658 16.0391M-0.788295 16.0791L-0.788301 16.0991L-0.807676 16.0991L-0.80767 16.0791M-0.788307 16.1191L-0.788313 16.1391L-0.807688 16.1391L-0.807682 16.1191M-0.788319 16.1591L-0.788325 16.1791L-0.8077 16.1791L-0.807694 16.1591M-0.788331 16.1991L-0.788337 16.2191L-0.807712 16.2191L-0.807706 16.1991M-0.788343 16.2391L-0.788349 16.2591L-0.807724 16.2591L-0.807718 16.2391M-0.788355 16.2791L-0.788361 16.2991L-0.807736 16.2991L-0.80773 16.2791M-0.788367 16.3191L-0.788373 16.3391L-0.807748 16.3391L-0.807742 16.3191M-0.788379 16.3591L-0.788385 16.3791L-0.80776 16.3791L-0.807754 16.3591M-0.788391 16.3991L-0.788397 16.4191L-0.807772 16.4191L-0.807766 16.3991M-0.788403 16.4391L-0.788409 16.4591L-0.807784 16.4591L-0.807778 16.4391M-0.788415 16.4791L-0.788422 16.4991L-0.807796 16.4991L-0.80779 16.4791M-0.788428 16.5191L-0.788434 16.5391L-0.807809 16.5391L-0.807802 16.5191M-0.78844 16.5591L-0.788446 16.5791L-0.807821 16.5791L-0.807815 16.5591M-0.788452 16.5991L-0.788458 16.6191L-0.807833 16.6191L-0.807827 16.5991M-0.788464 16.6391L-0.78847 16.6591L-0.807845 16.6591L-0.807839 16.6391M-0.788476 16.6791L-0.788476 16.6791L-0.807851 16.6791L-0.807851 16.6791"/>
		<path fill="none" stroke="#7F7F7F" stroke-width="0.019375002" stroke-miterlimit="4" transform="matrix(51.6129 0 0 51.6129 773.842 919.821)" d="M-0.798133 16.5791L-0.798171 16.7041"/>
		<path fill="#7F7F7F" transform="matrix(51.6129 0 0 51.6129 773.842 919.821)" d="M0.792557 16.6796L0.742549 16.7046L0.742564 16.6546L0.792557 16.6796"/>
		<path fill="none" stroke="#7F7F7F" stroke-width="0.019375002" stroke-miterlimit="4" transform="matrix(51.6129 0 0 51.6129 773.842 919.821)" d="M0.792557 16.6796L0.742549 16.7046L0.742564 16.6546L0.792557 16.6796"/>
		<path fill="#7F7F7F" transform="matrix(51.6129 0 0 51.6129 773.842 919.821)" d="M-0.798163 16.6791L-0.748156 16.6541L-0.748171 16.7041L-0.798163 16.6791"/>
		<path fill="none" stroke="#7F7F7F" stroke-width="0.019375002" stroke-miterlimit="4" transform="matrix(51.6129 0 0 51.6129 773.842 919.821)" d="M-0.798163 16.6791L-0.748156 16.6541L-0.748171 16.7041L-0.798163 16.6791"/>
		<text fill="#7F7F7F" transform="matrix(1 0.00030175 -0.00030175 1 763.646 1774.69)" font-size="10.32258" font-family="Roboto" x="0, 5.7957458, 8.5148621, 14.310608, " y="9, ">
				1.59
		</text>
		<path fill="none" stroke="#7F7F7F" stroke-width="0.019375002" stroke-miterlimit="4" transform="matrix(51.6129 0.0155742 -0.0155742 51.6129 773.697 1780.69)" d=""/>
		<path fill="none" stroke="#7F7F7F" stroke-width="0.019375002" stroke-miterlimit="4" transform="matrix(51.6129 0 0 51.6129 773.842 919.821)" d="M0.792557 16.6796L0.269477 16.6794M-0.275084 16.6792L-0.798163 16.6791"/>
		<path transform="matrix(51.6129 0 0 51.6129 773.842 919.821)" d="M-0.79917 -2.49724L-0.79917 -2.37224L-0.91917 -2.37224L-0.91917 -1.67024L-0.79917 -1.67024L-0.79817 15.9398L-0.42617 15.9398L-0.42717 16.0598L-0.91817 16.0598L-0.91917 -16.0592L-0.74717 -16.0592L-0.74717 -15.9392L-0.79917 -15.9392L-0.79917 -4.34924L-0.91917 -4.34924L-0.91917 -2.49724L-0.79917 -2.49724M0.91183 16.0598L0.79183 16.0598L0.79183 15.9298L0.78983 6.33476L0.90983 6.33476L0.91183 16.0598M0.90983 5.68976L0.78983 5.68976L0.78883 3.19876L0.90883 3.19876L0.90983 5.68976M0.90883 1.65676L0.78883 1.65676L0.78783 -2.03724L0.90783 -2.03724L0.90883 1.65676M0.90783 -2.85324L0.78783 -2.85324L0.78683 -6.08824L0.90683 -6.08824L0.90783 -2.85324M0.90683 -6.48824L0.78683 -6.48824L0.78483 -15.9392L0.75283 -15.9392L0.75283 -16.0592L0.90483 -16.0592L0.90683 -6.48824"/>
		<path fill="#EFEFEF" transform="matrix(51.6129 0 0 51.6129 773.842 919.821)" d="M0.75283 -15.9392L0.78483 -15.9392L0.78683 -6.48824L0.91183 -6.48824L0.91183 -6.08824L0.78683 -6.08824L0.78783 -2.85324L0.91283 -2.85324L0.91283 -2.03724L0.78783 -2.03724L0.78883 1.65676L0.91383 1.65676L0.91383 3.19876L0.78883 3.19876L0.78983 5.68976L0.91483 5.68976L0.91483 6.33476L0.78983 6.33476L0.79183 15.9348L0.79183 16.0648L-0.42617 16.0648L-0.42617 15.9398L-0.79817 15.9398L-0.79917 -1.67024L-0.92417 -1.67024L-0.92417 -2.37224L-0.79917 -2.37224L-0.79917 -2.49724L-0.92417 -2.49724L-0.92417 -4.34924L-0.79917 -4.34924L-0.79917 -15.9392L-0.74717 -15.9392L-0.74717 -16.0642L0.75283 -16.0642L0.75283 -15.9392"/>
		<path fill="none" stroke="black" stroke-width="0.0099999998" stroke-miterlimit="4" transform="matrix(0 51.6129 51.6129 0 693.312 797.349)" d="M0.70173 0.70173C0.70173 0.314024 0.387706 0 0 0C0 0.23391 0 0.46782 0 0.70173"/>
		<path fill="none" stroke="black" stroke-width="0.0099999998" stroke-miterlimit="4" transform="matrix(0 51.6129 51.6129 0 784.357 1213.47)" d="M0.64523 0.64523C0.64523 0.28874 0.35649 0 0 0C0 0.215077 0 0.430153 0 0.64523"/>
		<path fill="none" stroke="black" stroke-width="0.0099999998" stroke-miterlimit="4" transform="matrix(0 51.6129 51.6129 0 775.574 772.546)" d="M0.81541 0.81541C0.81541 0.364896 0.450514 0 0 0C0 0.271803 0 0.543607 0 0.81541"/>
		<path fill="none" stroke="black" stroke-width="0.010000001" stroke-miterlimit="4" transform="matrix(51.6129 0 -0 -51.6129 735.289 132.755)" d="M1.5 0.75C1.5 0.5 1.5 0.25 1.5 0C1.08563 0 0.75 0.335625 0.75 0.75C0.75 0.335625 0.414375 0 0 0C0 0.25 0 0.5 0 0.75"/>
		<path fill="white" transform="matrix(0 51.6129 -51.6129 -0 744.844 1454.63)" d="M0.00568535 0.00970082C0.384708 0.00970082 0.763732 0.00970082 1.14275 0.00970082C1.14275 0.0847205 1.14275 0.15974 1.14275 0.23476C0.763732 0.23476 0.384708 0.23476 0.00568535 0.23476C0.00568535 0.15974 0.00568535 0.0847205 0.00568535 0.00970082L0.00568535 0.00970082Z"/>
		<path fill="none" stroke="black" stroke-width="0.0099999998" stroke-miterlimit="4" transform="matrix(0 51.6129 -51.6129 -0 744.844 1454.63)" d="M0.00568535 0.00970082C0.384708 0.00970082 0.763732 0.00970082 1.14275 0.00970082C1.14275 0.0847205 1.14275 0.15974 1.14275 0.23476C0.763732 0.23476 0.384708 0.23476 0.00568535 0.23476C0.00568535 0.15974 0.00568535 0.0847205 0.00568535 0.00970082L0.00568535 0.00970082Z"/>
		<path fill="white" transform="matrix(0 51.6129 -51.6129 -0 744.844 1454.63)" d="M0.00568535 0.00194016C0.384708 0.00194016 0.763732 0.00194016 1.14275 0.00194016C1.14275 0.00452705 1.14275 0.00711393 1.14275 0.00970082C0.763732 0.00970082 0.384708 0.00970082 0.00568535 0.00970082C0.00568535 0.00711393 0.00568535 0.00452705 0.00568535 0.00194016L0.00568535 0.00194016Z"/>
		<path fill="none" stroke="black" stroke-width="0.0099999998" stroke-miterlimit="4" transform="matrix(0 51.6129 -51.6129 -0 744.844 1454.63)" d="M0.00568535 0.00194016C0.384708 0.00194016 0.763732 0.00194016 1.14275 0.00194016C1.14275 0.00452705 1.14275 0.00711393 1.14275 0.00970082C0.763732 0.00970082 0.384708 0.00970082 0.00568535 0.00970082C0.00568535 0.00711393 0.00568535 0.00452705 0.00568535 0.00194016L0.00568535 0.00194016Z"/>
		<path fill="none" stroke="black" stroke-width="0.0099999998" stroke-miterlimit="4" transform="matrix(0 51.6129 -51.6129 -0 744.844 1454.63)" d="M0.57422 0.00194016C0.57422 0.00452705 0.57422 0.00711393 0.57422 0.00970082"/>
	</g>
	<text font-size="13" font-family="Roboto" x="51.023621, 58.780457, 68.054382, 71.590027, 79.308777, 82.533386, 89.718933, 96.3078, 105.25165, 114.1955, 122.20624, 125.43085, 133.63202, 140.75409, 149.23456, 158.50848, 161.73309, 165.26874, 172.98749, 176.2121, 184.41327, 192.42401, 201.22821, 209.50555, 213.0412, 221.57245, 228.96112, 237.49237, 240.71698, 252.25067, 255.60223, 263.35907, 272.633, 281.57684, 290.00653, 297.50946, 300.73407, 311.99481, 320.47528, 328.48602, 336.49677, 344.97723, 354.06708, 361.92548, 369.73309, 372.9577, 381.90155, 389.0871, 392.31171, 400.79218, 409.88837, 417.69598, 420.92059, 429.07733, 432.61298, 441.8869, 449.77069, 453.19843, 456.42303, 464.14178, 471.53046, 480.80438, 488.52313, 497.46698, 505.66815, 509.31805, 517.79852, 521.02313, 529.55438, 533.09003, 540.80878, 549.2702, 556.39227, 564.87274, 568.40839, 579.758, 587.47675, 590.70135, 599.18182, 608.27802, 616.08563, 619.31024, 630.57098, 639.05145, 647.06219, 655.07294, 663.55341, 672.64325, 680.50165, 688.30927, 691.53387, 695.06952, 704.34344, 712.80487, 719.46356, 727.89325, 736.4245, 739.96014, 749.23407, 758.08905, 760.64716, 763.87177, 775.40546, 778.75702, 786.51385, 795.78778, 804.73163, 813.16132, 820.66425, 823.88885, 830.89032, 834.42596, 845.77557, 849.12714, 856.38251, 864.04413, 871.80096, 875.33661, 884.28046, 893.55438, 896.11249, 899.3371, 907.05585, 914.71747, 922.4743, 926.00995, 933.7287, 939.83514, 948.24579, 956.52313, 964.10223, 973.04608, 980.75214, 988.55975, 991.78436, 1000.7282, 1009.0182, 1017.4987, 1024.5002, 1027.8518, 1035.7102, 1043.5178, 1046.7424, 1055.6863, 1063.697, 1066.9216, 1075.3323, 1083.7937, 1092.2551, 1100.6848, 1108.6956, 1117.1062, 1125.5676, 1133.3752, 1136.5999, 1145.5437, " y="1850.9763, ">
			THIS FLOOR PLAN IS PROVIDED WITHOUT WARRANTY OF ANY KIND. SENSOPIA DISCLAIMS ANY WARRANTY INCLUDING, WITHOUT LIMITATION, SATISFACTORY QUALITY OR ACCURACY OF
	</text>
	<text font-size="13" font-family="Roboto" x="51.023682, 59.554932, 63.090576, 74.440186, 81.828857, 91.102783, 98.821533, 102.35718, 111.30103, 120.57495, 128.2937, " y="1865.9763, ">
			DIMENSIONS.
	</text>
</svg>
