<?xml version="1.0" encoding="utf-8" ?>
<svg xmlns="http://www.w3.org/2000/svg" xmlns:xlink="http://www.w3.org/1999/xlink" width="1280" height="1920">
	<rect fill="white" width="1280" height="1920"/>
	<clipPath id="cl_32">
		<rect x="42.519684" y="42.519684" width="226.77164" height="226.77164"/>
	</clipPath>
	<g clip-path="url(#cl_32)">
		<path transform="matrix(2.70354 0 0 2.70354 227.407 213.99)" d="M7.258 -5.545L7.63 -5.545L7.629 -5.295L7.008 -5.295L7.008 -15.864L7.258 -16.268L7.258 -5.545M9.098 -5.295L8.848 -5.295L8.848 -5.555L8.846 -15.15L9.096 -15.15L9.098 -5.295M-15.592 -5.658L-14.196 -5.658L-14.196 -5.408L-15.842 -5.408L-15.842 -5.451L-15.713 -5.693L-15.712 -5.693L-15.712 -5.695L-15.708 -5.702L-15.712 -5.704L-15.712 -6.71L-15.592 -6.71L-15.592 -5.658M-10.718 -5.409L-12.043 -5.409L-12.044 -5.659L-10.718 -5.659L-10.718 -5.409M-3.938 -5.411L-8.565 -5.41L-8.565 -5.66L-3.938 -5.661L-3.938 -5.411M0.361 -5.833L0.352 -5.819L0.361 -5.813L0.486 -5.736L0.486 -5.412L-1.785 -5.411L-1.785 -5.661L0.236 -5.662L0.236 -6.914L0.359 -6.914L0.361 -5.833M-15.715 -26.105L-8.75 -26.105L-8.751 -29.76L-15.715 -29.758L-15.715 -29.891L-16.903 -29.889L-16.903 -30.008L-8.619 -30.01L-8.62 -33.82L-30.46 -33.804L-30.459 -30.004L-21.822 -30.006L-21.822 -29.883L-21.893 -29.883L-21.893 -28.748L-22.017 -28.748L-22.017 -29.878L-30.446 -29.889L-30.442 -13.572L-22.016 -13.588L-22.016 -14.708L-21.899 -14.708L-21.9 -13.461L-30.232 -13.457L-30.249 -13.466L-30.326 -13.323L-30.692 -13.322L-30.705 -13.322L-30.709 -29.754L-30.71 -34.054L-30.71 -34.076L-8.752 -34.092L-8.462 -34.092L-8.462 -33.83L-8.502 -33.83L-8.497 -10.323L-8.618 -10.323L-8.62 -25.855L-15.594 -25.855L-15.594 -9.734L-9.381 -9.734L-9.381 -9.614L-15.593 -9.613L-15.593 -8.843L-15.712 -8.843L-15.715 -26.105M0.355 -9.042L0.236 -9.041L0.236 -9.606L-6.927 -9.604L-6.928 -22.45L0.331 -22.45L0.355 -9.042M-6.808 -22.331L-6.807 -9.724L0.226 -9.726L0.216 -22.333L-6.808 -22.331M-43.698 -14.005L-46.114 -14.005L-46.114 -14.255L-43.698 -14.255L-43.698 -14.005M-47.155 -14.255L-47.155 -14.005L-56.553 -14.006L-56.553 -14.256L-47.155 -14.255M-63.434 -16.005L-64.858 -16.005L-64.858 -14.257L-57.843 -14.256L-57.843 -14.006L-65.108 -14.007L-65.108 -16.254L-63.684 -16.254L-63.684 -19.085L-66.137 -19.087L-66.137 -20.105L-68.134 -20.102L-68.135 -20.606L-67.884 -20.606L-67.884 -20.352L-65.887 -20.355L-65.887 -19.337L-63.564 -19.335L-63.434 -19.335L-63.434 -16.005M-63.555 -20.391L-61.943 -20.39L-61.944 -23.963L-65.89 -23.96L-65.888 -21.98L-67.887 -21.976L-67.885 -20.906L-68.135 -20.906L-68.137 -22.226L-66.138 -22.229L-66.14 -24.21L-61.695 -24.213L-61.691 -16.254L-43.698 -16.256L-43.698 -15.595L-43.948 -15.595L-43.948 -16.006L-61.949 -16.004L-61.95 -20.27L-63.424 -20.271L-63.424 -20.35L-63.555 -20.35L-63.555 -20.391M14.931 -18.688L15.182 -18.688L15.182 -18.036L9.095 -18.036L9.096 -15.795L8.846 -15.795L8.845 -18.286L14.931 -18.286L14.931 -18.688M-21.899 -16.639L-22.016 -16.639L-22.016 -17.892L-21.898 -17.892L-21.899 -16.639M7.258 -16.711L7.141 -16.783L7.138 -23.155L7.257 -23.155L7.258 -16.711M-21.898 -19.027L-22.016 -19.027L-22.016 -19.074L-21.898 -19.074L-21.898 -19.027M11.816 -19.836L11.816 -19.956L11.865 -19.956L11.865 -21.491L14.932 -21.491L14.932 -22.401L15.182 -22.401L15.182 -19.767L14.931 -19.768L14.931 -19.836L14.889 -19.836L14.889 -19.956L14.932 -19.956L14.932 -21.371L11.985 -21.371L11.985 -19.956L12.831 -19.956L12.831 -19.836L11.816 -19.836M8.965 -19.836L8.965 -19.828L8.845 -19.828L8.844 -23.522L14.93 -23.522L14.93 -26.89L12.222 -26.89L12.221 -27.973L8.843 -27.973L8.841 -37.424L8.809 -37.424L8.809 -37.674L9.091 -37.674L9.093 -28.223L12.471 -28.223L12.472 -27.14L15.182 -27.14L15.182 -23.237L14.932 -23.237L14.932 -23.403L8.965 -23.402L8.964 -19.956L11.037 -19.956L11.037 -19.836L8.965 -19.836M14.246 -19.836L13.508 -19.836L13.508 -19.956L14.246 -19.956L14.246 -19.836M-21.897 -20.712L-22.016 -20.712L-22.017 -22.717L-21.896 -22.717L-21.897 -20.712M0.191 -33.848L-6.811 -33.843L-6.807 -23.518L0.199 -23.521L0.197 -26.231L0.317 -26.231L0.317 -26.232L0.324 -26.232L0.329 -23.39L0.206 -23.39L0.206 -23.4L-6.928 -23.4L-6.929 -33.83L-7.021 -33.83L-7.021 -34.092L0.441 -34.098L0.468 -34.098L0.468 -33.858L0.31 -33.858L0.313 -32.426L0.192 -32.426L0.191 -33.848M7.257 -23.857L7.138 -23.857L7.138 -23.982L7.257 -23.982L7.257 -23.857M8.964 -24.338L8.844 -24.338L8.843 -27.573L8.964 -27.573L8.964 -24.338M-22.017 -27.253L-21.894 -27.253L-21.895 -24.669L-22.017 -24.669L-22.017 -27.253M7.309 -37.424L7.257 -37.424L7.257 -25.834L7.137 -25.834L7.133 -33.865L7.007 -33.865L7.007 -37.674L7.309 -37.674L7.309 -37.424M0.194 -29.977L0.317 -29.977L0.321 -27.841L0.196 -27.841L0.194 -29.977M-18.83 -30.007L-18.83 -29.887L-19.827 -29.886L-19.827 -30.007L-18.83 -30.007M0.193 -30.933L0.313 -30.933L0.313 -30.934L0.315 -30.934L0.316 -30.723L0.193 -30.723L0.193 -30.933"/>
		<path transform="matrix(2.70354 0 0 2.70354 227.407 213.99)" d="M-15.652 -5.593L-15.741 -5.64L-15.713 -5.693L-15.712 -5.693L-15.712 -5.695L-15.708 -5.702L-15.712 -5.704L-15.712 -6.71L-15.652 -6.71L-15.652 -5.593M0.361 -5.833L0.352 -5.819L0.361 -5.813L0.412 -5.782L0.301 -5.603L0.299 -6.914L0.359 -6.914L0.361 -5.833M-15.653 -8.843L-15.712 -8.843L-15.715 -29.891L-16.903 -29.889L-16.903 -29.949L-15.656 -29.951L-15.653 -8.843M0.355 -9.042L0.295 -9.041L0.271 -22.45L0.331 -22.45L0.355 -9.042M-21.9 -13.461L-30.232 -13.457L-30.249 -13.466L-30.282 -13.404L-30.493 -13.517L-21.96 -13.521L-21.959 -14.708L-21.899 -14.708L-21.9 -13.461M-21.899 -16.639L-21.959 -16.639L-21.958 -17.892L-21.898 -17.892L-21.899 -16.639M7.201 -16.766L7.192 -16.752L7.141 -16.783L7.138 -23.155L7.198 -23.155L7.201 -16.766M-21.898 -19.027L-21.958 -19.027L-21.958 -19.074L-21.898 -19.074L-21.898 -19.027M-21.897 -20.712L-21.957 -20.712L-21.956 -22.717L-21.896 -22.717L-21.897 -20.712M0.264 -26.231L0.317 -26.231L0.317 -26.232L0.324 -26.232L0.329 -23.39L0.269 -23.39L0.264 -26.231M7.198 -23.857L7.138 -23.857L7.138 -23.982L7.198 -23.982L7.198 -23.857M-21.954 -27.253L-21.894 -27.253L-21.895 -24.669L-21.955 -24.669L-21.954 -27.253M7.197 -25.834L7.137 -25.834L7.133 -33.865L6.066 -33.864L6.066 -33.924L7.193 -33.925L7.197 -25.834M0.257 -29.977L0.317 -29.977L0.321 -27.841L0.261 -27.841L0.257 -29.977M-21.953 -29.943L-21.822 -29.943L-21.822 -29.883L-21.893 -29.883L-21.893 -28.748L-21.954 -28.748L-21.953 -29.943M-18.83 -29.887L-19.827 -29.886L-19.827 -29.946L-18.83 -29.947L-18.83 -29.887M0.255 -30.933L0.313 -30.933L0.313 -30.934L0.315 -30.934L0.316 -30.723L0.256 -30.723L0.255 -30.933M0.25 -33.918L1.356 -33.919L1.356 -33.859L0.31 -33.858L0.313 -32.426L0.253 -32.426L0.25 -33.918M4.31 -33.862L3.095 -33.861L3.095 -33.921L4.31 -33.922L4.31 -33.862"/>
		<path fill="#000019" fill-opacity="0.06666667" transform="matrix(2.70354 0 0 2.70354 227.407 213.99)" d="M8.809 -37.424L8.841 -37.424L8.843 -27.973L12.221 -27.973L12.222 -26.89L14.93 -26.89L14.93 -23.522L8.844 -23.522L8.845 -19.828L8.965 -19.828L8.965 -19.836L11.037 -19.836L11.037 -19.956L8.964 -19.956L8.965 -23.402L14.932 -23.403L14.932 -23.237L15.057 -23.237L15.057 -22.401L14.932 -22.401L14.932 -21.491L11.865 -21.491L11.865 -19.956L11.816 -19.956L11.816 -19.836L12.831 -19.836L12.831 -19.956L11.985 -19.956L11.985 -21.371L14.932 -21.371L14.932 -19.956L14.889 -19.956L14.889 -19.836L14.931 -19.836L14.931 -19.768L15.056 -19.768L15.056 -18.688L14.931 -18.688L14.931 -18.286L8.845 -18.286L8.846 -15.795L8.971 -15.795L8.971 -15.15L8.846 -15.15L8.848 -5.55L8.848 -5.42L7.63 -5.42L7.63 -5.545L7.258 -5.545L7.257 -23.155L7.133 -23.155L7.133 -23.857L7.257 -23.857L7.257 -23.982L7.133 -23.982L7.132 -24.403L7.132 -25.834L7.257 -25.834L7.257 -37.424L7.309 -37.424L7.309 -37.549L8.809 -37.549L8.809 -37.424M-7.021 -33.83L-6.929 -33.83L-6.928 -23.4L0.206 -23.4L0.206 -23.39L0.334 -23.39L0.336 -22.45L-6.928 -22.45L-6.927 -9.604L0.236 -9.606L0.236 -9.041L0.36 -9.042L0.364 -6.914L0.236 -6.914L0.236 -5.662L-1.785 -5.661L-1.785 -5.536L-3.938 -5.536L-3.938 -5.661L-8.565 -5.66L-8.565 -5.535L-10.718 -5.534L-10.718 -5.659L-12.044 -5.659L-12.044 -5.534L-14.196 -5.533L-14.196 -5.658L-15.592 -5.658L-15.592 -6.71L-15.717 -6.71L-15.718 -8.843L-15.593 -8.843L-15.593 -9.613L-8.497 -9.614L-8.502 -33.83L-8.462 -33.83L-8.462 -33.955L-7.021 -33.955L-7.021 -33.83M0.226 -9.726L-6.807 -9.724L-6.808 -22.331L0.216 -22.333L0.226 -9.726M-8.618 -9.734L-15.594 -9.734L-15.594 -25.855L-8.62 -25.855L-8.618 -9.734M-22.017 -29.878L-22.017 -28.748L-21.889 -28.748L-21.89 -27.253L-22.017 -27.253L-22.017 -24.669L-21.891 -24.669L-21.891 -22.717L-22.017 -22.717L-22.016 -20.712L-21.892 -20.712L-21.893 -19.074L-22.016 -19.074L-22.016 -19.027L-21.893 -19.027L-21.893 -17.892L-22.016 -17.892L-22.016 -16.639L-21.894 -16.639L-21.894 -14.708L-22.016 -14.708L-22.016 -13.588L-30.442 -13.572L-30.446 -29.889L-22.017 -29.878M-61.943 -20.39L-63.555 -20.391L-63.555 -20.35L-63.429 -20.35L-63.429 -20.271L-61.95 -20.27L-61.949 -16.004L-43.948 -16.006L-43.948 -15.595L-43.823 -15.595L-43.823 -14.255L-46.114 -14.255L-46.114 -14.13L-47.155 -14.13L-47.155 -14.255L-56.553 -14.256L-56.553 -14.131L-57.843 -14.131L-57.843 -14.256L-64.858 -14.257L-64.858 -16.005L-63.434 -16.005L-63.434 -19.335L-63.559 -19.335L-65.887 -19.337L-65.887 -20.355L-67.884 -20.352L-67.884 -20.606L-68.009 -20.606L-68.01 -20.906L-67.885 -20.906L-67.887 -21.976L-65.888 -21.98L-65.89 -23.96L-61.944 -23.963L-61.943 -20.39M13.508 -19.956L13.508 -19.836L14.246 -19.836L14.246 -19.956L13.508 -19.956M0.192 -32.426L0.318 -32.426L0.321 -30.934L0.193 -30.933L0.193 -30.723L0.321 -30.723L0.322 -29.977L0.194 -29.977L0.196 -27.841L0.326 -27.841L0.329 -26.232L0.197 -26.231L0.199 -23.521L-6.807 -23.518L-6.811 -33.843L0.191 -33.848L0.192 -32.426M8.843 -27.573L8.844 -24.338L8.964 -24.338L8.964 -27.573L8.843 -27.573M-8.619 -30.01L-16.903 -30.008L-16.903 -29.884L-18.83 -29.882L-18.83 -30.007L-19.827 -30.007L-19.827 -29.88L-21.822 -29.878L-21.822 -30.006L-30.459 -30.004L-30.46 -33.804L-8.62 -33.82L-8.619 -30.01"/>
		<path fill="#000019" fill-opacity="0.06666667" transform="matrix(2.70354 0 0 2.70354 227.407 213.99)" d="M-7.881 -8.823L-9.381 -8.823L-9.381 -10.323L-7.881 -10.323L-7.881 -8.823"/>
		<clipPath id="cl_33">
			<rect x="202.0453" y="186.08173" width="4.0553131" height="4.0553131"/>
		</clipPath>
		<g clip-path="url(#cl_33)">
			<path fill="none" stroke="#7F7F7F" stroke-width="0.55482715" stroke-miterlimit="4" transform="matrix(2.70354 0 0 2.70354 227.407 213.99)" d="M-9.381 -7.36392L-6.42192 -10.323"/>
		</g>
		<path fill="white" fill-opacity="0.80000001" d="M42.5197 42.5197L269.291 42.5197L269.291 269.291L42.5197 269.291L42.5197 42.5197Z"/>
		<path transform="matrix(2.70354 0 0 2.70354 218.466 136.444)" d="M3.61913 -3.74293L3.49913 -3.74293L3.49813 -5.16493L-3.50387 -5.15993L-3.49987 5.16507L3.50613 5.16207L3.50413 2.45207L3.62413 2.45207L3.62613 5.28207L-3.61987 5.28507L-3.62387 -5.27893L3.61813 -5.28493L3.61913 -3.74293M3.62313 0.842069L3.50313 0.842069L3.50113 -1.29393L3.62113 -1.29393L3.62313 0.842069M3.62013 -2.03993L3.50013 -2.03993L3.50013 -2.24993L3.62013 -2.24993L3.62013 -2.03993"/>
		<path fill="#EFEFEF" transform="matrix(2.70354 0 0 2.70354 218.466 136.444)" d="M3.49913 -3.74293L3.62413 -3.74293L3.62513 -2.24993L3.50013 -2.24993L3.50013 -2.03993L3.62613 -2.03993L3.62613 -1.29393L3.50113 -1.29393L3.50313 0.842069L3.62813 0.842069L3.62913 2.45207L3.50413 2.45207L3.50613 5.16207L-3.49987 5.16507L-3.50387 -5.15993L3.49813 -5.16493L3.49913 -3.74293"/>
	</g>
	<clipPath id="cl_34">
		<rect x="283.46457" y="42.519684" width="954.01575" height="1754.6063"/>
	</clipPath>
	<g clip-path="url(#cl_34)">
		<path fill="#7F7F7F" transform="matrix(101.382 0 0 101.382 713.445 919.887)" d="M3.51122 5.16125L3.51122 5.16125L3.50136 5.16125L3.50136 5.16125M3.51123 5.18125L3.51124 5.20125L3.50138 5.20125L3.50137 5.18125M3.51125 5.22125L3.51126 5.24125L3.50139 5.24125L3.50138 5.22125M3.51127 5.26125L3.51128 5.28125L3.50141 5.28125L3.5014 5.26125M3.51128 5.30125L3.51129 5.32125L3.50143 5.32125L3.50142 5.30125M3.5113 5.34125L3.51131 5.36125L3.50145 5.36125L3.50144 5.34125M3.51132 5.38125L3.51133 5.40125L3.50147 5.40125L3.50146 5.38125M3.51134 5.42125L3.51135 5.44125L3.50148 5.44125L3.50147 5.42125M3.51136 5.46125L3.51137 5.48125L3.5015 5.48125L3.50149 5.46125M3.51137 5.50125L3.51138 5.52125L3.50152 5.52125L3.50151 5.50125"/>
		<path fill="none" stroke="#7F7F7F" stroke-width="0.0098636365" stroke-miterlimit="4" transform="matrix(101.382 0 0 101.382 713.445 919.887)" d="M3.50641 5.43125L3.50647 5.55625"/>
		<path fill="#7F7F7F" transform="matrix(101.382 0 0 101.382 713.445 919.887)" d="M-3.49522 5.1644L-3.49522 5.1644L-3.50508 5.1644L-3.50508 5.1644M-3.49521 5.1844L-3.4952 5.2044L-3.50506 5.2044L-3.50507 5.1844M-3.49519 5.2244L-3.49518 5.2444L-3.50505 5.2444L-3.50505 5.2244M-3.49517 5.2644L-3.49516 5.2844L-3.50503 5.2844L-3.50504 5.2644M-3.49516 5.3044L-3.49515 5.3244L-3.50501 5.3244L-3.50502 5.3044M-3.49514 5.3444L-3.49513 5.3644L-3.50499 5.3644L-3.505 5.3444M-3.49512 5.3844L-3.49511 5.4044L-3.50497 5.4044L-3.50498 5.3844M-3.4951 5.4244L-3.49509 5.4444L-3.50496 5.4444L-3.50497 5.4244M-3.49508 5.4644L-3.49507 5.4844L-3.50494 5.4844L-3.50495 5.4644M-3.49507 5.5044L-3.49506 5.5244L-3.50492 5.5244L-3.50493 5.5044"/>
		<path fill="none" stroke="#7F7F7F" stroke-width="0.0098636365" stroke-miterlimit="4" transform="matrix(101.382 0 0 101.382 713.445 919.887)" d="M-3.50003 5.4344L-3.49997 5.5594"/>
		<path fill="#7F7F7F" transform="matrix(101.382 0 0 101.382 713.445 919.887)" d="M3.50646 5.53125L3.45647 5.55627L3.45645 5.50627L3.50646 5.53125"/>
		<path fill="none" stroke="#7F7F7F" stroke-width="0.0098636365" stroke-miterlimit="4" transform="matrix(101.382 0 0 101.382 713.445 919.887)" d="M3.50646 5.53125L3.45647 5.55627L3.45645 5.50627L3.50646 5.53125"/>
		<path fill="#7F7F7F" transform="matrix(101.382 0 0 101.382 713.445 919.887)" d="M-3.49998 5.5344L-3.44999 5.50938L-3.44997 5.55938L-3.49998 5.5344"/>
		<path fill="none" stroke="#7F7F7F" stroke-width="0.0098636365" stroke-miterlimit="4" transform="matrix(101.382 0 0 101.382 713.445 919.887)" d="M-3.49998 5.5344L-3.44999 5.50938L-3.44997 5.55938L-3.49998 5.5344"/>
		<text fill="#7F7F7F" transform="matrix(1 -0.000449586 0.000449586 1 702.071 1473.82)" font-size="12" font-family="Roboto" x="0, 6.7441406, 9.9082031, 16.652344, " y="11, ">
				7.01
		</text>
		<path fill="none" stroke="#7F7F7F" stroke-width="0.0098636365" stroke-miterlimit="4" transform="matrix(101.382 -0.0455802 0.0455802 101.382 713.773 1480.82)" d=""/>
		<path fill="none" stroke="#7F7F7F" stroke-width="0.0098636365" stroke-miterlimit="4" transform="matrix(101.382 0 0 101.382 713.445 919.887)" d="M3.50646 5.53125L0.158078 5.53276M-0.151605 5.53289L-3.49998 5.5344"/>
		<path fill="#7F7F7F" transform="matrix(101.382 0 0 101.382 713.445 919.887)" d="M-3.50015 5.16933L-3.50015 5.16933L-3.50015 5.15947L-3.50015 5.15947M-3.52015 5.16934L-3.54015 5.16935L-3.54015 5.15949L-3.52015 5.15948M-3.56015 5.16936L-3.58015 5.16937L-3.58015 5.1595L-3.56015 5.1595M-3.60015 5.16938L-3.62015 5.16939L-3.62015 5.15952L-3.60015 5.15951M-3.64015 5.1694L-3.66015 5.1694L-3.66015 5.15954L-3.64015 5.15953M-3.68015 5.16941L-3.70015 5.16942L-3.70015 5.15956L-3.68015 5.15955M-3.72015 5.16943L-3.74015 5.16944L-3.74015 5.15958L-3.72015 5.15957M-3.76015 5.16945L-3.78015 5.16946L-3.78015 5.1596L-3.76015 5.15959M-3.80015 5.16947L-3.82015 5.16948L-3.82015 5.15961L-3.80015 5.1596M-3.84015 5.16949L-3.86015 5.1695L-3.86015 5.15963L-3.84015 5.15962"/>
		<path fill="none" stroke="#7F7F7F" stroke-width="0.0098636365" stroke-miterlimit="4" transform="matrix(101.382 0 0 101.382 713.445 919.887)" d="M-3.77015 5.16452L-3.89515 5.16458"/>
		<path fill="#7F7F7F" transform="matrix(101.382 0 0 101.382 713.445 919.887)" d="M-3.50484 -5.15504L-3.50484 -5.15504L-3.50484 -5.1649L-3.50484 -5.1649M-3.52484 -5.15503L-3.54484 -5.15502L-3.54484 -5.16488L-3.52484 -5.16489M-3.56484 -5.15501L-3.58484 -5.155L-3.58484 -5.16487L-3.56484 -5.16487M-3.60484 -5.15499L-3.62484 -5.15498L-3.62484 -5.16485L-3.60484 -5.16486M-3.64484 -5.15497L-3.66484 -5.15497L-3.66484 -5.16483L-3.64484 -5.16484M-3.68484 -5.15496L-3.70484 -5.15495L-3.70484 -5.16481L-3.68484 -5.16482M-3.72484 -5.15494L-3.74484 -5.15493L-3.74484 -5.16479L-3.72484 -5.1648M-3.76484 -5.15492L-3.78484 -5.15491L-3.78484 -5.16477L-3.76484 -5.16478M-3.80484 -5.1549L-3.82484 -5.15489L-3.82484 -5.16476L-3.80484 -5.16477M-3.84484 -5.15488L-3.86484 -5.15487L-3.86484 -5.16474L-3.84484 -5.16475"/>
		<path fill="none" stroke="#7F7F7F" stroke-width="0.0098636365" stroke-miterlimit="4" transform="matrix(101.382 0 0 101.382 713.445 919.887)" d="M-3.77484 -5.15985L-3.89984 -5.15979"/>
		<path fill="#7F7F7F" transform="matrix(101.382 0 0 101.382 713.445 919.887)" d="M-3.87015 5.16457L-3.89517 5.11458L-3.84517 5.11456L-3.87015 5.16457"/>
		<path fill="none" stroke="#7F7F7F" stroke-width="0.0098636365" stroke-miterlimit="4" transform="matrix(101.382 0 0 101.382 713.445 919.887)" d="M-3.87015 5.16457L-3.89517 5.11458L-3.84517 5.11456L-3.87015 5.16457"/>
		<path fill="#7F7F7F" transform="matrix(101.382 0 0 101.382 713.445 919.887)" d="M-3.87484 -5.1598L-3.84982 -5.10981L-3.89982 -5.10979L-3.87484 -5.1598"/>
		<path fill="none" stroke="#7F7F7F" stroke-width="0.0098636365" stroke-miterlimit="4" transform="matrix(101.382 0 0 101.382 713.445 919.887)" d="M-3.87484 -5.1598L-3.84982 -5.10981L-3.89982 -5.10979L-3.87484 -5.1598"/>
		<text fill="#7F7F7F" transform="matrix(-0.000454231 -1 1 -0.000454231 313.848 935.202)" font-size="12" font-family="Roboto" x="0, 6.7441406, 13.488281, 16.652344, 23.396484, " y="11, ">
				10.32
		</text>
		<path fill="none" stroke="#7F7F7F" stroke-width="0.0098636365" stroke-miterlimit="4" transform="matrix(-0.0460511 -101.382 101.382 -0.0460511 320.841 920.129)" d=""/>
		<path fill="none" stroke="#7F7F7F" stroke-width="0.0098636365" stroke-miterlimit="4" transform="matrix(101.382 0 0 101.382 713.445 919.887)" d="M-3.87015 5.16457L-3.87241 0.190486M-3.87258 -0.18572L-3.87484 -5.1598"/>
		<path fill="#7F7F7F" transform="matrix(101.382 0 0 101.382 713.445 919.887)" d="M-3.50977 -5.15997L-3.50977 -5.15997L-3.49991 -5.15997L-3.49991 -5.15997M-3.50979 -5.17997L-3.5098 -5.19997L-3.49994 -5.19997L-3.49992 -5.17997M-3.50982 -5.21997L-3.50984 -5.23997L-3.49997 -5.23997L-3.49996 -5.21997M-3.50985 -5.25997L-3.50987 -5.27997L-3.50001 -5.27997L-3.49999 -5.25997M-3.50989 -5.29997L-3.5099 -5.31997L-3.50004 -5.31997L-3.50002 -5.29997M-3.50992 -5.33997L-3.50993 -5.35997L-3.50007 -5.35997L-3.50005 -5.33997M-3.50995 -5.37997L-3.50997 -5.39997L-3.5001 -5.39997L-3.50009 -5.37997M-3.50998 -5.41997L-3.51 -5.43997L-3.50014 -5.43997L-3.50012 -5.41997M-3.51002 -5.45997L-3.51003 -5.47997L-3.50017 -5.47997L-3.50015 -5.45997M-3.51005 -5.49997L-3.51006 -5.51997L-3.5002 -5.51997L-3.50018 -5.49997"/>
		<path fill="none" stroke="#7F7F7F" stroke-width="0.0098636365" stroke-miterlimit="4" transform="matrix(101.382 0 0 101.382 713.445 919.887)" d="M-3.50506 -5.42997L-3.50516 -5.55497"/>
		<path fill="#7F7F7F" transform="matrix(101.382 0 0 101.382 713.445 919.887)" d="M3.49408 -5.16567L3.49408 -5.16567L3.50394 -5.16567L3.50394 -5.16567M3.49406 -5.18567L3.49405 -5.20567L3.50391 -5.20567L3.50393 -5.18567M3.49403 -5.22567L3.49401 -5.24567L3.50388 -5.24567L3.50389 -5.22567M3.494 -5.26567L3.49398 -5.28567L3.50384 -5.28567L3.50386 -5.26567M3.49396 -5.30567L3.49395 -5.32567L3.50381 -5.32567L3.50383 -5.30567M3.49393 -5.34567L3.49392 -5.36567L3.50378 -5.36567L3.5038 -5.34567M3.4939 -5.38567L3.49388 -5.40567L3.50375 -5.40567L3.50376 -5.38567M3.49387 -5.42567L3.49385 -5.44567L3.50371 -5.44567L3.50373 -5.42567M3.49383 -5.46567L3.49382 -5.48567L3.50368 -5.48567L3.5037 -5.46567M3.4938 -5.50567L3.49379 -5.52567L3.50365 -5.52567L3.50367 -5.50567"/>
		<path fill="none" stroke="#7F7F7F" stroke-width="0.0098636365" stroke-miterlimit="4" transform="matrix(101.382 0 0 101.382 713.445 919.887)" d="M3.49879 -5.43567L3.49869 -5.56067"/>
		<path fill="#7F7F7F" transform="matrix(101.382 0 0 101.382 713.445 919.887)" d="M-3.50514 -5.52997L-3.45516 -5.55501L-3.45512 -5.50501L-3.50514 -5.52997"/>
		<path fill="none" stroke="#7F7F7F" stroke-width="0.0098636365" stroke-miterlimit="4" transform="matrix(101.382 0 0 101.382 713.445 919.887)" d="M-3.50514 -5.52997L-3.45516 -5.55501L-3.45512 -5.50501L-3.50514 -5.52997"/>
		<path fill="#7F7F7F" transform="matrix(101.382 0 0 101.382 713.445 919.887)" d="M3.49871 -5.53567L3.44873 -5.51063L3.44869 -5.56063L3.49871 -5.53567"/>
		<path fill="none" stroke="#7F7F7F" stroke-width="0.0098636365" stroke-miterlimit="4" transform="matrix(101.382 0 0 101.382 713.445 919.887)" d="M3.49871 -5.53567L3.44873 -5.51063L3.44869 -5.56063L3.49871 -5.53567"/>
		<text fill="#7F7F7F" transform="matrix(1 -0.000813838 0.000813838 1 701.415 351.966)" font-size="12" font-family="Roboto" x="0, 6.7441406, 9.9082031, 16.652344, " y="11, ">
				7.00
		</text>
		<path fill="none" stroke="#7F7F7F" stroke-width="0.0098636365" stroke-miterlimit="4" transform="matrix(101.382 -0.0825089 0.0825089 101.382 713.119 358.956)" d=""/>
		<path fill="none" stroke="#7F7F7F" stroke-width="0.0098636365" stroke-miterlimit="4" transform="matrix(101.382 0 0 101.382 713.445 919.887)" d="M-3.50514 -5.52997L-0.158058 -5.53269M0.151626 -5.53295L3.49871 -5.53567"/>
		<path fill="#7F7F7F" transform="matrix(101.382 0 0 101.382 713.445 919.887)" d="M3.49901 -5.1706L3.49901 -5.1706L3.49901 -5.16074L3.49901 -5.16074M3.51901 -5.17062L3.53901 -5.17063L3.53901 -5.16077L3.51901 -5.16075M3.55901 -5.17064L3.57901 -5.17066L3.57901 -5.16079L3.55901 -5.16078M3.59901 -5.17067L3.61901 -5.17069L3.61901 -5.16082L3.59901 -5.16081M3.63901 -5.1707L3.65901 -5.17071L3.65901 -5.16085L3.63901 -5.16084M3.67901 -5.17073L3.69901 -5.17074L3.69901 -5.16088L3.67901 -5.16086M3.71901 -5.17076L3.73901 -5.17077L3.73901 -5.16091L3.71901 -5.16089M3.75901 -5.17079L3.77901 -5.1708L3.77901 -5.16094L3.75901 -5.16092M3.79901 -5.17081L3.81901 -5.17083L3.81901 -5.16096L3.79901 -5.16095M3.83901 -5.17084L3.85901 -5.17086L3.85901 -5.16099L3.83901 -5.16098M3.87901 -5.17087L3.89901 -5.17088L3.89901 -5.16102L3.87901 -5.16101M3.91901 -5.1709L3.93901 -5.17091L3.93901 -5.16105L3.91901 -5.16103M3.95901 -5.17093L3.97901 -5.17094L3.97901 -5.16108L3.95901 -5.16106M3.99901 -5.17095L4.01901 -5.17097L4.01901 -5.1611L3.99901 -5.16109M4.03901 -5.17098L4.05901 -5.171L4.05901 -5.16113L4.03901 -5.16112M4.07901 -5.17101L4.09901 -5.17102L4.09901 -5.16116L4.07901 -5.16115M4.11901 -5.17104L4.13901 -5.17105L4.13901 -5.16119L4.11901 -5.16118M4.15901 -5.17107L4.17901 -5.17108L4.17901 -5.16122L4.15901 -5.1612M4.19901 -5.1711L4.21901 -5.17111L4.21901 -5.16125L4.19901 -5.16123M4.23901 -5.17112L4.25901 -5.17114L4.25901 -5.16127L4.23901 -5.16126M4.27901 -5.17115L4.29901 -5.17117L4.29901 -5.1613L4.27901 -5.16129M4.31901 -5.17118L4.33901 -5.17119L4.33901 -5.16133L4.31901 -5.16132M4.35901 -5.17121L4.37901 -5.17122L4.37901 -5.16136L4.35901 -5.16134M4.39901 -5.17124L4.41901 -5.17125L4.41901 -5.16139L4.39901 -5.16137"/>
		<path fill="none" stroke="#7F7F7F" stroke-width="0.0098636365" stroke-miterlimit="4" transform="matrix(101.382 0 0 101.382 713.445 919.887)" d="M4.32529 -5.16625L4.45029 -5.16634"/>
		<path fill="#7F7F7F" transform="matrix(101.382 0 0 101.382 713.445 919.887)" d="M3.50001 -3.74828L3.50001 -3.74828L3.50002 -3.73842L3.50002 -3.73842M3.52001 -3.7483L3.54001 -3.74831L3.54002 -3.73845L3.52002 -3.73843M3.56001 -3.74833L3.58001 -3.74834L3.58002 -3.73848L3.56002 -3.73846M3.60001 -3.74835L3.62001 -3.74837L3.62002 -3.73851L3.60002 -3.73849M3.64001 -3.74838L3.66001 -3.7484L3.66002 -3.73853L3.64002 -3.73852M3.68001 -3.74841L3.70001 -3.74843L3.70002 -3.73856L3.68002 -3.73855M3.72001 -3.74844L3.74001 -3.74845L3.74002 -3.73859L3.72002 -3.73858M3.76001 -3.74847L3.78001 -3.74848L3.78002 -3.73862L3.76002 -3.7386M3.80001 -3.7485L3.82001 -3.74851L3.82002 -3.73865L3.80002 -3.73863M3.84001 -3.74852L3.86001 -3.74854L3.86002 -3.73867L3.84002 -3.73866M3.88001 -3.74855L3.90001 -3.74857L3.90002 -3.7387L3.88002 -3.73869M3.92001 -3.74858L3.94001 -3.74859L3.94002 -3.73873L3.92002 -3.73872M3.96001 -3.74861L3.98001 -3.74862L3.98002 -3.73876L3.96002 -3.73874M4.00001 -3.74864L4.02001 -3.74865L4.02002 -3.73879L4.00002 -3.73877M4.04001 -3.74867L4.06001 -3.74868L4.06002 -3.73882L4.04002 -3.7388M4.08001 -3.74869L4.10001 -3.74871L4.10002 -3.73884L4.08002 -3.73883M4.12001 -3.74872L4.14001 -3.74874L4.14002 -3.73887L4.12002 -3.73886M4.16001 -3.74875L4.18001 -3.74876L4.18002 -3.7389L4.16002 -3.73889M4.20001 -3.74878L4.22001 -3.74879L4.22002 -3.73893L4.20002 -3.73891M4.24001 -3.74881L4.26001 -3.74882L4.26002 -3.73896L4.24002 -3.73894M4.28001 -3.74883L4.30001 -3.74885L4.30002 -3.73898L4.28002 -3.73897M4.32001 -3.74886L4.34001 -3.74888L4.34002 -3.73901L4.32002 -3.739M4.36001 -3.74889L4.38001 -3.7489L4.38002 -3.73904L4.36002 -3.73903M4.40001 -3.74892L4.42001 -3.74893L4.42002 -3.73907L4.40002 -3.73905"/>
		<path fill="none" stroke="#7F7F7F" stroke-width="0.0098636365" stroke-miterlimit="4" transform="matrix(101.382 0 0 101.382 713.445 919.887)" d="M4.32629 -3.74393L4.45129 -3.74402"/>
		<path fill="#7F7F7F" transform="matrix(101.382 0 0 101.382 713.445 919.887)" d="M4.42529 -5.16632L4.45033 -5.11634L4.40032 -5.11631L4.42529 -5.16632"/>
		<path fill="none" stroke="#7F7F7F" stroke-width="0.0098636365" stroke-miterlimit="4" transform="matrix(101.382 0 0 101.382 713.445 919.887)" d="M4.42529 -5.16632L4.45033 -5.11634L4.40032 -5.11631L4.42529 -5.16632"/>
		<path fill="#7F7F7F" transform="matrix(101.382 0 0 101.382 713.445 919.887)" d="M4.42629 -3.74401L4.40126 -3.79399L4.45126 -3.79402L4.42629 -3.74401"/>
		<path fill="none" stroke="#7F7F7F" stroke-width="0.0098636365" stroke-miterlimit="4" transform="matrix(101.382 0 0 101.382 713.445 919.887)" d="M4.42629 -3.74401L4.40126 -3.79399L4.45126 -3.79402L4.42629 -3.74401"/>
		<text fill="#7F7F7F" transform="matrix(-0.000704928 -1 1 -0.000704928 1155.15 479.915)" font-size="12" font-family="Roboto" x="0, 6.7441406, 9.9082031, 16.652344, " y="11, ">
				1.42
		</text>
		<path fill="none" stroke="#7F7F7F" stroke-width="0.0098636365" stroke-miterlimit="4" transform="matrix(-0.0714674 -101.382 101.382 -0.0714674 1162.14 468.212)" d=""/>
		<path fill="none" stroke="#7F7F7F" stroke-width="0.0098636365" stroke-miterlimit="4" transform="matrix(101.382 0 0 101.382 713.445 919.887)" d="M4.42529 -5.16632L4.42568 -4.61001M4.4259 -4.30032L4.42629 -3.74401"/>
		<path fill="#7F7F7F" transform="matrix(101.382 0 0 101.382 713.445 919.887)" d="M3.50001 -3.74828L3.50001 -3.74828L3.50002 -3.73842L3.50002 -3.73842M3.52001 -3.7483L3.54001 -3.74831L3.54002 -3.73845L3.52002 -3.73843M3.56001 -3.74833L3.58001 -3.74834L3.58002 -3.73848L3.56002 -3.73846M3.60001 -3.74835L3.62001 -3.74837L3.62002 -3.73851L3.60002 -3.73849M3.64001 -3.74838L3.66001 -3.7484L3.66002 -3.73853L3.64002 -3.73852M3.68001 -3.74841L3.70001 -3.74843L3.70002 -3.73856L3.68002 -3.73855M3.72001 -3.74844L3.74001 -3.74845L3.74002 -3.73859L3.72002 -3.73858M3.76001 -3.74847L3.78001 -3.74848L3.78002 -3.73862L3.76002 -3.7386M3.80001 -3.7485L3.82001 -3.74851L3.82002 -3.73865L3.80002 -3.73863M3.84001 -3.74852L3.86001 -3.74854L3.86002 -3.73867L3.84002 -3.73866M3.88001 -3.74855L3.90001 -3.74857L3.90002 -3.7387L3.88002 -3.73869M3.92001 -3.74858L3.94001 -3.74859L3.94002 -3.73873L3.92002 -3.73872M3.96001 -3.74861L3.98001 -3.74862L3.98002 -3.73876L3.96002 -3.73874M4.00001 -3.74864L4.02001 -3.74865L4.02002 -3.73879L4.00002 -3.73877M4.04001 -3.74867L4.06001 -3.74868L4.06002 -3.73882L4.04002 -3.7388M4.08001 -3.74869L4.10001 -3.74871L4.10002 -3.73884L4.08002 -3.73883M4.12001 -3.74872L4.14001 -3.74874L4.14002 -3.73887L4.12002 -3.73886M4.16001 -3.74875L4.18001 -3.74876L4.18002 -3.7389L4.16002 -3.73889M4.20001 -3.74878L4.22001 -3.74879L4.22002 -3.73893L4.20002 -3.73891M4.24001 -3.74881L4.26001 -3.74882L4.26002 -3.73896L4.24002 -3.73894M4.28001 -3.74883L4.30001 -3.74885L4.30002 -3.73898L4.28002 -3.73897M4.32001 -3.74886L4.34001 -3.74888L4.34002 -3.73901L4.32002 -3.739M4.36001 -3.74889L4.38001 -3.7489L4.38002 -3.73904L4.36002 -3.73903M4.40001 -3.74892L4.42001 -3.74893L4.42002 -3.73907L4.40002 -3.73905"/>
		<path fill="none" stroke="#7F7F7F" stroke-width="0.0098636365" stroke-miterlimit="4" transform="matrix(101.382 0 0 101.382 713.445 919.887)" d="M4.32629 -3.74393L4.45129 -3.74402"/>
		<path fill="#7F7F7F" transform="matrix(101.382 0 0 101.382 713.445 919.887)" d="M3.50106 -2.25572L3.50106 -2.25572L3.50107 -2.24586L3.50107 -2.24586M3.52106 -2.25574L3.54106 -2.25575L3.54107 -2.24589L3.52107 -2.24587M3.56106 -2.25577L3.58106 -2.25578L3.58107 -2.24592L3.56107 -2.2459M3.60106 -2.2558L3.62106 -2.25581L3.62107 -2.24595L3.60107 -2.24593M3.64106 -2.25582L3.66106 -2.25584L3.66107 -2.24597L3.64107 -2.24596M3.68106 -2.25585L3.70106 -2.25587L3.70107 -2.246L3.68107 -2.24599M3.72106 -2.25588L3.74106 -2.25589L3.74107 -2.24603L3.72107 -2.24602M3.76106 -2.25591L3.78106 -2.25592L3.78107 -2.24606L3.76107 -2.24604M3.80106 -2.25594L3.82106 -2.25595L3.82107 -2.24609L3.80107 -2.24607M3.84106 -2.25596L3.86106 -2.25598L3.86107 -2.24611L3.84107 -2.2461M3.88106 -2.25599L3.90106 -2.25601L3.90107 -2.24614L3.88107 -2.24613M3.92106 -2.25602L3.94106 -2.25603L3.94107 -2.24617L3.92107 -2.24616M3.96106 -2.25605L3.98106 -2.25606L3.98107 -2.2462L3.96107 -2.24619M4.00106 -2.25608L4.02106 -2.25609L4.02107 -2.24623L4.00107 -2.24621M4.04106 -2.25611L4.06106 -2.25612L4.06107 -2.24626L4.04107 -2.24624M4.08106 -2.25613L4.10106 -2.25615L4.10107 -2.24628L4.08107 -2.24627M4.12106 -2.25616L4.14106 -2.25618L4.14107 -2.24631L4.12107 -2.2463M4.16106 -2.25619L4.18106 -2.2562L4.18107 -2.24634L4.16107 -2.24633M4.20106 -2.25622L4.22106 -2.25623L4.22107 -2.24637L4.20107 -2.24635M4.24106 -2.25625L4.26106 -2.25626L4.26107 -2.2464L4.24107 -2.24638M4.28106 -2.25627L4.30106 -2.25629L4.30107 -2.24642L4.28107 -2.24641M4.32106 -2.2563L4.34106 -2.25632L4.34107 -2.24645L4.32107 -2.24644M4.36106 -2.25633L4.38106 -2.25635L4.38107 -2.24648L4.36107 -2.24647M4.40106 -2.25636L4.42106 -2.25637L4.42107 -2.24651L4.40107 -2.2465"/>
		<path fill="none" stroke="#7F7F7F" stroke-width="0.0098636365" stroke-miterlimit="4" transform="matrix(101.382 0 0 101.382 713.445 919.887)" d="M4.32734 -2.25138L4.45234 -2.25146"/>
		<path fill="#7F7F7F" transform="matrix(101.382 0 0 101.382 713.445 919.887)" d="M4.42629 -3.74401L4.45133 -3.69402L4.40133 -3.69399L4.42629 -3.74401"/>
		<path fill="none" stroke="#7F7F7F" stroke-width="0.0098636365" stroke-miterlimit="4" transform="matrix(101.382 0 0 101.382 713.445 919.887)" d="M4.42629 -3.74401L4.45133 -3.69402L4.40133 -3.69399L4.42629 -3.74401"/>
		<path fill="#7F7F7F" transform="matrix(101.382 0 0 101.382 713.445 919.887)" d="M4.42734 -2.25145L4.40231 -2.30143L4.45231 -2.30146L4.42734 -2.25145"/>
		<path fill="none" stroke="#7F7F7F" stroke-width="0.0098636365" stroke-miterlimit="4" transform="matrix(101.382 0 0 101.382 713.445 919.887)" d="M4.42734 -2.25145L4.40231 -2.30143L4.45231 -2.30146L4.42734 -2.25145"/>
		<text fill="#7F7F7F" transform="matrix(-0.000704928 -1 1 -0.000704928 1155.25 627.674)" font-size="12" font-family="Roboto" x="0, 6.7441406, 9.9082031, 16.652344, " y="11, ">
				1.49
		</text>
		<path fill="none" stroke="#7F7F7F" stroke-width="0.0098636365" stroke-miterlimit="4" transform="matrix(-0.0714674 -101.382 101.382 -0.0714674 1162.25 615.97)" d=""/>
		<path fill="none" stroke="#7F7F7F" stroke-width="0.0098636365" stroke-miterlimit="4" transform="matrix(101.382 0 0 101.382 713.445 919.887)" d="M4.42629 -3.74401L4.42671 -3.15257M4.42693 -2.84288L4.42734 -2.25145"/>
		<path fill="#7F7F7F" transform="matrix(101.382 0 0 101.382 713.445 919.887)" d="M3.50121 -2.04526L3.50121 -2.04526L3.50122 -2.03539L3.50122 -2.03539M3.52121 -2.04527L3.54121 -2.04528L3.54122 -2.03542L3.52122 -2.03541M3.56121 -2.0453L3.58121 -2.04531L3.58122 -2.03545L3.56122 -2.03543M3.60121 -2.04533L3.62121 -2.04534L3.62122 -2.03548L3.60122 -2.03546M3.64121 -2.04535L3.66121 -2.04537L3.66122 -2.0355L3.64122 -2.03549M3.68121 -2.04538L3.70121 -2.0454L3.70122 -2.03553L3.68122 -2.03552M3.72121 -2.04541L3.74121 -2.04542L3.74122 -2.03556L3.72122 -2.03555M3.76121 -2.04544L3.78121 -2.04545L3.78122 -2.03559L3.76122 -2.03558M3.80121 -2.04547L3.82121 -2.04548L3.82122 -2.03562L3.80122 -2.0356M3.84121 -2.0455L3.86121 -2.04551L3.86122 -2.03565L3.84122 -2.03563M3.88121 -2.04552L3.90121 -2.04554L3.90122 -2.03567L3.88122 -2.03566M3.92121 -2.04555L3.94121 -2.04557L3.94122 -2.0357L3.92122 -2.03569M3.96121 -2.04558L3.98121 -2.04559L3.98122 -2.03573L3.96122 -2.03572M4.00121 -2.04561L4.02121 -2.04562L4.02122 -2.03576L4.00122 -2.03574M4.04121 -2.04564L4.06121 -2.04565L4.06122 -2.03579L4.04122 -2.03577M4.08121 -2.04566L4.10121 -2.04568L4.10122 -2.03581L4.08122 -2.0358M4.12121 -2.04569L4.14121 -2.04571L4.14122 -2.03584L4.12122 -2.03583M4.16121 -2.04572L4.18121 -2.04574L4.18122 -2.03587L4.16122 -2.03586M4.20121 -2.04575L4.22121 -2.04576L4.22122 -2.0359L4.20122 -2.03589M4.24121 -2.04578L4.26121 -2.04579L4.26122 -2.03593L4.24122 -2.03591M4.28121 -2.04581L4.30121 -2.04582L4.30122 -2.03596L4.28122 -2.03594M4.32121 -2.04583L4.34121 -2.04585L4.34122 -2.03598L4.32122 -2.03597M4.36121 -2.04586L4.38121 -2.04588L4.38122 -2.03601L4.36122 -2.036M4.40121 -2.04589L4.42121 -2.0459L4.42122 -2.03604L4.40122 -2.03603"/>
		<path fill="none" stroke="#7F7F7F" stroke-width="0.0098636365" stroke-miterlimit="4" transform="matrix(101.382 0 0 101.382 713.445 919.887)" d="M4.32749 -2.04091L4.45249 -2.04099"/>
		<path fill="#7F7F7F" transform="matrix(101.382 0 0 101.382 713.445 919.887)" d="M3.50174 -1.29898L3.50174 -1.29898L3.50174 -1.28911L3.50174 -1.28911M3.52174 -1.29899L3.54174 -1.299L3.54174 -1.28914L3.52174 -1.28913M3.56174 -1.29902L3.58174 -1.29903L3.58174 -1.28917L3.56174 -1.28915M3.60174 -1.29905L3.62174 -1.29906L3.62174 -1.2892L3.60174 -1.28918M3.64174 -1.29907L3.66174 -1.29909L3.66174 -1.28922L3.64174 -1.28921M3.68174 -1.2991L3.70174 -1.29912L3.70174 -1.28925L3.68174 -1.28924M3.72174 -1.29913L3.74174 -1.29914L3.74174 -1.28928L3.72174 -1.28927M3.76174 -1.29916L3.78174 -1.29917L3.78174 -1.28931L3.76174 -1.2893M3.80174 -1.29919L3.82174 -1.2992L3.82174 -1.28934L3.80174 -1.28932M3.84174 -1.29922L3.86174 -1.29923L3.86174 -1.28937L3.84174 -1.28935M3.88174 -1.29924L3.90174 -1.29926L3.90174 -1.28939L3.88174 -1.28938M3.92174 -1.29927L3.94174 -1.29929L3.94174 -1.28942L3.92174 -1.28941M3.96174 -1.2993L3.98174 -1.29931L3.98174 -1.28945L3.96174 -1.28944M4.00174 -1.29933L4.02174 -1.29934L4.02174 -1.28948L4.00174 -1.28946M4.04174 -1.29936L4.06174 -1.29937L4.06174 -1.28951L4.04174 -1.28949M4.08174 -1.29938L4.10174 -1.2994L4.10174 -1.28954L4.08174 -1.28952M4.12174 -1.29941L4.14174 -1.29943L4.14174 -1.28956L4.12174 -1.28955M4.16174 -1.29944L4.18174 -1.29946L4.18174 -1.28959L4.16174 -1.28958M4.20174 -1.29947L4.22174 -1.29948L4.22174 -1.28962L4.20174 -1.28961M4.24174 -1.2995L4.26174 -1.29951L4.26174 -1.28965L4.24174 -1.28963M4.28174 -1.29953L4.30174 -1.29954L4.30174 -1.28968L4.28174 -1.28966M4.32174 -1.29955L4.34174 -1.29957L4.34174 -1.2897L4.32174 -1.28969M4.36174 -1.29958L4.38174 -1.2996L4.38174 -1.28973L4.36174 -1.28972M4.40174 -1.29961L4.42174 -1.29962L4.42174 -1.28976L4.40174 -1.28975"/>
		<path fill="none" stroke="#7F7F7F" stroke-width="0.0098636365" stroke-miterlimit="4" transform="matrix(101.382 0 0 101.382 713.445 919.887)" d="M4.32802 -1.29463L4.45302 -1.29471"/>
		<path fill="#7F7F7F" transform="matrix(101.382 0 0 101.382 713.445 919.887)" d="M4.42749 -2.04098L4.45253 -1.99099L4.40253 -1.99096L4.42749 -2.04098"/>
		<path fill="none" stroke="#7F7F7F" stroke-width="0.0098636365" stroke-miterlimit="4" transform="matrix(101.382 0 0 101.382 713.445 919.887)" d="M4.42749 -2.04098L4.45253 -1.99099L4.40253 -1.99096L4.42749 -2.04098"/>
		<path fill="#7F7F7F" transform="matrix(101.382 0 0 101.382 713.445 919.887)" d="M4.42802 -1.2947L4.40298 -1.34468L4.45298 -1.34471L4.42802 -1.2947"/>
		<path fill="none" stroke="#7F7F7F" stroke-width="0.0098636365" stroke-miterlimit="4" transform="matrix(101.382 0 0 101.382 713.445 919.887)" d="M4.42802 -1.2947L4.40298 -1.34468L4.45298 -1.34471L4.42802 -1.2947"/>
		<text fill="#7F7F7F" transform="matrix(-0.000704928 -1 1 -0.000704928 1155.35 762.501)" font-size="12" font-family="Roboto" x="0, 6.7441406, 9.9082031, 16.652344, " y="11, ">
				0.75
		</text>
		<path fill="none" stroke="#7F7F7F" stroke-width="0.0098636365" stroke-miterlimit="4" transform="matrix(-0.0714674 -101.382 101.382 -0.0714674 1162.34 750.798)" d=""/>
		<path fill="none" stroke="#7F7F7F" stroke-width="0.0098636365" stroke-miterlimit="4" transform="matrix(101.382 0 0 101.382 713.445 919.887)" d="M4.42749 -2.04098L4.42765 -1.82268M4.42787 -1.513L4.42802 -1.2947"/>
		<path fill="#7F7F7F" transform="matrix(101.382 0 0 101.382 713.445 919.887)" d="M3.50174 -1.29898L3.50174 -1.29898L3.50174 -1.28911L3.50174 -1.28911M3.52174 -1.29899L3.54174 -1.299L3.54174 -1.28914L3.52174 -1.28913M3.56174 -1.29902L3.58174 -1.29903L3.58174 -1.28917L3.56174 -1.28915M3.60174 -1.29905L3.62174 -1.29906L3.62174 -1.2892L3.60174 -1.28918M3.64174 -1.29907L3.66174 -1.29909L3.66174 -1.28922L3.64174 -1.28921M3.68174 -1.2991L3.70174 -1.29912L3.70174 -1.28925L3.68174 -1.28924M3.72174 -1.29913L3.74174 -1.29914L3.74174 -1.28928L3.72174 -1.28927M3.76174 -1.29916L3.78174 -1.29917L3.78174 -1.28931L3.76174 -1.2893M3.80174 -1.29919L3.82174 -1.2992L3.82174 -1.28934L3.80174 -1.28932M3.84174 -1.29922L3.86174 -1.29923L3.86174 -1.28937L3.84174 -1.28935M3.88174 -1.29924L3.90174 -1.29926L3.90174 -1.28939L3.88174 -1.28938M3.92174 -1.29927L3.94174 -1.29929L3.94174 -1.28942L3.92174 -1.28941M3.96174 -1.2993L3.98174 -1.29931L3.98174 -1.28945L3.96174 -1.28944M4.00174 -1.29933L4.02174 -1.29934L4.02174 -1.28948L4.00174 -1.28946M4.04174 -1.29936L4.06174 -1.29937L4.06174 -1.28951L4.04174 -1.28949M4.08174 -1.29938L4.10174 -1.2994L4.10174 -1.28954L4.08174 -1.28952M4.12174 -1.29941L4.14174 -1.29943L4.14174 -1.28956L4.12174 -1.28955M4.16174 -1.29944L4.18174 -1.29946L4.18174 -1.28959L4.16174 -1.28958M4.20174 -1.29947L4.22174 -1.29948L4.22174 -1.28962L4.20174 -1.28961M4.24174 -1.2995L4.26174 -1.29951L4.26174 -1.28965L4.24174 -1.28963M4.28174 -1.29953L4.30174 -1.29954L4.30174 -1.28968L4.28174 -1.28966M4.32174 -1.29955L4.34174 -1.29957L4.34174 -1.2897L4.32174 -1.28969M4.36174 -1.29958L4.38174 -1.2996L4.38174 -1.28973L4.36174 -1.28972M4.40174 -1.29961L4.42174 -1.29962L4.42174 -1.28976L4.40174 -1.28975"/>
		<path fill="none" stroke="#7F7F7F" stroke-width="0.0098636365" stroke-miterlimit="4" transform="matrix(101.382 0 0 101.382 713.445 919.887)" d="M4.32802 -1.29463L4.45302 -1.29471"/>
		<path fill="#7F7F7F" transform="matrix(101.382 0 0 101.382 713.445 919.887)" d="M3.50324 0.837083L3.50324 0.837083L3.50325 0.846946L3.50325 0.846946M3.52324 0.837069L3.54324 0.837055L3.54325 0.846918L3.52325 0.846932M3.56324 0.83704L3.58324 0.837026L3.58325 0.84689L3.56325 0.846904M3.60324 0.837012L3.62324 0.836998L3.62325 0.846862L3.60325 0.846876M3.64324 0.836984L3.66324 0.83697L3.66325 0.846834L3.64325 0.846848M3.68324 0.836956L3.70324 0.836942L3.70325 0.846805L3.68325 0.846819M3.72324 0.836928L3.74324 0.836914L3.74325 0.846777L3.72325 0.846791M3.76324 0.836899L3.78324 0.836885L3.78325 0.846749L3.76325 0.846763M3.80324 0.836871L3.82324 0.836857L3.82325 0.846721L3.80325 0.846735M3.84324 0.836843L3.86324 0.836829L3.86325 0.846693L3.84325 0.846707M3.88324 0.836815L3.90324 0.836801L3.90325 0.846664L3.88325 0.846678M3.92324 0.836787L3.94324 0.836773L3.94325 0.846636L3.92325 0.84665M3.96324 0.836758L3.98324 0.836744L3.98325 0.846608L3.96325 0.846622M4.00324 0.83673L4.02324 0.836716L4.02325 0.84658L4.00325 0.846594M4.04324 0.836702L4.06324 0.836688L4.06325 0.846552L4.04325 0.846566M4.08324 0.836674L4.10324 0.83666L4.10325 0.846523L4.08325 0.846537M4.12324 0.836646L4.14324 0.836632L4.14325 0.846495L4.12325 0.846509M4.16324 0.836617L4.18324 0.836603L4.18325 0.846467L4.16325 0.846481M4.20324 0.836589L4.22324 0.836575L4.22325 0.846439L4.20325 0.846453M4.24324 0.836561L4.26324 0.836547L4.26325 0.846411L4.24325 0.846425M4.28324 0.836533L4.30324 0.836519L4.30325 0.846382L4.28325 0.846396M4.32324 0.836505L4.34324 0.836491L4.34325 0.846354L4.32325 0.846368M4.36324 0.836476L4.38324 0.836462L4.38325 0.846326L4.36325 0.84634M4.40324 0.836448L4.42324 0.836434L4.42325 0.846298L4.40325 0.846312"/>
		<path fill="none" stroke="#7F7F7F" stroke-width="0.0098636365" stroke-miterlimit="4" transform="matrix(101.382 0 0 101.382 713.445 919.887)" d="M4.32952 0.841432L4.45452 0.841344"/>
		<path fill="#7F7F7F" transform="matrix(101.382 0 0 101.382 713.445 919.887)" d="M4.42802 -1.2947L4.45305 -1.24471L4.40305 -1.24468L4.42802 -1.2947"/>
		<path fill="none" stroke="#7F7F7F" stroke-width="0.0098636365" stroke-miterlimit="4" transform="matrix(101.382 0 0 101.382 713.445 919.887)" d="M4.42802 -1.2947L4.45305 -1.24471L4.40305 -1.24468L4.42802 -1.2947"/>
		<path fill="#7F7F7F" transform="matrix(101.382 0 0 101.382 713.445 919.887)" d="M4.42952 0.841362L4.40449 0.791379L4.45449 0.791344L4.42952 0.841362"/>
		<path fill="none" stroke="#7F7F7F" stroke-width="0.0098636365" stroke-miterlimit="4" transform="matrix(101.382 0 0 101.382 713.445 919.887)" d="M4.42952 0.841362L4.40449 0.791379L4.45449 0.791344L4.42952 0.841362"/>
		<text fill="#7F7F7F" transform="matrix(-0.000704928 -1 1 -0.000704928 1155.45 908.61)" font-size="12" font-family="Roboto" x="0, 6.7441406, 9.9082031, 16.652344, " y="11, ">
				2.14
		</text>
		<path fill="none" stroke="#7F7F7F" stroke-width="0.0098636365" stroke-miterlimit="4" transform="matrix(-0.0714674 -101.382 101.382 -0.0714674 1162.44 896.907)" d=""/>
		<path fill="none" stroke="#7F7F7F" stroke-width="0.0098636365" stroke-miterlimit="4" transform="matrix(101.382 0 0 101.382 713.445 919.887)" d="M4.42802 -1.2947L4.42866 -0.381509M4.42888 -0.0718259L4.42952 0.841362"/>
		<path fill="#7F7F7F" transform="matrix(101.382 0 0 101.382 713.445 919.887)" d="M3.50324 0.837083L3.50324 0.837083L3.50325 0.846946L3.50325 0.846946M3.52324 0.837069L3.54324 0.837055L3.54325 0.846918L3.52325 0.846932M3.56324 0.83704L3.58324 0.837026L3.58325 0.84689L3.56325 0.846904M3.60324 0.837012L3.62324 0.836998L3.62325 0.846862L3.60325 0.846876M3.64324 0.836984L3.66324 0.83697L3.66325 0.846834L3.64325 0.846848M3.68324 0.836956L3.70324 0.836942L3.70325 0.846805L3.68325 0.846819M3.72324 0.836928L3.74324 0.836914L3.74325 0.846777L3.72325 0.846791M3.76324 0.836899L3.78324 0.836885L3.78325 0.846749L3.76325 0.846763M3.80324 0.836871L3.82324 0.836857L3.82325 0.846721L3.80325 0.846735M3.84324 0.836843L3.86324 0.836829L3.86325 0.846693L3.84325 0.846707M3.88324 0.836815L3.90324 0.836801L3.90325 0.846664L3.88325 0.846678M3.92324 0.836787L3.94324 0.836773L3.94325 0.846636L3.92325 0.84665M3.96324 0.836758L3.98324 0.836744L3.98325 0.846608L3.96325 0.846622M4.00324 0.83673L4.02324 0.836716L4.02325 0.84658L4.00325 0.846594M4.04324 0.836702L4.06324 0.836688L4.06325 0.846552L4.04325 0.846566M4.08324 0.836674L4.10324 0.83666L4.10325 0.846523L4.08325 0.846537M4.12324 0.836646L4.14324 0.836632L4.14325 0.846495L4.12325 0.846509M4.16324 0.836617L4.18324 0.836603L4.18325 0.846467L4.16325 0.846481M4.20324 0.836589L4.22324 0.836575L4.22325 0.846439L4.20325 0.846453M4.24324 0.836561L4.26324 0.836547L4.26325 0.846411L4.24325 0.846425M4.28324 0.836533L4.30324 0.836519L4.30325 0.846382L4.28325 0.846396M4.32324 0.836505L4.34324 0.836491L4.34325 0.846354L4.32325 0.846368M4.36324 0.836476L4.38324 0.836462L4.38325 0.846326L4.36325 0.84634M4.40324 0.836448L4.42324 0.836434L4.42325 0.846298L4.40325 0.846312"/>
		<path fill="none" stroke="#7F7F7F" stroke-width="0.0098636365" stroke-miterlimit="4" transform="matrix(101.382 0 0 101.382 713.445 919.887)" d="M4.32952 0.841432L4.45452 0.841344"/>
		<path fill="#7F7F7F" transform="matrix(101.382 0 0 101.382 713.445 919.887)" d="M3.50438 2.44625L3.50438 2.44625L3.50438 2.45612L3.50438 2.45612M3.52438 2.44624L3.54438 2.44622L3.54438 2.45609L3.52438 2.4561M3.56438 2.44621L3.58438 2.4462L3.58438 2.45606L3.56438 2.45607M3.60438 2.44618L3.62438 2.44617L3.62438 2.45603L3.60438 2.45605M3.64438 2.44615L3.66438 2.44614L3.66438 2.456L3.64438 2.45602M3.68438 2.44613L3.70438 2.44611L3.70438 2.45598L3.68438 2.45599M3.72438 2.4461L3.74438 2.44608L3.74438 2.45595L3.72438 2.45596M3.76438 2.44607L3.78438 2.44605L3.78438 2.45592L3.76438 2.45593M3.80438 2.44604L3.82438 2.44603L3.82438 2.45589L3.80438 2.4559M3.84438 2.44601L3.86438 2.446L3.86438 2.45586L3.84438 2.45588M3.88438 2.44598L3.90438 2.44597L3.90438 2.45583L3.88438 2.45585M3.92438 2.44596L3.94438 2.44594L3.94438 2.45581L3.92438 2.45582M3.96438 2.44593L3.98438 2.44591L3.98438 2.45578L3.96438 2.45579M4.00438 2.4459L4.02438 2.44589L4.02438 2.45575L4.00438 2.45576M4.04438 2.44587L4.06438 2.44586L4.06438 2.45572L4.04438 2.45574M4.08438 2.44584L4.10438 2.44583L4.10438 2.45569L4.08438 2.45571M4.12438 2.44582L4.14438 2.4458L4.14438 2.45566L4.12438 2.45568M4.16438 2.44579L4.18438 2.44577L4.18438 2.45564L4.16438 2.45565M4.20438 2.44576L4.22438 2.44574L4.22438 2.45561L4.20438 2.45562M4.24438 2.44573L4.26438 2.44572L4.26438 2.45558L4.24438 2.45559M4.28438 2.4457L4.30438 2.44569L4.30438 2.45555L4.28438 2.45557M4.32438 2.44567L4.34438 2.44566L4.34438 2.45552L4.32438 2.45554M4.36438 2.44565L4.38438 2.44563L4.38438 2.4555L4.36438 2.45551M4.40438 2.44562L4.42438 2.4456L4.42438 2.45547L4.40438 2.45548"/>
		<path fill="none" stroke="#7F7F7F" stroke-width="0.0098636365" stroke-miterlimit="4" transform="matrix(101.382 0 0 101.382 713.445 919.887)" d="M4.33066 2.4506L4.45566 2.45051"/>
		<path fill="#7F7F7F" transform="matrix(101.382 0 0 101.382 713.445 919.887)" d="M4.42952 0.841362L4.45456 0.891344L4.40456 0.891379L4.42952 0.841362"/>
		<path fill="none" stroke="#7F7F7F" stroke-width="0.0098636365" stroke-miterlimit="4" transform="matrix(101.382 0 0 101.382 713.445 919.887)" d="M4.42952 0.841362L4.45456 0.891344L4.40456 0.891379L4.42952 0.841362"/>
		<path fill="#7F7F7F" transform="matrix(101.382 0 0 101.382 713.445 919.887)" d="M4.43066 2.45053L4.40562 2.40055L4.45562 2.40051L4.43066 2.45053"/>
		<path fill="none" stroke="#7F7F7F" stroke-width="0.0098636365" stroke-miterlimit="4" transform="matrix(101.382 0 0 101.382 713.445 919.887)" d="M4.43066 2.45053L4.40562 2.40055L4.45562 2.40051L4.43066 2.45053"/>
		<text fill="#7F7F7F" transform="matrix(-0.000704928 -1 1 -0.000704928 1155.59 1098.46)" font-size="12" font-family="Roboto" x="0, 6.7441406, 9.9082031, 16.652344, " y="11, ">
				1.61
		</text>
		<path fill="none" stroke="#7F7F7F" stroke-width="0.0098636365" stroke-miterlimit="4" transform="matrix(-0.0714674 -101.382 101.382 -0.0714674 1162.58 1086.76)" d=""/>
		<path fill="none" stroke="#7F7F7F" stroke-width="0.0098636365" stroke-miterlimit="4" transform="matrix(101.382 0 0 101.382 713.445 919.887)" d="M4.42952 0.841362L4.42998 1.4911M4.4302 1.80079L4.43066 2.45053"/>
		<path fill="#7F7F7F" transform="matrix(101.382 0 0 101.382 713.445 919.887)" d="M3.50438 2.44625L3.50438 2.44625L3.50438 2.45612L3.50438 2.45612M3.52438 2.44624L3.54438 2.44622L3.54438 2.45609L3.52438 2.4561M3.56438 2.44621L3.58438 2.4462L3.58438 2.45606L3.56438 2.45607M3.60438 2.44618L3.62438 2.44617L3.62438 2.45603L3.60438 2.45605M3.64438 2.44615L3.66438 2.44614L3.66438 2.456L3.64438 2.45602M3.68438 2.44613L3.70438 2.44611L3.70438 2.45598L3.68438 2.45599M3.72438 2.4461L3.74438 2.44608L3.74438 2.45595L3.72438 2.45596M3.76438 2.44607L3.78438 2.44605L3.78438 2.45592L3.76438 2.45593M3.80438 2.44604L3.82438 2.44603L3.82438 2.45589L3.80438 2.4559M3.84438 2.44601L3.86438 2.446L3.86438 2.45586L3.84438 2.45588M3.88438 2.44598L3.90438 2.44597L3.90438 2.45583L3.88438 2.45585M3.92438 2.44596L3.94438 2.44594L3.94438 2.45581L3.92438 2.45582M3.96438 2.44593L3.98438 2.44591L3.98438 2.45578L3.96438 2.45579M4.00438 2.4459L4.02438 2.44589L4.02438 2.45575L4.00438 2.45576M4.04438 2.44587L4.06438 2.44586L4.06438 2.45572L4.04438 2.45574M4.08438 2.44584L4.10438 2.44583L4.10438 2.45569L4.08438 2.45571M4.12438 2.44582L4.14438 2.4458L4.14438 2.45566L4.12438 2.45568M4.16438 2.44579L4.18438 2.44577L4.18438 2.45564L4.16438 2.45565M4.20438 2.44576L4.22438 2.44574L4.22438 2.45561L4.20438 2.45562M4.24438 2.44573L4.26438 2.44572L4.26438 2.45558L4.24438 2.45559M4.28438 2.4457L4.30438 2.44569L4.30438 2.45555L4.28438 2.45557M4.32438 2.44567L4.34438 2.44566L4.34438 2.45552L4.32438 2.45554M4.36438 2.44565L4.38438 2.44563L4.38438 2.4555L4.36438 2.45551M4.40438 2.44562L4.42438 2.4456L4.42438 2.45547L4.40438 2.45548"/>
		<path fill="none" stroke="#7F7F7F" stroke-width="0.0098636365" stroke-miterlimit="4" transform="matrix(101.382 0 0 101.382 713.445 919.887)" d="M4.33066 2.4506L4.45566 2.45051"/>
		<path fill="#7F7F7F" transform="matrix(101.382 0 0 101.382 713.445 919.887)" d="M3.50629 5.15632L3.50629 5.15632L3.50629 5.16618L3.50629 5.16618M3.52629 5.1563L3.54629 5.15629L3.54629 5.16615L3.52629 5.16617M3.56629 5.15628L3.58629 5.15626L3.58629 5.16613L3.56629 5.16614M3.60629 5.15625L3.62629 5.15623L3.62629 5.1661L3.60629 5.16611M3.64629 5.15622L3.66629 5.15621L3.66629 5.16607L3.64629 5.16608M3.68629 5.15619L3.70629 5.15618L3.70629 5.16604L3.68629 5.16606M3.72629 5.15616L3.74629 5.15615L3.74629 5.16601L3.72629 5.16603M3.76629 5.15613L3.78629 5.15612L3.78629 5.16598L3.76629 5.166M3.80629 5.15611L3.82629 5.15609L3.82629 5.16596L3.80629 5.16597M3.84629 5.15608L3.86629 5.15606L3.86629 5.16593L3.84629 5.16594M3.88629 5.15605L3.90629 5.15604L3.90629 5.1659L3.88629 5.16591M3.92629 5.15602L3.94629 5.15601L3.94629 5.16587L3.92629 5.16589M3.96629 5.15599L3.98629 5.15598L3.98629 5.16584L3.96629 5.16586M4.00629 5.15597L4.02629 5.15595L4.02629 5.16582L4.00629 5.16583M4.04629 5.15594L4.06629 5.15592L4.06629 5.16579L4.04629 5.1658M4.08629 5.15591L4.10629 5.1559L4.10629 5.16576L4.08629 5.16577M4.12629 5.15588L4.14629 5.15587L4.14629 5.16573L4.12629 5.16574M4.16629 5.15585L4.18629 5.15584L4.18629 5.1657L4.16629 5.16572M4.20629 5.15582L4.22629 5.15581L4.22629 5.16567L4.20629 5.16569M4.24629 5.1558L4.26629 5.15578L4.26629 5.16565L4.24629 5.16566M4.28629 5.15577L4.30629 5.15575L4.30629 5.16562L4.28629 5.16563M4.32629 5.15574L4.34629 5.15573L4.34629 5.16559L4.32629 5.1656M4.36629 5.15571L4.38629 5.1557L4.38629 5.16556L4.36629 5.16558M4.40629 5.15568L4.42629 5.15567L4.42629 5.16553L4.40629 5.16555"/>
		<path fill="none" stroke="#7F7F7F" stroke-width="0.0098636365" stroke-miterlimit="4" transform="matrix(101.382 0 0 101.382 713.445 919.887)" d="M4.33257 5.16067L4.45757 5.16058"/>
		<path fill="#7F7F7F" transform="matrix(101.382 0 0 101.382 713.445 919.887)" d="M4.43066 2.45053L4.45569 2.50051L4.40569 2.50055L4.43066 2.45053"/>
		<path fill="none" stroke="#7F7F7F" stroke-width="0.0098636365" stroke-miterlimit="4" transform="matrix(101.382 0 0 101.382 713.445 919.887)" d="M4.43066 2.45053L4.45569 2.50051L4.40569 2.50055L4.43066 2.45053"/>
		<path fill="#7F7F7F" transform="matrix(101.382 0 0 101.382 713.445 919.887)" d="M4.43257 5.1606L4.40753 5.11061L4.45753 5.11058L4.43257 5.1606"/>
		<path fill="none" stroke="#7F7F7F" stroke-width="0.0098636365" stroke-miterlimit="4" transform="matrix(101.382 0 0 101.382 713.445 919.887)" d="M4.43257 5.1606L4.40753 5.11061L4.45753 5.11058L4.43257 5.1606"/>
		<text fill="#7F7F7F" transform="matrix(-0.000704928 -1 1 -0.000704928 1155.74 1317.41)" font-size="12" font-family="Roboto" x="0, 6.7441406, 9.9082031, 16.652344, " y="11, ">
				2.71
		</text>
		<path fill="none" stroke="#7F7F7F" stroke-width="0.0098636365" stroke-miterlimit="4" transform="matrix(-0.0714674 -101.382 101.382 -0.0714674 1162.73 1305.7)" d=""/>
		<path fill="none" stroke="#7F7F7F" stroke-width="0.0098636365" stroke-miterlimit="4" transform="matrix(101.382 0 0 101.382 713.445 919.887)" d="M4.43066 2.45053L4.43151 3.65072M4.43172 3.96041L4.43257 5.1606"/>
		<path fill="#7F7F7F" transform="matrix(101.382 0 0 101.382 713.445 919.887)" d="M3.49901 -5.1706L3.49901 -5.1706L3.49901 -5.16074L3.49901 -5.16074M3.51901 -5.17062L3.53901 -5.17063L3.53901 -5.16077L3.51901 -5.16075M3.55901 -5.17064L3.57901 -5.17066L3.57901 -5.16079L3.55901 -5.16078M3.59901 -5.17067L3.61901 -5.17069L3.61901 -5.16082L3.59901 -5.16081M3.63901 -5.1707L3.65901 -5.17071L3.65901 -5.16085L3.63901 -5.16084M3.67901 -5.17073L3.69901 -5.17074L3.69901 -5.16088L3.67901 -5.16086M3.71901 -5.17076L3.73901 -5.17077L3.73901 -5.16091L3.71901 -5.16089M3.75901 -5.17079L3.77901 -5.1708L3.77901 -5.16094L3.75901 -5.16092M3.79901 -5.17081L3.81901 -5.17083L3.81901 -5.16096L3.79901 -5.16095M3.83901 -5.17084L3.85901 -5.17086L3.85901 -5.16099L3.83901 -5.16098M3.87901 -5.17087L3.89901 -5.17088L3.89901 -5.16102L3.87901 -5.16101M3.91901 -5.1709L3.93901 -5.17091L3.93901 -5.16105L3.91901 -5.16103M3.95901 -5.17093L3.97901 -5.17094L3.97901 -5.16108L3.95901 -5.16106M3.99901 -5.17095L4.01901 -5.17097L4.01901 -5.1611L3.99901 -5.16109M4.03901 -5.17098L4.05901 -5.171L4.05901 -5.16113L4.03901 -5.16112M4.07901 -5.17101L4.09901 -5.17102L4.09901 -5.16116L4.07901 -5.16115M4.11901 -5.17104L4.13901 -5.17105L4.13901 -5.16119L4.11901 -5.16118M4.15901 -5.17107L4.17901 -5.17108L4.17901 -5.16122L4.15901 -5.1612M4.19901 -5.1711L4.21901 -5.17111L4.21901 -5.16125L4.19901 -5.16123M4.23901 -5.17112L4.25901 -5.17114L4.25901 -5.16127L4.23901 -5.16126M4.27901 -5.17115L4.29901 -5.17117L4.29901 -5.1613L4.27901 -5.16129M4.31901 -5.17118L4.33901 -5.17119L4.33901 -5.16133L4.31901 -5.16132M4.35901 -5.17121L4.37901 -5.17122L4.37901 -5.16136L4.35901 -5.16134M4.39901 -5.17124L4.41901 -5.17125L4.41901 -5.16139L4.39901 -5.16137M4.43901 -5.17126L4.45901 -5.17128L4.45901 -5.16142L4.43901 -5.1614M4.47901 -5.17129L4.49901 -5.17131L4.49901 -5.16144L4.47901 -5.16143M4.51901 -5.17132L4.53901 -5.17134L4.53901 -5.16147L4.51901 -5.16146M4.55901 -5.17135L4.57901 -5.17136L4.57901 -5.1615L4.55901 -5.16149M4.59901 -5.17138L4.61901 -5.17139L4.61901 -5.16153L4.59901 -5.16151M4.63901 -5.17141L4.65901 -5.17142L4.65901 -5.16156L4.63901 -5.16154M4.67901 -5.17143L4.69901 -5.17145L4.69901 -5.16158L4.67901 -5.16157M4.71901 -5.17146L4.73901 -5.17148L4.73901 -5.16161L4.71901 -5.1616M4.75901 -5.17149L4.77901 -5.1715L4.77901 -5.16164L4.75901 -5.16163"/>
		<path fill="none" stroke="#7F7F7F" stroke-width="0.0098636365" stroke-miterlimit="4" transform="matrix(101.382 0 0 101.382 713.445 919.887)" d="M4.69529 -5.16651L4.82029 -5.1666"/>
		<path fill="#7F7F7F" transform="matrix(101.382 0 0 101.382 713.445 919.887)" d="M3.50629 5.15632L3.50629 5.15632L3.50629 5.16618L3.50629 5.16618M3.52629 5.1563L3.54629 5.15629L3.54629 5.16615L3.52629 5.16617M3.56629 5.15628L3.58629 5.15626L3.58629 5.16613L3.56629 5.16614M3.60629 5.15625L3.62629 5.15623L3.62629 5.1661L3.60629 5.16611M3.64629 5.15622L3.66629 5.15621L3.66629 5.16607L3.64629 5.16608M3.68629 5.15619L3.70629 5.15618L3.70629 5.16604L3.68629 5.16606M3.72629 5.15616L3.74629 5.15615L3.74629 5.16601L3.72629 5.16603M3.76629 5.15613L3.78629 5.15612L3.78629 5.16598L3.76629 5.166M3.80629 5.15611L3.82629 5.15609L3.82629 5.16596L3.80629 5.16597M3.84629 5.15608L3.86629 5.15606L3.86629 5.16593L3.84629 5.16594M3.88629 5.15605L3.90629 5.15604L3.90629 5.1659L3.88629 5.16591M3.92629 5.15602L3.94629 5.15601L3.94629 5.16587L3.92629 5.16589M3.96629 5.15599L3.98629 5.15598L3.98629 5.16584L3.96629 5.16586M4.00629 5.15597L4.02629 5.15595L4.02629 5.16582L4.00629 5.16583M4.04629 5.15594L4.06629 5.15592L4.06629 5.16579L4.04629 5.1658M4.08629 5.15591L4.10629 5.1559L4.10629 5.16576L4.08629 5.16577M4.12629 5.15588L4.14629 5.15587L4.14629 5.16573L4.12629 5.16574M4.16629 5.15585L4.18629 5.15584L4.18629 5.1657L4.16629 5.16572M4.20629 5.15582L4.22629 5.15581L4.22629 5.16567L4.20629 5.16569M4.24629 5.1558L4.26629 5.15578L4.26629 5.16565L4.24629 5.16566M4.28629 5.15577L4.30629 5.15575L4.30629 5.16562L4.28629 5.16563M4.32629 5.15574L4.34629 5.15573L4.34629 5.16559L4.32629 5.1656M4.36629 5.15571L4.38629 5.1557L4.38629 5.16556L4.36629 5.16558M4.40629 5.15568L4.42629 5.15567L4.42629 5.16553L4.40629 5.16555M4.44629 5.15566L4.46629 5.15564L4.46629 5.1655L4.44629 5.16552M4.48629 5.15563L4.50629 5.15561L4.50629 5.16548L4.48629 5.16549M4.52629 5.1556L4.54629 5.15558L4.54629 5.16545L4.52629 5.16546M4.56629 5.15557L4.58629 5.15556L4.58629 5.16542L4.56629 5.16543M4.60629 5.15554L4.62629 5.15553L4.62629 5.16539L4.60629 5.16541M4.64629 5.15551L4.66629 5.1555L4.66629 5.16536L4.64629 5.16538M4.68629 5.15549L4.70629 5.15547L4.70629 5.16534L4.68629 5.16535M4.72629 5.15546L4.74629 5.15544L4.74629 5.16531L4.72629 5.16532M4.76629 5.15543L4.78629 5.15542L4.78629 5.16528L4.76629 5.16529"/>
		<path fill="none" stroke="#7F7F7F" stroke-width="0.0098636365" stroke-miterlimit="4" transform="matrix(101.382 0 0 101.382 713.445 919.887)" d="M4.70257 5.16041L4.82757 5.16032"/>
		<path fill="#7F7F7F" transform="matrix(101.382 0 0 101.382 713.445 919.887)" d="M4.79529 -5.16658L4.82032 -5.1166L4.77033 -5.11657L4.79529 -5.16658"/>
		<path fill="none" stroke="#7F7F7F" stroke-width="0.0098636365" stroke-miterlimit="4" transform="matrix(101.382 0 0 101.382 713.445 919.887)" d="M4.79529 -5.16658L4.82032 -5.1166L4.77033 -5.11657L4.79529 -5.16658"/>
		<path fill="#7F7F7F" transform="matrix(101.382 0 0 101.382 713.445 919.887)" d="M4.80257 5.16034L4.77753 5.11035L4.82753 5.11032L4.80257 5.16034"/>
		<path fill="none" stroke="#7F7F7F" stroke-width="0.0098636365" stroke-miterlimit="4" transform="matrix(101.382 0 0 101.382 713.445 919.887)" d="M4.80257 5.16034L4.77753 5.11035L4.82753 5.11032L4.80257 5.16034"/>
		<text fill="#7F7F7F" transform="matrix(-0.000704928 -1 1 -0.000704928 1192.98 934.646)" font-size="12" font-family="Roboto" x="0, 6.7441406, 13.488281, 16.652344, 23.396484, " y="11, ">
				10.33
		</text>
		<path fill="none" stroke="#7F7F7F" stroke-width="0.0098636365" stroke-miterlimit="4" transform="matrix(-0.0714674 -101.382 101.382 -0.0714674 1199.97 919.57)" d=""/>
		<path fill="none" stroke="#7F7F7F" stroke-width="0.0098636365" stroke-miterlimit="4" transform="matrix(101.382 0 0 101.382 713.445 919.887)" d="M4.79529 -5.16658L4.7988 -0.191226M4.79906 0.184979L4.80257 5.16034"/>
		<path transform="matrix(101.382 0 0 101.382 713.445 919.887)" d="M3.61913 -3.74293L3.49913 -3.74293L3.49813 -5.16493L-3.50387 -5.15993L-3.49987 5.16507L3.50613 5.16207L3.50413 2.45207L3.62413 2.45207L3.62613 5.28207L-3.61987 5.28507L-3.62387 -5.27893L3.61813 -5.28493L3.61913 -3.74293M3.62313 0.842069L3.50313 0.842069L3.50113 -1.29393L3.62113 -1.29393L3.62313 0.842069M3.62013 -2.03993L3.50013 -2.03993L3.50013 -2.24993L3.62013 -2.24993L3.62013 -2.03993"/>
		<path fill="#EFEFEF" transform="matrix(101.382 0 0 101.382 713.445 919.887)" d="M3.49913 -3.74293L3.62413 -3.74293L3.62513 -2.24993L3.50013 -2.24993L3.50013 -2.03993L3.62613 -2.03993L3.62613 -1.29393L3.50113 -1.29393L3.50313 0.842069L3.62813 0.842069L3.62913 2.45207L3.50413 2.45207L3.50613 5.16207L-3.49987 5.16507L-3.50387 -5.15993L3.49813 -5.16493L3.49913 -3.74293"/>
		<path fill="none" stroke="black" stroke-width="0.0065757576" stroke-miterlimit="4" transform="matrix(-0.0714706 -101.382 -101.382 0.0714706 1150.2 788.636)" d="M0.74628 0.74628C0.74628 0.33396 0.41232 0 0 0C0 0.24876 0 0.49752 0 0.74628"/>
		<path fill="white" transform="matrix(0.0714706 101.382 101.382 -0.0714706 1068.61 1005.25)" d="M0 0C0.53639 0 1.07278 0 1.60917 0C1.60917 0.04 1.60917 0.08 1.60917 0.12C1.07278 0.12 0.53639 0.12 0 0.12C0 0.08 0 0.04 0 0C0 0 0 0 0 0L0 0Z"/>
		<path fill="white" transform="matrix(0.0714706 101.382 101.382 -0.0714706 1068.61 1005.25)" d="M0 0C0.53639 0 1.07278 0 1.60917 0"/>
		<path fill="none" stroke="black" stroke-width="0.0065757586" stroke-miterlimit="4" transform="matrix(0.0714706 101.382 101.382 -0.0714706 1068.61 1005.25)" d="M0 0C0.53639 0 1.07278 0 1.60917 0"/>
		<path fill="white" transform="matrix(0.0714706 101.382 101.382 -0.0714706 1068.61 1005.25)" d="M1.60917 0.12C1.07278 0.12 0.53639 0.12 0 0.12"/>
		<path fill="none" stroke="black" stroke-width="0.0065757586" stroke-miterlimit="4" transform="matrix(0.0714706 101.382 101.382 -0.0714706 1068.61 1005.25)" d="M1.60917 0.12C1.07278 0.12 0.53639 0.12 0 0.12"/>
		<path fill="none" stroke="black" stroke-width="0.0065757586" stroke-miterlimit="4" transform="matrix(0.0714706 101.382 101.382 -0.0714706 1068.61 1005.25)" d="M0 0.06C0.53639 0.06 1.07278 0.06 1.60917 0.06"/>
		<path fill="white" transform="matrix(0.0714706 101.382 101.382 -0.0714706 1068.61 1005.25)" d="M0.08 0.12C0.0533333 0.12 0.0266667 0.12 0 0.12C0 0.08 0 0.04 0 0C0.0266667 0 0.0533333 0 0.08 0"/>
		<path fill="none" stroke="black" stroke-width="0.0065757576" stroke-miterlimit="4" transform="matrix(0.0714706 101.382 101.382 -0.0714706 1068.61 1005.25)" d="M0.08 0.12C0.0533333 0.12 0.0266667 0.12 0 0.12C0 0.08 0 0.04 0 0C0.0266667 0 0.0533333 0 0.08 0"/>
		<path fill="none" stroke="black" stroke-width="0.026303031" stroke-miterlimit="4" transform="matrix(0.0714706 101.382 101.382 -0.0714706 1068.61 1005.25)" d="M0 0.06C0.0266667 0.06 0.0533333 0.06 0.08 0.06"/>
		<path fill="none" stroke="black" stroke-width="0.026303031" stroke-miterlimit="4" transform="matrix(0.0714706 101.382 101.382 -0.0714706 1068.67 1082.77)" d="M0 0.06C0.0266667 0.06 0.0533333 0.06 0.08 0.06"/>
		<path fill="white" transform="matrix(0.0714706 101.382 101.382 -0.0714706 1068.72 1160.28)" d="M0 0C0.0266667 0 0.0533333 0 0.08 0C0.08 0.04 0.08 0.08 0.08 0.12C0.0533333 0.12 0.0266667 0.12 0 0.12"/>
		<path fill="none" stroke="black" stroke-width="0.0065757576" stroke-miterlimit="4" transform="matrix(0.0714706 101.382 101.382 -0.0714706 1068.72 1160.28)" d="M0 0C0.0266667 0 0.0533333 0 0.08 0C0.08 0.04 0.08 0.08 0.08 0.12C0.0533333 0.12 0.0266667 0.12 0 0.12"/>
		<path fill="none" stroke="black" stroke-width="0.026303031" stroke-miterlimit="4" transform="matrix(0.0714706 101.382 101.382 -0.0714706 1068.72 1160.28)" d="M0 0.06C0.0266667 0.06 0.0533333 0.06 0.08 0.06"/>
		<path fill="white" transform="matrix(0.0714706 101.382 101.382 -0.0714706 1068.28 540.377)" d="M0 0C0.49752 0 0.99504 0 1.49256 0C1.49256 0.04 1.49256 0.08 1.49256 0.12C0.99504 0.12 0.49752 0.12 0 0.12C0 0.08 0 0.04 0 0C0 0 0 0 0 0L0 0Z"/>
		<path fill="white" transform="matrix(0.0714706 101.382 101.382 -0.0714706 1068.28 540.377)" d="M0 0C0.49752 0 0.99504 0 1.49256 0"/>
		<path fill="none" stroke="black" stroke-width="0.0065757586" stroke-miterlimit="4" transform="matrix(0.0714706 101.382 101.382 -0.0714706 1068.28 540.377)" d="M0 0C0.49752 0 0.99504 0 1.49256 0"/>
		<path fill="white" transform="matrix(0.0714706 101.382 101.382 -0.0714706 1068.28 540.377)" d="M1.49256 0.12C0.99504 0.12 0.49752 0.12 0 0.12"/>
		<path fill="none" stroke="black" stroke-width="0.0065757586" stroke-miterlimit="4" transform="matrix(0.0714706 101.382 101.382 -0.0714706 1068.28 540.377)" d="M1.49256 0.12C0.99504 0.12 0.49752 0.12 0 0.12"/>
		<path fill="none" stroke="black" stroke-width="0.0065757586" stroke-miterlimit="4" transform="matrix(0.0714706 101.382 101.382 -0.0714706 1068.28 540.377)" d="M0 0.06C0.49752 0.06 0.99504 0.06 1.49256 0.06"/>
		<path fill="white" transform="matrix(0.0714706 101.382 101.382 -0.0714706 1068.28 540.377)" d="M0.08 0.12C0.0533333 0.12 0.0266667 0.12 0 0.12C0 0.08 0 0.04 0 0C0.0266667 0 0.0533333 0 0.08 0"/>
		<path fill="none" stroke="black" stroke-width="0.0065757576" stroke-miterlimit="4" transform="matrix(0.0714706 101.382 101.382 -0.0714706 1068.28 540.377)" d="M0.08 0.12C0.0533333 0.12 0.0266667 0.12 0 0.12C0 0.08 0 0.04 0 0C0.0266667 0 0.0533333 0 0.08 0"/>
		<path fill="none" stroke="black" stroke-width="0.026303031" stroke-miterlimit="4" transform="matrix(0.0714706 101.382 101.382 -0.0714706 1068.28 540.377)" d="M0 0.06C0.0266667 0.06 0.0533333 0.06 0.08 0.06"/>
		<path fill="none" stroke="black" stroke-width="0.026303031" stroke-miterlimit="4" transform="matrix(0.0714706 101.382 101.382 -0.0714706 1068.34 611.981)" d="M0 0.06C0.0266667 0.06 0.0533333 0.06 0.08 0.06"/>
		<path fill="white" transform="matrix(0.0714706 101.382 101.382 -0.0714706 1068.39 683.586)" d="M0 0C0.0266667 0 0.0533333 0 0.08 0C0.08 0.04 0.08 0.08 0.08 0.12C0.0533333 0.12 0.0266667 0.12 0 0.12"/>
		<path fill="none" stroke="black" stroke-width="0.0065757576" stroke-miterlimit="4" transform="matrix(0.0714706 101.382 101.382 -0.0714706 1068.39 683.586)" d="M0 0C0.0266667 0 0.0533333 0 0.08 0C0.08 0.04 0.08 0.08 0.08 0.12C0.0533333 0.12 0.0266667 0.12 0 0.12"/>
		<path fill="none" stroke="black" stroke-width="0.026303031" stroke-miterlimit="4" transform="matrix(0.0714706 101.382 101.382 -0.0714706 1068.39 683.586)" d="M0 0.06C0.0266667 0.06 0.0533333 0.06 0.08 0.06"/>
	</g>
	<text font-size="13" font-family="Roboto" x="51.023621, 58.780457, 68.054382, 71.590027, 79.308777, 82.533386, 89.718933, 96.3078, 105.25165, 114.1955, 122.20624, 125.43085, 133.63202, 140.75409, 149.23456, 158.50848, 161.73309, 165.26874, 172.98749, 176.2121, 184.41327, 192.42401, 201.22821, 209.50555, 213.0412, 221.57245, 228.96112, 237.49237, 240.71698, 252.25067, 255.60223, 263.35907, 272.633, 281.57684, 290.00653, 297.50946, 300.73407, 311.99481, 320.47528, 328.48602, 336.49677, 344.97723, 354.06708, 361.92548, 369.73309, 372.9577, 381.90155, 389.0871, 392.31171, 400.79218, 409.88837, 417.69598, 420.92059, 429.07733, 432.61298, 441.8869, 449.77069, 453.19843, 456.42303, 464.14178, 471.53046, 480.80438, 488.52313, 497.46698, 505.66815, 509.31805, 517.79852, 521.02313, 529.55438, 533.09003, 540.80878, 549.2702, 556.39227, 564.87274, 568.40839, 579.758, 587.47675, 590.70135, 599.18182, 608.27802, 616.08563, 619.31024, 630.57098, 639.05145, 647.06219, 655.07294, 663.55341, 672.64325, 680.50165, 688.30927, 691.53387, 695.06952, 704.34344, 712.80487, 719.46356, 727.89325, 736.4245, 739.96014, 749.23407, 758.08905, 760.64716, 763.87177, 775.40546, 778.75702, 786.51385, 795.78778, 804.73163, 813.16132, 820.66425, 823.88885, 830.89032, 834.42596, 845.77557, 849.12714, 856.38251, 864.04413, 871.80096, 875.33661, 884.28046, 893.55438, 896.11249, 899.3371, 907.05585, 914.71747, 922.4743, 926.00995, 933.7287, 939.83514, 948.24579, 956.52313, 964.10223, 973.04608, 980.75214, 988.55975, 991.78436, 1000.7282, 1009.0182, 1017.4987, 1024.5002, 1027.8518, 1035.7102, 1043.5178, 1046.7424, 1055.6863, 1063.697, 1066.9216, 1075.3323, 1083.7937, 1092.2551, 1100.6848, 1108.6956, 1117.1062, 1125.5676, 1133.3752, 1136.5999, 1145.5437, " y="1850.9763, ">
			THIS FLOOR PLAN IS PROVIDED WITHOUT WARRANTY OF ANY KIND. SENSOPIA DISCLAIMS ANY WARRANTY INCLUDING, WITHOUT LIMITATION, SATISFACTORY QUALITY OR ACCURACY OF
	</text>
	<text font-size="13" font-family="Roboto" x="51.023682, 59.554932, 63.090576, 74.440186, 81.828857, 91.102783, 98.821533, 102.35718, 111.30103, 120.57495, 128.2937, " y="1865.9763, ">
			DIMENSIONS.
	</text>
</svg>
