<?xml version="1.0" encoding="utf-8" ?>
<svg xmlns="http://www.w3.org/2000/svg" xmlns:xlink="http://www.w3.org/1999/xlink" width="1280" height="1920">
	<rect fill="white" width="1280" height="1920"/>
	<clipPath id="cl_2c">
		<rect x="42.519684" y="42.519684" width="226.77164" height="226.77164"/>
	</clipPath>
	<g clip-path="url(#cl_2c)">
		<path transform="matrix(2.70354 0 0 2.70354 227.407 213.99)" d="M7.258 -5.545L7.63 -5.545L7.629 -5.295L7.008 -5.295L7.008 -15.864L7.258 -16.268L7.258 -5.545M9.098 -5.295L8.848 -5.295L8.848 -5.555L8.846 -15.15L9.096 -15.15L9.098 -5.295M-15.592 -5.658L-14.196 -5.658L-14.196 -5.408L-15.842 -5.408L-15.842 -5.451L-15.713 -5.693L-15.712 -5.693L-15.712 -5.695L-15.708 -5.702L-15.712 -5.704L-15.712 -6.71L-15.592 -6.71L-15.592 -5.658M-10.718 -5.409L-12.043 -5.409L-12.044 -5.659L-10.718 -5.659L-10.718 -5.409M-3.938 -5.411L-8.565 -5.41L-8.565 -5.66L-3.938 -5.661L-3.938 -5.411M0.361 -5.833L0.352 -5.819L0.361 -5.813L0.486 -5.736L0.486 -5.412L-1.785 -5.411L-1.785 -5.661L0.236 -5.662L0.236 -6.914L0.359 -6.914L0.361 -5.833M-15.715 -26.105L-8.75 -26.105L-8.751 -29.76L-15.715 -29.758L-15.715 -29.891L-16.903 -29.889L-16.903 -30.008L-8.619 -30.01L-8.62 -33.82L-30.46 -33.804L-30.459 -30.004L-21.822 -30.006L-21.822 -29.883L-21.893 -29.883L-21.893 -28.748L-22.017 -28.748L-22.017 -29.878L-30.446 -29.889L-30.442 -13.572L-22.016 -13.588L-22.016 -14.708L-21.899 -14.708L-21.9 -13.461L-30.232 -13.457L-30.249 -13.466L-30.326 -13.323L-30.692 -13.322L-30.705 -13.322L-30.709 -29.754L-30.71 -34.054L-30.71 -34.076L-8.752 -34.092L-8.462 -34.092L-8.462 -33.83L-8.502 -33.83L-8.497 -10.323L-8.618 -10.323L-8.62 -25.855L-15.594 -25.855L-15.594 -9.734L-9.381 -9.734L-9.381 -9.614L-15.593 -9.613L-15.593 -8.843L-15.712 -8.843L-15.715 -26.105M0.355 -9.042L0.236 -9.041L0.236 -9.606L-6.927 -9.604L-6.928 -22.45L0.331 -22.45L0.355 -9.042M-6.808 -22.331L-6.807 -9.724L0.226 -9.726L0.216 -22.333L-6.808 -22.331M-43.698 -14.005L-46.114 -14.005L-46.114 -14.255L-43.698 -14.255L-43.698 -14.005M-47.155 -14.255L-47.155 -14.005L-56.553 -14.006L-56.553 -14.256L-47.155 -14.255M-63.434 -16.005L-64.858 -16.005L-64.858 -14.257L-57.843 -14.256L-57.843 -14.006L-65.108 -14.007L-65.108 -16.254L-63.684 -16.254L-63.684 -19.085L-66.137 -19.087L-66.137 -20.105L-68.134 -20.102L-68.135 -20.606L-67.884 -20.606L-67.884 -20.352L-65.887 -20.355L-65.887 -19.337L-63.564 -19.335L-63.434 -19.335L-63.434 -16.005M-63.555 -20.391L-61.943 -20.39L-61.944 -23.963L-65.89 -23.96L-65.888 -21.98L-67.887 -21.976L-67.885 -20.906L-68.135 -20.906L-68.137 -22.226L-66.138 -22.229L-66.14 -24.21L-61.695 -24.213L-61.691 -16.254L-43.698 -16.256L-43.698 -15.595L-43.948 -15.595L-43.948 -16.006L-61.949 -16.004L-61.95 -20.27L-63.424 -20.271L-63.424 -20.35L-63.555 -20.35L-63.555 -20.391M14.931 -18.688L15.182 -18.688L15.182 -18.036L9.095 -18.036L9.096 -15.795L8.846 -15.795L8.845 -18.286L14.931 -18.286L14.931 -18.688M-21.899 -16.639L-22.016 -16.639L-22.016 -17.892L-21.898 -17.892L-21.899 -16.639M7.258 -16.711L7.141 -16.783L7.138 -23.155L7.257 -23.155L7.258 -16.711M-21.898 -19.027L-22.016 -19.027L-22.016 -19.074L-21.898 -19.074L-21.898 -19.027M11.816 -19.836L11.816 -19.956L11.865 -19.956L11.865 -21.491L14.932 -21.491L14.932 -22.401L15.182 -22.401L15.182 -19.767L14.931 -19.768L14.931 -19.836L14.889 -19.836L14.889 -19.956L14.932 -19.956L14.932 -21.371L11.985 -21.371L11.985 -19.956L12.831 -19.956L12.831 -19.836L11.816 -19.836M8.965 -19.836L8.965 -19.828L8.845 -19.828L8.844 -23.522L14.93 -23.522L14.93 -26.89L12.222 -26.89L12.221 -27.973L8.843 -27.973L8.841 -37.424L8.809 -37.424L8.809 -37.674L9.091 -37.674L9.093 -28.223L12.471 -28.223L12.472 -27.14L15.182 -27.14L15.182 -23.237L14.932 -23.237L14.932 -23.403L8.965 -23.402L8.964 -19.956L11.037 -19.956L11.037 -19.836L8.965 -19.836M14.246 -19.836L13.508 -19.836L13.508 -19.956L14.246 -19.956L14.246 -19.836M-21.897 -20.712L-22.016 -20.712L-22.017 -22.717L-21.896 -22.717L-21.897 -20.712M0.191 -33.848L-6.811 -33.843L-6.807 -23.518L0.199 -23.521L0.197 -26.231L0.317 -26.231L0.317 -26.232L0.324 -26.232L0.329 -23.39L0.206 -23.39L0.206 -23.4L-6.928 -23.4L-6.929 -33.83L-7.021 -33.83L-7.021 -34.092L0.441 -34.098L0.468 -34.098L0.468 -33.858L0.31 -33.858L0.313 -32.426L0.192 -32.426L0.191 -33.848M7.257 -23.857L7.138 -23.857L7.138 -23.982L7.257 -23.982L7.257 -23.857M8.964 -24.338L8.844 -24.338L8.843 -27.573L8.964 -27.573L8.964 -24.338M-22.017 -27.253L-21.894 -27.253L-21.895 -24.669L-22.017 -24.669L-22.017 -27.253M7.309 -37.424L7.257 -37.424L7.257 -25.834L7.137 -25.834L7.133 -33.865L7.007 -33.865L7.007 -37.674L7.309 -37.674L7.309 -37.424M0.194 -29.977L0.317 -29.977L0.321 -27.841L0.196 -27.841L0.194 -29.977M-18.83 -30.007L-18.83 -29.887L-19.827 -29.886L-19.827 -30.007L-18.83 -30.007M0.193 -30.933L0.313 -30.933L0.313 -30.934L0.315 -30.934L0.316 -30.723L0.193 -30.723L0.193 -30.933"/>
		<path transform="matrix(2.70354 0 0 2.70354 227.407 213.99)" d="M-15.652 -5.593L-15.741 -5.64L-15.713 -5.693L-15.712 -5.693L-15.712 -5.695L-15.708 -5.702L-15.712 -5.704L-15.712 -6.71L-15.652 -6.71L-15.652 -5.593M0.361 -5.833L0.352 -5.819L0.361 -5.813L0.412 -5.782L0.301 -5.603L0.299 -6.914L0.359 -6.914L0.361 -5.833M-15.653 -8.843L-15.712 -8.843L-15.715 -29.891L-16.903 -29.889L-16.903 -29.949L-15.656 -29.951L-15.653 -8.843M0.355 -9.042L0.295 -9.041L0.271 -22.45L0.331 -22.45L0.355 -9.042M-21.9 -13.461L-30.232 -13.457L-30.249 -13.466L-30.282 -13.404L-30.493 -13.517L-21.96 -13.521L-21.959 -14.708L-21.899 -14.708L-21.9 -13.461M-21.899 -16.639L-21.959 -16.639L-21.958 -17.892L-21.898 -17.892L-21.899 -16.639M7.201 -16.766L7.192 -16.752L7.141 -16.783L7.138 -23.155L7.198 -23.155L7.201 -16.766M-21.898 -19.027L-21.958 -19.027L-21.958 -19.074L-21.898 -19.074L-21.898 -19.027M-21.897 -20.712L-21.957 -20.712L-21.956 -22.717L-21.896 -22.717L-21.897 -20.712M0.264 -26.231L0.317 -26.231L0.317 -26.232L0.324 -26.232L0.329 -23.39L0.269 -23.39L0.264 -26.231M7.198 -23.857L7.138 -23.857L7.138 -23.982L7.198 -23.982L7.198 -23.857M-21.954 -27.253L-21.894 -27.253L-21.895 -24.669L-21.955 -24.669L-21.954 -27.253M7.197 -25.834L7.137 -25.834L7.133 -33.865L6.066 -33.864L6.066 -33.924L7.193 -33.925L7.197 -25.834M0.257 -29.977L0.317 -29.977L0.321 -27.841L0.261 -27.841L0.257 -29.977M-21.953 -29.943L-21.822 -29.943L-21.822 -29.883L-21.893 -29.883L-21.893 -28.748L-21.954 -28.748L-21.953 -29.943M-18.83 -29.887L-19.827 -29.886L-19.827 -29.946L-18.83 -29.947L-18.83 -29.887M0.255 -30.933L0.313 -30.933L0.313 -30.934L0.315 -30.934L0.316 -30.723L0.256 -30.723L0.255 -30.933M0.25 -33.918L1.356 -33.919L1.356 -33.859L0.31 -33.858L0.313 -32.426L0.253 -32.426L0.25 -33.918M4.31 -33.862L3.095 -33.861L3.095 -33.921L4.31 -33.922L4.31 -33.862"/>
		<path fill="#000019" fill-opacity="0.06666667" transform="matrix(2.70354 0 0 2.70354 227.407 213.99)" d="M8.809 -37.424L8.841 -37.424L8.843 -27.973L12.221 -27.973L12.222 -26.89L14.93 -26.89L14.93 -23.522L8.844 -23.522L8.845 -19.828L8.965 -19.828L8.965 -19.836L11.037 -19.836L11.037 -19.956L8.964 -19.956L8.965 -23.402L14.932 -23.403L14.932 -23.237L15.057 -23.237L15.057 -22.401L14.932 -22.401L14.932 -21.491L11.865 -21.491L11.865 -19.956L11.816 -19.956L11.816 -19.836L12.831 -19.836L12.831 -19.956L11.985 -19.956L11.985 -21.371L14.932 -21.371L14.932 -19.956L14.889 -19.956L14.889 -19.836L14.931 -19.836L14.931 -19.768L15.056 -19.768L15.056 -18.688L14.931 -18.688L14.931 -18.286L8.845 -18.286L8.846 -15.795L8.971 -15.795L8.971 -15.15L8.846 -15.15L8.848 -5.55L8.848 -5.42L7.63 -5.42L7.63 -5.545L7.258 -5.545L7.257 -23.155L7.133 -23.155L7.133 -23.857L7.257 -23.857L7.257 -23.982L7.133 -23.982L7.132 -24.403L7.132 -25.834L7.257 -25.834L7.257 -37.424L7.309 -37.424L7.309 -37.549L8.809 -37.549L8.809 -37.424M-7.021 -33.83L-6.929 -33.83L-6.928 -23.4L0.206 -23.4L0.206 -23.39L0.334 -23.39L0.336 -22.45L-6.928 -22.45L-6.927 -9.604L0.236 -9.606L0.236 -9.041L0.36 -9.042L0.364 -6.914L0.236 -6.914L0.236 -5.662L-1.785 -5.661L-1.785 -5.536L-3.938 -5.536L-3.938 -5.661L-8.565 -5.66L-8.565 -5.535L-10.718 -5.534L-10.718 -5.659L-12.044 -5.659L-12.044 -5.534L-14.196 -5.533L-14.196 -5.658L-15.592 -5.658L-15.592 -6.71L-15.717 -6.71L-15.718 -8.843L-15.593 -8.843L-15.593 -9.613L-8.497 -9.614L-8.502 -33.83L-8.462 -33.83L-8.462 -33.955L-7.021 -33.955L-7.021 -33.83M0.226 -9.726L-6.807 -9.724L-6.808 -22.331L0.216 -22.333L0.226 -9.726M-8.618 -9.734L-15.594 -9.734L-15.594 -25.855L-8.62 -25.855L-8.618 -9.734M-22.017 -29.878L-22.017 -28.748L-21.889 -28.748L-21.89 -27.253L-22.017 -27.253L-22.017 -24.669L-21.891 -24.669L-21.891 -22.717L-22.017 -22.717L-22.016 -20.712L-21.892 -20.712L-21.893 -19.074L-22.016 -19.074L-22.016 -19.027L-21.893 -19.027L-21.893 -17.892L-22.016 -17.892L-22.016 -16.639L-21.894 -16.639L-21.894 -14.708L-22.016 -14.708L-22.016 -13.588L-30.442 -13.572L-30.446 -29.889L-22.017 -29.878M-61.943 -20.39L-63.555 -20.391L-63.555 -20.35L-63.429 -20.35L-63.429 -20.271L-61.95 -20.27L-61.949 -16.004L-43.948 -16.006L-43.948 -15.595L-43.823 -15.595L-43.823 -14.255L-46.114 -14.255L-46.114 -14.13L-47.155 -14.13L-47.155 -14.255L-56.553 -14.256L-56.553 -14.131L-57.843 -14.131L-57.843 -14.256L-64.858 -14.257L-64.858 -16.005L-63.434 -16.005L-63.434 -19.335L-63.559 -19.335L-65.887 -19.337L-65.887 -20.355L-67.884 -20.352L-67.884 -20.606L-68.009 -20.606L-68.01 -20.906L-67.885 -20.906L-67.887 -21.976L-65.888 -21.98L-65.89 -23.96L-61.944 -23.963L-61.943 -20.39M13.508 -19.956L13.508 -19.836L14.246 -19.836L14.246 -19.956L13.508 -19.956M0.192 -32.426L0.318 -32.426L0.321 -30.934L0.193 -30.933L0.193 -30.723L0.321 -30.723L0.322 -29.977L0.194 -29.977L0.196 -27.841L0.326 -27.841L0.329 -26.232L0.197 -26.231L0.199 -23.521L-6.807 -23.518L-6.811 -33.843L0.191 -33.848L0.192 -32.426M8.843 -27.573L8.844 -24.338L8.964 -24.338L8.964 -27.573L8.843 -27.573M-8.619 -30.01L-16.903 -30.008L-16.903 -29.884L-18.83 -29.882L-18.83 -30.007L-19.827 -30.007L-19.827 -29.88L-21.822 -29.878L-21.822 -30.006L-30.459 -30.004L-30.46 -33.804L-8.62 -33.82L-8.619 -30.01"/>
		<path fill="#000019" fill-opacity="0.06666667" transform="matrix(2.70354 0 0 2.70354 227.407 213.99)" d="M-7.881 -8.823L-9.381 -8.823L-9.381 -10.323L-7.881 -10.323L-7.881 -8.823"/>
		<clipPath id="cl_2d">
			<rect x="202.0453" y="186.08173" width="4.0553131" height="4.0553131"/>
		</clipPath>
		<g clip-path="url(#cl_2d)">
			<path fill="none" stroke="#7F7F7F" stroke-width="0.55482715" stroke-miterlimit="4" transform="matrix(2.70354 0 0 2.70354 227.407 213.99)" d="M-9.381 -7.36392L-6.42192 -10.323"/>
		</g>
		<path fill="white" fill-opacity="0.80000001" d="M42.5197 42.5197L269.291 42.5197L269.291 269.291L42.5197 269.291L42.5197 42.5197Z"/>
		<path transform="matrix(2.70354 0 0 2.70354 218.506 170.656)" d="M3.63844 6.42292L-3.63456 6.42492L-3.63556 -6.42208L3.62844 -6.42408L3.63844 6.42292M-3.51556 -6.30208L-3.51456 6.30492L3.51844 6.30292L3.50844 -6.30408L-3.51556 -6.30208"/>
		<path fill="#EFEFEF" transform="matrix(2.70354 0 0 2.70354 218.506 170.656)" d="M3.51844 6.30292L-3.51456 6.30492L-3.51556 -6.30208L3.50844 -6.30408L3.51844 6.30292"/>
	</g>
	<clipPath id="cl_2e">
		<rect x="283.46457" y="42.519684" width="954.01575" height="1754.6063"/>
	</clipPath>
	<g clip-path="url(#cl_2e)">
		<path fill="#7F7F7F" transform="matrix(113.548 0 0 113.548 760.352 919.852)" d="M3.52288 6.30238L3.52288 6.30238L3.51408 6.30238L3.51408 6.30238M3.52289 6.32238L3.52289 6.34238L3.51409 6.34238L3.51408 6.32238M3.5229 6.36238L3.5229 6.38238L3.5141 6.38238L3.51409 6.36238M3.52291 6.40238L3.52291 6.42238L3.51411 6.42238L3.5141 6.40238M3.52292 6.44238L3.52292 6.46238L3.51412 6.46238L3.51411 6.44238M3.52293 6.48238L3.52293 6.50238L3.51413 6.50238L3.51412 6.48238M3.52294 6.52238L3.52294 6.54238L3.51414 6.54238L3.51413 6.52238M3.52295 6.56238L3.52295 6.58238L3.51415 6.58238L3.51414 6.56238M3.52296 6.60238L3.52296 6.62238L3.51416 6.62238L3.51415 6.60238M3.52297 6.64238L3.52297 6.66238L3.51417 6.66238L3.51416 6.64238"/>
		<path fill="none" stroke="#7F7F7F" stroke-width="0.0088068182" stroke-miterlimit="4" transform="matrix(113.548 0 0 113.548 760.352 919.852)" d="M3.51855 6.57238L3.51858 6.69738"/>
		<path fill="#7F7F7F" transform="matrix(113.548 0 0 113.548 760.352 919.852)" d="M-3.51093 6.30417L-3.51093 6.30417L-3.51973 6.30417L-3.51973 6.30417M-3.51092 6.32417L-3.51092 6.34417L-3.51972 6.34417L-3.51973 6.32417M-3.51091 6.36417L-3.51091 6.38417L-3.51971 6.38417L-3.51972 6.36417M-3.5109 6.40417L-3.5109 6.42417L-3.5197 6.42417L-3.51971 6.40417M-3.51089 6.44417L-3.51089 6.46417L-3.51969 6.46417L-3.5197 6.44417M-3.51088 6.48417L-3.51088 6.50417L-3.51968 6.50417L-3.51969 6.48417M-3.51087 6.52417L-3.51087 6.54417L-3.51967 6.54417L-3.51968 6.52417M-3.51086 6.56417L-3.51086 6.58417L-3.51966 6.58417L-3.51967 6.56417M-3.51085 6.60417L-3.51085 6.62417L-3.51965 6.62417L-3.51966 6.60417M-3.51084 6.64417L-3.51084 6.66417L-3.51964 6.66417L-3.51965 6.64417"/>
		<path fill="none" stroke="#7F7F7F" stroke-width="0.0088068182" stroke-miterlimit="4" transform="matrix(113.548 0 0 113.548 760.352 919.852)" d="M-3.51526 6.57417L-3.51523 6.69917"/>
		<path fill="#7F7F7F" transform="matrix(113.548 0 0 113.548 760.352 919.852)" d="M3.51857 6.67238L3.46858 6.69739L3.46857 6.64739L3.51857 6.67238"/>
		<path fill="none" stroke="#7F7F7F" stroke-width="0.0088068182" stroke-miterlimit="4" transform="matrix(113.548 0 0 113.548 760.352 919.852)" d="M3.51857 6.67238L3.46858 6.69739L3.46857 6.64739L3.51857 6.67238"/>
		<path fill="#7F7F7F" transform="matrix(113.548 0 0 113.548 760.352 919.852)" d="M-3.51524 6.67417L-3.46524 6.64916L-3.46523 6.69916L-3.51524 6.67417"/>
		<path fill="none" stroke="#7F7F7F" stroke-width="0.0088068182" stroke-miterlimit="4" transform="matrix(113.548 0 0 113.548 760.352 919.852)" d="M-3.51524 6.67417L-3.46524 6.64916L-3.46523 6.69916L-3.51524 6.67417"/>
		<text fill="#7F7F7F" transform="matrix(1 -0.000254485 0.000254485 1 748.841 1670.59)" font-size="12" font-family="Roboto" x="0, 6.7441406, 9.9082031, 16.652344, " y="11, ">
				7.03
		</text>
		<path fill="none" stroke="#7F7F7F" stroke-width="0.0088068182" stroke-miterlimit="4" transform="matrix(113.548 -0.0288964 0.0288964 113.548 760.541 1677.59)" d=""/>
		<path fill="none" stroke="#7F7F7F" stroke-width="0.0088068182" stroke-miterlimit="4" transform="matrix(113.548 0 0 113.548 760.352 919.852)" d="M3.51857 6.67238L0.139921 6.67324M-0.136582 6.67331L-3.51524 6.67417"/>
		<path fill="#7F7F7F" transform="matrix(113.548 0 0 113.548 760.352 919.852)" d="M-3.51533 6.30857L-3.51533 6.30857L-3.51533 6.29977L-3.51533 6.29977M-3.53533 6.30858L-3.55533 6.30858L-3.55533 6.29977L-3.53533 6.29977M-3.57533 6.30858L-3.59533 6.30858L-3.59533 6.29977L-3.57533 6.29977M-3.61533 6.30858L-3.63533 6.30858L-3.63533 6.29978L-3.61533 6.29977M-3.65533 6.30859L-3.67533 6.30859L-3.67533 6.29978L-3.65533 6.29978M-3.69533 6.30859L-3.71533 6.30859L-3.71533 6.29978L-3.69533 6.29978M-3.73533 6.30859L-3.75533 6.30859L-3.75533 6.29979L-3.73533 6.29978M-3.77533 6.30859L-3.79533 6.3086L-3.79533 6.29979L-3.77533 6.29979M-3.81533 6.3086L-3.83533 6.3086L-3.83533 6.29979L-3.81533 6.29979M-3.85533 6.3086L-3.87533 6.3086L-3.87533 6.2998L-3.85533 6.29979"/>
		<path fill="none" stroke="#7F7F7F" stroke-width="0.0088068182" stroke-miterlimit="4" transform="matrix(113.548 0 0 113.548 760.352 919.852)" d="M-3.78533 6.30419L-3.91033 6.3042"/>
		<path fill="#7F7F7F" transform="matrix(113.548 0 0 113.548 760.352 919.852)" d="M-3.51635 -6.29782L-3.51635 -6.29782L-3.51635 -6.30662L-3.51635 -6.30662M-3.53635 -6.29781L-3.55635 -6.29781L-3.55635 -6.30662L-3.53635 -6.30662M-3.57635 -6.29781L-3.59635 -6.29781L-3.59635 -6.30662L-3.57635 -6.30662M-3.61635 -6.29781L-3.63635 -6.29781L-3.63635 -6.30661L-3.61635 -6.30662M-3.65635 -6.2978L-3.67635 -6.2978L-3.67635 -6.30661L-3.65635 -6.30661M-3.69635 -6.2978L-3.71635 -6.2978L-3.71635 -6.30661L-3.69635 -6.30661M-3.73635 -6.2978L-3.75635 -6.2978L-3.75635 -6.3066L-3.73635 -6.30661M-3.77635 -6.2978L-3.79635 -6.29779L-3.79635 -6.3066L-3.77635 -6.3066M-3.81635 -6.29779L-3.83635 -6.29779L-3.83635 -6.3066L-3.81635 -6.3066M-3.85635 -6.29779L-3.87635 -6.29779L-3.87635 -6.30659L-3.85635 -6.3066"/>
		<path fill="none" stroke="#7F7F7F" stroke-width="0.0088068182" stroke-miterlimit="4" transform="matrix(113.548 0 0 113.548 760.352 919.852)" d="M-3.78635 -6.3022L-3.91135 -6.30219"/>
		<path fill="#7F7F7F" transform="matrix(113.548 0 0 113.548 760.352 919.852)" d="M-3.88533 6.3042L-3.91033 6.2542L-3.86033 6.2542L-3.88533 6.3042"/>
		<path fill="none" stroke="#7F7F7F" stroke-width="0.0088068182" stroke-miterlimit="4" transform="matrix(113.548 0 0 113.548 760.352 919.852)" d="M-3.88533 6.3042L-3.91033 6.2542L-3.86033 6.2542L-3.88533 6.3042"/>
		<path fill="#7F7F7F" transform="matrix(113.548 0 0 113.548 760.352 919.852)" d="M-3.88635 -6.30219L-3.86135 -6.25219L-3.91135 -6.25219L-3.88635 -6.30219"/>
		<path fill="none" stroke="#7F7F7F" stroke-width="0.0088068182" stroke-miterlimit="4" transform="matrix(113.548 0 0 113.548 760.352 919.852)" d="M-3.88635 -6.30219L-3.86135 -6.25219L-3.91135 -6.25219L-3.88635 -6.30219"/>
		<text fill="#7F7F7F" transform="matrix(0 -1 1 0 312.121 935.036)" font-size="12" font-family="Roboto" x="0, 6.7441406, 13.488281, 16.652344, 23.396484, " y="11, ">
				12.61
		</text>
		<path fill="none" stroke="#7F7F7F" stroke-width="0.0088068182" stroke-miterlimit="4" transform="matrix(0 -113.548 113.548 0 319.121 919.966)" d=""/>
		<path fill="none" stroke="#7F7F7F" stroke-width="0.0088068182" stroke-miterlimit="4" transform="matrix(113.548 0 0 113.548 760.352 919.852)" d="M-3.88533 6.3042L-3.88583 0.168954M-3.88585 -0.166944L-3.88635 -6.30219"/>
		<path fill="#7F7F7F" transform="matrix(113.548 0 0 113.548 760.352 919.852)" d="M-3.52075 -6.30222L-3.52075 -6.30222L-3.51195 -6.30222L-3.51195 -6.30222M-3.52076 -6.32222L-3.52077 -6.34222L-3.51196 -6.34222L-3.51195 -6.32222M-3.52077 -6.36222L-3.52078 -6.38222L-3.51197 -6.38222L-3.51197 -6.36222M-3.52079 -6.40222L-3.5208 -6.42222L-3.51199 -6.42222L-3.51198 -6.40222M-3.5208 -6.44222L-3.52081 -6.46222L-3.512 -6.46222L-3.512 -6.44222M-3.52082 -6.48222L-3.52082 -6.50222L-3.51202 -6.50222L-3.51201 -6.48222M-3.52083 -6.52222L-3.52084 -6.54222L-3.51203 -6.54222L-3.51202 -6.52222M-3.52084 -6.56222L-3.52085 -6.58222L-3.51204 -6.58222L-3.51204 -6.56222M-3.52086 -6.60222L-3.52087 -6.62222L-3.51206 -6.62222L-3.51205 -6.60222M-3.52087 -6.64222L-3.52088 -6.66222L-3.51207 -6.66222L-3.51207 -6.64222"/>
		<path fill="none" stroke="#7F7F7F" stroke-width="0.0088068182" stroke-miterlimit="4" transform="matrix(113.548 0 0 113.548 760.352 919.852)" d="M-3.51644 -6.57222L-3.51649 -6.69722"/>
		<path fill="#7F7F7F" transform="matrix(113.548 0 0 113.548 760.352 919.852)" d="M3.50456 -6.30468L3.50456 -6.30468L3.51336 -6.30468L3.51336 -6.30468M3.50455 -6.32468L3.50454 -6.34468L3.51335 -6.34468L3.51336 -6.32468M3.50454 -6.36468L3.50453 -6.38468L3.51334 -6.38468L3.51334 -6.36468M3.50452 -6.40468L3.50451 -6.42468L3.51332 -6.42468L3.51333 -6.40468M3.50451 -6.44468L3.5045 -6.46468L3.51331 -6.46468L3.51331 -6.44468M3.50449 -6.48468L3.50449 -6.50468L3.51329 -6.50468L3.5133 -6.48468M3.50448 -6.52468L3.50447 -6.54468L3.51328 -6.54468L3.51329 -6.52468M3.50447 -6.56468L3.50446 -6.58468L3.51327 -6.58468L3.51327 -6.56468M3.50445 -6.60468L3.50444 -6.62468L3.51325 -6.62468L3.51326 -6.60468M3.50444 -6.64468L3.50443 -6.66468L3.51324 -6.66468L3.51324 -6.64468"/>
		<path fill="none" stroke="#7F7F7F" stroke-width="0.0088068182" stroke-miterlimit="4" transform="matrix(113.548 0 0 113.548 760.352 919.852)" d="M3.50887 -6.57468L3.50882 -6.69968"/>
		<path fill="#7F7F7F" transform="matrix(113.548 0 0 113.548 760.352 919.852)" d="M-3.51648 -6.67222L-3.46649 -6.69724L-3.46647 -6.64724L-3.51648 -6.67222"/>
		<path fill="none" stroke="#7F7F7F" stroke-width="0.0088068182" stroke-miterlimit="4" transform="matrix(113.548 0 0 113.548 760.352 919.852)" d="M-3.51648 -6.67222L-3.46649 -6.69724L-3.46647 -6.64724L-3.51648 -6.67222"/>
		<path fill="#7F7F7F" transform="matrix(113.548 0 0 113.548 760.352 919.852)" d="M3.50883 -6.67468L3.45884 -6.64966L3.45882 -6.69966L3.50883 -6.67468"/>
		<path fill="none" stroke="#7F7F7F" stroke-width="0.0088068182" stroke-miterlimit="4" transform="matrix(113.548 0 0 113.548 760.352 919.852)" d="M3.50883 -6.67468L3.45884 -6.64966L3.45882 -6.69966L3.50883 -6.67468"/>
		<text fill="#7F7F7F" transform="matrix(1 -0.000350162 0.000350162 1 748.217 155.096)" font-size="12" font-family="Roboto" x="0, 6.7441406, 9.9082031, 16.652344, " y="11, ">
				7.03
		</text>
		<path fill="none" stroke="#7F7F7F" stroke-width="0.0088068182" stroke-miterlimit="4" transform="matrix(113.548 -0.0397604 0.0397604 113.548 759.917 162.092)" d=""/>
		<path fill="none" stroke="#7F7F7F" stroke-width="0.0088068182" stroke-miterlimit="4" transform="matrix(113.548 0 0 113.548 760.352 919.852)" d="M-3.51648 -6.67222L-0.142076 -6.6734M0.134427 -6.6735L3.50883 -6.67468"/>
		<path fill="#7F7F7F" transform="matrix(113.548 0 0 113.548 760.352 919.852)" d="M3.50896 -6.30908L3.50896 -6.30908L3.50896 -6.30028L3.50896 -6.30028M3.52896 -6.3091L3.54896 -6.30911L3.54896 -6.30031L3.52896 -6.30029M3.56896 -6.30913L3.58896 -6.30914L3.58896 -6.30034L3.56896 -6.30032M3.60896 -6.30916L3.62896 -6.30917L3.62896 -6.30037L3.60896 -6.30035M3.64896 -6.30919L3.66896 -6.3092L3.66896 -6.3004L3.64896 -6.30038M3.68896 -6.30922L3.70896 -6.30923L3.70896 -6.30043L3.68896 -6.30041M3.72896 -6.30925L3.74896 -6.30926L3.74896 -6.30046L3.72896 -6.30044M3.76896 -6.30928L3.78896 -6.30929L3.78896 -6.30049L3.76896 -6.30047M3.80896 -6.30931L3.82896 -6.30933L3.82896 -6.30052L3.80896 -6.3005M3.84896 -6.30934L3.86896 -6.30936L3.86896 -6.30055L3.84896 -6.30053"/>
		<path fill="none" stroke="#7F7F7F" stroke-width="0.0088068182" stroke-miterlimit="4" transform="matrix(113.548 0 0 113.548 760.352 919.852)" d="M3.77896 -6.30488L3.90396 -6.30498"/>
		<path fill="#7F7F7F" transform="matrix(113.548 0 0 113.548 760.352 919.852)" d="M3.51848 6.29798L3.51848 6.29798L3.51848 6.30678L3.51848 6.30678M3.53848 6.29796L3.55848 6.29795L3.55848 6.30675L3.53848 6.30677M3.57848 6.29793L3.59848 6.29792L3.59848 6.30672L3.57848 6.30674M3.61848 6.2979L3.63848 6.29789L3.63848 6.30669L3.61848 6.30671M3.65848 6.29787L3.67848 6.29786L3.67848 6.30666L3.65848 6.30668M3.69848 6.29784L3.71848 6.29783L3.71848 6.30663L3.69848 6.30665M3.73848 6.29781L3.75848 6.2978L3.75848 6.3066L3.73848 6.30662M3.77848 6.29778L3.79848 6.29777L3.79848 6.30657L3.77848 6.30659M3.81848 6.29775L3.83848 6.29773L3.83848 6.30654L3.81848 6.30656M3.85848 6.29772L3.87848 6.2977L3.87848 6.30651L3.85848 6.30653"/>
		<path fill="none" stroke="#7F7F7F" stroke-width="0.0088068182" stroke-miterlimit="4" transform="matrix(113.548 0 0 113.548 760.352 919.852)" d="M3.78848 6.30218L3.91348 6.30208"/>
		<path fill="#7F7F7F" transform="matrix(113.548 0 0 113.548 760.352 919.852)" d="M3.87896 -6.30496L3.904 -6.25498L3.854 -6.25494L3.87896 -6.30496"/>
		<path fill="none" stroke="#7F7F7F" stroke-width="0.0088068182" stroke-miterlimit="4" transform="matrix(113.548 0 0 113.548 760.352 919.852)" d="M3.87896 -6.30496L3.904 -6.25498L3.854 -6.25494L3.87896 -6.30496"/>
		<path fill="#7F7F7F" transform="matrix(113.548 0 0 113.548 760.352 919.852)" d="M3.88848 6.3021L3.86344 6.25212L3.91344 6.25208L3.88848 6.3021"/>
		<path fill="none" stroke="#7F7F7F" stroke-width="0.0088068182" stroke-miterlimit="4" transform="matrix(113.548 0 0 113.548 760.352 919.852)" d="M3.88848 6.3021L3.86344 6.25212L3.91344 6.25208L3.88848 6.3021"/>
		<text fill="#7F7F7F" transform="matrix(-0.000755115 -1 1 -0.000755115 1194.35 934.765)" font-size="12" font-family="Roboto" x="0, 6.7441406, 13.488281, 16.652344, 23.396484, " y="11, ">
				12.61
		</text>
		<path fill="none" stroke="#7F7F7F" stroke-width="0.0088068182" stroke-miterlimit="4" transform="matrix(-0.0857421 -113.548 113.548 -0.0857421 1201.34 919.69)" d=""/>
		<path fill="none" stroke="#7F7F7F" stroke-width="0.0088068182" stroke-miterlimit="4" transform="matrix(113.548 0 0 113.548 760.352 919.852)" d="M3.87896 -6.30496L3.88359 -0.169378M3.88385 0.166519L3.88848 6.3021"/>
		<path transform="matrix(113.548 0 0 113.548 760.352 919.852)" d="M3.63844 6.42292L-3.63456 6.42492L-3.63556 -6.42208L3.62844 -6.42408L3.63844 6.42292M-3.51556 -6.30208L-3.51456 6.30492L3.51844 6.30292L3.50844 -6.30408L-3.51556 -6.30208"/>
		<path fill="#EFEFEF" transform="matrix(113.548 0 0 113.548 760.352 919.852)" d="M3.51844 6.30292L-3.51456 6.30492L-3.51556 -6.30208L3.50844 -6.30408L3.51844 6.30292"/>
	</g>
	<text font-size="13" font-family="Roboto" x="51.023621, 58.780457, 68.054382, 71.590027, 79.308777, 82.533386, 89.718933, 96.3078, 105.25165, 114.1955, 122.20624, 125.43085, 133.63202, 140.75409, 149.23456, 158.50848, 161.73309, 165.26874, 172.98749, 176.2121, 184.41327, 192.42401, 201.22821, 209.50555, 213.0412, 221.57245, 228.96112, 237.49237, 240.71698, 252.25067, 255.60223, 263.35907, 272.633, 281.57684, 290.00653, 297.50946, 300.73407, 311.99481, 320.47528, 328.48602, 336.49677, 344.97723, 354.06708, 361.92548, 369.73309, 372.9577, 381.90155, 389.0871, 392.31171, 400.79218, 409.88837, 417.69598, 420.92059, 429.07733, 432.61298, 441.8869, 449.77069, 453.19843, 456.42303, 464.14178, 471.53046, 480.80438, 488.52313, 497.46698, 505.66815, 509.31805, 517.79852, 521.02313, 529.55438, 533.09003, 540.80878, 549.2702, 556.39227, 564.87274, 568.40839, 579.758, 587.47675, 590.70135, 599.18182, 608.27802, 616.08563, 619.31024, 630.57098, 639.05145, 647.06219, 655.07294, 663.55341, 672.64325, 680.50165, 688.30927, 691.53387, 695.06952, 704.34344, 712.80487, 719.46356, 727.89325, 736.4245, 739.96014, 749.23407, 758.08905, 760.64716, 763.87177, 775.40546, 778.75702, 786.51385, 795.78778, 804.73163, 813.16132, 820.66425, 823.88885, 830.89032, 834.42596, 845.77557, 849.12714, 856.38251, 864.04413, 871.80096, 875.33661, 884.28046, 893.55438, 896.11249, 899.3371, 907.05585, 914.71747, 922.4743, 926.00995, 933.7287, 939.83514, 948.24579, 956.52313, 964.10223, 973.04608, 980.75214, 988.55975, 991.78436, 1000.7282, 1009.0182, 1017.4987, 1024.5002, 1027.8518, 1035.7102, 1043.5178, 1046.7424, 1055.6863, 1063.697, 1066.9216, 1075.3323, 1083.7937, 1092.2551, 1100.6848, 1108.6956, 1117.1062, 1125.5676, 1133.3752, 1136.5999, 1145.5437, " y="1850.9763, ">
			THIS FLOOR PLAN IS PROVIDED WITHOUT WARRANTY OF ANY KIND. SENSOPIA DISCLAIMS ANY WARRANTY INCLUDING, WITHOUT LIMITATION, SATISFACTORY QUALITY OR ACCURACY OF
	</text>
	<text font-size="13" font-family="Roboto" x="51.023682, 59.554932, 63.090576, 74.440186, 81.828857, 91.102783, 98.821533, 102.35718, 111.30103, 120.57495, 128.2937, " y="1865.9763, ">
			DIMENSIONS.
	</text>
</svg>
