<?xml version="1.0" encoding="utf-8" ?>
<svg xmlns="http://www.w3.org/2000/svg" xmlns:xlink="http://www.w3.org/1999/xlink" width="1280" height="1920">
	<rect fill="white" width="1280" height="1920"/>
	<clipPath id="cl_1e">
		<rect x="28.346457" y="28.346457" width="1223.3071" height="1782.9528"/>
	</clipPath>
	<g clip-path="url(#cl_1e)">
		<path transform="matrix(39.9818 0 0 39.9818 953.654 997.567)" d="M-15.749 0.017L-14.01 0.017L-14.01 0.077L-15.809 0.077L-15.809 -1.014L-15.749 -1.014L-15.749 0.017M-10.314 0.077L-11.857 0.077L-11.857 0.017L-10.314 0.017L-10.314 0.077M-7.456 0.077L-8.162 0.077L-8.162 0.017L-7.456 0.017L-7.456 0.077M-4.111 0.077L-6.257 0.077L-6.257 0.017L-4.111 0.017L-4.111 0.077M0.119 0.077L-1.959 0.077L-1.959 0.017L0.059 0.017L0.059 -0.998L0.119 -0.998L0.119 0.077M0.119 -3.074L0.059 -3.074L0.059 -3.906L-15.749 -3.9L-15.749 -3.148L-15.809 -3.148L-15.809 -3.96L0.119 -3.966L0.119 -3.074"/>
		<path fill="none" stroke="black" stroke-width="0.0099999998" stroke-miterlimit="4" transform="matrix(-39.9818 0 0 39.9818 703.487 952.682)" d="M1.19975 1.19975C1.19975 0.536888 0.662862 0 0 0C0 0.399917 0 0.799833 0 1.19975"/>
		<path fill="white" transform="matrix(-39.9818 0 0 39.9818 627.302 998.252)" d="M0 0C0.717497 0 1.43499 0 2.15249 0C2.15249 0.04 2.15249 0.08 2.15249 0.12C1.43499 0.12 0.717497 0.12 0 0.12C0 0.08 0 0.04 0 0C0 0 0 0 0 0L0 0Z"/>
		<path fill="none" stroke="black" stroke-width="0.010000001" stroke-miterlimit="4" transform="matrix(-39.9818 0 0 39.9818 627.302 998.252)" d="M0 0C0.717497 0 1.43499 0 2.15249 0"/>
		<path fill="none" stroke="black" stroke-width="0.010000001" stroke-miterlimit="4" transform="matrix(-39.9818 0 0 39.9818 627.302 998.252)" d="M2.15249 0.12C1.43499 0.12 0.717497 0.12 0 0.12"/>
		<path fill="none" stroke="black" stroke-width="0.010000001" stroke-miterlimit="4" transform="matrix(-39.9818 0 0 39.9818 627.302 998.252)" d="M0 0.06C0.717497 0.06 1.43499 0.06 2.15249 0.06"/>
		<path fill="white" transform="matrix(-39.9818 0 0 39.9818 627.302 998.252)" d="M0.08 0.12C0.0533333 0.12 0.0266667 0.12 0 0.12C0 0.08 0 0.04 0 0C0.0266667 0 0.0533333 0 0.08 0"/>
		<path fill="none" stroke="black" stroke-width="0.0099999998" stroke-miterlimit="4" transform="matrix(-39.9818 0 0 39.9818 627.302 998.252)" d="M0.08 0.12C0.0533333 0.12 0.0266667 0.12 0 0.12C0 0.08 0 0.04 0 0C0.0266667 0 0.0533333 0 0.08 0"/>
		<path fill="none" stroke="black" stroke-width="0.039999999" stroke-miterlimit="4" transform="matrix(-39.9818 0 0 39.9818 627.302 998.252)" d="M0 0.06C0.0266667 0.06 0.0533333 0.06 0.08 0.06"/>
		<path fill="none" stroke="black" stroke-width="0.039999999" stroke-miterlimit="4" transform="matrix(-39.9818 0 0 39.9818 585.871 998.252)" d="M0 0.06C0.0266667 0.06 0.0533333 0.06 0.08 0.06"/>
		<path fill="white" transform="matrix(-39.9818 0 0 39.9818 544.44 998.252)" d="M0 0C0.0266667 0 0.0533333 0 0.08 0C0.08 0.04 0.08 0.08 0.08 0.12C0.0533333 0.12 0.0266667 0.12 0 0.12"/>
		<path fill="none" stroke="black" stroke-width="0.0099999998" stroke-miterlimit="4" transform="matrix(-39.9818 0 0 39.9818 544.44 998.252)" d="M0 0C0.0266667 0 0.0533333 0 0.08 0C0.08 0.04 0.08 0.08 0.08 0.12C0.0533333 0.12 0.0266667 0.12 0 0.12"/>
		<path fill="none" stroke="black" stroke-width="0.039999999" stroke-miterlimit="4" transform="matrix(-39.9818 0 0 39.9818 544.44 998.252)" d="M0 0.06C0.0266667 0.06 0.0533333 0.06 0.08 0.06"/>
		<path fill="white" transform="matrix(-39.9818 0 0 39.9818 479.567 998.252)" d="M0 0C0.717497 0 1.43499 0 2.15249 0C2.15249 0.04 2.15249 0.08 2.15249 0.12C1.43499 0.12 0.717497 0.12 0 0.12C0 0.08 0 0.04 0 0C0 0 0 0 0 0L0 0Z"/>
		<path fill="none" stroke="black" stroke-width="0.010000001" stroke-miterlimit="4" transform="matrix(-39.9818 0 0 39.9818 479.567 998.252)" d="M0 0C0.717497 0 1.43499 0 2.15249 0"/>
		<path fill="none" stroke="black" stroke-width="0.010000001" stroke-miterlimit="4" transform="matrix(-39.9818 0 0 39.9818 479.567 998.252)" d="M2.15249 0.12C1.43499 0.12 0.717497 0.12 0 0.12"/>
		<path fill="none" stroke="black" stroke-width="0.010000001" stroke-miterlimit="4" transform="matrix(-39.9818 0 0 39.9818 479.567 998.252)" d="M0 0.06C0.717497 0.06 1.43499 0.06 2.15249 0.06"/>
		<path fill="white" transform="matrix(-39.9818 0 0 39.9818 479.567 998.252)" d="M0.08 0.12C0.0533333 0.12 0.0266667 0.12 0 0.12C0 0.08 0 0.04 0 0C0.0266667 0 0.0533333 0 0.08 0"/>
		<path fill="none" stroke="black" stroke-width="0.0099999998" stroke-miterlimit="4" transform="matrix(-39.9818 0 0 39.9818 479.567 998.252)" d="M0.08 0.12C0.0533333 0.12 0.0266667 0.12 0 0.12C0 0.08 0 0.04 0 0C0.0266667 0 0.0533333 0 0.08 0"/>
		<path fill="none" stroke="black" stroke-width="0.039999999" stroke-miterlimit="4" transform="matrix(-39.9818 0 0 39.9818 479.567 998.252)" d="M0 0.06C0.0266667 0.06 0.0533333 0.06 0.08 0.06"/>
		<path fill="none" stroke="black" stroke-width="0.039999999" stroke-miterlimit="4" transform="matrix(-39.9818 0 0 39.9818 438.136 998.252)" d="M0 0.06C0.0266667 0.06 0.0533333 0.06 0.08 0.06"/>
		<path fill="white" transform="matrix(-39.9818 0 0 39.9818 396.705 998.252)" d="M0 0C0.0266667 0 0.0533333 0 0.08 0C0.08 0.04 0.08 0.08 0.08 0.12C0.0533333 0.12 0.0266667 0.12 0 0.12"/>
		<path fill="none" stroke="black" stroke-width="0.0099999998" stroke-miterlimit="4" transform="matrix(-39.9818 0 0 39.9818 396.705 998.252)" d="M0 0C0.0266667 0 0.0533333 0 0.08 0C0.08 0.04 0.08 0.08 0.08 0.12C0.0533333 0.12 0.0266667 0.12 0 0.12"/>
		<path fill="none" stroke="black" stroke-width="0.039999999" stroke-miterlimit="4" transform="matrix(-39.9818 0 0 39.9818 396.705 998.252)" d="M0 0.06C0.0266667 0.06 0.0533333 0.06 0.08 0.06"/>
		<path fill="white" transform="matrix(-39.9818 0 0 39.9818 875.312 998.252)" d="M0 0C0.717497 0 1.43499 0 2.15249 0C2.15249 0.04 2.15249 0.08 2.15249 0.12C1.43499 0.12 0.717497 0.12 0 0.12C0 0.08 0 0.04 0 0C0 0 0 0 0 0L0 0Z"/>
		<path fill="none" stroke="black" stroke-width="0.010000001" stroke-miterlimit="4" transform="matrix(-39.9818 0 0 39.9818 875.312 998.252)" d="M0 0C0.717497 0 1.43499 0 2.15249 0"/>
		<path fill="none" stroke="black" stroke-width="0.010000001" stroke-miterlimit="4" transform="matrix(-39.9818 0 0 39.9818 875.312 998.252)" d="M2.15249 0.12C1.43499 0.12 0.717497 0.12 0 0.12"/>
		<path fill="none" stroke="black" stroke-width="0.010000001" stroke-miterlimit="4" transform="matrix(-39.9818 0 0 39.9818 875.312 998.252)" d="M0 0.06C0.717497 0.06 1.43499 0.06 2.15249 0.06"/>
		<path fill="white" transform="matrix(-39.9818 0 0 39.9818 875.312 998.252)" d="M0.08 0.12C0.0533333 0.12 0.0266667 0.12 0 0.12C0 0.08 0 0.04 0 0C0.0266667 0 0.0533333 0 0.08 0"/>
		<path fill="none" stroke="black" stroke-width="0.0099999998" stroke-miterlimit="4" transform="matrix(-39.9818 0 0 39.9818 875.312 998.252)" d="M0.08 0.12C0.0533333 0.12 0.0266667 0.12 0 0.12C0 0.08 0 0.04 0 0C0.0266667 0 0.0533333 0 0.08 0"/>
		<path fill="none" stroke="black" stroke-width="0.039999999" stroke-miterlimit="4" transform="matrix(-39.9818 0 0 39.9818 875.312 998.252)" d="M0 0.06C0.0266667 0.06 0.0533333 0.06 0.08 0.06"/>
		<path fill="none" stroke="black" stroke-width="0.039999999" stroke-miterlimit="4" transform="matrix(-39.9818 0 0 39.9818 833.882 998.252)" d="M0 0.06C0.0266667 0.06 0.0533333 0.06 0.08 0.06"/>
		<path fill="white" transform="matrix(-39.9818 0 0 39.9818 792.451 998.252)" d="M0 0C0.0266667 0 0.0533333 0 0.08 0C0.08 0.04 0.08 0.08 0.08 0.12C0.0533333 0.12 0.0266667 0.12 0 0.12"/>
		<path fill="none" stroke="black" stroke-width="0.0099999998" stroke-miterlimit="4" transform="matrix(-39.9818 0 0 39.9818 792.451 998.252)" d="M0 0C0.0266667 0 0.0533333 0 0.08 0C0.08 0.04 0.08 0.08 0.08 0.12C0.0533333 0.12 0.0266667 0.12 0 0.12"/>
		<path fill="none" stroke="black" stroke-width="0.039999999" stroke-miterlimit="4" transform="matrix(-39.9818 0 0 39.9818 792.451 998.252)" d="M0 0.06C0.0266667 0.06 0.0533333 0.06 0.08 0.06"/>
		<path fill="white" transform="matrix(0 39.9818 39.9818 0 956.025 874.656)" d="M0 0C0.69182 0 1.38364 0 2.07546 0C2.07546 0.04 2.07546 0.08 2.07546 0.12C1.38364 0.12 0.69182 0.12 0 0.12C0 0.08 0 0.04 0 0C0 0 0 0 0 0L0 0Z"/>
		<path fill="none" stroke="black" stroke-width="0.010000001" stroke-miterlimit="4" transform="matrix(0 39.9818 39.9818 0 956.025 874.656)" d="M0 0C0.69182 0 1.38364 0 2.07546 0"/>
		<path fill="none" stroke="black" stroke-width="0.010000001" stroke-miterlimit="4" transform="matrix(0 39.9818 39.9818 0 956.025 874.656)" d="M2.07546 0.12C1.38364 0.12 0.69182 0.12 0 0.12"/>
		<path fill="none" stroke="black" stroke-width="0.010000001" stroke-miterlimit="4" transform="matrix(0 39.9818 39.9818 0 956.025 874.656)" d="M0 0.06C0.69182 0.06 1.38364 0.06 2.07546 0.06"/>
		<path fill="white" transform="matrix(0 39.9818 39.9818 0 956.025 874.656)" d="M0.08 0.12C0.0533333 0.12 0.0266667 0.12 0 0.12C0 0.08 0 0.04 0 0C0.0266667 0 0.0533333 0 0.08 0"/>
		<path fill="none" stroke="black" stroke-width="0.0099999998" stroke-miterlimit="4" transform="matrix(0 39.9818 39.9818 0 956.025 874.656)" d="M0.08 0.12C0.0533333 0.12 0.0266667 0.12 0 0.12C0 0.08 0 0.04 0 0C0.0266667 0 0.0533333 0 0.08 0"/>
		<path fill="none" stroke="black" stroke-width="0.039999999" stroke-miterlimit="4" transform="matrix(0 39.9818 39.9818 0 956.025 874.656)" d="M0 0.06C0.0266667 0.06 0.0533333 0.06 0.08 0.06"/>
		<path fill="none" stroke="black" stroke-width="0.039999999" stroke-miterlimit="4" transform="matrix(0 39.9818 39.9818 0 956.025 914.547)" d="M0 0.06C0.0266667 0.06 0.0533333 0.06 0.08 0.06"/>
		<path fill="white" transform="matrix(0 39.9818 39.9818 0 956.025 954.438)" d="M0 0C0.0266667 0 0.0533333 0 0.08 0C0.08 0.04 0.08 0.08 0.08 0.12C0.0533333 0.12 0.0266667 0.12 0 0.12"/>
		<path fill="none" stroke="black" stroke-width="0.0099999998" stroke-miterlimit="4" transform="matrix(0 39.9818 39.9818 0 956.025 954.438)" d="M0 0C0.0266667 0 0.0533333 0 0.08 0C0.08 0.04 0.08 0.08 0.08 0.12C0.0533333 0.12 0.0266667 0.12 0 0.12"/>
		<path fill="none" stroke="black" stroke-width="0.039999999" stroke-miterlimit="4" transform="matrix(0 39.9818 39.9818 0 956.025 954.438)" d="M0 0.06C0.0266667 0.06 0.0533333 0.06 0.08 0.06"/>
		<path fill="white" transform="matrix(0 -39.9818 -39.9818 -0 323.975 957)" d="M0 0C0.71117 0 1.42234 0 2.13351 0C2.13351 0.04 2.13351 0.08 2.13351 0.12C1.42234 0.12 0.71117 0.12 0 0.12C0 0.08 0 0.04 0 0C0 0 0 0 0 0L0 0Z"/>
		<path fill="none" stroke="black" stroke-width="0.010000001" stroke-miterlimit="4" transform="matrix(0 -39.9818 -39.9818 -0 323.975 957)" d="M0 0C0.71117 0 1.42234 0 2.13351 0"/>
		<path fill="none" stroke="black" stroke-width="0.010000001" stroke-miterlimit="4" transform="matrix(0 -39.9818 -39.9818 -0 323.975 957)" d="M2.13351 0.12C1.42234 0.12 0.71117 0.12 0 0.12"/>
		<path fill="none" stroke="black" stroke-width="0.010000001" stroke-miterlimit="4" transform="matrix(0 -39.9818 -39.9818 -0 323.975 957)" d="M0 0.06C0.71117 0.06 1.42234 0.06 2.13351 0.06"/>
		<path fill="white" transform="matrix(0 -39.9818 -39.9818 -0 323.975 957)" d="M0.08 0.12C0.0533333 0.12 0.0266667 0.12 0 0.12C0 0.08 0 0.04 0 0C0.0266667 0 0.0533333 0 0.08 0"/>
		<path fill="none" stroke="black" stroke-width="0.0099999998" stroke-miterlimit="4" transform="matrix(0 -39.9818 -39.9818 -0 323.975 957)" d="M0.08 0.12C0.0533333 0.12 0.0266667 0.12 0 0.12C0 0.08 0 0.04 0 0C0.0266667 0 0.0533333 0 0.08 0"/>
		<path fill="none" stroke="black" stroke-width="0.039999999" stroke-miterlimit="4" transform="matrix(0 -39.9818 -39.9818 -0 323.975 957)" d="M0 0.06C0.0266667 0.06 0.0533333 0.06 0.08 0.06"/>
		<path fill="none" stroke="black" stroke-width="0.039999999" stroke-miterlimit="4" transform="matrix(0 -39.9818 -39.9818 -0 323.975 915.948)" d="M0 0.06C0.0266667 0.06 0.0533333 0.06 0.08 0.06"/>
		<path fill="white" transform="matrix(0 -39.9818 -39.9818 -0 323.975 874.897)" d="M0 0C0.0266667 0 0.0533333 0 0.08 0C0.08 0.04 0.08 0.08 0.08 0.12C0.0533333 0.12 0.0266667 0.12 0 0.12"/>
		<path fill="none" stroke="black" stroke-width="0.0099999998" stroke-miterlimit="4" transform="matrix(0 -39.9818 -39.9818 -0 323.975 874.897)" d="M0 0C0.0266667 0 0.0533333 0 0.08 0C0.08 0.04 0.08 0.08 0.08 0.12C0.0533333 0.12 0.0266667 0.12 0 0.12"/>
		<path fill="none" stroke="black" stroke-width="0.039999999" stroke-miterlimit="4" transform="matrix(0 -39.9818 -39.9818 -0 323.975 874.897)" d="M0 0.06C0.0266667 0.06 0.0533333 0.06 0.08 0.06"/>
		<text fill="white" transform="translate(562.467 878.887)" font-size="21.999998" font-family="Roboto" x="0, 15.125, 27.244324, 34.436478, 46.781219, 58.900543, 64.246353, 69.592163, 81.990585, 87.336395, 99.477188, " y="20, ">
				Outbuilding
		</text>
		<text fill="white" transform="translate(503.696 903.887)" font-size="21.999998" font-family="Roboto" x="0, 12.355484, 24.710968, 30.507629, 42.863113, 55.218597, 60.671753, 79.951019, 88.01268, 93.465836, 100.99077, 113.34625, 125.70174, 131.4984, 143.85388, 156.20937, 161.66252, 173.3954, 178.84856, 191.20404, 197.0007, 209.35619, 221.71167, " y="20, ">
				61.97 m² (15.81 × 3.92)
		</text>
		<text fill="white" transform="translate(562.467 878.978)" font-size="21.999998" font-family="Roboto" x="0, 15.125, 27.244324, 34.436478, 46.781219, 58.900543, 64.246353, 69.592163, 81.990585, 87.336395, 99.477188, " y="20, ">
				Outbuilding
		</text>
		<text fill="white" transform="translate(503.696 903.978)" font-size="21.999998" font-family="Roboto" x="0, 12.355484, 24.710968, 30.507629, 42.863113, 55.218597, 60.671753, 79.951019, 88.01268, 93.465836, 100.99077, 113.34625, 125.70174, 131.4984, 143.85388, 156.20937, 161.66252, 173.3954, 178.84856, 191.20404, 197.0007, 209.35619, 221.71167, " y="20, ">
				61.97 m² (15.81 × 3.92)
		</text>
		<text fill="white" transform="translate(562.467 879.069)" font-size="21.999998" font-family="Roboto" x="0, 15.125, 27.244324, 34.436478, 46.781219, 58.900543, 64.246353, 69.592163, 81.990585, 87.336395, 99.477188, " y="20, ">
				Outbuilding
		</text>
		<text fill="white" transform="translate(503.696 904.069)" font-size="21.999998" font-family="Roboto" x="0, 12.355484, 24.710968, 30.507629, 42.863113, 55.218597, 60.671753, 79.951019, 88.01268, 93.465836, 100.99077, 113.34625, 125.70174, 131.4984, 143.85388, 156.20937, 161.66252, 173.3954, 178.84856, 191.20404, 197.0007, 209.35619, 221.71167, " y="20, ">
				61.97 m² (15.81 × 3.92)
		</text>
		<text fill="white" transform="translate(562.558 878.887)" font-size="21.999998" font-family="Roboto" x="0, 15.125, 27.244324, 34.436478, 46.781219, 58.900543, 64.246353, 69.592163, 81.990585, 87.336395, 99.477188, " y="20, ">
				Outbuilding
		</text>
		<text fill="white" transform="translate(503.787 903.887)" font-size="21.999998" font-family="Roboto" x="0, 12.355484, 24.710968, 30.507629, 42.863113, 55.218597, 60.671753, 79.951019, 88.01268, 93.465836, 100.99077, 113.34625, 125.70174, 131.4984, 143.85388, 156.20937, 161.66252, 173.3954, 178.84856, 191.20404, 197.0007, 209.35619, 221.71167, " y="20, ">
				61.97 m² (15.81 × 3.92)
		</text>
		<text fill="white" transform="translate(562.558 879.069)" font-size="21.999998" font-family="Roboto" x="0, 15.125, 27.244324, 34.436478, 46.781219, 58.900543, 64.246353, 69.592163, 81.990585, 87.336395, 99.477188, " y="20, ">
				Outbuilding
		</text>
		<text fill="white" transform="translate(503.787 904.069)" font-size="21.999998" font-family="Roboto" x="0, 12.355484, 24.710968, 30.507629, 42.863113, 55.218597, 60.671753, 79.951019, 88.01268, 93.465836, 100.99077, 113.34625, 125.70174, 131.4984, 143.85388, 156.20937, 161.66252, 173.3954, 178.84856, 191.20404, 197.0007, 209.35619, 221.71167, " y="20, ">
				61.97 m² (15.81 × 3.92)
		</text>
		<text fill="white" transform="translate(562.649 878.887)" font-size="21.999998" font-family="Roboto" x="0, 15.125, 27.244324, 34.436478, 46.781219, 58.900543, 64.246353, 69.592163, 81.990585, 87.336395, 99.477188, " y="20, ">
				Outbuilding
		</text>
		<text fill="white" transform="translate(503.878 903.887)" font-size="21.999998" font-family="Roboto" x="0, 12.355484, 24.710968, 30.507629, 42.863113, 55.218597, 60.671753, 79.951019, 88.01268, 93.465836, 100.99077, 113.34625, 125.70174, 131.4984, 143.85388, 156.20937, 161.66252, 173.3954, 178.84856, 191.20404, 197.0007, 209.35619, 221.71167, " y="20, ">
				61.97 m² (15.81 × 3.92)
		</text>
		<text fill="white" transform="translate(562.649 878.978)" font-size="21.999998" font-family="Roboto" x="0, 15.125, 27.244324, 34.436478, 46.781219, 58.900543, 64.246353, 69.592163, 81.990585, 87.336395, 99.477188, " y="20, ">
				Outbuilding
		</text>
		<text fill="white" transform="translate(503.878 903.978)" font-size="21.999998" font-family="Roboto" x="0, 12.355484, 24.710968, 30.507629, 42.863113, 55.218597, 60.671753, 79.951019, 88.01268, 93.465836, 100.99077, 113.34625, 125.70174, 131.4984, 143.85388, 156.20937, 161.66252, 173.3954, 178.84856, 191.20404, 197.0007, 209.35619, 221.71167, " y="20, ">
				61.97 m² (15.81 × 3.92)
		</text>
		<text fill="white" transform="translate(562.649 879.069)" font-size="21.999998" font-family="Roboto" x="0, 15.125, 27.244324, 34.436478, 46.781219, 58.900543, 64.246353, 69.592163, 81.990585, 87.336395, 99.477188, " y="20, ">
				Outbuilding
		</text>
		<text fill="white" transform="translate(503.878 904.069)" font-size="21.999998" font-family="Roboto" x="0, 12.355484, 24.710968, 30.507629, 42.863113, 55.218597, 60.671753, 79.951019, 88.01268, 93.465836, 100.99077, 113.34625, 125.70174, 131.4984, 143.85388, 156.20937, 161.66252, 173.3954, 178.84856, 191.20404, 197.0007, 209.35619, 221.71167, " y="20, ">
				61.97 m² (15.81 × 3.92)
		</text>
		<text fill="#3F3F3F" transform="translate(562.558 878.978)" font-size="21.999998" font-family="Roboto" x="0, 15.125, 27.244324, 34.436478, 46.781219, 58.900543, 64.246353, 69.592163, 81.990585, 87.336395, 99.477188, " y="20, ">
				Outbuilding
		</text>
		<text fill="#3F3F3F" transform="translate(503.787 903.978)" font-size="21.999998" font-family="Roboto" x="0, 12.355484, 24.710968, 30.507629, 42.863113, 55.218597, 60.671753, 79.951019, 88.01268, 93.465836, 100.99077, 113.34625, 125.70174, 131.4984, 143.85388, 156.20937, 161.66252, 173.3954, 178.84856, 191.20404, 197.0007, 209.35619, 221.71167, " y="20, ">
				61.97 m² (15.81 × 3.92)
		</text>
	</g>
	<text font-size="13" font-family="Roboto" x="51.023621, 58.780457, 68.054382, 71.590027, 79.308777, 82.533386, 89.718933, 96.3078, 105.25165, 114.1955, 122.20624, 125.43085, 133.63202, 140.75409, 149.23456, 158.50848, 161.73309, 165.26874, 172.98749, 176.2121, 184.41327, 192.42401, 201.22821, 209.50555, 213.0412, 221.57245, 228.96112, 237.49237, 240.71698, 252.25067, 255.60223, 263.35907, 272.633, 281.57684, 290.00653, 297.50946, 300.73407, 311.99481, 320.47528, 328.48602, 336.49677, 344.97723, 354.06708, 361.92548, 369.73309, 372.9577, 381.90155, 389.0871, 392.31171, 400.79218, 409.88837, 417.69598, 420.92059, 429.07733, 432.61298, 441.8869, 449.77069, 453.19843, 456.42303, 464.14178, 471.53046, 480.80438, 488.52313, 497.46698, 505.66815, 509.31805, 517.79852, 521.02313, 529.55438, 533.09003, 540.80878, 549.2702, 556.39227, 564.87274, 568.40839, 579.758, 587.47675, 590.70135, 599.18182, 608.27802, 616.08563, 619.31024, 630.57098, 639.05145, 647.06219, 655.07294, 663.55341, 672.64325, 680.50165, 688.30927, 691.53387, 695.06952, 704.34344, 712.80487, 719.46356, 727.89325, 736.4245, 739.96014, 749.23407, 758.08905, 760.64716, 763.87177, 775.40546, 778.75702, 786.51385, 795.78778, 804.73163, 813.16132, 820.66425, 823.88885, 830.89032, 834.42596, 845.77557, 849.12714, 856.38251, 864.04413, 871.80096, 875.33661, 884.28046, 893.55438, 896.11249, 899.3371, 907.05585, 914.71747, 922.4743, 926.00995, 933.7287, 939.83514, 948.24579, 956.52313, 964.10223, 973.04608, 980.75214, 988.55975, 991.78436, 1000.7282, 1009.0182, 1017.4987, 1024.5002, 1027.8518, 1035.7102, 1043.5178, 1046.7424, 1055.6863, 1063.697, 1066.9216, 1075.3323, 1083.7937, 1092.2551, 1100.6848, 1108.6956, 1117.1062, 1125.5676, 1133.3752, 1136.5999, 1145.5437, " y="1850.9763, ">
			THIS FLOOR PLAN IS PROVIDED WITHOUT WARRANTY OF ANY KIND. SENSOPIA DISCLAIMS ANY WARRANTY INCLUDING, WITHOUT LIMITATION, SATISFACTORY QUALITY OR ACCURACY OF
	</text>
	<text font-size="13" font-family="Roboto" x="51.023682, 59.554932, 63.090576, 74.440186, 81.828857, 91.102783, 98.821533, 102.35718, 111.30103, 120.57495, 128.2937, " y="1865.9763, ">
			DIMENSIONS.
	</text>
</svg>
